<?xml version="1.0" encoding="UTF-8" standalone="no"?><svg xmlns="http://www.w3.org/2000/svg" xmlns:xlink="http://www.w3.org/1999/xlink" contentScriptType="application/ecmascript" contentStyleType="text/css" height="409px" preserveAspectRatio="none" style="width:582px;height:409px;background:#FFFFFF;" version="1.1" viewBox="0 0 582 409" width="582px" zoomAndPan="magnify"><defs><filter height="300%" id="f1jnfy2qifsll8" width="300%" x="-1" y="-1"><feGaussianBlur result="blurOut" stdDeviation="2.0"/><feColorMatrix in="blurOut" result="blurOut2" type="matrix" values="0 0 0 0 0 0 0 0 0 0 0 0 0 0 0 0 0 0 .4 0"/><feOffset dx="4.0" dy="4.0" in="blurOut2" result="blurOut3"/><feBlend in="SourceGraphic" in2="blurOut3" mode="normal"/></filter></defs><g><!--MD5=[02e4b9b7573f1156f41e60aa5b4e25a4]
class Company--><rect codeLine="3" fill="#FEFECE" filter="url(#f1jnfy2qifsll8)" height="61.8359" id="Company" style="stroke:#A80036;stroke-width:1.5;" width="85" x="307.5" y="7"/><ellipse cx="322.5" cy="23" fill="#ADD1B2" rx="11" ry="11" style="stroke:#A80036;stroke-width:1.0;"/><path d="M324.5,19.5 Q324.7031,19 324.9375,18.75 Q325.1719,18.5 325.4375,18.5 Q325.9063,18.5 326.2031,18.7813 Q326.5,19.0625 326.5,19.7188 L326.5,21.2813 Q326.5,21.9375 326.2188,22.2188 Q325.9375,22.5 325.5,22.5 Q325.1094,22.5 324.8594,22.3281 Q324.6094,22.1563 324.5,21.7031 Q324.4531,21.3906 324.2813,21.2188 Q323.9688,20.8906 323.4063,20.7031 Q322.8438,20.5 322.2813,20.5 Q321.5781,20.5 320.9844,20.7813 Q320.4063,21.0625 319.9531,21.6875 Q319.5,22.3125 319.5,23.1719 L319.5,24.0938 Q319.5,25.125 320.3438,25.8125 Q321.1875,26.5 322.6875,26.5 Q323.5781,26.5 324.2031,26.2969 Q324.5625,26.1875 324.9688,25.8281 Q325.2344,25.625 325.375,25.5625 Q325.5156,25.5 325.6875,25.5 Q326.0156,25.5 326.25,25.7656 Q326.5,26.0156 326.5,26.375 Q326.5,26.7188 326.1563,27.125 Q325.6563,27.7188 324.8594,28.0469 Q323.8125,28.5 322.5313,28.5 Q321.0313,28.5 319.8281,27.9063 Q318.8594,27.4375 318.1719,26.4219 Q317.5,25.4063 317.5,24.2031 L317.5,23.1094 Q317.5,21.8594 318.0938,20.7656 Q318.7031,19.6719 319.75,19.0938 Q320.8125,18.5 322,18.5 Q322.7188,18.5 323.3438,18.75 Q323.9688,19 324.5,19.5 Z " fill="#000000"/><text fill="#000000" font-family="sans-serif" font-size="12" lengthAdjust="spacing" textLength="53" x="336.5" y="27.9102">Company</text><line style="stroke:#A80036;stroke-width:1.5;" x1="308.5" x2="391.5" y1="39" y2="39"/><text fill="#000000" font-family="sans-serif" font-size="11" lengthAdjust="spacing" textLength="55" x="313.5" y="54.4189">designation</text><line style="stroke:#A80036;stroke-width:1.5;" x1="308.5" x2="391.5" y1="60.8359" y2="60.8359"/><!--MD5=[de60e6d4f424ae4d0522096f76a59010]
class VaccinationCenter--><rect codeLine="7" fill="#FEFECE" filter="url(#f1jnfy2qifsll8)" height="186.3594" id="VaccinationCenter" style="stroke:#A80036;stroke-width:1.5;" width="134" x="283" y="209"/><ellipse cx="298.9" cy="225" fill="#ADD1B2" rx="11" ry="11" style="stroke:#A80036;stroke-width:1.0;"/><path d="M300.9,221.5 Q301.1031,221 301.3375,220.75 Q301.5719,220.5 301.8375,220.5 Q302.3063,220.5 302.6031,220.7813 Q302.9,221.0625 302.9,221.7188 L302.9,223.2813 Q302.9,223.9375 302.6188,224.2188 Q302.3375,224.5 301.9,224.5 Q301.5094,224.5 301.2594,224.3281 Q301.0094,224.1563 300.9,223.7031 Q300.8531,223.3906 300.6813,223.2188 Q300.3688,222.8906 299.8063,222.7031 Q299.2438,222.5 298.6813,222.5 Q297.9781,222.5 297.3844,222.7813 Q296.8063,223.0625 296.3531,223.6875 Q295.9,224.3125 295.9,225.1719 L295.9,226.0938 Q295.9,227.125 296.7438,227.8125 Q297.5875,228.5 299.0875,228.5 Q299.9781,228.5 300.6031,228.2969 Q300.9625,228.1875 301.3688,227.8281 Q301.6344,227.625 301.775,227.5625 Q301.9156,227.5 302.0875,227.5 Q302.4156,227.5 302.65,227.7656 Q302.9,228.0156 302.9,228.375 Q302.9,228.7188 302.5563,229.125 Q302.0563,229.7188 301.2594,230.0469 Q300.2125,230.5 298.9313,230.5 Q297.4313,230.5 296.2281,229.9063 Q295.2594,229.4375 294.5719,228.4219 Q293.9,227.4063 293.9,226.2031 L293.9,225.1094 Q293.9,223.8594 294.4938,222.7656 Q295.1031,221.6719 296.15,221.0938 Q297.2125,220.5 298.4,220.5 Q299.1188,220.5 299.7438,220.75 Q300.3688,221 300.9,221.5 Z " fill="#000000"/><text fill="#000000" font-family="sans-serif" font-size="12" lengthAdjust="spacing" textLength="100" x="313.1" y="229.9102">VaccinationCenter</text><line style="stroke:#A80036;stroke-width:1.5;" x1="284" x2="416" y1="241" y2="241"/><text fill="#000000" font-family="sans-serif" font-size="11" lengthAdjust="spacing" textLength="26" x="289" y="256.4189">name</text><text fill="#000000" font-family="sans-serif" font-size="11" lengthAdjust="spacing" textLength="40" x="289" y="270.2549">address</text><text fill="#000000" font-family="sans-serif" font-size="11" lengthAdjust="spacing" textLength="67" x="289" y="284.0908">phoneNumber</text><text fill="#000000" font-family="sans-serif" font-size="11" lengthAdjust="spacing" textLength="24" x="289" y="297.9268">email</text><text fill="#000000" font-family="sans-serif" font-size="11" lengthAdjust="spacing" textLength="16" x="289" y="311.7627">fax</text><text fill="#000000" font-family="sans-serif" font-size="11" lengthAdjust="spacing" textLength="39" x="289" y="325.5986">website</text><text fill="#000000" font-family="sans-serif" font-size="11" lengthAdjust="spacing" textLength="122" x="289" y="339.4346">openingAndClosingHours</text><text fill="#000000" font-family="sans-serif" font-size="11" lengthAdjust="spacing" textLength="57" x="289" y="353.2705">slotDuration</text><text fill="#000000" font-family="sans-serif" font-size="11" lengthAdjust="spacing" textLength="100" x="289" y="367.1064">maxVaccinesPerSlot</text><text fill="#000000" font-family="sans-serif" font-size="11" lengthAdjust="spacing" textLength="103" x="289" y="380.9424">numberOfVaccinated</text><line style="stroke:#A80036;stroke-width:1.5;" x1="284" x2="416" y1="387.3594" y2="387.3594"/><!--MD5=[f8e092794d52bf9a252466252ae7bd1c]
class System--><rect codeLine="20" fill="#FEFECE" filter="url(#f1jnfy2qifsll8)" height="48" id="System" style="stroke:#A80036;stroke-width:1.5;" width="73" x="495.5" y="14"/><ellipse cx="510.5" cy="30" fill="#ADD1B2" rx="11" ry="11" style="stroke:#A80036;stroke-width:1.0;"/><path d="M512.5,26.5 Q512.7031,26 512.9375,25.75 Q513.1719,25.5 513.4375,25.5 Q513.9063,25.5 514.2031,25.7813 Q514.5,26.0625 514.5,26.7188 L514.5,28.2813 Q514.5,28.9375 514.2188,29.2188 Q513.9375,29.5 513.5,29.5 Q513.1094,29.5 512.8594,29.3281 Q512.6094,29.1563 512.5,28.7031 Q512.4531,28.3906 512.2813,28.2188 Q511.9688,27.8906 511.4063,27.7031 Q510.8438,27.5 510.2813,27.5 Q509.5781,27.5 508.9844,27.7813 Q508.4063,28.0625 507.9531,28.6875 Q507.5,29.3125 507.5,30.1719 L507.5,31.0938 Q507.5,32.125 508.3438,32.8125 Q509.1875,33.5 510.6875,33.5 Q511.5781,33.5 512.2031,33.2969 Q512.5625,33.1875 512.9688,32.8281 Q513.2344,32.625 513.375,32.5625 Q513.5156,32.5 513.6875,32.5 Q514.0156,32.5 514.25,32.7656 Q514.5,33.0156 514.5,33.375 Q514.5,33.7188 514.1563,34.125 Q513.6563,34.7188 512.8594,35.0469 Q511.8125,35.5 510.5313,35.5 Q509.0313,35.5 507.8281,34.9063 Q506.8594,34.4375 506.1719,33.4219 Q505.5,32.4063 505.5,31.2031 L505.5,30.1094 Q505.5,28.8594 506.0938,27.7656 Q506.7031,26.6719 507.75,26.0938 Q508.8125,25.5 510,25.5 Q510.7188,25.5 511.3438,25.75 Q511.9688,26 512.5,26.5 Z " fill="#000000"/><text fill="#000000" font-family="sans-serif" font-size="12" lengthAdjust="spacing" textLength="41" x="524.5" y="34.9102">System</text><line style="stroke:#A80036;stroke-width:1.5;" x1="496.5" x2="567.5" y1="46" y2="46"/><line style="stroke:#A80036;stroke-width:1.5;" x1="496.5" x2="567.5" y1="54" y2="54"/><!--MD5=[107cfa23aa516ff83d0cf17a6f9fe7ba]
class VaccineAdministration--><rect codeLine="22" fill="#FEFECE" filter="url(#f1jnfy2qifsll8)" height="103.3438" id="VaccineAdministration" style="stroke:#A80036;stroke-width:1.5;" width="154" x="7" y="250.5"/><ellipse cx="22" cy="266.5" fill="#ADD1B2" rx="11" ry="11" style="stroke:#A80036;stroke-width:1.0;"/><path d="M24,263 Q24.2031,262.5 24.4375,262.25 Q24.6719,262 24.9375,262 Q25.4063,262 25.7031,262.2813 Q26,262.5625 26,263.2188 L26,264.7813 Q26,265.4375 25.7188,265.7188 Q25.4375,266 25,266 Q24.6094,266 24.3594,265.8281 Q24.1094,265.6563 24,265.2031 Q23.9531,264.8906 23.7813,264.7188 Q23.4688,264.3906 22.9063,264.2031 Q22.3438,264 21.7813,264 Q21.0781,264 20.4844,264.2813 Q19.9063,264.5625 19.4531,265.1875 Q19,265.8125 19,266.6719 L19,267.5938 Q19,268.625 19.8438,269.3125 Q20.6875,270 22.1875,270 Q23.0781,270 23.7031,269.7969 Q24.0625,269.6875 24.4688,269.3281 Q24.7344,269.125 24.875,269.0625 Q25.0156,269 25.1875,269 Q25.5156,269 25.75,269.2656 Q26,269.5156 26,269.875 Q26,270.2188 25.6563,270.625 Q25.1563,271.2188 24.3594,271.5469 Q23.3125,272 22.0313,272 Q20.5313,272 19.3281,271.4063 Q18.3594,270.9375 17.6719,269.9219 Q17,268.9063 17,267.7031 L17,266.6094 Q17,265.3594 17.5938,264.2656 Q18.2031,263.1719 19.25,262.5938 Q20.3125,262 21.5,262 Q22.2188,262 22.8438,262.25 Q23.4688,262.5 24,263 Z " fill="#000000"/><text fill="#000000" font-family="sans-serif" font-size="12" lengthAdjust="spacing" textLength="122" x="36" y="271.4102">VaccineAdministration</text><line style="stroke:#A80036;stroke-width:1.5;" x1="8" x2="160" y1="282.5" y2="282.5"/><text fill="#000000" font-family="sans-serif" font-size="11" lengthAdjust="spacing" textLength="99" x="13" y="297.9189">timeOfAdministration</text><text fill="#000000" font-family="sans-serif" font-size="11" lengthAdjust="spacing" textLength="17" x="13" y="311.7549">slot</text><text fill="#000000" font-family="sans-serif" font-size="11" lengthAdjust="spacing" textLength="62" x="13" y="325.5908">waitingRoom</text><text fill="#000000" font-family="sans-serif" font-size="11" lengthAdjust="spacing" textLength="71" x="13" y="339.4268">recoveryRoom</text><line style="stroke:#A80036;stroke-width:1.5;" x1="8" x2="160" y1="345.8438" y2="345.8438"/><!--MD5=[eebe9b198877275d05dd12630ed9e401]
link Company to VaccinationCenter--><path codeLine="28" d="M350,69.05 C350,102.99 350,159.87 350,208.8 " fill="none" id="Company-VaccinationCenter" style="stroke:#A80036;stroke-width:1.0;"/><polygon fill="#000000" points="355,144.1758,357.9389,135.1307,352.0611,135.1307,355,144.1758" style="stroke:#000000;stroke-width:1.0;"/><text fill="#000000" font-family="sans-serif" font-size="13" lengthAdjust="spacing" textLength="53" x="364" y="144.4951">manages</text><text fill="#000000" font-family="sans-serif" font-size="13" lengthAdjust="spacing" textLength="7" x="342.3109" y="90.2838">1</text><text fill="#000000" font-family="sans-serif" font-size="13" lengthAdjust="spacing" textLength="5" x="344.8008" y="198.2304">*</text><!--MD5=[a2a194d3aa0c5b34ec916a16bebf9a1a]
link Company to System--><path codeLine="29" d="M392.67,38 C423.88,38 465.76,38 495.44,38 " fill="none" id="Company-System" style="stroke:#A80036;stroke-width:1.0;"/><polygon fill="#000000" points="420,26.1758,410.9549,23.2369,410.9549,29.1147,420,26.1758" style="stroke:#000000;stroke-width:1.0;"/><text fill="#000000" font-family="sans-serif" font-size="13" lengthAdjust="spacing" textLength="53" x="424" y="31.4951">manages</text><text fill="#000000" font-family="sans-serif" font-size="13" lengthAdjust="spacing" textLength="7" x="400.6055" y="34.1644">1</text><text fill="#000000" font-family="sans-serif" font-size="13" lengthAdjust="spacing" textLength="7" x="480.5532" y="33.9547">1</text><!--MD5=[6bb3ec5f470f72ee4f54b0838c98c655]
link VaccineAdministration to VaccinationCenter--><path codeLine="30" d="M161.3,302 C199.8,302 245.9,302 282.9,302 " fill="none" id="VaccineAdministration-VaccinationCenter" style="stroke:#A80036;stroke-width:1.0;"/><polygon fill="#000000" points="188.5,290.1758,179.4549,287.2369,179.4549,293.1147,188.5,290.1758" style="stroke:#000000;stroke-width:1.0;"/><text fill="#000000" font-family="sans-serif" font-size="13" lengthAdjust="spacing" textLength="72" x="192.5" y="295.4951">performed at</text><text fill="#000000" font-family="sans-serif" font-size="13" lengthAdjust="spacing" textLength="7" x="169.0013" y="298.733">1</text><text fill="#000000" font-family="sans-serif" font-size="13" lengthAdjust="spacing" textLength="7" x="268.1781" y="298.6197">1</text><!--MD5=[3cac25f48ed55b1d6a794a94263cb165]
@startuml
'https://plantuml.com/class-diagram

class Company{
    designation
}

class VaccinationCenter{
    name
    address
    phoneNumber
    email
    fax
    website
    openingAndClosingHours
    slotDuration
    maxVaccinesPerSlot
    numberOfVaccinated
}

class System

class VaccineAdministration{
    timeOfAdministration
    slot
    waitingRoom
    recoveryRoom
}
Company "1" - - - "*" VaccinationCenter: > manages
Company "1" - "1" System: > manages
VaccineAdministration "1" - "1" VaccinationCenter: > performed at
@enduml

@startuml

class Company{
    designation
}

class VaccinationCenter{
    name
    address
    phoneNumber
    email
    fax
    website
    openingAndClosingHours
    slotDuration
    maxVaccinesPerSlot
    numberOfVaccinated
}

class System

class VaccineAdministration{
    timeOfAdministration
    slot
    waitingRoom
    recoveryRoom
}
Company "1" - - - "*" VaccinationCenter: > manages
Company "1" - "1" System: > manages
VaccineAdministration "1" - "1" VaccinationCenter: > performed at
@enduml

PlantUML version 1.2022.1(Tue Feb 01 18:19:58 GMT 2022)
(GPL source distribution)
Java Runtime: OpenJDK Runtime Environment
JVM: OpenJDK 64-Bit Server VM
Default Encoding: Cp1252
Language: pt
Country: PT
--></g></svg>