<?xml version="1.0" encoding="UTF-8" standalone="no"?><svg xmlns="http://www.w3.org/2000/svg" xmlns:xlink="http://www.w3.org/1999/xlink" contentScriptType="application/ecmascript" contentStyleType="text/css" height="363px" preserveAspectRatio="none" style="width:544px;height:363px;background:#FFFFFF;" version="1.1" viewBox="0 0 544 363" width="544px" zoomAndPan="magnify"><defs><filter height="300%" id="fue2i60ish4v9" width="300%" x="-1" y="-1"><feGaussianBlur result="blurOut" stdDeviation="2.0"/><feColorMatrix in="blurOut" result="blurOut2" type="matrix" values="0 0 0 0 0 0 0 0 0 0 0 0 0 0 0 0 0 0 .4 0"/><feOffset dx="4.0" dy="4.0" in="blurOut2" result="blurOut3"/><feBlend in="SourceGraphic" in2="blurOut3" mode="normal"/></filter></defs><g><!--MD5=[7421f545a0d8420c5bec41e74b387d9c]
class Employee--><rect codeLine="4" fill="#FEFECE" filter="url(#fue2i60ish4v9)" height="89.5078" id="Employee" style="stroke:#A80036;stroke-width:1.5;" width="87" x="190.3002" y="133"/><ellipse cx="205.3002" cy="149" fill="#ADD1B2" rx="11" ry="11" style="stroke:#A80036;stroke-width:1.0;"/><path d="M207.3002,145.5 Q207.5033,145 207.7377,144.75 Q207.9721,144.5 208.2377,144.5 Q208.7064,144.5 209.0033,144.7813 Q209.3002,145.0625 209.3002,145.7188 L209.3002,147.2813 Q209.3002,147.9375 209.0189,148.2188 Q208.7377,148.5 208.3002,148.5 Q207.9096,148.5 207.6596,148.3281 Q207.4096,148.1563 207.3002,147.7031 Q207.2533,147.3906 207.0814,147.2188 Q206.7689,146.8906 206.2064,146.7031 Q205.6439,146.5 205.0814,146.5 Q204.3783,146.5 203.7846,146.7813 Q203.2064,147.0625 202.7533,147.6875 Q202.3002,148.3125 202.3002,149.1719 L202.3002,150.0938 Q202.3002,151.125 203.1439,151.8125 Q203.9877,152.5 205.4877,152.5 Q206.3783,152.5 207.0033,152.2969 Q207.3627,152.1875 207.7689,151.8281 Q208.0346,151.625 208.1752,151.5625 Q208.3158,151.5 208.4877,151.5 Q208.8158,151.5 209.0502,151.7656 Q209.3002,152.0156 209.3002,152.375 Q209.3002,152.7188 208.9564,153.125 Q208.4564,153.7188 207.6596,154.0469 Q206.6127,154.5 205.3314,154.5 Q203.8314,154.5 202.6283,153.9063 Q201.6596,153.4375 200.9721,152.4219 Q200.3002,151.4063 200.3002,150.2031 L200.3002,149.1094 Q200.3002,147.8594 200.8939,146.7656 Q201.5033,145.6719 202.5502,145.0938 Q203.6127,144.5 204.8002,144.5 Q205.5189,144.5 206.1439,144.75 Q206.7689,145 207.3002,145.5 Z " fill="#000000"/><text fill="#000000" font-family="sans-serif" font-size="12" lengthAdjust="spacing" textLength="55" x="219.3002" y="153.9102">Employee</text><line style="stroke:#A80036;stroke-width:1.5;" x1="191.3002" x2="276.3002" y1="165" y2="165"/><text fill="#000000" font-family="sans-serif" font-size="11" lengthAdjust="spacing" textLength="31" x="196.3002" y="180.4189">userID</text><text fill="#000000" font-family="sans-serif" font-size="11" lengthAdjust="spacing" textLength="26" x="196.3002" y="194.2549">name</text><text fill="#000000" font-family="sans-serif" font-size="11" lengthAdjust="spacing" textLength="50" x="196.3002" y="208.0908">password</text><line style="stroke:#A80036;stroke-width:1.5;" x1="191.3002" x2="276.3002" y1="214.5078" y2="214.5078"/><!--MD5=[4ec4fd7d42941e93e6f5672a014a0bc6]
class AdministratorDGS--><rect codeLine="10" fill="#FEFECE" filter="url(#fue2i60ish4v9)" height="48" id="AdministratorDGS" style="stroke:#A80036;stroke-width:1.5;" width="131" x="168.3002" y="7"/><ellipse cx="183.3002" cy="23" fill="#ADD1B2" rx="11" ry="11" style="stroke:#A80036;stroke-width:1.0;"/><path d="M185.3002,19.5 Q185.5033,19 185.7377,18.75 Q185.9721,18.5 186.2377,18.5 Q186.7064,18.5 187.0033,18.7813 Q187.3002,19.0625 187.3002,19.7188 L187.3002,21.2813 Q187.3002,21.9375 187.0189,22.2188 Q186.7377,22.5 186.3002,22.5 Q185.9096,22.5 185.6596,22.3281 Q185.4096,22.1563 185.3002,21.7031 Q185.2533,21.3906 185.0814,21.2188 Q184.7689,20.8906 184.2064,20.7031 Q183.6439,20.5 183.0814,20.5 Q182.3783,20.5 181.7846,20.7813 Q181.2064,21.0625 180.7533,21.6875 Q180.3002,22.3125 180.3002,23.1719 L180.3002,24.0938 Q180.3002,25.125 181.1439,25.8125 Q181.9877,26.5 183.4877,26.5 Q184.3783,26.5 185.0033,26.2969 Q185.3627,26.1875 185.7689,25.8281 Q186.0346,25.625 186.1752,25.5625 Q186.3158,25.5 186.4877,25.5 Q186.8158,25.5 187.0502,25.7656 Q187.3002,26.0156 187.3002,26.375 Q187.3002,26.7188 186.9564,27.125 Q186.4564,27.7188 185.6596,28.0469 Q184.6127,28.5 183.3314,28.5 Q181.8314,28.5 180.6283,27.9063 Q179.6596,27.4375 178.9721,26.4219 Q178.3002,25.4063 178.3002,24.2031 L178.3002,23.1094 Q178.3002,21.8594 178.8939,20.7656 Q179.5033,19.6719 180.5502,19.0938 Q181.6127,18.5 182.8002,18.5 Q183.5189,18.5 184.1439,18.75 Q184.7689,19 185.3002,19.5 Z " fill="#000000"/><text fill="#000000" font-family="sans-serif" font-size="12" lengthAdjust="spacing" textLength="99" x="197.3002" y="27.9102">AdministratorDGS</text><line style="stroke:#A80036;stroke-width:1.5;" x1="169.3002" x2="298.3002" y1="39" y2="39"/><line style="stroke:#A80036;stroke-width:1.5;" x1="169.3002" x2="298.3002" y1="47" y2="47"/><!--MD5=[03960189e81aa2c066c762ffabbee709]
class Receptionist--><rect codeLine="11" fill="#FEFECE" filter="url(#fue2i60ish4v9)" height="48" id="Receptionist" style="stroke:#A80036;stroke-width:1.5;" width="101" x="19.3002" y="301"/><ellipse cx="34.3002" cy="317" fill="#ADD1B2" rx="11" ry="11" style="stroke:#A80036;stroke-width:1.0;"/><path d="M36.3002,313.5 Q36.5033,313 36.7377,312.75 Q36.9721,312.5 37.2377,312.5 Q37.7064,312.5 38.0033,312.7813 Q38.3002,313.0625 38.3002,313.7188 L38.3002,315.2813 Q38.3002,315.9375 38.0189,316.2188 Q37.7377,316.5 37.3002,316.5 Q36.9096,316.5 36.6596,316.3281 Q36.4096,316.1563 36.3002,315.7031 Q36.2533,315.3906 36.0814,315.2188 Q35.7689,314.8906 35.2064,314.7031 Q34.6439,314.5 34.0814,314.5 Q33.3783,314.5 32.7846,314.7813 Q32.2064,315.0625 31.7533,315.6875 Q31.3002,316.3125 31.3002,317.1719 L31.3002,318.0938 Q31.3002,319.125 32.1439,319.8125 Q32.9877,320.5 34.4877,320.5 Q35.3783,320.5 36.0033,320.2969 Q36.3627,320.1875 36.7689,319.8281 Q37.0346,319.625 37.1752,319.5625 Q37.3158,319.5 37.4877,319.5 Q37.8158,319.5 38.0502,319.7656 Q38.3002,320.0156 38.3002,320.375 Q38.3002,320.7188 37.9564,321.125 Q37.4564,321.7188 36.6596,322.0469 Q35.6127,322.5 34.3314,322.5 Q32.8314,322.5 31.6283,321.9063 Q30.6596,321.4375 29.9721,320.4219 Q29.3002,319.4063 29.3002,318.2031 L29.3002,317.1094 Q29.3002,315.8594 29.8939,314.7656 Q30.5033,313.6719 31.5502,313.0938 Q32.6127,312.5 33.8002,312.5 Q34.5189,312.5 35.1439,312.75 Q35.7689,313 36.3002,313.5 Z " fill="#000000"/><text fill="#000000" font-family="sans-serif" font-size="12" lengthAdjust="spacing" textLength="69" x="48.3002" y="321.9102">Receptionist</text><line style="stroke:#A80036;stroke-width:1.5;" x1="20.3002" x2="119.3002" y1="333" y2="333"/><line style="stroke:#A80036;stroke-width:1.5;" x1="20.3002" x2="119.3002" y1="341" y2="341"/><!--MD5=[a059576e163b46f56762f12600c49258]
class Nurse--><rect codeLine="12" fill="#FEFECE" filter="url(#fue2i60ish4v9)" height="48" id="Nurse" style="stroke:#A80036;stroke-width:1.5;" width="66" x="191.8002" y="301"/><ellipse cx="206.8002" cy="317" fill="#ADD1B2" rx="11" ry="11" style="stroke:#A80036;stroke-width:1.0;"/><path d="M208.8002,313.5 Q209.0033,313 209.2377,312.75 Q209.4721,312.5 209.7377,312.5 Q210.2064,312.5 210.5033,312.7813 Q210.8002,313.0625 210.8002,313.7188 L210.8002,315.2813 Q210.8002,315.9375 210.5189,316.2188 Q210.2377,316.5 209.8002,316.5 Q209.4096,316.5 209.1596,316.3281 Q208.9096,316.1563 208.8002,315.7031 Q208.7533,315.3906 208.5814,315.2188 Q208.2689,314.8906 207.7064,314.7031 Q207.1439,314.5 206.5814,314.5 Q205.8783,314.5 205.2846,314.7813 Q204.7064,315.0625 204.2533,315.6875 Q203.8002,316.3125 203.8002,317.1719 L203.8002,318.0938 Q203.8002,319.125 204.6439,319.8125 Q205.4877,320.5 206.9877,320.5 Q207.8783,320.5 208.5033,320.2969 Q208.8627,320.1875 209.2689,319.8281 Q209.5346,319.625 209.6752,319.5625 Q209.8158,319.5 209.9877,319.5 Q210.3158,319.5 210.5502,319.7656 Q210.8002,320.0156 210.8002,320.375 Q210.8002,320.7188 210.4564,321.125 Q209.9564,321.7188 209.1596,322.0469 Q208.1127,322.5 206.8314,322.5 Q205.3314,322.5 204.1283,321.9063 Q203.1596,321.4375 202.4721,320.4219 Q201.8002,319.4063 201.8002,318.2031 L201.8002,317.1094 Q201.8002,315.8594 202.3939,314.7656 Q203.0033,313.6719 204.0502,313.0938 Q205.1127,312.5 206.3002,312.5 Q207.0189,312.5 207.6439,312.75 Q208.2689,313 208.8002,313.5 Z " fill="#000000"/><text fill="#000000" font-family="sans-serif" font-size="12" lengthAdjust="spacing" textLength="34" x="220.8002" y="321.9102">Nurse</text><line style="stroke:#A80036;stroke-width:1.5;" x1="192.8002" x2="256.8002" y1="333" y2="333"/><line style="stroke:#A80036;stroke-width:1.5;" x1="192.8002" x2="256.8002" y1="341" y2="341"/><!--MD5=[da547346deef918ea16944ba046651ef]
class Administrator--><rect codeLine="13" fill="#FEFECE" filter="url(#fue2i60ish4v9)" height="48" id="Administrator" style="stroke:#A80036;stroke-width:1.5;" width="105" x="293.3002" y="301"/><ellipse cx="308.3002" cy="317" fill="#ADD1B2" rx="11" ry="11" style="stroke:#A80036;stroke-width:1.0;"/><path d="M310.3002,313.5 Q310.5033,313 310.7377,312.75 Q310.9721,312.5 311.2377,312.5 Q311.7064,312.5 312.0033,312.7813 Q312.3002,313.0625 312.3002,313.7188 L312.3002,315.2813 Q312.3002,315.9375 312.0189,316.2188 Q311.7377,316.5 311.3002,316.5 Q310.9096,316.5 310.6596,316.3281 Q310.4096,316.1563 310.3002,315.7031 Q310.2533,315.3906 310.0814,315.2188 Q309.7689,314.8906 309.2064,314.7031 Q308.6439,314.5 308.0814,314.5 Q307.3783,314.5 306.7846,314.7813 Q306.2064,315.0625 305.7533,315.6875 Q305.3002,316.3125 305.3002,317.1719 L305.3002,318.0938 Q305.3002,319.125 306.1439,319.8125 Q306.9877,320.5 308.4877,320.5 Q309.3783,320.5 310.0033,320.2969 Q310.3627,320.1875 310.7689,319.8281 Q311.0346,319.625 311.1752,319.5625 Q311.3158,319.5 311.4877,319.5 Q311.8158,319.5 312.0502,319.7656 Q312.3002,320.0156 312.3002,320.375 Q312.3002,320.7188 311.9564,321.125 Q311.4564,321.7188 310.6596,322.0469 Q309.6127,322.5 308.3314,322.5 Q306.8314,322.5 305.6283,321.9063 Q304.6596,321.4375 303.9721,320.4219 Q303.3002,319.4063 303.3002,318.2031 L303.3002,317.1094 Q303.3002,315.8594 303.8939,314.7656 Q304.5033,313.6719 305.5502,313.0938 Q306.6127,312.5 307.8002,312.5 Q308.5189,312.5 309.1439,312.75 Q309.7689,313 310.3002,313.5 Z " fill="#000000"/><text fill="#000000" font-family="sans-serif" font-size="12" lengthAdjust="spacing" textLength="73" x="322.3002" y="321.9102">Administrator</text><line style="stroke:#A80036;stroke-width:1.5;" x1="294.3002" x2="397.3002" y1="333" y2="333"/><line style="stroke:#A80036;stroke-width:1.5;" x1="294.3002" x2="397.3002" y1="341" y2="341"/><!--MD5=[5d2bdee92db0d01b75732190da037553]
class Coordinator--><rect codeLine="14" fill="#FEFECE" filter="url(#fue2i60ish4v9)" height="48" id="Coordinator" style="stroke:#A80036;stroke-width:1.5;" width="97" x="433.3002" y="301"/><ellipse cx="448.3002" cy="317" fill="#ADD1B2" rx="11" ry="11" style="stroke:#A80036;stroke-width:1.0;"/><path d="M450.3002,313.5 Q450.5033,313 450.7377,312.75 Q450.9721,312.5 451.2377,312.5 Q451.7064,312.5 452.0033,312.7813 Q452.3002,313.0625 452.3002,313.7188 L452.3002,315.2813 Q452.3002,315.9375 452.0189,316.2188 Q451.7377,316.5 451.3002,316.5 Q450.9096,316.5 450.6596,316.3281 Q450.4096,316.1563 450.3002,315.7031 Q450.2533,315.3906 450.0814,315.2188 Q449.7689,314.8906 449.2064,314.7031 Q448.6439,314.5 448.0814,314.5 Q447.3783,314.5 446.7846,314.7813 Q446.2064,315.0625 445.7533,315.6875 Q445.3002,316.3125 445.3002,317.1719 L445.3002,318.0938 Q445.3002,319.125 446.1439,319.8125 Q446.9877,320.5 448.4877,320.5 Q449.3783,320.5 450.0033,320.2969 Q450.3627,320.1875 450.7689,319.8281 Q451.0346,319.625 451.1752,319.5625 Q451.3158,319.5 451.4877,319.5 Q451.8158,319.5 452.0502,319.7656 Q452.3002,320.0156 452.3002,320.375 Q452.3002,320.7188 451.9564,321.125 Q451.4564,321.7188 450.6596,322.0469 Q449.6127,322.5 448.3314,322.5 Q446.8314,322.5 445.6283,321.9063 Q444.6596,321.4375 443.9721,320.4219 Q443.3002,319.4063 443.3002,318.2031 L443.3002,317.1094 Q443.3002,315.8594 443.8939,314.7656 Q444.5033,313.6719 445.5502,313.0938 Q446.6127,312.5 447.8002,312.5 Q448.5189,312.5 449.1439,312.75 Q449.7689,313 450.3002,313.5 Z " fill="#000000"/><text fill="#000000" font-family="sans-serif" font-size="12" lengthAdjust="spacing" textLength="65" x="462.3002" y="321.9102">Coordinator</text><line style="stroke:#A80036;stroke-width:1.5;" x1="434.3002" x2="529.3002" y1="333" y2="333"/><line style="stroke:#A80036;stroke-width:1.5;" x1="434.3002" x2="529.3002" y1="341" y2="341"/><!--MD5=[1da12df22706e73e1def33b218b7f412]
link Employee to Receptionist--><path codeLine="16" d="M189.9602,180.32 C140.0702,184.46 60.6302,199.64 22.8002,253 C11.6802,268.68 23.9802,286.74 38.7702,300.72 " fill="none" id="Employee-Receptionist" style="stroke:#A80036;stroke-width:1.0;"/><polygon fill="#000000" points="23.8889,265.2905,32.7953,261.9549,29.1337,257.3569,23.8889,265.2905" style="stroke:#000000;stroke-width:1.0;"/><text fill="#000000" font-family="sans-serif" font-size="13" lengthAdjust="spacing" textLength="49" x="36.8002" y="267.4951">plays as</text><text fill="#000000" font-family="sans-serif" font-size="13" lengthAdjust="spacing" textLength="7" x="175.4154" y="176.9771">1</text><text fill="#000000" font-family="sans-serif" font-size="13" lengthAdjust="spacing" textLength="22" x="6" y="289.9884">0..1</text><!--MD5=[1da12df22706e73e1def33b218b7f412]
link Employee to Receptionist--><path codeLine="20" d="M190.2802,217.48 C160.2902,243.99 121.4302,278.35 96.0602,300.78 " fill="none" id="Employee-Receptionist-1" style="stroke:#A80036;stroke-width:1.0;"/><polygon fill="#000000" points="149.0542,265.4876,157.7773,261.6983,153.8841,257.2947,149.0542,265.4876" style="stroke:#000000;stroke-width:1.0;"/><text fill="#000000" font-family="sans-serif" font-size="13" lengthAdjust="spacing" textLength="49" x="161.8002" y="267.4951">plays as</text><text fill="#000000" font-family="sans-serif" font-size="13" lengthAdjust="spacing" textLength="7" x="175.1986" y="220.4583">1</text><text fill="#000000" font-family="sans-serif" font-size="13" lengthAdjust="spacing" textLength="22" x="77.9706" y="290.0638">0..1</text><!--MD5=[b71b66caf67976638439c0d1a3790473]
link Employee to Nurse--><path codeLine="17" d="M231.0502,223.29 C229.4602,248.94 227.5202,280.18 226.2202,300.99 " fill="none" id="Employee-Nurse" style="stroke:#A80036;stroke-width:1.0;"/><polygon fill="#000000" points="234.49,267.1661,237.9844,258.3208,232.1179,257.9562,234.49,267.1661" style="stroke:#000000;stroke-width:1.0;"/><text fill="#000000" font-family="sans-serif" font-size="13" lengthAdjust="spacing" textLength="49" x="243.8002" y="267.4951">plays as</text><text fill="#000000" font-family="sans-serif" font-size="13" lengthAdjust="spacing" textLength="7" x="223.2103" y="244.0027">1</text><text fill="#000000" font-family="sans-serif" font-size="13" lengthAdjust="spacing" textLength="22" x="201.7653" y="290.3276">0..1</text><!--MD5=[b8a4f1f13c2d56b2385b1bfafed8418f]
link Employee to Administrator--><path codeLine="18" d="M276.9202,223.22 C285.5002,232.76 294.2002,242.99 301.8002,253 C313.3702,268.25 324.7002,286.65 332.9702,300.9 " fill="none" id="Employee-Administrator" style="stroke:#A80036;stroke-width:1.0;"/><polygon fill="#000000" points="321.7258,266.2305,318.8166,257.1758,314.05,260.6151,321.7258,266.2305" style="stroke:#000000;stroke-width:1.0;"/><text fill="#000000" font-family="sans-serif" font-size="13" lengthAdjust="spacing" textLength="49" x="327.8002" y="267.4951">plays as</text><text fill="#000000" font-family="sans-serif" font-size="13" lengthAdjust="spacing" textLength="7" x="275.2441" y="243.9232">1</text><text fill="#000000" font-family="sans-serif" font-size="13" lengthAdjust="spacing" textLength="22" x="304.8638" y="290.2145">0..1</text><!--MD5=[d8cf155570c2fc8069691ea2f7bdb19f]
link Employee to Coordinator--><path codeLine="19" d="M277.5002,197.69 C308.4902,211.57 350.6602,231.7 385.8002,253 C409.5502,267.4 434.7402,286.18 453.3502,300.8 " fill="none" id="Employee-Coordinator" style="stroke:#A80036;stroke-width:1.0;"/><polygon fill="#000000" points="423.1134,264.7048,416.7973,257.5945,413.8242,262.665,423.1134,264.7048" style="stroke:#000000;stroke-width:1.0;"/><text fill="#000000" font-family="sans-serif" font-size="13" lengthAdjust="spacing" textLength="49" x="427.8002" y="267.4951">plays as</text><text fill="#000000" font-family="sans-serif" font-size="13" lengthAdjust="spacing" textLength="7" x="285.3177" y="197.1911">1</text><text fill="#000000" font-family="sans-serif" font-size="13" lengthAdjust="spacing" textLength="22" x="421.2411" y="290.0889">0..1</text><!--MD5=[e1402b9ce3dbe0326eca30710a3d6344]
link AdministratorDGS to Employee--><path codeLine="21" d="M233.8002,55.3 C233.8002,76.19 233.8002,107.41 233.8002,133 " fill="none" id="AdministratorDGS-Employee" style="stroke:#A80036;stroke-width:1.0;"/><polygon fill="#000000" points="238.8002,99.1758,241.7391,90.1307,235.8613,90.1307,238.8002,99.1758" style="stroke:#000000;stroke-width:1.0;"/><text fill="#000000" font-family="sans-serif" font-size="13" lengthAdjust="spacing" textLength="50" x="247.8002" y="99.4951">registers</text><text fill="#000000" font-family="sans-serif" font-size="13" lengthAdjust="spacing" textLength="7" x="225.9908" y="76.3051">1</text><text fill="#000000" font-family="sans-serif" font-size="13" lengthAdjust="spacing" textLength="22" x="210.0471" y="122.1155">0..1</text><!--MD5=[1a9ed295777f381bc12dafb0c8ce70cf]
@startuml
'https://plantuml.com/class-diagram


class Employee{
  userID
  name
  password
}

class AdministratorDGS
class Receptionist
class Nurse
class Administrator
class Coordinator

Employee "1" - - "0..1" Receptionist: > plays as
Employee "1" - - "0..1" Nurse: > plays as
Employee "1" - - "0..1" Administrator: > plays as
Employee "1" - - "0..1" Coordinator: > plays as
Employee "1" - - "0..1" Receptionist: > plays as
AdministratorDGS "1" - - "0..1" Employee: > registers

@enduml

@startuml


class Employee{
  userID
  name
  password
}

class AdministratorDGS
class Receptionist
class Nurse
class Administrator
class Coordinator

Employee "1" - - "0..1" Receptionist: > plays as
Employee "1" - - "0..1" Nurse: > plays as
Employee "1" - - "0..1" Administrator: > plays as
Employee "1" - - "0..1" Coordinator: > plays as
Employee "1" - - "0..1" Receptionist: > plays as
AdministratorDGS "1" - - "0..1" Employee: > registers

@enduml

PlantUML version 1.2022.1(Tue Feb 01 18:19:58 GMT 2022)
(GPL source distribution)
Java Runtime: OpenJDK Runtime Environment
JVM: OpenJDK 64-Bit Server VM
Default Encoding: Cp1252
Language: pt
Country: PT
--></g></svg>