<?xml version="1.0" encoding="UTF-8" standalone="no"?><svg xmlns="http://www.w3.org/2000/svg" xmlns:xlink="http://www.w3.org/1999/xlink" contentScriptType="application/ecmascript" contentStyleType="text/css" height="526px" preserveAspectRatio="none" style="width:284px;height:526px;background:#FFFFFF;" version="1.1" viewBox="0 0 284 526" width="284.5px" zoomAndPan="magnify"><defs><filter height="300%" id="fw8rziw8xwzhy" width="300%" x="-1" y="-1"><feGaussianBlur result="blurOut" stdDeviation="1.0"/><feColorMatrix in="blurOut" result="blurOut2" type="matrix" values="0 0 0 0 0 0 0 0 0 0 0 0 0 0 0 0 0 0 .4 0"/><feOffset dx="2.0" dy="2.0" in="blurOut2" result="blurOut3"/><feBlend in="SourceGraphic" in2="blurOut3" mode="normal"/></filter></defs><g><!--MD5=[a059576e163b46f56762f12600c49258]
class Nurse--><rect codeLine="3" fill="#FEFECE" filter="url(#fw8rziw8xwzhy)" height="44.7539" id="Nurse" style="stroke:#A80036;stroke-width:0.75;" width="33" x="33.5" y="236.5"/><ellipse cx="41" cy="244.5" fill="#ADD1B2" rx="5.5" ry="5.5" style="stroke:#A80036;stroke-width:0.5;"/><path d="M42,242.75 Q42.1016,242.5 42.2188,242.375 Q42.3359,242.25 42.4688,242.25 Q42.7031,242.25 42.8516,242.3906 Q43,242.5313 43,242.8594 L43,243.6406 Q43,243.9688 42.8594,244.1094 Q42.7188,244.25 42.5,244.25 Q42.3047,244.25 42.1797,244.1641 Q42.0547,244.0781 42,243.8516 Q41.9766,243.6953 41.8906,243.6094 Q41.7344,243.4453 41.4531,243.3516 Q41.1719,243.25 40.8906,243.25 Q40.5391,243.25 40.2422,243.3906 Q39.9531,243.5313 39.7266,243.8438 Q39.5,244.1563 39.5,244.5859 L39.5,245.0469 Q39.5,245.5625 39.9219,245.9063 Q40.3438,246.25 41.0938,246.25 Q41.5391,246.25 41.8516,246.1484 Q42.0313,246.0938 42.2344,245.9141 Q42.3672,245.8125 42.4375,245.7813 Q42.5078,245.75 42.5938,245.75 Q42.7578,245.75 42.875,245.8828 Q43,246.0078 43,246.1875 Q43,246.3594 42.8281,246.5625 Q42.5781,246.8594 42.1797,247.0234 Q41.6563,247.25 41.0156,247.25 Q40.2656,247.25 39.6641,246.9531 Q39.1797,246.7188 38.8359,246.2109 Q38.5,245.7031 38.5,245.1016 L38.5,244.5547 Q38.5,243.9297 38.7969,243.3828 Q39.1016,242.8359 39.625,242.5469 Q40.1563,242.25 40.75,242.25 Q41.1094,242.25 41.4219,242.375 Q41.7344,242.5 42,242.75 Z " fill="#000000"/><text fill="#000000" font-family="sans-serif" font-size="6" lengthAdjust="spacing" textLength="17" x="48" y="246.9551">Nurse</text><line style="stroke:#A80036;stroke-width:0.75;" x1="34" x2="66" y1="252.5" y2="252.5"/><text fill="#000000" font-family="sans-serif" font-size="5.5" lengthAdjust="spacing" textLength="15.5" x="36.5" y="260.2095">userID</text><text fill="#000000" font-family="sans-serif" font-size="5.5" lengthAdjust="spacing" textLength="13" x="36.5" y="267.1274">name</text><text fill="#000000" font-family="sans-serif" font-size="5.5" lengthAdjust="spacing" textLength="25" x="36.5" y="274.0454">password</text><line style="stroke:#A80036;stroke-width:0.75;" x1="34" x2="66" y1="277.2539" y2="277.2539"/><!--MD5=[da547346deef918ea16944ba046651ef]
class Administrator--><rect codeLine="9" fill="#FEFECE" filter="url(#fw8rziw8xwzhy)" height="44.7539" id="Administrator" style="stroke:#A80036;stroke-width:0.75;" width="52.5" x="73.25" y="73.5"/><ellipse cx="80.75" cy="81.5" fill="#ADD1B2" rx="5.5" ry="5.5" style="stroke:#A80036;stroke-width:0.5;"/><path d="M81.75,79.75 Q81.8516,79.5 81.9688,79.375 Q82.0859,79.25 82.2188,79.25 Q82.4531,79.25 82.6016,79.3906 Q82.75,79.5313 82.75,79.8594 L82.75,80.6406 Q82.75,80.9688 82.6094,81.1094 Q82.4688,81.25 82.25,81.25 Q82.0547,81.25 81.9297,81.1641 Q81.8047,81.0781 81.75,80.8516 Q81.7266,80.6953 81.6406,80.6094 Q81.4844,80.4453 81.2031,80.3516 Q80.9219,80.25 80.6406,80.25 Q80.2891,80.25 79.9922,80.3906 Q79.7031,80.5313 79.4766,80.8438 Q79.25,81.1563 79.25,81.5859 L79.25,82.0469 Q79.25,82.5625 79.6719,82.9063 Q80.0938,83.25 80.8438,83.25 Q81.2891,83.25 81.6016,83.1484 Q81.7813,83.0938 81.9844,82.9141 Q82.1172,82.8125 82.1875,82.7813 Q82.2578,82.75 82.3438,82.75 Q82.5078,82.75 82.625,82.8828 Q82.75,83.0078 82.75,83.1875 Q82.75,83.3594 82.5781,83.5625 Q82.3281,83.8594 81.9297,84.0234 Q81.4063,84.25 80.7656,84.25 Q80.0156,84.25 79.4141,83.9531 Q78.9297,83.7188 78.5859,83.2109 Q78.25,82.7031 78.25,82.1016 L78.25,81.5547 Q78.25,80.9297 78.5469,80.3828 Q78.8516,79.8359 79.375,79.5469 Q79.9063,79.25 80.5,79.25 Q80.8594,79.25 81.1719,79.375 Q81.4844,79.5 81.75,79.75 Z " fill="#000000"/><text fill="#000000" font-family="sans-serif" font-size="6" lengthAdjust="spacing" textLength="36.5" x="87.75" y="83.9551">Administrator</text><line style="stroke:#A80036;stroke-width:0.75;" x1="73.75" x2="125.25" y1="89.5" y2="89.5"/><text fill="#000000" font-family="sans-serif" font-size="5.5" lengthAdjust="spacing" textLength="15.5" x="76.25" y="97.2095">userID</text><text fill="#000000" font-family="sans-serif" font-size="5.5" lengthAdjust="spacing" textLength="13" x="76.25" y="104.1274">name</text><text fill="#000000" font-family="sans-serif" font-size="5.5" lengthAdjust="spacing" textLength="25" x="76.25" y="111.0454">password</text><line style="stroke:#A80036;stroke-width:0.75;" x1="73.75" x2="125.25" y1="114.2539" y2="114.2539"/><!--MD5=[19e445fc4d3b48519cbe33da05496394]
class Vaccine--><rect codeLine="15" fill="#FEFECE" filter="url(#fw8rziw8xwzhy)" height="37.8359" id="Vaccine" style="stroke:#A80036;stroke-width:0.75;" width="37.5" x="111.25" y="397.5"/><ellipse cx="118.75" cy="405.5" fill="#ADD1B2" rx="5.5" ry="5.5" style="stroke:#A80036;stroke-width:0.5;"/><path d="M119.75,403.75 Q119.8516,403.5 119.9688,403.375 Q120.0859,403.25 120.2188,403.25 Q120.4531,403.25 120.6016,403.3906 Q120.75,403.5313 120.75,403.8594 L120.75,404.6406 Q120.75,404.9688 120.6094,405.1094 Q120.4688,405.25 120.25,405.25 Q120.0547,405.25 119.9297,405.1641 Q119.8047,405.0781 119.75,404.8516 Q119.7266,404.6953 119.6406,404.6094 Q119.4844,404.4453 119.2031,404.3516 Q118.9219,404.25 118.6406,404.25 Q118.2891,404.25 117.9922,404.3906 Q117.7031,404.5313 117.4766,404.8438 Q117.25,405.1563 117.25,405.5859 L117.25,406.0469 Q117.25,406.5625 117.6719,406.9063 Q118.0938,407.25 118.8438,407.25 Q119.2891,407.25 119.6016,407.1484 Q119.7813,407.0938 119.9844,406.9141 Q120.1172,406.8125 120.1875,406.7813 Q120.2578,406.75 120.3438,406.75 Q120.5078,406.75 120.625,406.8828 Q120.75,407.0078 120.75,407.1875 Q120.75,407.3594 120.5781,407.5625 Q120.3281,407.8594 119.9297,408.0234 Q119.4063,408.25 118.7656,408.25 Q118.0156,408.25 117.4141,407.9531 Q116.9297,407.7188 116.5859,407.2109 Q116.25,406.7031 116.25,406.1016 L116.25,405.5547 Q116.25,404.9297 116.5469,404.3828 Q116.8516,403.8359 117.375,403.5469 Q117.9063,403.25 118.5,403.25 Q118.8594,403.25 119.1719,403.375 Q119.4844,403.5 119.75,403.75 Z " fill="#000000"/><text fill="#000000" font-family="sans-serif" font-size="6" lengthAdjust="spacing" textLength="21.5" x="125.75" y="407.9551">Vaccine</text><line style="stroke:#A80036;stroke-width:0.75;" x1="111.75" x2="148.25" y1="413.5" y2="413.5"/><text fill="#000000" font-family="sans-serif" font-size="5.5" lengthAdjust="spacing" textLength="13" x="114.25" y="421.2095">name</text><text fill="#000000" font-family="sans-serif" font-size="5.5" lengthAdjust="spacing" textLength="14" x="114.25" y="428.1274">brand</text><line style="stroke:#A80036;stroke-width:0.75;" x1="111.75" x2="148.25" y1="431.3359" y2="431.3359"/><!--MD5=[107cfa23aa516ff83d0cf17a6f9fe7ba]
class VaccineAdministration--><rect codeLine="21" fill="#FEFECE" filter="url(#fw8rziw8xwzhy)" height="37.8359" id="VaccineAdministration" style="stroke:#A80036;stroke-width:0.75;" width="77" x="3.5" y="320.5"/><ellipse cx="11" cy="328.5" fill="#ADD1B2" rx="5.5" ry="5.5" style="stroke:#A80036;stroke-width:0.5;"/><path d="M12,326.75 Q12.1016,326.5 12.2188,326.375 Q12.3359,326.25 12.4688,326.25 Q12.7031,326.25 12.8516,326.3906 Q13,326.5313 13,326.8594 L13,327.6406 Q13,327.9688 12.8594,328.1094 Q12.7188,328.25 12.5,328.25 Q12.3047,328.25 12.1797,328.1641 Q12.0547,328.0781 12,327.8516 Q11.9766,327.6953 11.8906,327.6094 Q11.7344,327.4453 11.4531,327.3516 Q11.1719,327.25 10.8906,327.25 Q10.5391,327.25 10.2422,327.3906 Q9.9531,327.5313 9.7266,327.8438 Q9.5,328.1563 9.5,328.5859 L9.5,329.0469 Q9.5,329.5625 9.9219,329.9063 Q10.3438,330.25 11.0938,330.25 Q11.5391,330.25 11.8516,330.1484 Q12.0313,330.0938 12.2344,329.9141 Q12.3672,329.8125 12.4375,329.7813 Q12.5078,329.75 12.5938,329.75 Q12.7578,329.75 12.875,329.8828 Q13,330.0078 13,330.1875 Q13,330.3594 12.8281,330.5625 Q12.5781,330.8594 12.1797,331.0234 Q11.6563,331.25 11.0156,331.25 Q10.2656,331.25 9.6641,330.9531 Q9.1797,330.7188 8.8359,330.2109 Q8.5,329.7031 8.5,329.1016 L8.5,328.5547 Q8.5,327.9297 8.7969,327.3828 Q9.1016,326.8359 9.625,326.5469 Q10.1563,326.25 10.75,326.25 Q11.1094,326.25 11.4219,326.375 Q11.7344,326.5 12,326.75 Z " fill="#000000"/><text fill="#000000" font-family="sans-serif" font-size="6" lengthAdjust="spacing" textLength="61" x="18" y="330.9551">VaccineAdministration</text><line style="stroke:#A80036;stroke-width:0.75;" x1="4" x2="80" y1="336.5" y2="336.5"/><text fill="#000000" font-family="sans-serif" font-size="5.5" lengthAdjust="spacing" textLength="9.5" x="6.5" y="344.2095">time</text><text fill="#000000" font-family="sans-serif" font-size="5.5" lengthAdjust="spacing" textLength="11.5" x="6.5" y="351.1274">slots</text><line style="stroke:#A80036;stroke-width:0.75;" x1="4" x2="80" y1="354.3359" y2="354.3359"/><!--MD5=[02e4b9b7573f1156f41e60aa5b4e25a4]
class Company--><rect codeLine="26" fill="#FEFECE" filter="url(#fw8rziw8xwzhy)" height="30.918" id="Company" style="stroke:#A80036;stroke-width:0.75;" width="42.5" x="131.25" y="3.5"/><ellipse cx="138.75" cy="11.5" fill="#ADD1B2" rx="5.5" ry="5.5" style="stroke:#A80036;stroke-width:0.5;"/><path d="M139.75,9.75 Q139.8516,9.5 139.9688,9.375 Q140.0859,9.25 140.2188,9.25 Q140.4531,9.25 140.6016,9.3906 Q140.75,9.5313 140.75,9.8594 L140.75,10.6406 Q140.75,10.9688 140.6094,11.1094 Q140.4688,11.25 140.25,11.25 Q140.0547,11.25 139.9297,11.1641 Q139.8047,11.0781 139.75,10.8516 Q139.7266,10.6953 139.6406,10.6094 Q139.4844,10.4453 139.2031,10.3516 Q138.9219,10.25 138.6406,10.25 Q138.2891,10.25 137.9922,10.3906 Q137.7031,10.5313 137.4766,10.8438 Q137.25,11.1563 137.25,11.5859 L137.25,12.0469 Q137.25,12.5625 137.6719,12.9063 Q138.0938,13.25 138.8438,13.25 Q139.2891,13.25 139.6016,13.1484 Q139.7813,13.0938 139.9844,12.9141 Q140.1172,12.8125 140.1875,12.7813 Q140.2578,12.75 140.3438,12.75 Q140.5078,12.75 140.625,12.8828 Q140.75,13.0078 140.75,13.1875 Q140.75,13.3594 140.5781,13.5625 Q140.3281,13.8594 139.9297,14.0234 Q139.4063,14.25 138.7656,14.25 Q138.0156,14.25 137.4141,13.9531 Q136.9297,13.7188 136.5859,13.2109 Q136.25,12.7031 136.25,12.1016 L136.25,11.5547 Q136.25,10.9297 136.5469,10.3828 Q136.8516,9.8359 137.375,9.5469 Q137.9063,9.25 138.5,9.25 Q138.8594,9.25 139.1719,9.375 Q139.4844,9.5 139.75,9.75 Z " fill="#000000"/><text fill="#000000" font-family="sans-serif" font-size="6" lengthAdjust="spacing" textLength="26.5" x="145.75" y="13.9551">Company</text><line style="stroke:#A80036;stroke-width:0.75;" x1="131.75" x2="173.25" y1="19.5" y2="19.5"/><text fill="#000000" font-family="sans-serif" font-size="5.5" lengthAdjust="spacing" textLength="27.5" x="134.25" y="27.2095">designation</text><line style="stroke:#A80036;stroke-width:0.75;" x1="131.75" x2="173.25" y1="30.418" y2="30.418"/><!--MD5=[0e501da62322464167c8ec4d233a6b7e]
class VaccineType--><rect codeLine="30" fill="#FEFECE" filter="url(#fw8rziw8xwzhy)" height="44.7539" id="VaccineType" style="stroke:#A80036;stroke-width:0.75;" width="50.5" x="143.25" y="474.5"/><ellipse cx="150.75" cy="482.5" fill="#ADD1B2" rx="5.5" ry="5.5" style="stroke:#A80036;stroke-width:0.5;"/><path d="M151.75,480.75 Q151.8516,480.5 151.9688,480.375 Q152.0859,480.25 152.2188,480.25 Q152.4531,480.25 152.6016,480.3906 Q152.75,480.5313 152.75,480.8594 L152.75,481.6406 Q152.75,481.9688 152.6094,482.1094 Q152.4688,482.25 152.25,482.25 Q152.0547,482.25 151.9297,482.1641 Q151.8047,482.0781 151.75,481.8516 Q151.7266,481.6953 151.6406,481.6094 Q151.4844,481.4453 151.2031,481.3516 Q150.9219,481.25 150.6406,481.25 Q150.2891,481.25 149.9922,481.3906 Q149.7031,481.5313 149.4766,481.8438 Q149.25,482.1563 149.25,482.5859 L149.25,483.0469 Q149.25,483.5625 149.6719,483.9063 Q150.0938,484.25 150.8438,484.25 Q151.2891,484.25 151.6016,484.1484 Q151.7813,484.0938 151.9844,483.9141 Q152.1172,483.8125 152.1875,483.7813 Q152.2578,483.75 152.3438,483.75 Q152.5078,483.75 152.625,483.8828 Q152.75,484.0078 152.75,484.1875 Q152.75,484.3594 152.5781,484.5625 Q152.3281,484.8594 151.9297,485.0234 Q151.4063,485.25 150.7656,485.25 Q150.0156,485.25 149.4141,484.9531 Q148.9297,484.7188 148.5859,484.2109 Q148.25,483.7031 148.25,483.1016 L148.25,482.5547 Q148.25,481.9297 148.5469,481.3828 Q148.8516,480.8359 149.375,480.5469 Q149.9063,480.25 150.5,480.25 Q150.8594,480.25 151.1719,480.375 Q151.4844,480.5 151.75,480.75 Z " fill="#000000"/><text fill="#000000" font-family="sans-serif" font-size="6" lengthAdjust="spacing" textLength="34.5" x="157.75" y="484.9551">VaccineType</text><line style="stroke:#A80036;stroke-width:0.75;" x1="143.75" x2="193.25" y1="490.5" y2="490.5"/><text fill="#000000" font-family="sans-serif" font-size="5.5" lengthAdjust="spacing" textLength="12" x="146.25" y="498.2095">code</text><text fill="#000000" font-family="sans-serif" font-size="5.5" lengthAdjust="spacing" textLength="27.5" x="146.25" y="505.1274">designation</text><text fill="#000000" font-family="sans-serif" font-size="5.5" lengthAdjust="spacing" textLength="15.5" x="146.25" y="512.0454">whoID</text><line style="stroke:#A80036;stroke-width:0.75;" x1="143.75" x2="193.25" y1="515.2539" y2="515.2539"/><!--MD5=[e2ddcc32583ff1a2f6fdd8d9fe473f71]
link Administrator to Nurse--><path codeLine="36" d="M83.425,118.65 C75,131.42 65.35,148.15 60,164.5 C52.22,188.285 50.16,217.09 49.765,236.495 " fill="none" id="Administrator-Nurse" style="stroke:#A80036;stroke-width:0.5;"/><polygon fill="#000000" points="61.8134,171.4918,64.4684,167.5467,61.6425,166.7395,61.8134,171.4918" style="stroke:#000000;stroke-width:0.5;"/><text fill="#000000" font-family="sans-serif" font-size="6.5" lengthAdjust="spacing" textLength="26.5" x="67" y="171.7476">manages</text><text fill="#000000" font-family="sans-serif" font-size="6.5" lengthAdjust="spacing" textLength="3.5" x="77.5298" y="129.007">1</text><text fill="#000000" font-family="sans-serif" font-size="6.5" lengthAdjust="spacing" textLength="10" x="38.9307" y="231.0519">1..*</text><!--MD5=[0e439f75a3d966f965fe5f237a1bacbe]
link Administrator to Vaccine--><path codeLine="38" d="M104.08,118.625 C105.64,127.955 107,138.965 107,149 C107,149 107,149 107,340 C107,360.265 114.585,382.315 121.04,397.42 " fill="none" id="Administrator-Vaccine" style="stroke:#A80036;stroke-width:0.5;"/><polygon fill="#000000" points="109.6518,219.5833,110.8439,214.9799,107.9104,215.1583,109.6518,219.5833" style="stroke:#000000;stroke-width:0.5;"/><text fill="#000000" font-family="sans-serif" font-size="6.5" lengthAdjust="spacing" textLength="26.5" x="114" y="219.7476">manages</text><text fill="#000000" font-family="sans-serif" font-size="6.5" lengthAdjust="spacing" textLength="3.5" x="100.9603" y="128.9786">1</text><text fill="#000000" font-family="sans-serif" font-size="6.5" lengthAdjust="spacing" textLength="10" x="108.5534" y="392.0867">1..*</text><!--MD5=[195cd4b2065cc6507c3064f693e1e4c8]
link Nurse to VaccineAdministration--><path codeLine="40" d="M46.39,281.57 C45.68,286.475 45,291.655 44.5,296.5 C43.695,304.295 43.125,312.92 42.74,320.35 " fill="none" id="Nurse-VaccineAdministration" style="stroke:#A80036;stroke-width:0.5;"/><polygon fill="#000000" points="46.7657,303.5769,48.6525,299.2119,45.7265,298.9365,46.7657,303.5769" style="stroke:#000000;stroke-width:0.5;"/><text fill="#000000" font-family="sans-serif" font-size="6.5" lengthAdjust="spacing" textLength="42" x="51.5" y="303.7476">responsible for</text><text fill="#000000" font-family="sans-serif" font-size="6.5" lengthAdjust="spacing" textLength="3.5" x="42.1363" y="292.0836">1</text><text fill="#000000" font-family="sans-serif" font-size="6.5" lengthAdjust="spacing" textLength="10" x="31.9812" y="315.0042">1..*</text><!--MD5=[d96ee281cdb1021d3c4ed227c45512e2]
link VaccineAdministration to Vaccine--><path codeLine="42" d="M57.71,358.63 C64.65,366.385 73.12,375.25 81.5,382.5 C90.71,390.47 101.835,398.265 111.11,404.33 " fill="none" id="VaccineAdministration-Vaccine" style="stroke:#A80036;stroke-width:0.5;"/><polygon fill="#000000" points="85.8994,379.7134,83.4188,375.6564,81.5079,377.8893,85.8994,379.7134" style="stroke:#000000;stroke-width:0.5;"/><text fill="#000000" font-family="sans-serif" font-size="6.5" lengthAdjust="spacing" textLength="5" x="88.5" y="380.7476">of</text><text fill="#000000" font-family="sans-serif" font-size="6.5" lengthAdjust="spacing" textLength="2.5" x="57.5146" y="369.091">*</text><text fill="#000000" font-family="sans-serif" font-size="6.5" lengthAdjust="spacing" textLength="3.5" x="103.8045" y="400.1275">1</text><!--MD5=[c29c8d42883934cbaf5793c72a334947]
link Company to Vaccine--><path codeLine="44" d="M152.5,34.64 C152.5,49.98 152.5,74.39 152.5,95.5 C152.5,95.5 152.5,95.5 152.5,340 C152.5,360.23 145.08,382.285 138.765,397.4 " fill="none" id="Company-Vaccine" style="stroke:#A80036;stroke-width:0.5;"/><polygon fill="#000000" points="154.9054,195.5861,156.5449,191.1224,153.6081,191.0112,154.9054,195.5861" style="stroke:#000000;stroke-width:0.5;"/><text fill="#000000" font-family="sans-serif" font-size="6.5" lengthAdjust="spacing" textLength="20.5" x="159.5" y="195.7476">applies</text><text fill="#000000" font-family="sans-serif" font-size="6.5" lengthAdjust="spacing" textLength="3.5" x="148.6664" y="45.156">1</text><text fill="#000000" font-family="sans-serif" font-size="6.5" lengthAdjust="spacing" textLength="2.5" x="137.6036" y="392.0631">*</text><!--MD5=[eaea43e34e45c5b9d20b595fc78f1f20]
link Company to Administrator--><path codeLine="45" d="M131.105,32.255 C124.68,36.975 118.115,42.825 113.5,49.5 C108.61,56.57 105.385,65.4 103.28,73.425 " fill="none" id="Company-Administrator" style="stroke:#A80036;stroke-width:0.5;"/><polygon fill="#000000" points="114.6001,56.1592,118.35,53.235,115.9151,51.5893,114.6001,56.1592" style="stroke:#000000;stroke-width:0.5;"/><text fill="#000000" font-family="sans-serif" font-size="6.5" lengthAdjust="spacing" textLength="18.5" x="120.5" y="56.7476">knows</text><text fill="#000000" font-family="sans-serif" font-size="6.5" lengthAdjust="spacing" textLength="3.5" x="123.7716" y="32.5568">1</text><text fill="#000000" font-family="sans-serif" font-size="6.5" lengthAdjust="spacing" textLength="10" x="93.0932" y="68.1356">1..*</text><!--MD5=[05986564e1c13a00611587b35563d868]
link Company to VaccineType--><path codeLine="46" d="M172.02,34.58 C187.66,48.51 207,70.74 207,95.5 C207,95.5 207,95.5 207,417 C207,437.935 196.055,459.145 185.835,474.385 " fill="none" id="Company-VaccineType" style="stroke:#A80036;stroke-width:0.5;"/><polygon fill="#000000" points="209.5785,219.5867,210.9052,215.0202,207.9678,215.1125,209.5785,219.5867" style="stroke:#000000;stroke-width:0.5;"/><text fill="#000000" font-family="sans-serif" font-size="6.5" lengthAdjust="spacing" textLength="66.5" x="214" y="219.7476">promotes administrator</text><text fill="#000000" font-family="sans-serif" font-size="6.5" lengthAdjust="spacing" textLength="3.5" x="172.0185" y="45.2077">1</text><text fill="#000000" font-family="sans-serif" font-size="6.5" lengthAdjust="spacing" textLength="2.5" x="185.798" y="469.0894">*</text><!--MD5=[3568623adf67b2630dce9e60c05bd02a]
link Vaccine to VaccineType--><path codeLine="47" d="M139.025,435.64 C144.65,447.25 151.91,462.245 157.82,474.45 " fill="none" id="Vaccine-VaccineType" style="stroke:#A80036;stroke-width:0.5;"/><polygon fill="#000000" points="154.0897,457.3379,153.441,452.6271,150.7959,453.9081,154.0897,457.3379" style="stroke:#000000;stroke-width:0.5;"/><text fill="#000000" font-family="sans-serif" font-size="6.5" lengthAdjust="spacing" textLength="12" x="157.5" y="457.7476">is of</text><text fill="#000000" font-family="sans-serif" font-size="6.5" lengthAdjust="spacing" textLength="2.5" x="137.7641" y="446.1026">*</text><text fill="#000000" font-family="sans-serif" font-size="6.5" lengthAdjust="spacing" textLength="3.5" x="152.339" y="468.9998">1</text><!--MD5=[98a8b50c8415656840936faa2d26351d]
@startuml
'https://plantuml.com/class-diagram

class Nurse{
  userID
  name
  password
}

class Administrator{
  userID
  name
  password
}

class Vaccine{
  name
  brand
}


class VaccineAdministration{
  time
  slots
}

class Company{
    designation
}

class VaccineType{
  code
  designation
  whoID
}

Administrator "1" - - - - "1..*" Nurse: > manages

Administrator "1" - - "1..*" Vaccine: > manages

Nurse "1" - - "1..*" VaccineAdministration: > responsible for

VaccineAdministration "*" - - "1" Vaccine: > of

Company "1" - - "*" Vaccine: > applies
Company "1" - - "1..*" Administrator: > knows
Company "1" - - "*" VaccineType: > promotes administrator
Vaccine "*" - - "1" VaccineType: > is of

@enduml

@startuml

class Nurse{
  userID
  name
  password
}

class Administrator{
  userID
  name
  password
}

class Vaccine{
  name
  brand
}


class VaccineAdministration{
  time
  slots
}

class Company{
    designation
}

class VaccineType{
  code
  designation
  whoID
}

Administrator "1" - - - - "1..*" Nurse: > manages

Administrator "1" - - "1..*" Vaccine: > manages

Nurse "1" - - "1..*" VaccineAdministration: > responsible for

VaccineAdministration "*" - - "1" Vaccine: > of

Company "1" - - "*" Vaccine: > applies
Company "1" - - "1..*" Administrator: > knows
Company "1" - - "*" VaccineType: > promotes administrator
Vaccine "*" - - "1" VaccineType: > is of

@enduml

PlantUML version 1.2022.1(Tue Feb 01 18:19:58 GMT 2022)
(GPL source distribution)
Java Runtime: OpenJDK Runtime Environment
JVM: OpenJDK 64-Bit Server VM
Default Encoding: Cp1252
Language: pt
Country: PT
--></g></svg>