<?xml version="1.0" encoding="UTF-8" standalone="no"?><svg xmlns="http://www.w3.org/2000/svg" xmlns:xlink="http://www.w3.org/1999/xlink" contentScriptType="application/ecmascript" contentStyleType="text/css" height="788px" preserveAspectRatio="none" style="width:593px;height:788px;background:#FFFFFF;" version="1.1" viewBox="0 0 593 788" width="593px" zoomAndPan="magnify"><defs><filter height="300%" id="fa06dh3aojjx" width="300%" x="-1" y="-1"><feGaussianBlur result="blurOut" stdDeviation="2.0"/><feColorMatrix in="blurOut" result="blurOut2" type="matrix" values="0 0 0 0 0 0 0 0 0 0 0 0 0 0 0 0 0 0 .4 0"/><feOffset dx="4.0" dy="4.0" in="blurOut2" result="blurOut3"/><feBlend in="SourceGraphic" in2="blurOut3" mode="normal"/></filter></defs><g><!--MD5=[b363da0baf762d2e8af214f222915dbc]
class NewUserEntryController--><rect codeLine="2" fill="#FEFECE" filter="url(#fa06dh3aojjx)" height="75.6719" id="NewUserEntryController" style="stroke:#A80036;stroke-width:1.5;" width="245" x="229" y="116"/><ellipse cx="280.75" cy="132" fill="#ADD1B2" rx="11" ry="11" style="stroke:#A80036;stroke-width:1.0;"/><path d="M282.75,128.5 Q282.9531,128 283.1875,127.75 Q283.4219,127.5 283.6875,127.5 Q284.1563,127.5 284.4531,127.7813 Q284.75,128.0625 284.75,128.7188 L284.75,130.2813 Q284.75,130.9375 284.4688,131.2188 Q284.1875,131.5 283.75,131.5 Q283.3594,131.5 283.1094,131.3281 Q282.8594,131.1563 282.75,130.7031 Q282.7031,130.3906 282.5313,130.2188 Q282.2188,129.8906 281.6563,129.7031 Q281.0938,129.5 280.5313,129.5 Q279.8281,129.5 279.2344,129.7813 Q278.6563,130.0625 278.2031,130.6875 Q277.75,131.3125 277.75,132.1719 L277.75,133.0938 Q277.75,134.125 278.5938,134.8125 Q279.4375,135.5 280.9375,135.5 Q281.8281,135.5 282.4531,135.2969 Q282.8125,135.1875 283.2188,134.8281 Q283.4844,134.625 283.625,134.5625 Q283.7656,134.5 283.9375,134.5 Q284.2656,134.5 284.5,134.7656 Q284.75,135.0156 284.75,135.375 Q284.75,135.7188 284.4063,136.125 Q283.9063,136.7188 283.1094,137.0469 Q282.0625,137.5 280.7813,137.5 Q279.2813,137.5 278.0781,136.9063 Q277.1094,136.4375 276.4219,135.4219 Q275.75,134.4063 275.75,133.2031 L275.75,132.1094 Q275.75,130.8594 276.3438,129.7656 Q276.9531,128.6719 278,128.0938 Q279.0625,127.5 280.25,127.5 Q280.9688,127.5 281.5938,127.75 Q282.2188,128 282.75,128.5 Z " fill="#000000"/><text fill="#000000" font-family="sans-serif" font-size="12" lengthAdjust="spacing" textLength="133" x="301.25" y="136.9102">NewUserEntryController</text><line style="stroke:#A80036;stroke-width:1.5;" x1="230" x2="473" y1="148" y2="148"/><line style="stroke:#A80036;stroke-width:1.5;" x1="230" x2="473" y1="156" y2="156"/><ellipse cx="240" cy="167" fill="#84BE84" rx="3" ry="3" style="stroke:#038048;stroke-width:1.0;"/><text fill="#000000" font-family="sans-serif" font-size="11" lengthAdjust="spacing" textLength="219" x="249" y="171.4189">RegisterSNSUser(SNSNumber, timeOfArrival)</text><ellipse cx="240" cy="180.8359" fill="#84BE84" rx="3" ry="3" style="stroke:#038048;stroke-width:1.0;"/><text fill="#000000" font-family="sans-serif" font-size="11" lengthAdjust="spacing" textLength="76" x="249" y="185.2549">saveSNSUser()</text><!--MD5=[abf209d357617dce377ed3253d9dc7c8]
class NewUserEntryUI--><rect codeLine="6" fill="#FEFECE" filter="url(#fa06dh3aojjx)" height="48" id="NewUserEntryUI" style="stroke:#A80036;stroke-width:1.5;" width="123" x="290" y="7"/><ellipse cx="305" cy="23" fill="#ADD1B2" rx="11" ry="11" style="stroke:#A80036;stroke-width:1.0;"/><path d="M307,19.5 Q307.2031,19 307.4375,18.75 Q307.6719,18.5 307.9375,18.5 Q308.4063,18.5 308.7031,18.7813 Q309,19.0625 309,19.7188 L309,21.2813 Q309,21.9375 308.7188,22.2188 Q308.4375,22.5 308,22.5 Q307.6094,22.5 307.3594,22.3281 Q307.1094,22.1563 307,21.7031 Q306.9531,21.3906 306.7813,21.2188 Q306.4688,20.8906 305.9063,20.7031 Q305.3438,20.5 304.7813,20.5 Q304.0781,20.5 303.4844,20.7813 Q302.9063,21.0625 302.4531,21.6875 Q302,22.3125 302,23.1719 L302,24.0938 Q302,25.125 302.8438,25.8125 Q303.6875,26.5 305.1875,26.5 Q306.0781,26.5 306.7031,26.2969 Q307.0625,26.1875 307.4688,25.8281 Q307.7344,25.625 307.875,25.5625 Q308.0156,25.5 308.1875,25.5 Q308.5156,25.5 308.75,25.7656 Q309,26.0156 309,26.375 Q309,26.7188 308.6563,27.125 Q308.1563,27.7188 307.3594,28.0469 Q306.3125,28.5 305.0313,28.5 Q303.5313,28.5 302.3281,27.9063 Q301.3594,27.4375 300.6719,26.4219 Q300,25.4063 300,24.2031 L300,23.1094 Q300,21.8594 300.5938,20.7656 Q301.2031,19.6719 302.25,19.0938 Q303.3125,18.5 304.5,18.5 Q305.2188,18.5 305.8438,18.75 Q306.4688,19 307,19.5 Z " fill="#000000"/><text fill="#000000" font-family="sans-serif" font-size="12" lengthAdjust="spacing" textLength="91" x="319" y="27.9102">NewUserEntryUI</text><line style="stroke:#A80036;stroke-width:1.5;" x1="291" x2="412" y1="39" y2="39"/><line style="stroke:#A80036;stroke-width:1.5;" x1="291" x2="412" y1="47" y2="47"/><!--MD5=[02e4b9b7573f1156f41e60aa5b4e25a4]
class Company--><rect codeLine="9" fill="#FEFECE" filter="url(#fa06dh3aojjx)" height="131.0156" id="Company" style="stroke:#A80036;stroke-width:1.5;" width="218" x="161.5" y="253"/><ellipse cx="239.75" cy="269" fill="#ADD1B2" rx="11" ry="11" style="stroke:#A80036;stroke-width:1.0;"/><path d="M241.75,265.5 Q241.9531,265 242.1875,264.75 Q242.4219,264.5 242.6875,264.5 Q243.1563,264.5 243.4531,264.7813 Q243.75,265.0625 243.75,265.7188 L243.75,267.2813 Q243.75,267.9375 243.4688,268.2188 Q243.1875,268.5 242.75,268.5 Q242.3594,268.5 242.1094,268.3281 Q241.8594,268.1563 241.75,267.7031 Q241.7031,267.3906 241.5313,267.2188 Q241.2188,266.8906 240.6563,266.7031 Q240.0938,266.5 239.5313,266.5 Q238.8281,266.5 238.2344,266.7813 Q237.6563,267.0625 237.2031,267.6875 Q236.75,268.3125 236.75,269.1719 L236.75,270.0938 Q236.75,271.125 237.5938,271.8125 Q238.4375,272.5 239.9375,272.5 Q240.8281,272.5 241.4531,272.2969 Q241.8125,272.1875 242.2188,271.8281 Q242.4844,271.625 242.625,271.5625 Q242.7656,271.5 242.9375,271.5 Q243.2656,271.5 243.5,271.7656 Q243.75,272.0156 243.75,272.375 Q243.75,272.7188 243.4063,273.125 Q242.9063,273.7188 242.1094,274.0469 Q241.0625,274.5 239.7813,274.5 Q238.2813,274.5 237.0781,273.9063 Q236.1094,273.4375 235.4219,272.4219 Q234.75,271.4063 234.75,270.2031 L234.75,269.1094 Q234.75,267.8594 235.3438,266.7656 Q235.9531,265.6719 237,265.0938 Q238.0625,264.5 239.25,264.5 Q239.9688,264.5 240.5938,264.75 Q241.2188,265 241.75,265.5 Z " fill="#000000"/><text fill="#000000" font-family="sans-serif" font-size="12" lengthAdjust="spacing" textLength="53" x="260.25" y="273.9102">Company</text><line style="stroke:#A80036;stroke-width:1.5;" x1="162.5" x2="378.5" y1="285" y2="285"/><rect fill="none" height="6" style="stroke:#C82930;stroke-width:1.0;" width="6" x="169.5" y="293"/><text fill="#000000" font-family="sans-serif" font-size="11" lengthAdjust="spacing" textLength="26" x="181.5" y="300.4189">name</text><line style="stroke:#A80036;stroke-width:1.5;" x1="162.5" x2="378.5" y1="306.8359" y2="306.8359"/><ellipse cx="172.5" cy="317.8359" fill="#84BE84" rx="3" ry="3" style="stroke:#038048;stroke-width:1.0;"/><text fill="#000000" font-family="sans-serif" font-size="11" lengthAdjust="spacing" textLength="130" x="181.5" y="322.2549">getUsersWithVaccination()</text><ellipse cx="172.5" cy="331.6719" fill="#84BE84" rx="3" ry="3" style="stroke:#038048;stroke-width:1.0;"/><text fill="#000000" font-family="sans-serif" font-size="11" lengthAdjust="spacing" textLength="126" x="181.5" y="336.0908">getSNSUser(userNumber)</text><ellipse cx="172.5" cy="345.5078" fill="#84BE84" rx="3" ry="3" style="stroke:#038048;stroke-width:1.0;"/><text fill="#000000" font-family="sans-serif" font-size="11" lengthAdjust="spacing" textLength="192" x="181.5" y="349.9268">NewUserEntry(SNSUser, timeOfArrival)</text><ellipse cx="172.5" cy="359.3438" fill="#84BE84" rx="3" ry="3" style="stroke:#038048;stroke-width:1.0;"/><text fill="#000000" font-family="sans-serif" font-size="11" lengthAdjust="spacing" textLength="106" x="181.5" y="363.7627">saveSNSUser(arrival)</text><rect fill="#F24D5C" height="6" style="stroke:#C82930;stroke-width:1.0;" width="6" x="169.5" y="370.1797"/><text fill="#000000" font-family="sans-serif" font-size="11" lengthAdjust="spacing" textLength="119" x="181.5" y="377.5986">validateSNSUser(arrival)</text><!--MD5=[6d304c3652bcd09246eee669e0f39019]
class VaccineSchedulleStore--><rect codeLine="17" fill="#FEFECE" filter="url(#fa06dh3aojjx)" height="89.5078" id="VaccineSchedulleStore" style="stroke:#A80036;stroke-width:1.5;" width="455" x="124" y="462"/><ellipse cx="283.75" cy="478" fill="#ADD1B2" rx="11" ry="11" style="stroke:#A80036;stroke-width:1.0;"/><path d="M285.75,474.5 Q285.9531,474 286.1875,473.75 Q286.4219,473.5 286.6875,473.5 Q287.1563,473.5 287.4531,473.7813 Q287.75,474.0625 287.75,474.7188 L287.75,476.2813 Q287.75,476.9375 287.4688,477.2188 Q287.1875,477.5 286.75,477.5 Q286.3594,477.5 286.1094,477.3281 Q285.8594,477.1563 285.75,476.7031 Q285.7031,476.3906 285.5313,476.2188 Q285.2188,475.8906 284.6563,475.7031 Q284.0938,475.5 283.5313,475.5 Q282.8281,475.5 282.2344,475.7813 Q281.6563,476.0625 281.2031,476.6875 Q280.75,477.3125 280.75,478.1719 L280.75,479.0938 Q280.75,480.125 281.5938,480.8125 Q282.4375,481.5 283.9375,481.5 Q284.8281,481.5 285.4531,481.2969 Q285.8125,481.1875 286.2188,480.8281 Q286.4844,480.625 286.625,480.5625 Q286.7656,480.5 286.9375,480.5 Q287.2656,480.5 287.5,480.7656 Q287.75,481.0156 287.75,481.375 Q287.75,481.7188 287.4063,482.125 Q286.9063,482.7188 286.1094,483.0469 Q285.0625,483.5 283.7813,483.5 Q282.2813,483.5 281.0781,482.9063 Q280.1094,482.4375 279.4219,481.4219 Q278.75,480.4063 278.75,479.2031 L278.75,478.1094 Q278.75,476.8594 279.3438,475.7656 Q279.9531,474.6719 281,474.0938 Q282.0625,473.5 283.25,473.5 Q283.9688,473.5 284.5938,473.75 Q285.2188,474 285.75,474.5 Z " fill="#000000"/><text fill="#000000" font-family="sans-serif" font-size="12" lengthAdjust="spacing" textLength="127" x="304.25" y="482.9102">VaccineSchedulleStore</text><line style="stroke:#A80036;stroke-width:1.5;" x1="125" x2="578" y1="494" y2="494"/><line style="stroke:#A80036;stroke-width:1.5;" x1="125" x2="578" y1="502" y2="502"/><ellipse cx="135" cy="513" fill="#84BE84" rx="3" ry="3" style="stroke:#038048;stroke-width:1.0;"/><text fill="#000000" font-family="sans-serif" font-size="11" lengthAdjust="spacing" textLength="429" x="144" y="517.4189">RegisterSNSUser(name, birthDate, SNSNumber, phoneNumber, email, vaccinationHistory)</text><ellipse cx="135" cy="526.8359" fill="#84BE84" rx="3" ry="3" style="stroke:#038048;stroke-width:1.0;"/><text fill="#000000" font-family="sans-serif" font-size="11" lengthAdjust="spacing" textLength="108" x="144" y="531.2549">validateSNSUser(Rcp)</text><ellipse cx="135" cy="540.6719" fill="#84BE84" rx="3" ry="3" style="stroke:#038048;stroke-width:1.0;"/><text fill="#000000" font-family="sans-serif" font-size="11" lengthAdjust="spacing" textLength="95" x="144" y="545.0908">saveSNSUser(Rcp)</text><!--MD5=[72be06cc7ae02ccc98efe28a50e62246]
class SNSUser--><rect codeLine="22" fill="#FEFECE" filter="url(#fa06dh3aojjx)" height="144.8516" id="SNSUser" style="stroke:#A80036;stroke-width:1.5;" width="415" x="7" y="630"/><ellipse cx="184.25" cy="646" fill="#ADD1B2" rx="11" ry="11" style="stroke:#A80036;stroke-width:1.0;"/><path d="M186.25,642.5 Q186.4531,642 186.6875,641.75 Q186.9219,641.5 187.1875,641.5 Q187.6563,641.5 187.9531,641.7813 Q188.25,642.0625 188.25,642.7188 L188.25,644.2813 Q188.25,644.9375 187.9688,645.2188 Q187.6875,645.5 187.25,645.5 Q186.8594,645.5 186.6094,645.3281 Q186.3594,645.1563 186.25,644.7031 Q186.2031,644.3906 186.0313,644.2188 Q185.7188,643.8906 185.1563,643.7031 Q184.5938,643.5 184.0313,643.5 Q183.3281,643.5 182.7344,643.7813 Q182.1563,644.0625 181.7031,644.6875 Q181.25,645.3125 181.25,646.1719 L181.25,647.0938 Q181.25,648.125 182.0938,648.8125 Q182.9375,649.5 184.4375,649.5 Q185.3281,649.5 185.9531,649.2969 Q186.3125,649.1875 186.7188,648.8281 Q186.9844,648.625 187.125,648.5625 Q187.2656,648.5 187.4375,648.5 Q187.7656,648.5 188,648.7656 Q188.25,649.0156 188.25,649.375 Q188.25,649.7188 187.9063,650.125 Q187.4063,650.7188 186.6094,651.0469 Q185.5625,651.5 184.2813,651.5 Q182.7813,651.5 181.5781,650.9063 Q180.6094,650.4375 179.9219,649.4219 Q179.25,648.4063 179.25,647.2031 L179.25,646.1094 Q179.25,644.8594 179.8438,643.7656 Q180.4531,642.6719 181.5,642.0938 Q182.5625,641.5 183.75,641.5 Q184.4688,641.5 185.0938,641.75 Q185.7188,642 186.25,642.5 Z " fill="#000000"/><text fill="#000000" font-family="sans-serif" font-size="12" lengthAdjust="spacing" textLength="52" x="204.75" y="650.9102">SNSUser</text><line style="stroke:#A80036;stroke-width:1.5;" x1="8" x2="421" y1="662" y2="662"/><rect fill="none" height="6" style="stroke:#C82930;stroke-width:1.0;" width="6" x="15" y="670"/><text fill="#000000" font-family="sans-serif" font-size="11" lengthAdjust="spacing" textLength="26" x="27" y="677.4189">name</text><rect fill="none" height="6" style="stroke:#C82930;stroke-width:1.0;" width="6" x="15" y="683.8359"/><text fill="#000000" font-family="sans-serif" font-size="11" lengthAdjust="spacing" textLength="43" x="27" y="691.2549">birthDate</text><rect fill="none" height="6" style="stroke:#C82930;stroke-width:1.0;" width="6" x="15" y="697.6719"/><text fill="#000000" font-family="sans-serif" font-size="11" lengthAdjust="spacing" textLength="58" x="27" y="705.0908">SNSNumber</text><rect fill="none" height="6" style="stroke:#C82930;stroke-width:1.0;" width="6" x="15" y="711.5078"/><text fill="#000000" font-family="sans-serif" font-size="11" lengthAdjust="spacing" textLength="67" x="27" y="718.9268">phoneNumber</text><rect fill="none" height="6" style="stroke:#C82930;stroke-width:1.0;" width="6" x="15" y="725.3438"/><text fill="#000000" font-family="sans-serif" font-size="11" lengthAdjust="spacing" textLength="24" x="27" y="732.7627">email</text><rect fill="none" height="6" style="stroke:#C82930;stroke-width:1.0;" width="6" x="15" y="739.1797"/><text fill="#000000" font-family="sans-serif" font-size="11" lengthAdjust="spacing" textLength="89" x="27" y="746.5986">vaccinationHistory</text><line style="stroke:#A80036;stroke-width:1.5;" x1="8" x2="421" y1="753.0156" y2="753.0156"/><ellipse cx="18" cy="764.0156" fill="#84BE84" rx="3" ry="3" style="stroke:#038048;stroke-width:1.0;"/><text fill="#000000" font-family="sans-serif" font-size="11" lengthAdjust="spacing" textLength="389" x="27" y="768.4346">SNSUser(name, birthDate, SNSNumber, phoneNumber, email, vaccinationHistory)</text><!--MD5=[7829b64950ce38e0487c4015ea331f97]
class Date--><rect codeLine="31" fill="#FEFECE" filter="url(#fa06dh3aojjx)" height="75.6719" id="Date" style="stroke:#A80036;stroke-width:1.5;" width="63" x="457" y="664.5"/><ellipse cx="474.25" cy="680.5" fill="#ADD1B2" rx="11" ry="11" style="stroke:#A80036;stroke-width:1.0;"/><path d="M476.25,677 Q476.4531,676.5 476.6875,676.25 Q476.9219,676 477.1875,676 Q477.6563,676 477.9531,676.2813 Q478.25,676.5625 478.25,677.2188 L478.25,678.7813 Q478.25,679.4375 477.9688,679.7188 Q477.6875,680 477.25,680 Q476.8594,680 476.6094,679.8281 Q476.3594,679.6563 476.25,679.2031 Q476.2031,678.8906 476.0313,678.7188 Q475.7188,678.3906 475.1563,678.2031 Q474.5938,678 474.0313,678 Q473.3281,678 472.7344,678.2813 Q472.1563,678.5625 471.7031,679.1875 Q471.25,679.8125 471.25,680.6719 L471.25,681.5938 Q471.25,682.625 472.0938,683.3125 Q472.9375,684 474.4375,684 Q475.3281,684 475.9531,683.7969 Q476.3125,683.6875 476.7188,683.3281 Q476.9844,683.125 477.125,683.0625 Q477.2656,683 477.4375,683 Q477.7656,683 478,683.2656 Q478.25,683.5156 478.25,683.875 Q478.25,684.2188 477.9063,684.625 Q477.4063,685.2188 476.6094,685.5469 Q475.5625,686 474.2813,686 Q472.7813,686 471.5781,685.4063 Q470.6094,684.9375 469.9219,683.9219 Q469.25,682.9063 469.25,681.7031 L469.25,680.6094 Q469.25,679.3594 469.8438,678.2656 Q470.4531,677.1719 471.5,676.5938 Q472.5625,676 473.75,676 Q474.4688,676 475.0938,676.25 Q475.7188,676.5 476.25,677 Z " fill="#000000"/><text fill="#000000" font-family="sans-serif" font-size="12" lengthAdjust="spacing" textLength="26" x="488.75" y="685.4102">Date</text><line style="stroke:#A80036;stroke-width:1.5;" x1="458" x2="519" y1="696.5" y2="696.5"/><rect fill="none" height="6" style="stroke:#C82930;stroke-width:1.0;" width="6" x="465" y="704.5"/><text fill="#000000" font-family="sans-serif" font-size="11" lengthAdjust="spacing" textLength="28" x="477" y="711.9189">hours</text><rect fill="none" height="6" style="stroke:#C82930;stroke-width:1.0;" width="6" x="465" y="718.3359"/><text fill="#000000" font-family="sans-serif" font-size="11" lengthAdjust="spacing" textLength="37" x="477" y="725.7549">minutes</text><line style="stroke:#A80036;stroke-width:1.5;" x1="458" x2="519" y1="732.1719" y2="732.1719"/><!--MD5=[f16987a0d5885dde9e5ef206fad86b53]
link Company to VaccineSchedulleStore--><path codeLine="36" d="M292.98,384.03 C298.94,399.88 305.64,416.68 312.5,432 C316.21,440.27 320.43,448.92 324.69,457.25 " fill="none" id="Company-to-VaccineSchedulleStore" style="stroke:#A80036;stroke-width:1.0;"/><polygon fill="#A80036" points="327.05,461.85,326.4896,452.0171,324.7626,457.4039,319.3758,455.6769,327.05,461.85" style="stroke:#A80036;stroke-width:1.0;"/><text fill="#000000" font-family="sans-serif" font-size="13" lengthAdjust="spacing" textLength="92" x="313.5" y="428.4951">Registers arrival</text><text fill="#000000" font-family="sans-serif" font-size="13" lengthAdjust="spacing" textLength="7" x="288.0559" y="405.5858">1</text><text fill="#000000" font-family="sans-serif" font-size="13" lengthAdjust="spacing" textLength="7" x="315.7702" y="451.2711">1</text><!--MD5=[2dd3e45906cd5b353c1c6bb36515ee96]
link VaccineSchedulleStore to SNSUser--><path codeLine="37" d="M320.07,552.39 C304.76,574.02 285.92,600.63 268.41,625.36 " fill="none" id="VaccineSchedulleStore-to-SNSUser" style="stroke:#A80036;stroke-width:1.0;"/><polygon fill="#A80036" points="265.38,629.63,273.8394,624.5863,268.2645,625.546,267.3049,619.9711,265.38,629.63" style="stroke:#A80036;stroke-width:1.0;"/><text fill="#000000" font-family="sans-serif" font-size="13" lengthAdjust="spacing" textLength="55" x="296.5" y="596.4951">Registers</text><text fill="#000000" font-family="sans-serif" font-size="13" lengthAdjust="spacing" textLength="7" x="308.3763" y="573.1161">1</text><text fill="#000000" font-family="sans-serif" font-size="13" lengthAdjust="spacing" textLength="5" x="265.1424" y="619.1891">*</text><!--MD5=[881d1d8c313f8111f47c80c913f270c5]
link NewUserEntryUI to NewUserEntryController--><path codeLine="38" d="M351.5,55.04 C351.5,70.71 351.5,91.91 351.5,110.58 " fill="none" id="NewUserEntryUI-to-NewUserEntryController" style="stroke:#A80036;stroke-width:1.0;stroke-dasharray:7.0,7.0;"/><polygon fill="#A80036" points="351.5,115.77,355.5,106.77,351.5,110.77,347.5,106.77,351.5,115.77" style="stroke:#A80036;stroke-width:1.0;"/><!--MD5=[fd9bb3aeb3fa6c026c103e831352ca91]
link VaccineSchedulleStore to Date--><path codeLine="39" d="M383.73,552.15 C400.5,575.24 421.25,604.04 439.5,630 C446.32,639.69 453.58,650.19 460.36,660.08 " fill="none" id="VaccineSchedulleStore-to-Date" style="stroke:#A80036;stroke-width:1.0;"/><polygon fill="#A80036" points="463.24,664.27,461.4374,654.5875,460.4074,660.1498,454.8451,659.1197,463.24,664.27" style="stroke:#A80036;stroke-width:1.0;"/><text fill="#000000" font-family="sans-serif" font-size="13" lengthAdjust="spacing" textLength="157" x="418.5" y="596.4951">Registers the time of arrival</text><!--MD5=[ecbc5a7f15ccdaa3e97f643f4e0867ef]
link NewUserEntryController to Company--><path codeLine="40" d="M332.92,192.28 C324.65,208.87 314.64,228.95 305.08,248.13 " fill="none" id="NewUserEntryController-to-Company" style="stroke:#A80036;stroke-width:1.0;stroke-dasharray:7.0,7.0;"/><polygon fill="#A80036" points="302.66,252.98,310.2466,246.6996,304.8847,248.5022,303.0821,243.1402,302.66,252.98" style="stroke:#A80036;stroke-width:1.0;"/><!--MD5=[2dab2858c7e72f326f6c815070b01277]
link NewUserEntryController to VaccineSchedulleStore--><path codeLine="42" d="M371.96,192.11 C398.91,246.03 439.65,348.69 410.5,432 C407.39,440.9 402.71,449.53 397.32,457.56 " fill="none" id="NewUserEntryController-to-VaccineSchedulleStore" style="stroke:#A80036;stroke-width:1.0;stroke-dasharray:7.0,7.0;"/><polygon fill="#A80036" points="394.25,461.95,402.669,456.8393,397.102,457.8432,396.0981,452.2761,394.25,461.95" style="stroke:#A80036;stroke-width:1.0;"/><!--MD5=[602d47033a9b9139ba1a2abaca85c481]
@startuml

class NewUserEntryController{
+RegisterSNSUser(SNSNumber, timeOfArrival)
+saveSNSUser()
}
class NewUserEntryUI{
}

class Company{
 -name
 +getUsersWithVaccination()
   +getSNSUser(userNumber)
   +NewUserEntry(SNSUser, timeOfArrival)
   +saveSNSUser(arrival)
   -validateSNSUser(arrival)
}
class VaccineSchedulleStore{
 +RegisterSNSUser(name, birthDate, SNSNumber, phoneNumber, email, vaccinationHistory)
 +validateSNSUser(Rcp)
 +saveSNSUser(Rcp)
}
class SNSUser{
- name
- birthDate
- SNSNumber
- phoneNumber
- email
- vaccinationHistory
 + SNSUser(name, birthDate, SNSNumber, phoneNumber, email, vaccinationHistory)
}
class Date{
-hours
-minutes
}

Company "1" - -> "1" VaccineSchedulleStore : Registers arrival
VaccineSchedulleStore "1" - ->"*" SNSUser: Registers
NewUserEntryUI ..> NewUserEntryController
VaccineSchedulleStore - -> Date : Registers the time of arrival
NewUserEntryController ..> Company

NewUserEntryController ..> VaccineSchedulleStore
@enduml

PlantUML version 1.2022.1(Tue Feb 01 18:19:58 GMT 2022)
(GPL source distribution)
Java Runtime: OpenJDK Runtime Environment
JVM: OpenJDK 64-Bit Server VM
Default Encoding: Cp1252
Language: pt
Country: PT
--></g></svg>