<?xml version="1.0" encoding="UTF-8" standalone="no"?><svg xmlns="http://www.w3.org/2000/svg" xmlns:xlink="http://www.w3.org/1999/xlink" contentScriptType="application/ecmascript" contentStyleType="text/css" height="394px" preserveAspectRatio="none" style="width:404px;height:394px;background:#FFFFFF;" version="1.1" viewBox="0 0 404 394" width="404px" zoomAndPan="magnify"><defs><filter height="300%" id="f1hdk25oix8xef" width="300%" x="-1" y="-1"><feGaussianBlur result="blurOut" stdDeviation="2.0"/><feColorMatrix in="blurOut" result="blurOut2" type="matrix" values="0 0 0 0 0 0 0 0 0 0 0 0 0 0 0 0 0 0 .4 0"/><feOffset dx="4.0" dy="4.0" in="blurOut2" result="blurOut3"/><feBlend in="SourceGraphic" in2="blurOut3" mode="normal"/></filter></defs><g><!--MD5=[02e4b9b7573f1156f41e60aa5b4e25a4]
class Company--><rect codeLine="4" fill="#FEFECE" filter="url(#f1hdk25oix8xef)" height="53.8359" id="Company" style="stroke:#A80036;stroke-width:1.5;" width="85" x="117" y="7"/><ellipse cx="132" cy="23" fill="#ADD1B2" rx="11" ry="11" style="stroke:#A80036;stroke-width:1.0;"/><path d="M134,19.5 Q134.2031,19 134.4375,18.75 Q134.6719,18.5 134.9375,18.5 Q135.4063,18.5 135.7031,18.7813 Q136,19.0625 136,19.7188 L136,21.2813 Q136,21.9375 135.7188,22.2188 Q135.4375,22.5 135,22.5 Q134.6094,22.5 134.3594,22.3281 Q134.1094,22.1563 134,21.7031 Q133.9531,21.3906 133.7813,21.2188 Q133.4688,20.8906 132.9063,20.7031 Q132.3438,20.5 131.7813,20.5 Q131.0781,20.5 130.4844,20.7813 Q129.9063,21.0625 129.4531,21.6875 Q129,22.3125 129,23.1719 L129,24.0938 Q129,25.125 129.8438,25.8125 Q130.6875,26.5 132.1875,26.5 Q133.0781,26.5 133.7031,26.2969 Q134.0625,26.1875 134.4688,25.8281 Q134.7344,25.625 134.875,25.5625 Q135.0156,25.5 135.1875,25.5 Q135.5156,25.5 135.75,25.7656 Q136,26.0156 136,26.375 Q136,26.7188 135.6563,27.125 Q135.1563,27.7188 134.3594,28.0469 Q133.3125,28.5 132.0313,28.5 Q130.5313,28.5 129.3281,27.9063 Q128.3594,27.4375 127.6719,26.4219 Q127,25.4063 127,24.2031 L127,23.1094 Q127,21.8594 127.5938,20.7656 Q128.2031,19.6719 129.25,19.0938 Q130.3125,18.5 131.5,18.5 Q132.2188,18.5 132.8438,18.75 Q133.4688,19 134,19.5 Z " fill="#000000"/><text fill="#000000" font-family="sans-serif" font-size="12" lengthAdjust="spacing" textLength="53" x="146" y="27.9102">Company</text><line style="stroke:#A80036;stroke-width:1.5;" x1="118" x2="201" y1="39" y2="39"/><text fill="#000000" font-family="sans-serif" font-size="11" lengthAdjust="spacing" textLength="59" x="123" y="54.4189">-designation</text><!--MD5=[e083d63eedcc0b42302f10a27278e39e]
class ArrivalSNSUser--><rect codeLine="8" fill="#FEFECE" filter="url(#f1hdk25oix8xef)" height="40" id="ArrivalSNSUser" style="stroke:#A80036;stroke-width:1.5;" width="117" x="101" y="139"/><ellipse cx="116" cy="155" fill="#ADD1B2" rx="11" ry="11" style="stroke:#A80036;stroke-width:1.0;"/><path d="M118,151.5 Q118.2031,151 118.4375,150.75 Q118.6719,150.5 118.9375,150.5 Q119.4063,150.5 119.7031,150.7813 Q120,151.0625 120,151.7188 L120,153.2813 Q120,153.9375 119.7188,154.2188 Q119.4375,154.5 119,154.5 Q118.6094,154.5 118.3594,154.3281 Q118.1094,154.1563 118,153.7031 Q117.9531,153.3906 117.7813,153.2188 Q117.4688,152.8906 116.9063,152.7031 Q116.3438,152.5 115.7813,152.5 Q115.0781,152.5 114.4844,152.7813 Q113.9063,153.0625 113.4531,153.6875 Q113,154.3125 113,155.1719 L113,156.0938 Q113,157.125 113.8438,157.8125 Q114.6875,158.5 116.1875,158.5 Q117.0781,158.5 117.7031,158.2969 Q118.0625,158.1875 118.4688,157.8281 Q118.7344,157.625 118.875,157.5625 Q119.0156,157.5 119.1875,157.5 Q119.5156,157.5 119.75,157.7656 Q120,158.0156 120,158.375 Q120,158.7188 119.6563,159.125 Q119.1563,159.7188 118.3594,160.0469 Q117.3125,160.5 116.0313,160.5 Q114.5313,160.5 113.3281,159.9063 Q112.3594,159.4375 111.6719,158.4219 Q111,157.4063 111,156.2031 L111,155.1094 Q111,153.8594 111.5938,152.7656 Q112.2031,151.6719 113.25,151.0938 Q114.3125,150.5 115.5,150.5 Q116.2188,150.5 116.8438,150.75 Q117.4688,151 118,151.5 Z " fill="#000000"/><text fill="#000000" font-family="sans-serif" font-size="12" lengthAdjust="spacing" textLength="85" x="130" y="159.9102">ArrivalSNSUser</text><line style="stroke:#A80036;stroke-width:1.5;" x1="102" x2="217" y1="171" y2="171"/><!--MD5=[72be06cc7ae02ccc98efe28a50e62246]
class SNSUser--><rect codeLine="11" fill="#FEFECE" filter="url(#f1hdk25oix8xef)" height="123.0156" id="SNSUser" style="stroke:#A80036;stroke-width:1.5;" width="105" x="7" y="257"/><ellipse cx="31.45" cy="273" fill="#ADD1B2" rx="11" ry="11" style="stroke:#A80036;stroke-width:1.0;"/><path d="M33.45,269.5 Q33.6531,269 33.8875,268.75 Q34.1219,268.5 34.3875,268.5 Q34.8563,268.5 35.1531,268.7813 Q35.45,269.0625 35.45,269.7188 L35.45,271.2813 Q35.45,271.9375 35.1688,272.2188 Q34.8875,272.5 34.45,272.5 Q34.0594,272.5 33.8094,272.3281 Q33.5594,272.1563 33.45,271.7031 Q33.4031,271.3906 33.2313,271.2188 Q32.9188,270.8906 32.3563,270.7031 Q31.7938,270.5 31.2313,270.5 Q30.5281,270.5 29.9344,270.7813 Q29.3563,271.0625 28.9031,271.6875 Q28.45,272.3125 28.45,273.1719 L28.45,274.0938 Q28.45,275.125 29.2938,275.8125 Q30.1375,276.5 31.6375,276.5 Q32.5281,276.5 33.1531,276.2969 Q33.5125,276.1875 33.9188,275.8281 Q34.1844,275.625 34.325,275.5625 Q34.4656,275.5 34.6375,275.5 Q34.9656,275.5 35.2,275.7656 Q35.45,276.0156 35.45,276.375 Q35.45,276.7188 35.1063,277.125 Q34.6063,277.7188 33.8094,278.0469 Q32.7625,278.5 31.4813,278.5 Q29.9813,278.5 28.7781,277.9063 Q27.8094,277.4375 27.1219,276.4219 Q26.45,275.4063 26.45,274.2031 L26.45,273.1094 Q26.45,271.8594 27.0438,270.7656 Q27.6531,269.6719 28.7,269.0938 Q29.7625,268.5 30.95,268.5 Q31.6688,268.5 32.2938,268.75 Q32.9188,269 33.45,269.5 Z " fill="#000000"/><text fill="#000000" font-family="sans-serif" font-size="12" lengthAdjust="spacing" textLength="52" x="47.55" y="277.9102">SNSUser</text><line style="stroke:#A80036;stroke-width:1.5;" x1="8" x2="111" y1="289" y2="289"/><text fill="#000000" font-family="sans-serif" font-size="11" lengthAdjust="spacing" textLength="30" x="13" y="304.4189">-name</text><text fill="#000000" font-family="sans-serif" font-size="11" lengthAdjust="spacing" textLength="47" x="13" y="318.2549">-birthDate</text><text fill="#000000" font-family="sans-serif" font-size="11" lengthAdjust="spacing" textLength="62" x="13" y="332.0908">-SNSNumber</text><text fill="#000000" font-family="sans-serif" font-size="11" lengthAdjust="spacing" textLength="71" x="13" y="345.9268">-phoneNumber</text><text fill="#000000" font-family="sans-serif" font-size="11" lengthAdjust="spacing" textLength="28" x="13" y="359.7627">-email</text><text fill="#000000" font-family="sans-serif" font-size="11" lengthAdjust="spacing" textLength="93" x="13" y="373.5986">-vaccinationHistory</text><!--MD5=[85b1c5f67ecb91b1bfafc5d0749fb216]
class UserCheckIn--><rect codeLine="20" fill="#FEFECE" filter="url(#f1hdk25oix8xef)" height="67.6719" id="UserCheckIn" style="stroke:#A80036;stroke-width:1.5;" width="104" x="208.5" y="284.5"/><ellipse cx="223.5" cy="300.5" fill="#ADD1B2" rx="11" ry="11" style="stroke:#A80036;stroke-width:1.0;"/><path d="M225.5,297 Q225.7031,296.5 225.9375,296.25 Q226.1719,296 226.4375,296 Q226.9063,296 227.2031,296.2813 Q227.5,296.5625 227.5,297.2188 L227.5,298.7813 Q227.5,299.4375 227.2188,299.7188 Q226.9375,300 226.5,300 Q226.1094,300 225.8594,299.8281 Q225.6094,299.6563 225.5,299.2031 Q225.4531,298.8906 225.2813,298.7188 Q224.9688,298.3906 224.4063,298.2031 Q223.8438,298 223.2813,298 Q222.5781,298 221.9844,298.2813 Q221.4063,298.5625 220.9531,299.1875 Q220.5,299.8125 220.5,300.6719 L220.5,301.5938 Q220.5,302.625 221.3438,303.3125 Q222.1875,304 223.6875,304 Q224.5781,304 225.2031,303.7969 Q225.5625,303.6875 225.9688,303.3281 Q226.2344,303.125 226.375,303.0625 Q226.5156,303 226.6875,303 Q227.0156,303 227.25,303.2656 Q227.5,303.5156 227.5,303.875 Q227.5,304.2188 227.1563,304.625 Q226.6563,305.2188 225.8594,305.5469 Q224.8125,306 223.5313,306 Q222.0313,306 220.8281,305.4063 Q219.8594,304.9375 219.1719,303.9219 Q218.5,302.9063 218.5,301.7031 L218.5,300.6094 Q218.5,299.3594 219.0938,298.2656 Q219.7031,297.1719 220.75,296.5938 Q221.8125,296 223,296 Q223.7188,296 224.3438,296.25 Q224.9688,296.5 225.5,297 Z " fill="#000000"/><text fill="#000000" font-family="sans-serif" font-size="12" lengthAdjust="spacing" textLength="72" x="237.5" y="305.4102">UserCheckIn</text><line style="stroke:#A80036;stroke-width:1.5;" x1="209.5" x2="311.5" y1="316.5" y2="316.5"/><text fill="#000000" font-family="sans-serif" font-size="11" lengthAdjust="spacing" textLength="62" x="214.5" y="331.9189">-SNSNumber</text><text fill="#000000" font-family="sans-serif" font-size="11" lengthAdjust="spacing" textLength="77" x="214.5" y="345.7549">-VacinationDate</text><!--MD5=[8e29eefb6eebbaf51e904c973399982b]
link Company to ArrivalSNSUser--><path codeLine="25" d="M159.5,61.09 C159.5,84.36 159.5,117.89 159.5,138.79 " fill="none" id="Company-ArrivalSNSUser" style="stroke:#A80036;stroke-width:1.0;"/><polygon fill="#000000" points="164.5,105.1758,167.4389,96.1307,161.5611,96.1307,164.5,105.1758" style="stroke:#000000;stroke-width:1.0;"/><text fill="#000000" font-family="sans-serif" font-size="13" lengthAdjust="spacing" textLength="109" x="173.5" y="105.4951">registers the arrival</text><text fill="#000000" font-family="sans-serif" font-size="13" lengthAdjust="spacing" textLength="7" x="151.7344" y="82.3175">1</text><text fill="#000000" font-family="sans-serif" font-size="13" lengthAdjust="spacing" textLength="5" x="153.7656" y="128.0501">*</text><!--MD5=[dfe12d1da88f5125c95fc076c41c121d]
link ArrivalSNSUser to SNSUser--><path codeLine="26" d="M100.99,174.66 C83.67,182.02 66.65,192.93 56.5,209 C47.64,223.02 45.23,240.22 45.88,256.76 " fill="none" id="ArrivalSNSUser-SNSUser" style="stroke:#A80036;stroke-width:1.0;"/><polygon fill="#000000" points="58.7133,222.3272,66.1946,216.4552,61.3143,213.1792,58.7133,222.3272" style="stroke:#000000;stroke-width:1.0;"/><text fill="#000000" font-family="sans-serif" font-size="13" lengthAdjust="spacing" textLength="146" x="70.5" y="223.4951">registers user that arrived</text><text fill="#000000" font-family="sans-serif" font-size="13" lengthAdjust="spacing" textLength="7" x="86.045" y="173.1591">1</text><text fill="#000000" font-family="sans-serif" font-size="13" lengthAdjust="spacing" textLength="7" x="36.9005" y="246.2109">1</text><!--MD5=[d68b7588ce4f1c68a11706fa43fa1d46]
link ArrivalSNSUser to UserCheckIn--><path codeLine="27" d="M190.31,179.06 C201.37,187.16 213.17,197.42 221.5,209 C237.75,231.59 247.85,261.63 253.69,284.38 " fill="none" id="ArrivalSNSUser-UserCheckIn" style="stroke:#A80036;stroke-width:1.0;"/><polygon fill="#000000" points="238.0781,222.4599,235.9324,213.1945,230.8962,216.2253,238.0781,222.4599" style="stroke:#000000;stroke-width:1.0;"/><text fill="#000000" font-family="sans-serif" font-size="13" lengthAdjust="spacing" textLength="152" x="244.5" y="223.4951">registers the time of arrival</text><text fill="#000000" font-family="sans-serif" font-size="13" lengthAdjust="spacing" textLength="7" x="190.9909" y="200.4964">1</text><text fill="#000000" font-family="sans-serif" font-size="13" lengthAdjust="spacing" textLength="7" x="244.6602" y="273.6496">1</text><!--MD5=[cc3c2ae8cc6011f213d8c0487689f068]
@startuml
hide methods
skinparam classAttributeIconSize 0

class Company {
  -designation
}

class ArrivalSNSUser {
}

class SNSUser{
- name
- birthDate
- SNSNumber
- phoneNumber
- email
- vaccinationHistory
}

class UserCheckIn{
  -SNSNumber
  -VacinationDate
}

Company "1" - - "*" ArrivalSNSUser : registers the arrival >
ArrivalSNSUser "1" - - "1" SNSUser : registers user that arrived >
ArrivalSNSUser "1" - - "1" UserCheckIn : registers the time of arrival >


@enduml

PlantUML version 1.2022.1(Tue Feb 01 18:19:58 GMT 2022)
(GPL source distribution)
Java Runtime: OpenJDK Runtime Environment
JVM: OpenJDK 64-Bit Server VM
Default Encoding: Cp1252
Language: pt
Country: PT
--></g></svg>