<?xml version="1.0" encoding="UTF-8" standalone="no"?><svg xmlns="http://www.w3.org/2000/svg" xmlns:xlink="http://www.w3.org/1999/xlink" contentScriptType="application/ecmascript" contentStyleType="text/css" height="706px" preserveAspectRatio="none" style="width:1515px;height:706px;background:#FFFFFF;" version="1.1" viewBox="0 0 1515 706" width="1515px" zoomAndPan="magnify"><defs><filter height="300%" id="fk4chyzlbwirh" width="300%" x="-1" y="-1"><feGaussianBlur result="blurOut" stdDeviation="2.0"/><feColorMatrix in="blurOut" result="blurOut2" type="matrix" values="0 0 0 0 0 0 0 0 0 0 0 0 0 0 0 0 0 0 .4 0"/><feOffset dx="4.0" dy="4.0" in="blurOut2" result="blurOut3"/><feBlend in="SourceGraphic" in2="blurOut3" mode="normal"/></filter></defs><g><rect fill="#FFFFFF" filter="url(#fk4chyzlbwirh)" height="490.2734" style="stroke:#A80036;stroke-width:1.0;" width="10" x="42" y="121.9609"/><rect fill="#FFFFFF" filter="url(#fk4chyzlbwirh)" height="30.3516" style="stroke:#A80036;stroke-width:1.0;" width="10" x="504" y="121.9609"/><rect fill="#FFFFFF" filter="url(#fk4chyzlbwirh)" height="121.4063" style="stroke:#A80036;stroke-width:1.0;" width="10" x="504" y="182.6641"/><rect fill="#FFFFFF" filter="url(#fk4chyzlbwirh)" height="268.8125" style="stroke:#A80036;stroke-width:1.0;" width="10" x="504" y="334.4219"/><rect fill="#FFFFFF" filter="url(#fk4chyzlbwirh)" height="60.7031" style="stroke:#A80036;stroke-width:1.0;" width="10" x="657" y="213.0156"/><rect fill="#FFFFFF" filter="url(#fk4chyzlbwirh)" height="91.0547" style="stroke:#A80036;stroke-width:1.0;" width="10" x="657" y="364.7734"/><rect fill="#FFFFFF" filter="url(#fk4chyzlbwirh)" height="117.0547" style="stroke:#A80036;stroke-width:1.0;" width="10" x="1320" y="455.8281"/><line style="stroke:#A80036;stroke-width:1.0;stroke-dasharray:5.0,5.0;" x1="47" x2="47" y1="89.6094" y2="621.2344"/><line style="stroke:#A80036;stroke-width:1.0;stroke-dasharray:5.0,5.0;" x1="509" x2="509" y1="89.6094" y2="621.2344"/><line style="stroke:#A80036;stroke-width:1.0;stroke-dasharray:5.0,5.0;" x1="662" x2="662" y1="89.6094" y2="621.2344"/><line style="stroke:#A80036;stroke-width:1.0;stroke-dasharray:5.0,5.0;" x1="988" x2="988" y1="89.6094" y2="621.2344"/><line style="stroke:#A80036;stroke-width:1.0;stroke-dasharray:5.0,5.0;" x1="1126" x2="1126" y1="89.6094" y2="621.2344"/><line style="stroke:#A80036;stroke-width:1.0;stroke-dasharray:5.0,5.0;" x1="1325" x2="1325" y1="89.6094" y2="621.2344"/><text fill="#000000" font-family="sans-serif" font-size="14" lengthAdjust="spacing" textLength="78" x="5" y="86.5332">Receptionist</text><ellipse cx="47" cy="15" fill="#FEFECE" filter="url(#fk4chyzlbwirh)" rx="8" ry="8" style="stroke:#A80036;stroke-width:2.0;"/><path d="M47,23 L47,50 M34,31 L60,31 M47,50 L34,65 M47,50 L60,65 " fill="none" filter="url(#fk4chyzlbwirh)" style="stroke:#A80036;stroke-width:2.0;"/><text fill="#000000" font-family="sans-serif" font-size="14" lengthAdjust="spacing" textLength="78" x="5" y="634.7676">Receptionist</text><ellipse cx="47" cy="647.8438" fill="#FEFECE" filter="url(#fk4chyzlbwirh)" rx="8" ry="8" style="stroke:#A80036;stroke-width:2.0;"/><path d="M47,655.8438 L47,682.8438 M34,663.8438 L60,663.8438 M47,682.8438 L34,697.8438 M47,682.8438 L60,697.8438 " fill="none" filter="url(#fk4chyzlbwirh)" style="stroke:#A80036;stroke-width:2.0;"/><rect fill="#FEFECE" filter="url(#fk4chyzlbwirh)" height="31.6094" style="stroke:#A80036;stroke-width:1.5;" width="114" x="450" y="53"/><text fill="#000000" font-family="sans-serif" font-size="14" lengthAdjust="spacing" textLength="100" x="457" y="74.5332">NewUserEntryUI</text><rect fill="#FEFECE" filter="url(#fk4chyzlbwirh)" height="31.6094" style="stroke:#A80036;stroke-width:1.5;" width="114" x="450" y="620.2344"/><text fill="#000000" font-family="sans-serif" font-size="14" lengthAdjust="spacing" textLength="100" x="457" y="641.7676">NewUserEntryUI</text><rect fill="#FEFECE" filter="url(#fk4chyzlbwirh)" height="31.6094" style="stroke:#A80036;stroke-width:1.5;" width="164" x="578" y="53"/><text fill="#000000" font-family="sans-serif" font-size="14" lengthAdjust="spacing" textLength="150" x="585" y="74.5332">NewUserEntryController</text><rect fill="#FEFECE" filter="url(#fk4chyzlbwirh)" height="31.6094" style="stroke:#A80036;stroke-width:1.5;" width="164" x="578" y="620.2344"/><text fill="#000000" font-family="sans-serif" font-size="14" lengthAdjust="spacing" textLength="150" x="585" y="641.7676">NewUserEntryController</text><rect fill="#FEFECE" filter="url(#fk4chyzlbwirh)" height="31.6094" style="stroke:#A80036;stroke-width:1.5;" width="74" x="949" y="53"/><text fill="#000000" font-family="sans-serif" font-size="14" lengthAdjust="spacing" textLength="60" x="956" y="74.5332">Company</text><rect fill="#FEFECE" filter="url(#fk4chyzlbwirh)" height="31.6094" style="stroke:#A80036;stroke-width:1.5;" width="74" x="949" y="620.2344"/><text fill="#000000" font-family="sans-serif" font-size="14" lengthAdjust="spacing" textLength="60" x="956" y="641.7676">Company</text><rect fill="#FEFECE" filter="url(#fk4chyzlbwirh)" height="31.6094" style="stroke:#A80036;stroke-width:1.5;" width="174" x="1037" y="53"/><text fill="#000000" font-family="sans-serif" font-size="14" lengthAdjust="spacing" textLength="160" x="1044" y="74.5332">store:VaccineArrivalStore</text><rect fill="#FEFECE" filter="url(#fk4chyzlbwirh)" height="31.6094" style="stroke:#A80036;stroke-width:1.5;" width="174" x="1037" y="620.2344"/><text fill="#000000" font-family="sans-serif" font-size="14" lengthAdjust="spacing" textLength="160" x="1044" y="641.7676">store:VaccineArrivalStore</text><rect fill="#FEFECE" filter="url(#fk4chyzlbwirh)" height="31.6094" style="stroke:#A80036;stroke-width:1.5;" width="196" x="1225" y="53"/><text fill="#000000" font-family="sans-serif" font-size="14" lengthAdjust="spacing" textLength="182" x="1232" y="74.5332">store:VaccineSchedulleStore</text><rect fill="#FEFECE" filter="url(#fk4chyzlbwirh)" height="31.6094" style="stroke:#A80036;stroke-width:1.5;" width="196" x="1225" y="620.2344"/><text fill="#000000" font-family="sans-serif" font-size="14" lengthAdjust="spacing" textLength="182" x="1232" y="641.7676">store:VaccineSchedulleStore</text><rect fill="#FFFFFF" filter="url(#fk4chyzlbwirh)" height="490.2734" style="stroke:#A80036;stroke-width:1.0;" width="10" x="42" y="121.9609"/><rect fill="#FFFFFF" filter="url(#fk4chyzlbwirh)" height="30.3516" style="stroke:#A80036;stroke-width:1.0;" width="10" x="504" y="121.9609"/><rect fill="#FFFFFF" filter="url(#fk4chyzlbwirh)" height="121.4063" style="stroke:#A80036;stroke-width:1.0;" width="10" x="504" y="182.6641"/><rect fill="#FFFFFF" filter="url(#fk4chyzlbwirh)" height="268.8125" style="stroke:#A80036;stroke-width:1.0;" width="10" x="504" y="334.4219"/><rect fill="#FFFFFF" filter="url(#fk4chyzlbwirh)" height="60.7031" style="stroke:#A80036;stroke-width:1.0;" width="10" x="657" y="213.0156"/><rect fill="#FFFFFF" filter="url(#fk4chyzlbwirh)" height="91.0547" style="stroke:#A80036;stroke-width:1.0;" width="10" x="657" y="364.7734"/><rect fill="#FFFFFF" filter="url(#fk4chyzlbwirh)" height="117.0547" style="stroke:#A80036;stroke-width:1.0;" width="10" x="1320" y="455.8281"/><polygon fill="#A80036" points="492,117.9609,502,121.9609,492,125.9609,496,121.9609" style="stroke:#A80036;stroke-width:1.0;"/><line style="stroke:#A80036;stroke-width:1.0;" x1="52" x2="498" y1="121.9609" y2="121.9609"/><text fill="#000000" font-family="sans-serif" font-size="13" font-weight="bold" lengthAdjust="spacing" textLength="7" x="59" y="117.1045">1</text><text fill="#000000" font-family="sans-serif" font-size="13" lengthAdjust="spacing" textLength="427" x="70" y="117.1045">Initiates the process to register the arrival of a SNS Rcp to take the vacine</text><polygon fill="#A80036" points="63,148.3125,53,152.3125,63,156.3125,59,152.3125" style="stroke:#A80036;stroke-width:1.0;"/><line style="stroke:#A80036;stroke-width:1.0;stroke-dasharray:2.0,2.0;" x1="57" x2="508" y1="152.3125" y2="152.3125"/><text fill="#000000" font-family="sans-serif" font-size="13" font-weight="bold" lengthAdjust="spacing" textLength="7" x="69" y="147.4561">2</text><text fill="#000000" font-family="sans-serif" font-size="13" lengthAdjust="spacing" textLength="240" x="80" y="147.4561">requests data(SNSNumber, timeOfArrival)</text><polygon fill="#A80036" points="492,178.6641,502,182.6641,492,186.6641,496,182.6641" style="stroke:#A80036;stroke-width:1.0;"/><line style="stroke:#A80036;stroke-width:1.0;" x1="52" x2="498" y1="182.6641" y2="182.6641"/><text fill="#000000" font-family="sans-serif" font-size="13" font-weight="bold" lengthAdjust="spacing" textLength="7" x="59" y="177.8076">3</text><text fill="#000000" font-family="sans-serif" font-size="13" lengthAdjust="spacing" textLength="235" x="70" y="177.8076">types requested data, and time of arrival.</text><polygon fill="#A80036" points="645,209.0156,655,213.0156,645,217.0156,649,213.0156" style="stroke:#A80036;stroke-width:1.0;"/><line style="stroke:#A80036;stroke-width:1.0;" x1="514" x2="651" y1="213.0156" y2="213.0156"/><text fill="#000000" font-family="sans-serif" font-size="13" font-weight="bold" lengthAdjust="spacing" textLength="7" x="521" y="208.1592">4</text><text fill="#000000" font-family="sans-serif" font-size="13" lengthAdjust="spacing" textLength="109" x="532" y="208.1592">validationOfArrival()</text><polygon fill="#A80036" points="976,239.3672,986,243.3672,976,247.3672,980,243.3672" style="stroke:#A80036;stroke-width:1.0;"/><line style="stroke:#A80036;stroke-width:1.0;" x1="667" x2="982" y1="243.3672" y2="243.3672"/><text fill="#000000" font-family="sans-serif" font-size="13" font-weight="bold" lengthAdjust="spacing" textLength="7" x="674" y="238.5107">5</text><text fill="#000000" font-family="sans-serif" font-size="13" lengthAdjust="spacing" textLength="248" x="685" y="238.5107">arrivalOfVaccine = getVaccineArrivalStore()</text><polygon fill="#A80036" points="1114,269.7188,1124,273.7188,1114,277.7188,1118,273.7188" style="stroke:#A80036;stroke-width:1.0;"/><line style="stroke:#A80036;stroke-width:1.0;" x1="662" x2="1120" y1="273.7188" y2="273.7188"/><text fill="#000000" font-family="sans-serif" font-size="13" font-weight="bold" lengthAdjust="spacing" textLength="7" x="669" y="268.8623">6</text><text fill="#000000" font-family="sans-serif" font-size="13" lengthAdjust="spacing" textLength="159" x="680" y="268.8623">flag = validateReceptionist()</text><polygon fill="#A80036" points="63,300.0703,53,304.0703,63,308.0703,59,304.0703" style="stroke:#A80036;stroke-width:1.0;"/><line style="stroke:#A80036;stroke-width:1.0;stroke-dasharray:2.0,2.0;" x1="57" x2="508" y1="304.0703" y2="304.0703"/><text fill="#000000" font-family="sans-serif" font-size="13" font-weight="bold" lengthAdjust="spacing" textLength="7" x="69" y="299.2139">7</text><text fill="#000000" font-family="sans-serif" font-size="13" lengthAdjust="spacing" textLength="367" x="80" y="299.2139">shows the data regarding SNS Rcp and requests a confirmation</text><polygon fill="#A80036" points="492,330.4219,502,334.4219,492,338.4219,496,334.4219" style="stroke:#A80036;stroke-width:1.0;"/><line style="stroke:#A80036;stroke-width:1.0;" x1="52" x2="498" y1="334.4219" y2="334.4219"/><text fill="#000000" font-family="sans-serif" font-size="13" font-weight="bold" lengthAdjust="spacing" textLength="7" x="59" y="329.5654">8</text><text fill="#000000" font-family="sans-serif" font-size="13" lengthAdjust="spacing" textLength="100" x="70" y="329.5654">confirms the data</text><polygon fill="#A80036" points="645,360.7734,655,364.7734,645,368.7734,649,364.7734" style="stroke:#A80036;stroke-width:1.0;"/><line style="stroke:#A80036;stroke-width:1.0;" x1="514" x2="651" y1="364.7734" y2="364.7734"/><text fill="#000000" font-family="sans-serif" font-size="13" font-weight="bold" lengthAdjust="spacing" textLength="7" x="521" y="359.917">9</text><text fill="#000000" font-family="sans-serif" font-size="13" lengthAdjust="spacing" textLength="91" x="532" y="359.917">ArrivalRegister()</text><polygon fill="#A80036" points="976,391.125,986,395.125,976,399.125,980,395.125" style="stroke:#A80036;stroke-width:1.0;"/><line style="stroke:#A80036;stroke-width:1.0;" x1="667" x2="982" y1="395.125" y2="395.125"/><text fill="#000000" font-family="sans-serif" font-size="13" font-weight="bold" lengthAdjust="spacing" textLength="14" x="674" y="390.2686">10</text><text fill="#000000" font-family="sans-serif" font-size="13" lengthAdjust="spacing" textLength="248" x="692" y="390.2686">arrivalOfVaccine = getVaccineArrivalStore()</text><polygon fill="#A80036" points="976,421.4766,986,425.4766,976,429.4766,980,425.4766" style="stroke:#A80036;stroke-width:1.0;"/><line style="stroke:#A80036;stroke-width:1.0;" x1="667" x2="982" y1="425.4766" y2="425.4766"/><text fill="#000000" font-family="sans-serif" font-size="13" font-weight="bold" lengthAdjust="spacing" textLength="14" x="674" y="420.6201">11</text><text fill="#000000" font-family="sans-serif" font-size="13" lengthAdjust="spacing" textLength="279" x="692" y="420.6201">schedulleVaccine = getVaccineSchedulleStore()</text><polygon fill="#A80036" points="1308,451.8281,1318,455.8281,1308,459.8281,1312,455.8281" style="stroke:#A80036;stroke-width:1.0;"/><line style="stroke:#A80036;stroke-width:1.0;" x1="662" x2="1314" y1="455.8281" y2="455.8281"/><text fill="#000000" font-family="sans-serif" font-size="13" font-weight="bold" lengthAdjust="spacing" textLength="14" x="669" y="450.9717">12</text><text fill="#000000" font-family="sans-serif" font-size="13" lengthAdjust="spacing" textLength="212" x="687" y="450.9717">getSchedulleList= getListSchedulle()</text><line style="stroke:#A80036;stroke-width:1.0;" x1="1330" x2="1372" y1="486.1797" y2="486.1797"/><line style="stroke:#A80036;stroke-width:1.0;" x1="1372" x2="1372" y1="486.1797" y2="499.1797"/><line style="stroke:#A80036;stroke-width:1.0;" x1="1331" x2="1372" y1="499.1797" y2="499.1797"/><polygon fill="#A80036" points="1341,495.1797,1331,499.1797,1341,503.1797,1337,499.1797" style="stroke:#A80036;stroke-width:1.0;"/><text fill="#000000" font-family="sans-serif" font-size="13" font-weight="bold" lengthAdjust="spacing" textLength="14" x="1337" y="481.3232">13</text><text fill="#000000" font-family="sans-serif" font-size="13" lengthAdjust="spacing" textLength="123" x="1355" y="481.3232">validateReceptionist()</text><line style="stroke:#A80036;stroke-width:1.0;" x1="1330" x2="1372" y1="529.5313" y2="529.5313"/><line style="stroke:#A80036;stroke-width:1.0;" x1="1372" x2="1372" y1="529.5313" y2="542.5313"/><line style="stroke:#A80036;stroke-width:1.0;" x1="1331" x2="1372" y1="542.5313" y2="542.5313"/><polygon fill="#A80036" points="1341,538.5313,1331,542.5313,1341,546.5313,1337,542.5313" style="stroke:#A80036;stroke-width:1.0;"/><text fill="#000000" font-family="sans-serif" font-size="13" font-weight="bold" lengthAdjust="spacing" textLength="14" x="1337" y="524.6748">14</text><text fill="#000000" font-family="sans-serif" font-size="13" lengthAdjust="spacing" textLength="153" x="1355" y="524.6748">validateVacinationHistory()</text><polygon fill="#A80036" points="1137,568.8828,1127,572.8828,1137,576.8828,1133,572.8828" style="stroke:#A80036;stroke-width:1.0;"/><line style="stroke:#A80036;stroke-width:1.0;" x1="1131" x2="1324" y1="572.8828" y2="572.8828"/><text fill="#000000" font-family="sans-serif" font-size="13" font-weight="bold" lengthAdjust="spacing" textLength="14" x="1143" y="568.0264">15</text><text fill="#000000" font-family="sans-serif" font-size="13" lengthAdjust="spacing" textLength="129" x="1161" y="568.0264">setlist= setArrivalList()</text><polygon fill="#A80036" points="63,599.2344,53,603.2344,63,607.2344,59,603.2344" style="stroke:#A80036;stroke-width:1.0;"/><line style="stroke:#A80036;stroke-width:1.0;stroke-dasharray:2.0,2.0;" x1="57" x2="508" y1="603.2344" y2="603.2344"/><text fill="#000000" font-family="sans-serif" font-size="13" font-weight="bold" lengthAdjust="spacing" textLength="14" x="69" y="598.3779">16</text><text fill="#000000" font-family="sans-serif" font-size="13" lengthAdjust="spacing" textLength="152" x="87" y="598.3779">informs operation success</text><!--MD5=[43b71e57086f2176e0bb245f4fbcacf7]
@startuml
Actor Receptionist as Rcp
Rcp -> NewUserEntryUI : **1** Initiates the process to register the arrival of a SNS Rcp to take the vacine
activate NewUserEntryUI
activate Rcp

NewUserEntryUI - -> Rcp: **2** requests data(SNSNumber, timeOfArrival)
deactivate NewUserEntryUI


Rcp -> NewUserEntryUI :**3** types requested data, and time of arrival.
activate NewUserEntryUI

NewUserEntryUI -> NewUserEntryController: **4** validationOfArrival()
activate NewUserEntryController

NewUserEntryController -> Company : **5** arrivalOfVaccine = getVaccineArrivalStore()

NewUserEntryController -> "store:VaccineArrivalStore": **6** flag = validateReceptionist()
deactivate NewUserEntryController


NewUserEntryUI - -> Rcp: **7** shows the data regarding SNS Rcp and requests a confirmation
deactivate NewUserEntryUI

Rcp -> NewUserEntryUI :**8** confirms the data
activate NewUserEntryUI

NewUserEntryUI -> NewUserEntryController: **9** ArrivalRegister()

activate NewUserEntryController
NewUserEntryController -> Company : **10** arrivalOfVaccine = getVaccineArrivalStore()
NewUserEntryController -> Company : **11** schedulleVaccine = getVaccineSchedulleStore()

NewUserEntryController -> "store:VaccineSchedulleStore": **12** getSchedulleList= getListSchedulle()
deactivate NewUserEntryController

activate "store:VaccineSchedulleStore"
"store:VaccineSchedulleStore" -> "store:VaccineSchedulleStore": **13** validateReceptionist()
"store:VaccineSchedulleStore" -> "store:VaccineSchedulleStore": **14** validateVacinationHistory()
"store:VaccineSchedulleStore" -> "store:VaccineArrivalStore": **15** setlist= setArrivalList()
deactivate "store:VaccineSchedulleStore"


NewUserEntryUI - -> Rcp: **16** informs operation success
deactivate NewUserEntryUI
@enduml

PlantUML version 1.2022.1(Tue Feb 01 18:19:58 GMT 2022)
(GPL source distribution)
Java Runtime: OpenJDK Runtime Environment
JVM: OpenJDK 64-Bit Server VM
Default Encoding: Cp1252
Language: pt
Country: PT
--></g></svg>