<?xml version="1.0" encoding="UTF-8" standalone="no"?><svg xmlns="http://www.w3.org/2000/svg" xmlns:xlink="http://www.w3.org/1999/xlink" contentScriptType="application/ecmascript" contentStyleType="text/css" height="575.4px" preserveAspectRatio="none" style="width:561px;height:575px;background:#FFFFFF;" version="1.1" viewBox="0 0 561 575" width="561.4px" zoomAndPan="magnify"><defs><filter height="300%" id="f1s4cusjxtchmg" width="300%" x="-1" y="-1"><feGaussianBlur result="blurOut" stdDeviation="1.3999999999999997"/><feColorMatrix in="blurOut" result="blurOut2" type="matrix" values="0 0 0 0 0 0 0 0 0 0 0 0 0 0 0 0 0 0 .4 0"/><feOffset dx="2.7999999999999994" dy="2.7999999999999994" in="blurOut2" result="blurOut3"/><feBlend in="SourceGraphic" in2="blurOut3" mode="normal"/></filter></defs><g><!--MD5=[99b31deea5d7419a569cd5090bf83263]
cluster System--><rect fill="#FFFFFF" filter="url(#f1s4cusjxtchmg)" height="555.1" style="stroke:#000000;stroke-width:1.0499999999999998;" width="438.9" x="114.1" y="4.9"/><text fill="#000000" font-family="sans-serif" font-size="9.8" font-weight="bold" lengthAdjust="spacing" textLength="35" x="316.05" y="16.4732">System</text><ellipse cx="239.3763" cy="146.1553" fill="#FEFECE" filter="url(#f1s4cusjxtchmg)" rx="60.8763" ry="13.8553" style="stroke:#A80036;stroke-width:1.0499999999999998;"/><text fill="#000000" font-family="sans-serif" font-size="9.8" lengthAdjust="spacing" textLength="91.7" x="193.5263" y="148.7652">Registration Process</text><ellipse cx="239.3843" cy="94.3569" fill="#FEFECE" filter="url(#f1s4cusjxtchmg)" rx="55.6343" ry="12.8069" style="stroke:#A80036;stroke-width:1.0499999999999998;"/><text fill="#000000" font-family="sans-serif" font-size="9.8" lengthAdjust="spacing" textLength="79.1" x="198.9792" y="97.2096">Schedule Vaccine</text><ellipse cx="239.2261" cy="43.3652" fill="#FEFECE" filter="url(#f1s4cusjxtchmg)" rx="57.9261" ry="13.2652" style="stroke:#A80036;stroke-width:1.0499999999999998;"/><text fill="#000000" font-family="sans-serif" font-size="9.8" lengthAdjust="spacing" textLength="84.7" x="196.8761" y="45.9752">Request Certificate</text><ellipse cx="239.5033" cy="196.6507" fill="#FEFECE" filter="url(#f1s4cusjxtchmg)" rx="50.8533" ry="11.8507" style="stroke:#A80036;stroke-width:1.0499999999999998;"/><text fill="#000000" font-family="sans-serif" font-size="9.8" lengthAdjust="spacing" textLength="66.5" x="204.1533" y="199.8123">Emit Certificate</text><ellipse cx="239.3876" cy="433.4375" fill="#FEFECE" filter="url(#f1s4cusjxtchmg)" rx="85.0376" ry="18.6875" style="stroke:#A80036;stroke-width:1.0499999999999998;"/><text fill="#000000" font-family="sans-serif" font-size="9.8" lengthAdjust="spacing" textLength="145.6" x="166.5876" y="436.0475">Register Centers and Employees</text><ellipse cx="239.5182" cy="365.4236" fill="#FEFECE" filter="url(#f1s4cusjxtchmg)" rx="114.2182" ry="24.5236" style="stroke:#A80036;stroke-width:1.0499999999999998;"/><text fill="#000000" font-family="sans-serif" font-size="9.8" lengthAdjust="spacing" textLength="204.4" x="135.9182" y="368.0336">Configure and Manage Application Information</text><ellipse cx="239.511" cy="299.6222" fill="#FEFECE" filter="url(#f1s4cusjxtchmg)" rx="75.711" ry="16.8222" style="stroke:#A80036;stroke-width:1.0499999999999998;"/><text fill="#000000" font-family="sans-serif" font-size="9.8" lengthAdjust="spacing" textLength="125.3" x="176.861" y="302.2322">Monitor Vaccination Process</text><ellipse cx="239.518" cy="537.6586" fill="#FEFECE" filter="url(#f1s4cusjxtchmg)" rx="42.118" ry="10.9086" style="stroke:#A80036;stroke-width:1.0499999999999998;"/><text fill="#000000" font-family="sans-serif" font-size="9.8" lengthAdjust="spacing" textLength="47.6" x="213.618" y="540.8203">Notify User</text><ellipse cx="239.2514" cy="489.3403" fill="#FEFECE" filter="url(#f1s4cusjxtchmg)" rx="54.8014" ry="12.6403" style="stroke:#A80036;stroke-width:1.0499999999999998;"/><text fill="#000000" font-family="sans-serif" font-size="9.8" lengthAdjust="spacing" textLength="77" x="199.5104" y="492.2942">Indicate Vacccine</text><ellipse cx="239.455" cy="245.851" fill="#FEFECE" filter="url(#f1s4cusjxtchmg)" rx="55.355" ry="12.751" style="stroke:#A80036;stroke-width:1.0499999999999998;"/><text fill="#000000" font-family="sans-serif" font-size="9.8" lengthAdjust="spacing" textLength="78.4" x="199.2726" y="248.7377">Confirm Schedule</text><ellipse cx="468.6778" cy="173.4656" fill="#FEFECE" filter="url(#f1s4cusjxtchmg)" rx="73.1778" ry="16.3156" style="stroke:#A80036;stroke-width:1.0499999999999998;"/><text fill="#000000" font-family="sans-serif" font-size="9.8" lengthAdjust="spacing" textLength="119.7" x="408.8278" y="176.0755">Authorizes SMS notification</text><ellipse cx="468.5942" cy="118.8488" fill="#FEFECE" filter="url(#f1s4cusjxtchmg)" rx="57.3442" ry="13.1488" style="stroke:#A80036;stroke-width:1.0499999999999998;"/><text fill="#000000" font-family="sans-serif" font-size="9.8" lengthAdjust="spacing" textLength="83.3" x="426.8258" y="121.494">Provides user data</text><!--MD5=[fee662a292a0353a69bd162820bae93b]
entity User--><ellipse cx="43.75" cy="25.2" fill="#FEFECE" filter="url(#f1s4cusjxtchmg)" rx="5.6" ry="5.6" style="stroke:#A80036;stroke-width:1.0499999999999998;"/><path d="M43.75,30.8 L43.75,49.7 M34.65,36.4 L52.85,36.4 M43.75,49.7 L34.65,60.2 M43.75,49.7 L52.85,60.2 " fill="none" filter="url(#f1s4cusjxtchmg)" style="stroke:#A80036;stroke-width:1.0499999999999998;"/><text fill="#000000" font-family="sans-serif" font-size="9.8" lengthAdjust="spacing" textLength="42" x="22.75" y="74.2232">SNS User</text><!--MD5=[c8b2cb7ab209025f476c1467c68b906a]
entity Nurse--><ellipse cx="43.75" cy="107.8" fill="#FEFECE" filter="url(#f1s4cusjxtchmg)" rx="5.6" ry="5.6" style="stroke:#A80036;stroke-width:1.0499999999999998;"/><path d="M43.75,113.4 L43.75,132.3 M34.65,119 L52.85,119 M43.75,132.3 L34.65,142.8 M43.75,132.3 L52.85,142.8 " fill="none" filter="url(#f1s4cusjxtchmg)" style="stroke:#A80036;stroke-width:1.0499999999999998;"/><text fill="#000000" font-family="sans-serif" font-size="9.8" lengthAdjust="spacing" textLength="25.9" x="30.8" y="156.8232">Nurse</text><!--MD5=[13d33e681bb8b80feb56fac81b77103f]
entity Recep--><ellipse cx="43.75" cy="190.4" fill="#FEFECE" filter="url(#f1s4cusjxtchmg)" rx="5.6" ry="5.6" style="stroke:#A80036;stroke-width:1.0499999999999998;"/><path d="M43.75,196 L43.75,214.9 M34.65,201.6 L52.85,201.6 M43.75,214.9 L34.65,225.4 M43.75,214.9 L52.85,225.4 " fill="none" filter="url(#f1s4cusjxtchmg)" style="stroke:#A80036;stroke-width:1.0499999999999998;"/><text fill="#000000" font-family="sans-serif" font-size="9.8" lengthAdjust="spacing" textLength="59.5" x="14" y="239.4232">Receptionists</text><!--MD5=[74ae13a03863147ae30e011dc1ccfa85]
entity coord--><ellipse cx="43.75" cy="273" fill="#FEFECE" filter="url(#f1s4cusjxtchmg)" rx="5.6" ry="5.6" style="stroke:#A80036;stroke-width:1.0499999999999998;"/><path d="M43.75,278.6 L43.75,297.5 M34.65,284.2 L52.85,284.2 M43.75,297.5 L34.65,308 M43.75,297.5 L52.85,308 " fill="none" filter="url(#f1s4cusjxtchmg)" style="stroke:#A80036;stroke-width:1.0499999999999998;"/><text fill="#000000" font-family="sans-serif" font-size="9.8" lengthAdjust="spacing" textLength="50.4" x="18.55" y="322.0232">coordinator</text><!--MD5=[97ab183161fd5d1db7fba7485cf76add]
entity Admin--><ellipse cx="43.75" cy="355.6" fill="#FEFECE" filter="url(#f1s4cusjxtchmg)" rx="5.6" ry="5.6" style="stroke:#A80036;stroke-width:1.0499999999999998;"/><path d="M43.75,361.2 L43.75,380.1 M34.65,366.8 L52.85,366.8 M43.75,380.1 L34.65,390.6 M43.75,380.1 L52.85,390.6 " fill="none" filter="url(#f1s4cusjxtchmg)" style="stroke:#A80036;stroke-width:1.0499999999999998;"/><text fill="#000000" font-family="sans-serif" font-size="9.8" lengthAdjust="spacing" textLength="58.1" x="14.7" y="404.6232">Administrator</text><!--MD5=[3464c2e46c643ed0a802cf2fa6ff764a]
entity AdminDGS--><ellipse cx="43.75" cy="438.2" fill="#FEFECE" filter="url(#f1s4cusjxtchmg)" rx="5.6" ry="5.6" style="stroke:#A80036;stroke-width:1.0499999999999998;"/><path d="M43.75,443.8 L43.75,462.7 M34.65,449.4 L52.85,449.4 M43.75,462.7 L34.65,473.2 M43.75,462.7 L52.85,473.2 " fill="none" filter="url(#f1s4cusjxtchmg)" style="stroke:#A80036;stroke-width:1.0499999999999998;"/><text fill="#000000" font-family="sans-serif" font-size="9.8" lengthAdjust="spacing" textLength="79.1" x="4.2" y="487.2232">AdministratorDGS</text><!--MD5=[691a1726be306d84324876b17512fe90]
entity system--><ellipse cx="43.75" cy="520.8" fill="#FEFECE" filter="url(#f1s4cusjxtchmg)" rx="5.6" ry="5.6" style="stroke:#A80036;stroke-width:1.0499999999999998;"/><path d="M43.75,526.4 L43.75,545.3 M34.65,532 L52.85,532 M43.75,545.3 L34.65,555.8 M43.75,545.3 L52.85,555.8 " fill="none" filter="url(#f1s4cusjxtchmg)" style="stroke:#A80036;stroke-width:1.0499999999999998;"/><text fill="#000000" font-family="sans-serif" font-size="9.8" lengthAdjust="spacing" textLength="30.8" x="28.35" y="569.8232">system</text><!--MD5=[57bf3159251ba6d788e56222dd11fdd6]
link User to UC1--><path d="M64.897,68.775 C70.917,75.159 77.455,82.243 83.3,88.9 C94.969,102.193 93.359,110.558 108.5,119.7 C129.927,132.643 156.583,139.391 180.18,142.87 " fill="none" id="User-UC1" style="stroke:#A80036;stroke-width:0.6999999999999998;"/><!--MD5=[06ebee4cbbe132cc9038a23578b440b9]
link User to UC2--><path d="M65.03,55.048 C77.497,59.381 93.786,64.736 108.5,68.6 C136.591,75.971 168.567,82.362 193.802,86.947 " fill="none" id="User-UC2" style="stroke:#A80036;stroke-width:0.6999999999999998;"/><!--MD5=[7128cd1693f5ac5e48a097ae8b02564a]
link User to UC3--><path d="M64.869,47.159 C92.288,46.564 142.107,45.486 181.398,44.639 " fill="none" id="User-UC3" style="stroke:#A80036;stroke-width:0.6999999999999998;"/><!--MD5=[6454a9cb74213631d6ce3ed19d11a00c]
link Nurse to UC1--><path d="M56.896,131.229 C81.641,133.28 138.383,137.984 181.944,141.596 " fill="none" id="Nurse-UC1" style="stroke:#A80036;stroke-width:0.6999999999999998;"/><!--MD5=[122a2d3178e8d979fd7b1446804ed9a9]
link Nurse to UC2--><path d="M56.896,127.911 C84.28,122.878 150.843,110.649 195.37,102.466 " fill="none" id="Nurse-UC2" style="stroke:#A80036;stroke-width:0.6999999999999998;"/><!--MD5=[1dabc8bd1d9ac7b7bcd18489e35ea162]
link Nurse to UC4--><path d="M56.854,140.497 C69.181,150.185 89.012,164.346 108.5,172.2 C135.058,182.91 166.579,188.993 191.954,192.423 " fill="none" id="Nurse-UC4" style="stroke:#A80036;stroke-width:0.6999999999999998;"/><!--MD5=[00eaad791713eeb2b95a0913869982b1]
link AdminDGS to UC5--><path d="M83.524,455.105 C107.625,451.724 139.251,447.279 167.657,443.282 " fill="none" id="AdminDGS-UC5" style="stroke:#A80036;stroke-width:0.6999999999999998;"/><!--MD5=[deccaae9059e79e2ea27b2ea541bfb12]
link Admin to UC6--><path d="M72.905,376.152 C88.501,375.144 108.934,373.814 130.102,372.442 " fill="none" id="Admin-UC6" style="stroke:#A80036;stroke-width:0.6999999999999998;"/><!--MD5=[0fdbdfeddd6ff571af177c994497fec8]
link coord to UC7--><path d="M69.055,295.932 C92.939,296.45 130.431,297.262 164.094,297.99 " fill="none" id="coord-UC7" style="stroke:#A80036;stroke-width:0.6999999999999998;"/><!--MD5=[d0fb08718a3c3aaa313c7e983e4f57de]
link system to UC8--><path d="M59.367,542.773 C88.599,541.926 154.308,540.036 197.547,538.783 " fill="none" id="system-UC8" style="stroke:#A80036;stroke-width:0.6999999999999998;"/><!--MD5=[31672bd6fab717f5c0f236e221209873]
link system to UC9--><path d="M59.339,535.346 C72.079,528.913 91.07,520.009 108.5,514.5 C135.611,505.925 166.866,499.765 191.954,495.677 " fill="none" id="system-UC9" style="stroke:#A80036;stroke-width:0.6999999999999998;"/><!--MD5=[587d2ca4a6712fd9003eeb205d11442e]
link Recep to UC10--><path d="M73.528,217.728 C105.602,223.16 157.556,231.959 194.635,238.238 " fill="none" id="Recep-UC10" style="stroke:#A80036;stroke-width:0.6999999999999998;"/><!--MD5=[1978fca336bca4903df2b7436344c5f8]
link UC1 to UC11--><path d="M293.811,152.733 C326.767,156.681 369.159,161.763 403.865,165.921 " fill="none" id="UC1-UC11" style="stroke:#A80036;stroke-width:0.6999999999999998;"/><!--MD5=[435a66801dd8446fc406da295129f3d0]
link UC1 to UC12--><path d="M293.811,139.867 C331.177,135.387 380.667,129.458 417.333,125.062 " fill="none" id="UC1-UC12" style="stroke:#A80036;stroke-width:0.6999999999999998;"/><!--MD5=[7259bc2dd47a69d0abf8c97a96a8513f]
@startuml
'https://plantuml.com/use-case-diagram

left to right direction

rectangle System {
  usecase "Registration Process" as UC1
  usecase "Schedule Vaccine" as UC2
  usecase "Request Certificate" as UC3

  usecase "Emit Certificate" as UC4

  usecase "Register Centers and Employees" as UC5

  usecase "Configure and Manage Application Information " as UC6

  usecase "Monitor Vaccination Process" as UC7

  usecase "Notify User" as UC8
  usecase "Indicate Vacccine" as UC9

  usecase "Confirm Schedule" as UC10

  usecase "Authorizes SMS notification" as UC11

  usecase "Provides user data" as UC12


}

:SNS User: as User
:Nurse: as Nurse
:Receptionists: as Recep
:coordinator: as coord
:Administrator: as Admin
:AdministratorDGS: as AdminDGS
:system: as system

User - - UC1
User - - UC2
User - - UC3

Nurse - - UC1
Nurse - - UC2
Nurse - - UC4

AdminDGS - - UC5

Admin - - UC6

coord - - UC7

system - - UC8
system - - UC9

Recep - - UC10

UC1 - - UC11
UC1 - - UC12







@enduml

@startuml

left to right direction

rectangle System {
  usecase "Registration Process" as UC1
  usecase "Schedule Vaccine" as UC2
  usecase "Request Certificate" as UC3

  usecase "Emit Certificate" as UC4

  usecase "Register Centers and Employees" as UC5

  usecase "Configure and Manage Application Information " as UC6

  usecase "Monitor Vaccination Process" as UC7

  usecase "Notify User" as UC8
  usecase "Indicate Vacccine" as UC9

  usecase "Confirm Schedule" as UC10

  usecase "Authorizes SMS notification" as UC11

  usecase "Provides user data" as UC12


}

:SNS User: as User
:Nurse: as Nurse
:Receptionists: as Recep
:coordinator: as coord
:Administrator: as Admin
:AdministratorDGS: as AdminDGS
:system: as system

User - - UC1
User - - UC2
User - - UC3

Nurse - - UC1
Nurse - - UC2
Nurse - - UC4

AdminDGS - - UC5

Admin - - UC6

coord - - UC7

system - - UC8
system - - UC9

Recep - - UC10

UC1 - - UC11
UC1 - - UC12







@enduml

PlantUML version 1.2022.1(Tue Feb 01 18:19:58 GMT 2022)
(GPL source distribution)
Java Runtime: OpenJDK Runtime Environment
JVM: OpenJDK 64-Bit Server VM
Default Encoding: Cp1252
Language: pt
Country: PT
--></g></svg>