<?xml version="1.0" encoding="UTF-8" standalone="no"?><svg xmlns="http://www.w3.org/2000/svg" xmlns:xlink="http://www.w3.org/1999/xlink" contentStyleType="text/css" height="638.4px" preserveAspectRatio="none" style="width:1088px;height:638px;background:#FFFFFF;" version="1.1" viewBox="0 0 1088 638" width="1088.8px" zoomAndPan="magnify"><defs/><g><rect fill="#FFFFFF" height="484.7063" style="stroke:#181818;stroke-width:0.8000000000000002;" width="8" x="35.6" y="74.0875"/><rect fill="#FFFFFF" height="24.2813" style="stroke:#181818;stroke-width:0.8000000000000002;" width="8" x="275.6" y="91.9688"/><rect fill="#FFFFFF" height="203.775" style="stroke:#181818;stroke-width:0.8000000000000002;" width="8" x="275.6" y="140.5313"/><rect fill="#FFFFFF" height="190.2063" style="stroke:#181818;stroke-width:0.8000000000000002;" width="8" x="275.6" y="368.5875"/><rect fill="#FFFFFF" height="155.2125" style="stroke:#181818;stroke-width:0.8000000000000002;" width="8" x="523.6" y="164.8125"/><rect fill="#FFFFFF" height="24.2813" style="stroke:#181818;stroke-width:0.8000000000000002;" width="8" x="523.6" y="392.8688"/><rect fill="#FFFFFF" height="24" style="stroke:#181818;stroke-width:0.8000000000000002;" width="8" x="694.8" y="213.375"/><rect fill="#FFFFFF" height="58.3688" style="stroke:#181818;stroke-width:0.8000000000000002;" width="8" x="803.6" y="261.6563"/><rect fill="#FFFFFF" height="141.6438" style="stroke:#181818;stroke-width:0.8000000000000002;" width="8" x="803.6" y="417.15"/><rect fill="#FFFFFF" height="22.4" style="stroke:#181818;stroke-width:0.8000000000000002;" width="8" x="807.6" y="447.8313"/><rect fill="#FFFFFF" height="22.4" style="stroke:#181818;stroke-width:0.8000000000000002;" width="8" x="807.6" y="506.5125"/><line style="stroke:#181818;stroke-width:0.4000000000000001;stroke-dasharray:5.0,5.0;" x1="39.2" x2="39.2" y1="66.0875" y2="573.1938"/><line style="stroke:#181818;stroke-width:0.4000000000000001;stroke-dasharray:5.0,5.0;" x1="279.6" x2="279.6" y1="66.0875" y2="573.1938"/><line style="stroke:#181818;stroke-width:0.4000000000000001;stroke-dasharray:5.0,5.0;" x1="527.6" x2="527.6" y1="66.0875" y2="573.1938"/><line style="stroke:#181818;stroke-width:0.4000000000000001;stroke-dasharray:5.0,5.0;" x1="698.8" x2="698.8" y1="66.0875" y2="573.1938"/><line style="stroke:#181818;stroke-width:0.4000000000000001;stroke-dasharray:5.0,5.0;" x1="807.6" x2="807.6" y1="66.0875" y2="573.1938"/><line style="stroke:#181818;stroke-width:0.4000000000000001;stroke-dasharray:5.0,5.0;" x1="1038" x2="1038" y1="293.1" y2="573.1938"/><text fill="#000000" font-family="sans-serif" font-size="11.2" lengthAdjust="spacing" textLength="66.4" x="4" y="63.6266">Administrator</text><ellipse cx="39.6" cy="10.8" fill="#E2E2F0" rx="6.4" ry="6.4" style="stroke:#181818;stroke-width:0.4000000000000001;"/><path d="M39.6,17.2 L39.6,38.8 M29.2,23.6 L50,23.6 M39.6,38.8 L29.2,50.8 M39.6,38.8 L50,50.8 " fill="none" style="stroke:#181818;stroke-width:0.4000000000000001;"/><text fill="#000000" font-family="sans-serif" font-size="11.2" lengthAdjust="spacing" textLength="66.4" x="4" y="584.0203">Administrator</text><ellipse cx="39.6" cy="593.2813" fill="#E2E2F0" rx="6.4" ry="6.4" style="stroke:#181818;stroke-width:0.4000000000000001;"/><path d="M39.6,599.6813 L39.6,621.2813 M29.2,606.0813 L50,606.0813 M39.6,621.2813 L29.2,633.2813 M39.6,621.2813 L50,633.2813 " fill="none" style="stroke:#181818;stroke-width:0.4000000000000001;"/><rect fill="#E2E2F0" height="25.2875" rx="2" ry="2" style="stroke:#181818;stroke-width:0.4000000000000001;" width="147.2" x="206" y="40"/><text fill="#000000" font-family="sans-serif" font-size="11.2" lengthAdjust="spacing" textLength="136" x="211.6" y="57.2266">:SpecifyNewVaccineTypeUI</text><rect fill="#E2E2F0" height="25.2875" rx="2" ry="2" style="stroke:#181818;stroke-width:0.4000000000000001;" width="147.2" x="206" y="572.3938"/><text fill="#000000" font-family="sans-serif" font-size="11.2" lengthAdjust="spacing" textLength="136" x="211.6" y="589.6203">:SpecifyNewVaccineTypeUI</text><rect fill="#E2E2F0" height="25.2875" rx="2" ry="2" style="stroke:#181818;stroke-width:0.4000000000000001;" width="161.6" x="446.8" y="40"/><text fill="#000000" font-family="sans-serif" font-size="11.2" lengthAdjust="spacing" textLength="150.4" x="452.4" y="57.2266">:SpecifyNewVaccineController</text><rect fill="#E2E2F0" height="25.2875" rx="2" ry="2" style="stroke:#181818;stroke-width:0.4000000000000001;" width="161.6" x="446.8" y="572.3938"/><text fill="#000000" font-family="sans-serif" font-size="11.2" lengthAdjust="spacing" textLength="150.4" x="452.4" y="589.6203">:SpecifyNewVaccineController</text><rect fill="#E2E2F0" height="25.2875" rx="2" ry="2" style="stroke:#181818;stroke-width:0.4000000000000001;" width="62.4" x="667.6" y="40"/><text fill="#000000" font-family="sans-serif" font-size="11.2" lengthAdjust="spacing" textLength="51.2" x="673.2" y="57.2266">:Company</text><rect fill="#E2E2F0" height="25.2875" rx="2" ry="2" style="stroke:#181818;stroke-width:0.4000000000000001;" width="62.4" x="667.6" y="572.3938"/><text fill="#000000" font-family="sans-serif" font-size="11.2" lengthAdjust="spacing" textLength="51.2" x="673.2" y="589.6203">:Company</text><rect fill="#E2E2F0" height="25.2875" rx="2" ry="2" style="stroke:#181818;stroke-width:0.4000000000000001;" width="139.2" x="738" y="40"/><text fill="#000000" font-family="sans-serif" font-size="11.2" lengthAdjust="spacing" textLength="128" x="743.6" y="57.2266">:SpecifyNewVaccineStore</text><rect fill="#E2E2F0" height="25.2875" rx="2" ry="2" style="stroke:#181818;stroke-width:0.4000000000000001;" width="139.2" x="738" y="572.3938"/><text fill="#000000" font-family="sans-serif" font-size="11.2" lengthAdjust="spacing" textLength="128" x="743.6" y="589.6203">:SpecifyNewVaccineStore</text><rect fill="#E2E2F0" height="25.2875" rx="2" ry="2" style="stroke:#181818;stroke-width:0.4000000000000001;" width="92" x="992.4" y="572.3938"/><text fill="#000000" font-family="sans-serif" font-size="11.2" lengthAdjust="spacing" textLength="80.8" x="998" y="589.6203">vt: VaccineType</text><rect fill="#FFFFFF" height="484.7063" style="stroke:#181818;stroke-width:0.8000000000000002;" width="8" x="35.6" y="74.0875"/><rect fill="#FFFFFF" height="24.2813" style="stroke:#181818;stroke-width:0.8000000000000002;" width="8" x="275.6" y="91.9688"/><rect fill="#FFFFFF" height="203.775" style="stroke:#181818;stroke-width:0.8000000000000002;" width="8" x="275.6" y="140.5313"/><rect fill="#FFFFFF" height="190.2063" style="stroke:#181818;stroke-width:0.8000000000000002;" width="8" x="275.6" y="368.5875"/><rect fill="#FFFFFF" height="155.2125" style="stroke:#181818;stroke-width:0.8000000000000002;" width="8" x="523.6" y="164.8125"/><rect fill="#FFFFFF" height="24.2813" style="stroke:#181818;stroke-width:0.8000000000000002;" width="8" x="523.6" y="392.8688"/><rect fill="#FFFFFF" height="24" style="stroke:#181818;stroke-width:0.8000000000000002;" width="8" x="694.8" y="213.375"/><rect fill="#FFFFFF" height="58.3688" style="stroke:#181818;stroke-width:0.8000000000000002;" width="8" x="803.6" y="261.6563"/><rect fill="#FFFFFF" height="141.6438" style="stroke:#181818;stroke-width:0.8000000000000002;" width="8" x="803.6" y="417.15"/><rect fill="#FFFFFF" height="22.4" style="stroke:#181818;stroke-width:0.8000000000000002;" width="8" x="807.6" y="447.8313"/><rect fill="#FFFFFF" height="22.4" style="stroke:#181818;stroke-width:0.8000000000000002;" width="8" x="807.6" y="506.5125"/><polygon fill="#181818" points="266,88.7688,274,91.9688,266,95.1688,269.2,91.9688" style="stroke:#181818;stroke-width:0.8000000000000002;"/><line style="stroke:#181818;stroke-width:0.8000000000000002;" x1="43.6" x2="270.8" y1="91.9688" y2="91.9688"/><text fill="#000000" font-family="sans-serif" font-size="10.4" font-weight="bold" lengthAdjust="spacing" textLength="5.6" x="49.2" y="88.0836">1</text><text fill="#000000" font-family="sans-serif" font-size="10.4" lengthAdjust="spacing" textLength="167.2" x="58" y="88.0836">starts specifying a new vaccine type</text><polygon fill="#181818" points="52.4,113.05,44.4,116.25,52.4,119.45,49.2,116.25" style="stroke:#181818;stroke-width:0.8000000000000002;"/><line style="stroke:#181818;stroke-width:0.8000000000000002;stroke-dasharray:2.0,2.0;" x1="47.6" x2="278.8" y1="116.25" y2="116.25"/><text fill="#000000" font-family="sans-serif" font-size="10.4" font-weight="bold" lengthAdjust="spacing" textLength="5.6" x="57.2" y="112.3648">2</text><text fill="#000000" font-family="sans-serif" font-size="10.4" lengthAdjust="spacing" textLength="181.6" x="66" y="112.3648">request data (code, designation, whoId)</text><polygon fill="#181818" points="266,137.3313,274,140.5313,266,143.7313,269.2,140.5313" style="stroke:#181818;stroke-width:0.8000000000000002;"/><line style="stroke:#181818;stroke-width:0.8000000000000002;" x1="43.6" x2="270.8" y1="140.5313" y2="140.5313"/><text fill="#000000" font-family="sans-serif" font-size="10.4" font-weight="bold" lengthAdjust="spacing" textLength="5.6" x="49.2" y="136.6461">3</text><text fill="#000000" font-family="sans-serif" font-size="10.4" lengthAdjust="spacing" textLength="103.2" x="58" y="136.6461">inserts requested data</text><polygon fill="#181818" points="514,161.6125,522,164.8125,514,168.0125,517.2,164.8125" style="stroke:#181818;stroke-width:0.8000000000000002;"/><line style="stroke:#181818;stroke-width:0.8000000000000002;" x1="283.6" x2="518.8" y1="164.8125" y2="164.8125"/><text fill="#000000" font-family="sans-serif" font-size="10.4" font-weight="bold" lengthAdjust="spacing" textLength="5.6" x="289.2" y="160.9273">4</text><text fill="#000000" font-family="sans-serif" font-size="10.4" lengthAdjust="spacing" textLength="216" x="298" y="160.9273">create VaccineType (code, designation, whoId)</text><polygon fill="#181818" points="514,185.8938,522,189.0938,514,192.2938,517.2,189.0938" style="stroke:#181818;stroke-width:0.8000000000000002;"/><line style="stroke:#181818;stroke-width:0.8000000000000002;" x1="283.6" x2="518.8" y1="189.0938" y2="189.0938"/><text fill="#000000" font-family="sans-serif" font-size="10.4" font-weight="bold" lengthAdjust="spacing" textLength="5.6" x="289.2" y="185.2086">5</text><text fill="#000000" font-family="sans-serif" font-size="10.4" lengthAdjust="spacing" textLength="160" x="298" y="185.2086">getSpecifyNewVaccineTypeStore()</text><polygon fill="#181818" points="685.2,210.175,693.2,213.375,685.2,216.575,688.4,213.375" style="stroke:#181818;stroke-width:0.8000000000000002;"/><line style="stroke:#181818;stroke-width:0.8000000000000002;" x1="531.6" x2="690" y1="213.375" y2="213.375"/><text fill="#000000" font-family="sans-serif" font-size="10.4" font-weight="bold" lengthAdjust="spacing" textLength="5.6" x="537.2" y="209.4898">6</text><text fill="#000000" font-family="sans-serif" font-size="10.4" lengthAdjust="spacing" textLength="139.2" x="546" y="209.4898">SpecifyNewVaccineTypeStore</text><polygon fill="#181818" points="794,258.4563,802,261.6563,794,264.8563,797.2,261.6563" style="stroke:#181818;stroke-width:0.8000000000000002;"/><line style="stroke:#181818;stroke-width:0.8000000000000002;" x1="531.6" x2="798.8" y1="261.6563" y2="261.6563"/><text fill="#000000" font-family="sans-serif" font-size="10.4" font-weight="bold" lengthAdjust="spacing" textLength="5.6" x="537.2" y="257.7711">7</text><text fill="#000000" font-family="sans-serif" font-size="10.4" lengthAdjust="spacing" textLength="229.6" x="546" y="257.7711">vt = createVaccineType(code, designation, whoId)</text><polygon fill="#181818" points="982.8,282.7375,990.8,285.9375,982.8,289.1375,986,285.9375" style="stroke:#181818;stroke-width:0.8000000000000002;"/><line style="stroke:#181818;stroke-width:0.8000000000000002;stroke-dasharray:2.0,2.0;" x1="811.6" x2="987.6" y1="285.9375" y2="285.9375"/><text fill="#000000" font-family="sans-serif" font-size="10.4" font-weight="bold" lengthAdjust="spacing" textLength="5.6" x="817.2" y="282.0523">8</text><text fill="#000000" font-family="sans-serif" font-size="10.4" lengthAdjust="spacing" textLength="152.8" x="826" y="282.0523">create (code, designation, whoId)</text><rect fill="#E2E2F0" height="25.2875" rx="2" ry="2" style="stroke:#181818;stroke-width:0.4000000000000001;" width="92" x="992.4" y="268.0563"/><text fill="#000000" font-family="sans-serif" font-size="11.2" lengthAdjust="spacing" textLength="80.8" x="998" y="285.2828">vt: VaccineType</text><polygon fill="#181818" points="798,316.825,806,320.025,798,323.225,801.2,320.025" style="stroke:#181818;stroke-width:0.8000000000000002;"/><line style="stroke:#181818;stroke-width:0.8000000000000002;" x1="527.6" x2="802.8" y1="320.025" y2="320.025"/><text fill="#000000" font-family="sans-serif" font-size="10.4" font-weight="bold" lengthAdjust="spacing" textLength="5.6" x="533.2" y="316.1398">9</text><text fill="#000000" font-family="sans-serif" font-size="10.4" lengthAdjust="spacing" textLength="108" x="542" y="316.1398">validateVaccineType(vt)</text><polygon fill="#181818" points="52.4,341.1063,44.4,344.3063,52.4,347.5063,49.2,344.3063" style="stroke:#181818;stroke-width:0.8000000000000002;"/><line style="stroke:#181818;stroke-width:0.8000000000000002;stroke-dasharray:2.0,2.0;" x1="47.6" x2="278.8" y1="344.3063" y2="344.3063"/><text fill="#000000" font-family="sans-serif" font-size="10.4" font-weight="bold" lengthAdjust="spacing" textLength="11.2" x="57.2" y="340.4211">10</text><text fill="#000000" font-family="sans-serif" font-size="10.4" lengthAdjust="spacing" textLength="198.4" x="71.6" y="340.4211">shows the data and asks for a confirmation</text><polygon fill="#181818" points="266,365.3875,274,368.5875,266,371.7875,269.2,368.5875" style="stroke:#181818;stroke-width:0.8000000000000002;"/><line style="stroke:#181818;stroke-width:0.8000000000000002;" x1="43.6" x2="270.8" y1="368.5875" y2="368.5875"/><text fill="#000000" font-family="sans-serif" font-size="10.4" font-weight="bold" lengthAdjust="spacing" textLength="11.2" x="49.2" y="364.7023">11</text><text fill="#000000" font-family="sans-serif" font-size="10.4" lengthAdjust="spacing" textLength="80" x="63.6" y="364.7023">confirms the data</text><polygon fill="#181818" points="514,389.6688,522,392.8688,514,396.0688,517.2,392.8688" style="stroke:#181818;stroke-width:0.8000000000000002;"/><line style="stroke:#181818;stroke-width:0.8000000000000002;" x1="283.6" x2="518.8" y1="392.8688" y2="392.8688"/><text fill="#000000" font-family="sans-serif" font-size="10.4" font-weight="bold" lengthAdjust="spacing" textLength="11.2" x="289.2" y="388.9836">12</text><text fill="#000000" font-family="sans-serif" font-size="10.4" lengthAdjust="spacing" textLength="87.2" x="303.6" y="388.9836">saveVaccineType()</text><polygon fill="#181818" points="794,413.95,802,417.15,794,420.35,797.2,417.15" style="stroke:#181818;stroke-width:0.8000000000000002;"/><line style="stroke:#181818;stroke-width:0.8000000000000002;" x1="527.6" x2="798.8" y1="417.15" y2="417.15"/><text fill="#000000" font-family="sans-serif" font-size="10.4" font-weight="bold" lengthAdjust="spacing" textLength="11.2" x="533.2" y="413.2648">13</text><text fill="#000000" font-family="sans-serif" font-size="10.4" lengthAdjust="spacing" textLength="94.4" x="547.6" y="413.2648">saveVaccineType(vt)</text><line style="stroke:#181818;stroke-width:0.8000000000000002;" x1="815.6" x2="849.2" y1="441.4313" y2="441.4313"/><line style="stroke:#181818;stroke-width:0.8000000000000002;" x1="849.2" x2="849.2" y1="441.4313" y2="451.8313"/><line style="stroke:#181818;stroke-width:0.8000000000000002;" x1="816.4" x2="849.2" y1="451.8313" y2="451.8313"/><polygon fill="#181818" points="824.4,448.6313,816.4,451.8313,824.4,455.0313,821.2,451.8313" style="stroke:#181818;stroke-width:0.8000000000000002;"/><text fill="#000000" font-family="sans-serif" font-size="10.4" font-weight="bold" lengthAdjust="spacing" textLength="11.2" x="821.2" y="437.5461">14</text><text fill="#000000" font-family="sans-serif" font-size="10.4" lengthAdjust="spacing" textLength="108" x="835.6" y="437.5461">validateVaccineType(vt)</text><line style="stroke:#181818;stroke-width:0.8000000000000002;" x1="815.6" x2="849.2" y1="500.1125" y2="500.1125"/><line style="stroke:#181818;stroke-width:0.8000000000000002;" x1="849.2" x2="849.2" y1="500.1125" y2="510.5125"/><line style="stroke:#181818;stroke-width:0.8000000000000002;" x1="816.4" x2="849.2" y1="510.5125" y2="510.5125"/><polygon fill="#181818" points="824.4,507.3125,816.4,510.5125,824.4,513.7125,821.2,510.5125" style="stroke:#181818;stroke-width:0.8000000000000002;"/><text fill="#000000" font-family="sans-serif" font-size="10.4" font-weight="bold" lengthAdjust="spacing" textLength="11.2" x="821.2" y="496.2273">15</text><text fill="#000000" font-family="sans-serif" font-size="10.4" lengthAdjust="spacing" textLength="90.4" x="835.6" y="496.2273">addVaccineType(vt)</text><polygon fill="#181818" points="48.4,555.5938,40.4,558.7938,48.4,561.9938,45.2,558.7938" style="stroke:#181818;stroke-width:0.8000000000000002;"/><line style="stroke:#181818;stroke-width:0.8000000000000002;stroke-dasharray:2.0,2.0;" x1="43.6" x2="278.8" y1="558.7938" y2="558.7938"/><text fill="#000000" font-family="sans-serif" font-size="10.4" font-weight="bold" lengthAdjust="spacing" textLength="11.2" x="53.2" y="554.9086">16</text><text fill="#000000" font-family="sans-serif" font-size="10.4" lengthAdjust="spacing" textLength="101.6" x="67.6" y="554.9086">tell operation success</text><!--MD5=[5e9e32dcd85efd29bd5097d7ec565526]
@startuml
autonumber
'hide footbox
actor "Administrator" as ADM

participant ":SpecifyNewVaccineTypeUI" as UI
participant ":SpecifyNewVaccineController" as CTRL
participant ":Company" as COMP
participant ":SpecifyNewVaccineStore" as ST
participant "vt: VaccineType" as VT

activate ADM
ADM -> UI : starts specifying a new vaccine type
activate UI
UI - -> ADM: request data (code, designation, whoId)
deactivate UI

ADM -> UI: inserts requested data
activate UI

UI -> CTRL: create VaccineType (code, designation, whoId)
activate CTRL
UI -> CTRL: getSpecifyNewVaccineTypeStore()

CTRL -> COMP: SpecifyNewVaccineTypeStore
activate COMP
deactivate COMP

CTRL -> ST : vt = createVaccineType(code, designation, whoId)



activate ST



create VT
ST - -> VT: create (code, designation, whoId)

CTRL -> ST: validateVaccineType(vt)
deactivate ST
deactivate CTRL
deactivate COMP

UI - -> ADM: shows the data and asks for a confirmation
deactivate UI
ADM -> UI: confirms the data
activate UI

UI -> CTRL: saveVaccineType()

activate CTRL
CTRL -> ST: saveVaccineType(vt)
deactivate CTRL
activate ST




ST -> ST: validateVaccineType(vt)
activate ST
deactivate ST

ST -> ST: addVaccineType(vt)
activate ST
deactivate ST


UI - -> ADM: tell operation success
deactivate UI
deactivate COMP
deactivate ADM
deactivate ST
@enduml

@startuml
autonumber
actor "Administrator" as ADM

participant ":SpecifyNewVaccineTypeUI" as UI
participant ":SpecifyNewVaccineController" as CTRL
participant ":Company" as COMP
participant ":SpecifyNewVaccineStore" as ST
participant "vt: VaccineType" as VT

activate ADM
ADM -> UI : starts specifying a new vaccine type
activate UI
UI - -> ADM: request data (code, designation, whoId)
deactivate UI

ADM -> UI: inserts requested data
activate UI

UI -> CTRL: create VaccineType (code, designation, whoId)
activate CTRL
UI -> CTRL: getSpecifyNewVaccineTypeStore()

CTRL -> COMP: SpecifyNewVaccineTypeStore
activate COMP
deactivate COMP

CTRL -> ST : vt = createVaccineType(code, designation, whoId)



activate ST



create VT
ST - -> VT: create (code, designation, whoId)

CTRL -> ST: validateVaccineType(vt)
deactivate ST
deactivate CTRL
deactivate COMP

UI - -> ADM: shows the data and asks for a confirmation
deactivate UI
ADM -> UI: confirms the data
activate UI

UI -> CTRL: saveVaccineType()

activate CTRL
CTRL -> ST: saveVaccineType(vt)
deactivate CTRL
activate ST




ST -> ST: validateVaccineType(vt)
activate ST
deactivate ST

ST -> ST: addVaccineType(vt)
activate ST
deactivate ST


UI - -> ADM: tell operation success
deactivate UI
deactivate COMP
deactivate ADM
deactivate ST
@enduml

PlantUML version 1.2022.4(Sat Apr 09 14:29:17 BST 2022)
(GPL source distribution)
Java Runtime: OpenJDK Runtime Environment
JVM: OpenJDK 64-Bit Server VM
Default Encoding: Cp1252
Language: pt
Country: PT
--></g></svg>