<?xml version="1.0" encoding="UTF-8" standalone="no"?><svg xmlns="http://www.w3.org/2000/svg" xmlns:xlink="http://www.w3.org/1999/xlink" contentScriptType="application/ecmascript" contentStyleType="text/css" height="748px" preserveAspectRatio="none" style="width:691px;height:748px;background:#FFFFFF;" version="1.1" viewBox="0 0 691 748" width="691px" zoomAndPan="magnify"><defs><filter height="300%" id="f6pe1zv438whk" width="300%" x="-1" y="-1"><feGaussianBlur result="blurOut" stdDeviation="1.0"/><feColorMatrix in="blurOut" result="blurOut2" type="matrix" values="0 0 0 0 0 0 0 0 0 0 0 0 0 0 0 0 0 0 .4 0"/><feOffset dx="2.0" dy="2.0" in="blurOut2" result="blurOut3"/><feBlend in="SourceGraphic" in2="blurOut3" mode="normal"/></filter></defs><g><!--MD5=[72be06cc7ae02ccc98efe28a50e62246]
class SNSUser--><rect codeLine="3" fill="#FEFECE" filter="url(#f6pe1zv438whk)" height="65.5078" id="SNSUser" style="stroke:#A80036;stroke-width:0.75;" width="50.5" x="532.9021" y="602"/><ellipse cx="544.2271" cy="610" fill="#ADD1B2" rx="5.5" ry="5.5" style="stroke:#A80036;stroke-width:0.5;"/><path d="M545.2271,608.25 Q545.3287,608 545.4459,607.875 Q545.563,607.75 545.6959,607.75 Q545.9302,607.75 546.0787,607.8906 Q546.2271,608.0313 546.2271,608.3594 L546.2271,609.1406 Q546.2271,609.4688 546.0865,609.6094 Q545.9459,609.75 545.7271,609.75 Q545.5318,609.75 545.4068,609.6641 Q545.2818,609.5781 545.2271,609.3516 Q545.2037,609.1953 545.1177,609.1094 Q544.9615,608.9453 544.6802,608.8516 Q544.399,608.75 544.1177,608.75 Q543.7662,608.75 543.4693,608.8906 Q543.1802,609.0313 542.9537,609.3438 Q542.7271,609.6563 542.7271,610.0859 L542.7271,610.5469 Q542.7271,611.0625 543.149,611.4063 Q543.5709,611.75 544.3209,611.75 Q544.7662,611.75 545.0787,611.6484 Q545.2584,611.5938 545.4615,611.4141 Q545.5943,611.3125 545.6646,611.2813 Q545.7349,611.25 545.8209,611.25 Q545.9849,611.25 546.1021,611.3828 Q546.2271,611.5078 546.2271,611.6875 Q546.2271,611.8594 546.0552,612.0625 Q545.8052,612.3594 545.4068,612.5234 Q544.8834,612.75 544.2427,612.75 Q543.4927,612.75 542.8912,612.4531 Q542.4068,612.2188 542.063,611.7109 Q541.7271,611.2031 541.7271,610.6016 L541.7271,610.0547 Q541.7271,609.4297 542.024,608.8828 Q542.3287,608.3359 542.8521,608.0469 Q543.3834,607.75 543.9771,607.75 Q544.3365,607.75 544.649,607.875 Q544.9615,608 545.2271,608.25 Z " fill="#000000"/><text fill="#000000" font-family="sans-serif" font-size="6" lengthAdjust="spacing" textLength="26" x="552.0771" y="612.4551">SNSUser</text><line style="stroke:#A80036;stroke-width:0.75;" x1="533.4021" x2="582.9021" y1="618" y2="618"/><text fill="#000000" font-family="sans-serif" font-size="5.5" lengthAdjust="spacing" textLength="13" x="535.9021" y="625.7095">name</text><text fill="#000000" font-family="sans-serif" font-size="5.5" lengthAdjust="spacing" textLength="21.5" x="535.9021" y="632.6274">birthDate</text><text fill="#000000" font-family="sans-serif" font-size="5.5" lengthAdjust="spacing" textLength="29" x="535.9021" y="639.5454">SNSNumber</text><text fill="#000000" font-family="sans-serif" font-size="5.5" lengthAdjust="spacing" textLength="33.5" x="535.9021" y="646.4634">phoneNumber</text><text fill="#000000" font-family="sans-serif" font-size="5.5" lengthAdjust="spacing" textLength="33" x="535.9021" y="653.3813">emailAddress</text><text fill="#000000" font-family="sans-serif" font-size="5.5" lengthAdjust="spacing" textLength="44.5" x="535.9021" y="660.2993">vaccinationHistory</text><line style="stroke:#A80036;stroke-width:0.75;" x1="533.4021" x2="582.9021" y1="663.5078" y2="663.5078"/><!--MD5=[7421f545a0d8420c5bec41e74b387d9c]
class Employee--><rect codeLine="12" fill="#FEFECE" filter="url(#f6pe1zv438whk)" height="44.7539" id="Employee" style="stroke:#A80036;stroke-width:0.75;" width="43.5" x="159.4021" y="87.5"/><ellipse cx="166.9021" cy="95.5" fill="#ADD1B2" rx="5.5" ry="5.5" style="stroke:#A80036;stroke-width:0.5;"/><path d="M167.9021,93.75 Q168.0037,93.5 168.1209,93.375 Q168.238,93.25 168.3709,93.25 Q168.6052,93.25 168.7537,93.3906 Q168.9021,93.5313 168.9021,93.8594 L168.9021,94.6406 Q168.9021,94.9688 168.7615,95.1094 Q168.6209,95.25 168.4021,95.25 Q168.2068,95.25 168.0818,95.1641 Q167.9568,95.0781 167.9021,94.8516 Q167.8787,94.6953 167.7927,94.6094 Q167.6365,94.4453 167.3552,94.3516 Q167.074,94.25 166.7927,94.25 Q166.4412,94.25 166.1443,94.3906 Q165.8552,94.5313 165.6287,94.8438 Q165.4021,95.1563 165.4021,95.5859 L165.4021,96.0469 Q165.4021,96.5625 165.824,96.9063 Q166.2459,97.25 166.9959,97.25 Q167.4412,97.25 167.7537,97.1484 Q167.9334,97.0938 168.1365,96.9141 Q168.2693,96.8125 168.3396,96.7813 Q168.4099,96.75 168.4959,96.75 Q168.6599,96.75 168.7771,96.8828 Q168.9021,97.0078 168.9021,97.1875 Q168.9021,97.3594 168.7302,97.5625 Q168.4802,97.8594 168.0818,98.0234 Q167.5584,98.25 166.9177,98.25 Q166.1677,98.25 165.5662,97.9531 Q165.0818,97.7188 164.738,97.2109 Q164.4021,96.7031 164.4021,96.1016 L164.4021,95.5547 Q164.4021,94.9297 164.699,94.3828 Q165.0037,93.8359 165.5271,93.5469 Q166.0584,93.25 166.6521,93.25 Q167.0115,93.25 167.324,93.375 Q167.6365,93.5 167.9021,93.75 Z " fill="#000000"/><text fill="#000000" font-family="sans-serif" font-size="6" lengthAdjust="spacing" textLength="27.5" x="173.9021" y="97.9551">Employee</text><line style="stroke:#A80036;stroke-width:0.75;" x1="159.9021" x2="202.4021" y1="103.5" y2="103.5"/><text fill="#000000" font-family="sans-serif" font-size="5.5" lengthAdjust="spacing" textLength="15.5" x="162.4021" y="111.2095">userID</text><text fill="#000000" font-family="sans-serif" font-size="5.5" lengthAdjust="spacing" textLength="13" x="162.4021" y="118.1274">name</text><text fill="#000000" font-family="sans-serif" font-size="5.5" lengthAdjust="spacing" textLength="25" x="162.4021" y="125.0454">password</text><line style="stroke:#A80036;stroke-width:0.75;" x1="159.9021" x2="202.4021" y1="128.2539" y2="128.2539"/><!--MD5=[03960189e81aa2c066c762ffabbee709]
class Receptionist--><rect codeLine="18" fill="#FEFECE" filter="url(#f6pe1zv438whk)" height="24" id="Receptionist" style="stroke:#A80036;stroke-width:0.75;" width="50.5" x="202.9021" y="249.5"/><ellipse cx="210.4021" cy="257.5" fill="#ADD1B2" rx="5.5" ry="5.5" style="stroke:#A80036;stroke-width:0.5;"/><path d="M211.4021,255.75 Q211.5037,255.5 211.6209,255.375 Q211.738,255.25 211.8709,255.25 Q212.1052,255.25 212.2537,255.3906 Q212.4021,255.5313 212.4021,255.8594 L212.4021,256.6406 Q212.4021,256.9688 212.2615,257.1094 Q212.1209,257.25 211.9021,257.25 Q211.7068,257.25 211.5818,257.1641 Q211.4568,257.0781 211.4021,256.8516 Q211.3787,256.6953 211.2927,256.6094 Q211.1365,256.4453 210.8552,256.3516 Q210.574,256.25 210.2927,256.25 Q209.9412,256.25 209.6443,256.3906 Q209.3552,256.5313 209.1287,256.8438 Q208.9021,257.1563 208.9021,257.5859 L208.9021,258.0469 Q208.9021,258.5625 209.324,258.9063 Q209.7459,259.25 210.4959,259.25 Q210.9412,259.25 211.2537,259.1484 Q211.4334,259.0938 211.6365,258.9141 Q211.7693,258.8125 211.8396,258.7813 Q211.9099,258.75 211.9959,258.75 Q212.1599,258.75 212.2771,258.8828 Q212.4021,259.0078 212.4021,259.1875 Q212.4021,259.3594 212.2302,259.5625 Q211.9802,259.8594 211.5818,260.0234 Q211.0584,260.25 210.4177,260.25 Q209.6677,260.25 209.0662,259.9531 Q208.5818,259.7188 208.238,259.2109 Q207.9021,258.7031 207.9021,258.1016 L207.9021,257.5547 Q207.9021,256.9297 208.199,256.3828 Q208.5037,255.8359 209.0271,255.5469 Q209.5584,255.25 210.1521,255.25 Q210.5115,255.25 210.824,255.375 Q211.1365,255.5 211.4021,255.75 Z " fill="#000000"/><text fill="#000000" font-family="sans-serif" font-size="6" lengthAdjust="spacing" textLength="34.5" x="217.4021" y="259.9551">Receptionist</text><line style="stroke:#A80036;stroke-width:0.75;" x1="203.4021" x2="252.9021" y1="265.5" y2="265.5"/><line style="stroke:#A80036;stroke-width:0.75;" x1="203.4021" x2="252.9021" y1="269.5" y2="269.5"/><!--MD5=[a059576e163b46f56762f12600c49258]
class Nurse--><rect codeLine="20" fill="#FEFECE" filter="url(#f6pe1zv438whk)" height="24" id="Nurse" style="stroke:#A80036;stroke-width:0.75;" width="33" x="346.6521" y="360.5"/><ellipse cx="354.1521" cy="368.5" fill="#ADD1B2" rx="5.5" ry="5.5" style="stroke:#A80036;stroke-width:0.5;"/><path d="M355.1521,366.75 Q355.2537,366.5 355.3709,366.375 Q355.488,366.25 355.6209,366.25 Q355.8552,366.25 356.0037,366.3906 Q356.1521,366.5313 356.1521,366.8594 L356.1521,367.6406 Q356.1521,367.9688 356.0115,368.1094 Q355.8709,368.25 355.6521,368.25 Q355.4568,368.25 355.3318,368.1641 Q355.2068,368.0781 355.1521,367.8516 Q355.1287,367.6953 355.0427,367.6094 Q354.8865,367.4453 354.6052,367.3516 Q354.324,367.25 354.0427,367.25 Q353.6912,367.25 353.3943,367.3906 Q353.1052,367.5313 352.8787,367.8438 Q352.6521,368.1563 352.6521,368.5859 L352.6521,369.0469 Q352.6521,369.5625 353.074,369.9063 Q353.4959,370.25 354.2459,370.25 Q354.6912,370.25 355.0037,370.1484 Q355.1834,370.0938 355.3865,369.9141 Q355.5193,369.8125 355.5896,369.7813 Q355.6599,369.75 355.7459,369.75 Q355.9099,369.75 356.0271,369.8828 Q356.1521,370.0078 356.1521,370.1875 Q356.1521,370.3594 355.9802,370.5625 Q355.7302,370.8594 355.3318,371.0234 Q354.8084,371.25 354.1677,371.25 Q353.4177,371.25 352.8162,370.9531 Q352.3318,370.7188 351.988,370.2109 Q351.6521,369.7031 351.6521,369.1016 L351.6521,368.5547 Q351.6521,367.9297 351.949,367.3828 Q352.2537,366.8359 352.7771,366.5469 Q353.3084,366.25 353.9021,366.25 Q354.2615,366.25 354.574,366.375 Q354.8865,366.5 355.1521,366.75 Z " fill="#000000"/><text fill="#000000" font-family="sans-serif" font-size="6" lengthAdjust="spacing" textLength="17" x="361.1521" y="370.9551">Nurse</text><line style="stroke:#A80036;stroke-width:0.75;" x1="347.1521" x2="379.1521" y1="376.5" y2="376.5"/><line style="stroke:#A80036;stroke-width:0.75;" x1="347.1521" x2="379.1521" y1="380.5" y2="380.5"/><!--MD5=[da547346deef918ea16944ba046651ef]
class Administrator--><rect codeLine="22" fill="#FEFECE" filter="url(#f6pe1zv438whk)" height="24" id="Administrator" style="stroke:#A80036;stroke-width:0.75;" width="52.5" x="249.9021" y="171.5"/><ellipse cx="257.4021" cy="179.5" fill="#ADD1B2" rx="5.5" ry="5.5" style="stroke:#A80036;stroke-width:0.5;"/><path d="M258.4021,177.75 Q258.5037,177.5 258.6209,177.375 Q258.738,177.25 258.8709,177.25 Q259.1052,177.25 259.2537,177.3906 Q259.4021,177.5313 259.4021,177.8594 L259.4021,178.6406 Q259.4021,178.9688 259.2615,179.1094 Q259.1209,179.25 258.9021,179.25 Q258.7068,179.25 258.5818,179.1641 Q258.4568,179.0781 258.4021,178.8516 Q258.3787,178.6953 258.2927,178.6094 Q258.1365,178.4453 257.8552,178.3516 Q257.574,178.25 257.2927,178.25 Q256.9412,178.25 256.6443,178.3906 Q256.3552,178.5313 256.1287,178.8438 Q255.9021,179.1563 255.9021,179.5859 L255.9021,180.0469 Q255.9021,180.5625 256.324,180.9063 Q256.7459,181.25 257.4959,181.25 Q257.9412,181.25 258.2537,181.1484 Q258.4334,181.0938 258.6365,180.9141 Q258.7693,180.8125 258.8396,180.7813 Q258.9099,180.75 258.9959,180.75 Q259.1599,180.75 259.2771,180.8828 Q259.4021,181.0078 259.4021,181.1875 Q259.4021,181.3594 259.2302,181.5625 Q258.9802,181.8594 258.5818,182.0234 Q258.0584,182.25 257.4177,182.25 Q256.6677,182.25 256.0662,181.9531 Q255.5818,181.7188 255.238,181.2109 Q254.9021,180.7031 254.9021,180.1016 L254.9021,179.5547 Q254.9021,178.9297 255.199,178.3828 Q255.5037,177.8359 256.0271,177.5469 Q256.5584,177.25 257.1521,177.25 Q257.5115,177.25 257.824,177.375 Q258.1365,177.5 258.4021,177.75 Z " fill="#000000"/><text fill="#000000" font-family="sans-serif" font-size="6" lengthAdjust="spacing" textLength="36.5" x="264.4021" y="181.9551">Administrator</text><line style="stroke:#A80036;stroke-width:0.75;" x1="250.4021" x2="301.9021" y1="187.5" y2="187.5"/><line style="stroke:#A80036;stroke-width:0.75;" x1="250.4021" x2="301.9021" y1="191.5" y2="191.5"/><!--MD5=[4ec4fd7d42941e93e6f5672a014a0bc6]
class AdministratorDGS--><rect codeLine="24" fill="#FEFECE" filter="url(#f6pe1zv438whk)" height="44.7539" id="AdministratorDGS" style="stroke:#A80036;stroke-width:0.75;" width="65.5" x="25.4021" y="3.5"/><ellipse cx="32.9021" cy="11.5" fill="#ADD1B2" rx="5.5" ry="5.5" style="stroke:#A80036;stroke-width:0.5;"/><path d="M33.9021,9.75 Q34.0037,9.5 34.1209,9.375 Q34.238,9.25 34.3709,9.25 Q34.6052,9.25 34.7537,9.3906 Q34.9021,9.5313 34.9021,9.8594 L34.9021,10.6406 Q34.9021,10.9688 34.7615,11.1094 Q34.6209,11.25 34.4021,11.25 Q34.2068,11.25 34.0818,11.1641 Q33.9568,11.0781 33.9021,10.8516 Q33.8787,10.6953 33.7927,10.6094 Q33.6365,10.4453 33.3552,10.3516 Q33.074,10.25 32.7927,10.25 Q32.4412,10.25 32.1443,10.3906 Q31.8552,10.5313 31.6287,10.8438 Q31.4021,11.1563 31.4021,11.5859 L31.4021,12.0469 Q31.4021,12.5625 31.824,12.9063 Q32.2459,13.25 32.9959,13.25 Q33.4412,13.25 33.7537,13.1484 Q33.9334,13.0938 34.1365,12.9141 Q34.2693,12.8125 34.3396,12.7813 Q34.4099,12.75 34.4959,12.75 Q34.6599,12.75 34.7771,12.8828 Q34.9021,13.0078 34.9021,13.1875 Q34.9021,13.3594 34.7302,13.5625 Q34.4802,13.8594 34.0818,14.0234 Q33.5584,14.25 32.9177,14.25 Q32.1677,14.25 31.5662,13.9531 Q31.0818,13.7188 30.738,13.2109 Q30.4021,12.7031 30.4021,12.1016 L30.4021,11.5547 Q30.4021,10.9297 30.699,10.3828 Q31.0037,9.8359 31.5271,9.5469 Q32.0584,9.25 32.6521,9.25 Q33.0115,9.25 33.324,9.375 Q33.6365,9.5 33.9021,9.75 Z " fill="#000000"/><text fill="#000000" font-family="sans-serif" font-size="6" lengthAdjust="spacing" textLength="49.5" x="39.9021" y="13.9551">AdministratorDGS</text><line style="stroke:#A80036;stroke-width:0.75;" x1="25.9021" x2="90.4021" y1="19.5" y2="19.5"/><text fill="#000000" font-family="sans-serif" font-size="5.5" lengthAdjust="spacing" textLength="15.5" x="28.4021" y="27.2095">userID</text><text fill="#000000" font-family="sans-serif" font-size="5.5" lengthAdjust="spacing" textLength="13" x="28.4021" y="34.1274">name</text><text fill="#000000" font-family="sans-serif" font-size="5.5" lengthAdjust="spacing" textLength="25" x="28.4021" y="41.0454">password</text><line style="stroke:#A80036;stroke-width:0.75;" x1="25.9021" x2="90.4021" y1="44.2539" y2="44.2539"/><!--MD5=[5d2bdee92db0d01b75732190da037553]
class Coordinator--><rect codeLine="30" fill="#FEFECE" filter="url(#f6pe1zv438whk)" height="24" id="Coordinator" style="stroke:#A80036;stroke-width:0.75;" width="48.5" x="38.4021" y="249.5"/><ellipse cx="45.9021" cy="257.5" fill="#ADD1B2" rx="5.5" ry="5.5" style="stroke:#A80036;stroke-width:0.5;"/><path d="M46.9021,255.75 Q47.0037,255.5 47.1209,255.375 Q47.238,255.25 47.3709,255.25 Q47.6052,255.25 47.7537,255.3906 Q47.9021,255.5313 47.9021,255.8594 L47.9021,256.6406 Q47.9021,256.9688 47.7615,257.1094 Q47.6209,257.25 47.4021,257.25 Q47.2068,257.25 47.0818,257.1641 Q46.9568,257.0781 46.9021,256.8516 Q46.8787,256.6953 46.7927,256.6094 Q46.6365,256.4453 46.3552,256.3516 Q46.074,256.25 45.7927,256.25 Q45.4412,256.25 45.1443,256.3906 Q44.8552,256.5313 44.6287,256.8438 Q44.4021,257.1563 44.4021,257.5859 L44.4021,258.0469 Q44.4021,258.5625 44.824,258.9063 Q45.2459,259.25 45.9959,259.25 Q46.4412,259.25 46.7537,259.1484 Q46.9334,259.0938 47.1365,258.9141 Q47.2693,258.8125 47.3396,258.7813 Q47.4099,258.75 47.4959,258.75 Q47.6599,258.75 47.7771,258.8828 Q47.9021,259.0078 47.9021,259.1875 Q47.9021,259.3594 47.7302,259.5625 Q47.4802,259.8594 47.0818,260.0234 Q46.5584,260.25 45.9177,260.25 Q45.1677,260.25 44.5662,259.9531 Q44.0818,259.7188 43.738,259.2109 Q43.4021,258.7031 43.4021,258.1016 L43.4021,257.5547 Q43.4021,256.9297 43.699,256.3828 Q44.0037,255.8359 44.5271,255.5469 Q45.0584,255.25 45.6521,255.25 Q46.0115,255.25 46.324,255.375 Q46.6365,255.5 46.9021,255.75 Z " fill="#000000"/><text fill="#000000" font-family="sans-serif" font-size="6" lengthAdjust="spacing" textLength="32.5" x="52.9021" y="259.9551">Coordinator</text><line style="stroke:#A80036;stroke-width:0.75;" x1="38.9021" x2="86.4021" y1="265.5" y2="265.5"/><line style="stroke:#A80036;stroke-width:0.75;" x1="38.9021" x2="86.4021" y1="269.5" y2="269.5"/><!--MD5=[19e445fc4d3b48519cbe33da05496394]
class Vaccine--><rect codeLine="32" fill="#FEFECE" filter="url(#f6pe1zv438whk)" height="37.8359" id="Vaccine" style="stroke:#A80036;stroke-width:0.75;" width="37.5" x="372.9021" y="511"/><ellipse cx="380.4021" cy="519" fill="#ADD1B2" rx="5.5" ry="5.5" style="stroke:#A80036;stroke-width:0.5;"/><path d="M381.4021,517.25 Q381.5037,517 381.6209,516.875 Q381.738,516.75 381.8709,516.75 Q382.1052,516.75 382.2537,516.8906 Q382.4021,517.0313 382.4021,517.3594 L382.4021,518.1406 Q382.4021,518.4688 382.2615,518.6094 Q382.1209,518.75 381.9021,518.75 Q381.7068,518.75 381.5818,518.6641 Q381.4568,518.5781 381.4021,518.3516 Q381.3787,518.1953 381.2927,518.1094 Q381.1365,517.9453 380.8552,517.8516 Q380.574,517.75 380.2927,517.75 Q379.9412,517.75 379.6443,517.8906 Q379.3552,518.0313 379.1287,518.3438 Q378.9021,518.6563 378.9021,519.0859 L378.9021,519.5469 Q378.9021,520.0625 379.324,520.4063 Q379.7459,520.75 380.4959,520.75 Q380.9412,520.75 381.2537,520.6484 Q381.4334,520.5938 381.6365,520.4141 Q381.7693,520.3125 381.8396,520.2813 Q381.9099,520.25 381.9959,520.25 Q382.1599,520.25 382.2771,520.3828 Q382.4021,520.5078 382.4021,520.6875 Q382.4021,520.8594 382.2302,521.0625 Q381.9802,521.3594 381.5818,521.5234 Q381.0584,521.75 380.4177,521.75 Q379.6677,521.75 379.0662,521.4531 Q378.5818,521.2188 378.238,520.7109 Q377.9021,520.2031 377.9021,519.6016 L377.9021,519.0547 Q377.9021,518.4297 378.199,517.8828 Q378.5037,517.3359 379.0271,517.0469 Q379.5584,516.75 380.1521,516.75 Q380.5115,516.75 380.824,516.875 Q381.1365,517 381.4021,517.25 Z " fill="#000000"/><text fill="#000000" font-family="sans-serif" font-size="6" lengthAdjust="spacing" textLength="21.5" x="387.4021" y="521.4551">Vaccine</text><line style="stroke:#A80036;stroke-width:0.75;" x1="373.4021" x2="409.9021" y1="527" y2="527"/><text fill="#000000" font-family="sans-serif" font-size="5.5" lengthAdjust="spacing" textLength="13" x="375.9021" y="534.7095">name</text><text fill="#000000" font-family="sans-serif" font-size="5.5" lengthAdjust="spacing" textLength="14" x="375.9021" y="541.6274">brand</text><line style="stroke:#A80036;stroke-width:0.75;" x1="373.4021" x2="409.9021" y1="544.8359" y2="544.8359"/><!--MD5=[0e501da62322464167c8ec4d233a6b7e]
class VaccineType--><rect codeLine="37" fill="#FEFECE" filter="url(#f6pe1zv438whk)" height="44.7539" id="VaccineType" style="stroke:#A80036;stroke-width:0.75;" width="50.5" x="315.4021" y="612.25"/><ellipse cx="322.9021" cy="620.25" fill="#ADD1B2" rx="5.5" ry="5.5" style="stroke:#A80036;stroke-width:0.5;"/><path d="M323.9021,618.5 Q324.0037,618.25 324.1209,618.125 Q324.238,618 324.3709,618 Q324.6052,618 324.7537,618.1406 Q324.9021,618.2813 324.9021,618.6094 L324.9021,619.3906 Q324.9021,619.7188 324.7615,619.8594 Q324.6209,620 324.4021,620 Q324.2068,620 324.0818,619.9141 Q323.9568,619.8281 323.9021,619.6016 Q323.8787,619.4453 323.7927,619.3594 Q323.6365,619.1953 323.3552,619.1016 Q323.074,619 322.7927,619 Q322.4412,619 322.1443,619.1406 Q321.8552,619.2813 321.6287,619.5938 Q321.4021,619.9063 321.4021,620.3359 L321.4021,620.7969 Q321.4021,621.3125 321.824,621.6563 Q322.2459,622 322.9959,622 Q323.4412,622 323.7537,621.8984 Q323.9334,621.8438 324.1365,621.6641 Q324.2693,621.5625 324.3396,621.5313 Q324.4099,621.5 324.4959,621.5 Q324.6599,621.5 324.7771,621.6328 Q324.9021,621.7578 324.9021,621.9375 Q324.9021,622.1094 324.7302,622.3125 Q324.4802,622.6094 324.0818,622.7734 Q323.5584,623 322.9177,623 Q322.1677,623 321.5662,622.7031 Q321.0818,622.4688 320.738,621.9609 Q320.4021,621.4531 320.4021,620.8516 L320.4021,620.3047 Q320.4021,619.6797 320.699,619.1328 Q321.0037,618.5859 321.5271,618.2969 Q322.0584,618 322.6521,618 Q323.0115,618 323.324,618.125 Q323.6365,618.25 323.9021,618.5 Z " fill="#000000"/><text fill="#000000" font-family="sans-serif" font-size="6" lengthAdjust="spacing" textLength="34.5" x="329.9021" y="622.7051">VaccineType</text><line style="stroke:#A80036;stroke-width:0.75;" x1="315.9021" x2="365.4021" y1="628.25" y2="628.25"/><text fill="#000000" font-family="sans-serif" font-size="5.5" lengthAdjust="spacing" textLength="12" x="318.4021" y="635.9595">code</text><text fill="#000000" font-family="sans-serif" font-size="5.5" lengthAdjust="spacing" textLength="27.5" x="318.4021" y="642.8774">designation</text><text fill="#000000" font-family="sans-serif" font-size="5.5" lengthAdjust="spacing" textLength="15.5" x="318.4021" y="649.7954">whoID</text><line style="stroke:#A80036;stroke-width:0.75;" x1="315.9021" x2="365.4021" y1="653.0039" y2="653.0039"/><!--MD5=[de60e6d4f424ae4d0522096f76a59010]
class VaccinationCenter--><rect codeLine="43" fill="#FEFECE" filter="url(#f6pe1zv438whk)" height="86.2617" id="VaccinationCenter" style="stroke:#A80036;stroke-width:0.75;" width="67" x="89.1521" y="591.5"/><ellipse cx="97.1021" cy="599.5" fill="#ADD1B2" rx="5.5" ry="5.5" style="stroke:#A80036;stroke-width:0.5;"/><path d="M98.1021,597.75 Q98.2037,597.5 98.3209,597.375 Q98.438,597.25 98.5709,597.25 Q98.8052,597.25 98.9537,597.3906 Q99.1021,597.5313 99.1021,597.8594 L99.1021,598.6406 Q99.1021,598.9688 98.9615,599.1094 Q98.8209,599.25 98.6021,599.25 Q98.4068,599.25 98.2818,599.1641 Q98.1568,599.0781 98.1021,598.8516 Q98.0787,598.6953 97.9927,598.6094 Q97.8365,598.4453 97.5552,598.3516 Q97.274,598.25 96.9927,598.25 Q96.6412,598.25 96.3443,598.3906 Q96.0552,598.5313 95.8287,598.8438 Q95.6021,599.1563 95.6021,599.5859 L95.6021,600.0469 Q95.6021,600.5625 96.024,600.9063 Q96.4459,601.25 97.1959,601.25 Q97.6412,601.25 97.9537,601.1484 Q98.1334,601.0938 98.3365,600.9141 Q98.4693,600.8125 98.5396,600.7813 Q98.6099,600.75 98.6959,600.75 Q98.8599,600.75 98.9771,600.8828 Q99.1021,601.0078 99.1021,601.1875 Q99.1021,601.3594 98.9302,601.5625 Q98.6802,601.8594 98.2818,602.0234 Q97.7584,602.25 97.1177,602.25 Q96.3677,602.25 95.7662,601.9531 Q95.2818,601.7188 94.938,601.2109 Q94.6021,600.7031 94.6021,600.1016 L94.6021,599.5547 Q94.6021,598.9297 94.899,598.3828 Q95.2037,597.8359 95.7271,597.5469 Q96.2584,597.25 96.8521,597.25 Q97.2115,597.25 97.524,597.375 Q97.8365,597.5 98.1021,597.75 Z " fill="#000000"/><text fill="#000000" font-family="sans-serif" font-size="6" lengthAdjust="spacing" textLength="50" x="104.2021" y="601.9551">VaccinationCenter</text><line style="stroke:#A80036;stroke-width:0.75;" x1="89.6521" x2="155.6521" y1="607.5" y2="607.5"/><text fill="#000000" font-family="sans-serif" font-size="5.5" lengthAdjust="spacing" textLength="13" x="92.1521" y="615.2095">name</text><text fill="#000000" font-family="sans-serif" font-size="5.5" lengthAdjust="spacing" textLength="20" x="92.1521" y="622.1274">address</text><text fill="#000000" font-family="sans-serif" font-size="5.5" lengthAdjust="spacing" textLength="33.5" x="92.1521" y="629.0454">phoneNumber</text><text fill="#000000" font-family="sans-serif" font-size="5.5" lengthAdjust="spacing" textLength="33" x="92.1521" y="635.9634">emailAddress</text><text fill="#000000" font-family="sans-serif" font-size="5.5" lengthAdjust="spacing" textLength="8" x="92.1521" y="642.8813">fax</text><text fill="#000000" font-family="sans-serif" font-size="5.5" lengthAdjust="spacing" textLength="19.5" x="92.1521" y="649.7993">website</text><text fill="#000000" font-family="sans-serif" font-size="5.5" lengthAdjust="spacing" textLength="61" x="92.1521" y="656.7173">openingAndClosingHours</text><text fill="#000000" font-family="sans-serif" font-size="5.5" lengthAdjust="spacing" textLength="28.5" x="92.1521" y="663.6353">slotDuration</text><text fill="#000000" font-family="sans-serif" font-size="5.5" lengthAdjust="spacing" textLength="50" x="92.1521" y="670.5532">maxVaccinesPerSlot</text><line style="stroke:#A80036;stroke-width:0.75;" x1="89.6521" x2="155.6521" y1="673.7617" y2="673.7617"/><!--MD5=[08e67c426eec46880902d296a2afb95f]
class CommunityVaccinationCenter--><rect codeLine="55" fill="#FEFECE" filter="url(#f6pe1zv438whk)" height="24" id="CommunityVaccinationCenter" style="stroke:#A80036;stroke-width:0.75;" width="97.5" x="200.4021" y="622.75"/><ellipse cx="207.9021" cy="630.75" fill="#ADD1B2" rx="5.5" ry="5.5" style="stroke:#A80036;stroke-width:0.5;"/><path d="M208.9021,629 Q209.0037,628.75 209.1209,628.625 Q209.238,628.5 209.3709,628.5 Q209.6052,628.5 209.7537,628.6406 Q209.9021,628.7813 209.9021,629.1094 L209.9021,629.8906 Q209.9021,630.2188 209.7615,630.3594 Q209.6209,630.5 209.4021,630.5 Q209.2068,630.5 209.0818,630.4141 Q208.9568,630.3281 208.9021,630.1016 Q208.8787,629.9453 208.7927,629.8594 Q208.6365,629.6953 208.3552,629.6016 Q208.074,629.5 207.7927,629.5 Q207.4412,629.5 207.1443,629.6406 Q206.8552,629.7813 206.6287,630.0938 Q206.4021,630.4063 206.4021,630.8359 L206.4021,631.2969 Q206.4021,631.8125 206.824,632.1563 Q207.2459,632.5 207.9959,632.5 Q208.4412,632.5 208.7537,632.3984 Q208.9334,632.3438 209.1365,632.1641 Q209.2693,632.0625 209.3396,632.0313 Q209.4099,632 209.4959,632 Q209.6599,632 209.7771,632.1328 Q209.9021,632.2578 209.9021,632.4375 Q209.9021,632.6094 209.7302,632.8125 Q209.4802,633.1094 209.0818,633.2734 Q208.5584,633.5 207.9177,633.5 Q207.1677,633.5 206.5662,633.2031 Q206.0818,632.9688 205.738,632.4609 Q205.4021,631.9531 205.4021,631.3516 L205.4021,630.8047 Q205.4021,630.1797 205.699,629.6328 Q206.0037,629.0859 206.5271,628.7969 Q207.0584,628.5 207.6521,628.5 Q208.0115,628.5 208.324,628.625 Q208.6365,628.75 208.9021,629 Z " fill="#000000"/><text fill="#000000" font-family="sans-serif" font-size="6" lengthAdjust="spacing" textLength="81.5" x="214.9021" y="633.2051">CommunityVaccinationCenter</text><line style="stroke:#A80036;stroke-width:0.75;" x1="200.9021" x2="297.4021" y1="638.75" y2="638.75"/><line style="stroke:#A80036;stroke-width:0.75;" x1="200.9021" x2="297.4021" y1="642.75" y2="642.75"/><!--MD5=[0b1ce5251ebf137e6b3550dd84e6af65]
class HealthcareCenter--><rect codeLine="58" fill="#FEFECE" filter="url(#f6pe1zv438whk)" height="24" id="HealthcareCenter" style="stroke:#A80036;stroke-width:0.75;" width="64.5" x="90.4021" y="717"/><ellipse cx="97.9021" cy="725" fill="#ADD1B2" rx="5.5" ry="5.5" style="stroke:#A80036;stroke-width:0.5;"/><path d="M98.9021,723.25 Q99.0037,723 99.1209,722.875 Q99.238,722.75 99.3709,722.75 Q99.6052,722.75 99.7537,722.8906 Q99.9021,723.0313 99.9021,723.3594 L99.9021,724.1406 Q99.9021,724.4688 99.7615,724.6094 Q99.6209,724.75 99.4021,724.75 Q99.2068,724.75 99.0818,724.6641 Q98.9568,724.5781 98.9021,724.3516 Q98.8787,724.1953 98.7927,724.1094 Q98.6365,723.9453 98.3552,723.8516 Q98.074,723.75 97.7927,723.75 Q97.4412,723.75 97.1443,723.8906 Q96.8552,724.0313 96.6287,724.3438 Q96.4021,724.6563 96.4021,725.0859 L96.4021,725.5469 Q96.4021,726.0625 96.824,726.4063 Q97.2459,726.75 97.9959,726.75 Q98.4412,726.75 98.7537,726.6484 Q98.9334,726.5938 99.1365,726.4141 Q99.2693,726.3125 99.3396,726.2813 Q99.4099,726.25 99.4959,726.25 Q99.6599,726.25 99.7771,726.3828 Q99.9021,726.5078 99.9021,726.6875 Q99.9021,726.8594 99.7302,727.0625 Q99.4802,727.3594 99.0818,727.5234 Q98.5584,727.75 97.9177,727.75 Q97.1677,727.75 96.5662,727.4531 Q96.0818,727.2188 95.738,726.7109 Q95.4021,726.2031 95.4021,725.6016 L95.4021,725.0547 Q95.4021,724.4297 95.699,723.8828 Q96.0037,723.3359 96.5271,723.0469 Q97.0584,722.75 97.6521,722.75 Q98.0115,722.75 98.324,722.875 Q98.6365,723 98.9021,723.25 Z " fill="#000000"/><text fill="#000000" font-family="sans-serif" font-size="6" lengthAdjust="spacing" textLength="48.5" x="104.9021" y="727.4551">HealthcareCenter</text><line style="stroke:#A80036;stroke-width:0.75;" x1="90.9021" x2="154.4021" y1="733" y2="733"/><line style="stroke:#A80036;stroke-width:0.75;" x1="90.9021" x2="154.4021" y1="737" y2="737"/><!--MD5=[107cfa23aa516ff83d0cf17a6f9fe7ba]
class VaccineAdministration--><rect codeLine="61" fill="#FEFECE" filter="url(#f6pe1zv438whk)" height="44.7539" id="VaccineAdministration" style="stroke:#A80036;stroke-width:0.75;" width="77" x="321.6521" y="423.5"/><ellipse cx="329.1521" cy="431.5" fill="#ADD1B2" rx="5.5" ry="5.5" style="stroke:#A80036;stroke-width:0.5;"/><path d="M330.1521,429.75 Q330.2537,429.5 330.3709,429.375 Q330.488,429.25 330.6209,429.25 Q330.8552,429.25 331.0037,429.3906 Q331.1521,429.5313 331.1521,429.8594 L331.1521,430.6406 Q331.1521,430.9688 331.0115,431.1094 Q330.8709,431.25 330.6521,431.25 Q330.4568,431.25 330.3318,431.1641 Q330.2068,431.0781 330.1521,430.8516 Q330.1287,430.6953 330.0427,430.6094 Q329.8865,430.4453 329.6052,430.3516 Q329.324,430.25 329.0427,430.25 Q328.6912,430.25 328.3943,430.3906 Q328.1052,430.5313 327.8787,430.8438 Q327.6521,431.1563 327.6521,431.5859 L327.6521,432.0469 Q327.6521,432.5625 328.074,432.9063 Q328.4959,433.25 329.2459,433.25 Q329.6912,433.25 330.0037,433.1484 Q330.1834,433.0938 330.3865,432.9141 Q330.5193,432.8125 330.5896,432.7813 Q330.6599,432.75 330.7459,432.75 Q330.9099,432.75 331.0271,432.8828 Q331.1521,433.0078 331.1521,433.1875 Q331.1521,433.3594 330.9802,433.5625 Q330.7302,433.8594 330.3318,434.0234 Q329.8084,434.25 329.1677,434.25 Q328.4177,434.25 327.8162,433.9531 Q327.3318,433.7188 326.988,433.2109 Q326.6521,432.7031 326.6521,432.1016 L326.6521,431.5547 Q326.6521,430.9297 326.949,430.3828 Q327.2537,429.8359 327.7771,429.5469 Q328.3084,429.25 328.9021,429.25 Q329.2615,429.25 329.574,429.375 Q329.8865,429.5 330.1521,429.75 Z " fill="#000000"/><text fill="#000000" font-family="sans-serif" font-size="6" lengthAdjust="spacing" textLength="61" x="336.1521" y="433.9551">VaccineAdministration</text><line style="stroke:#A80036;stroke-width:0.75;" x1="322.1521" x2="398.1521" y1="439.5" y2="439.5"/><text fill="#000000" font-family="sans-serif" font-size="5.5" lengthAdjust="spacing" textLength="9.5" x="324.6521" y="447.2095">time</text><text fill="#000000" font-family="sans-serif" font-size="5.5" lengthAdjust="spacing" textLength="11.5" x="324.6521" y="454.1274">slots</text><text fill="#000000" font-family="sans-serif" font-size="5.5" lengthAdjust="spacing" textLength="31" x="324.6521" y="461.0454">waitingRoom</text><line style="stroke:#A80036;stroke-width:0.75;" x1="322.1521" x2="398.1521" y1="464.2539" y2="464.2539"/><!--MD5=[cd4ce1c0d44638ff9f42448de30e6b92]
class VaccineSchedule--><rect codeLine="67" fill="#FEFECE" filter="url(#f6pe1zv438whk)" height="44.7539" id="VaccineSchedule" style="stroke:#A80036;stroke-width:0.75;" width="63.5" x="197.4021" y="507.5"/><ellipse cx="204.9021" cy="515.5" fill="#ADD1B2" rx="5.5" ry="5.5" style="stroke:#A80036;stroke-width:0.5;"/><path d="M205.9021,513.75 Q206.0037,513.5 206.1209,513.375 Q206.238,513.25 206.3709,513.25 Q206.6052,513.25 206.7537,513.3906 Q206.9021,513.5313 206.9021,513.8594 L206.9021,514.6406 Q206.9021,514.9688 206.7615,515.1094 Q206.6209,515.25 206.4021,515.25 Q206.2068,515.25 206.0818,515.1641 Q205.9568,515.0781 205.9021,514.8516 Q205.8787,514.6953 205.7927,514.6094 Q205.6365,514.4453 205.3552,514.3516 Q205.074,514.25 204.7927,514.25 Q204.4412,514.25 204.1443,514.3906 Q203.8552,514.5313 203.6287,514.8438 Q203.4021,515.1563 203.4021,515.5859 L203.4021,516.0469 Q203.4021,516.5625 203.824,516.9063 Q204.2459,517.25 204.9959,517.25 Q205.4412,517.25 205.7537,517.1484 Q205.9334,517.0938 206.1365,516.9141 Q206.2693,516.8125 206.3396,516.7813 Q206.4099,516.75 206.4959,516.75 Q206.6599,516.75 206.7771,516.8828 Q206.9021,517.0078 206.9021,517.1875 Q206.9021,517.3594 206.7302,517.5625 Q206.4802,517.8594 206.0818,518.0234 Q205.5584,518.25 204.9177,518.25 Q204.1677,518.25 203.5662,517.9531 Q203.0818,517.7188 202.738,517.2109 Q202.4021,516.7031 202.4021,516.1016 L202.4021,515.5547 Q202.4021,514.9297 202.699,514.3828 Q203.0037,513.8359 203.5271,513.5469 Q204.0584,513.25 204.6521,513.25 Q205.0115,513.25 205.324,513.375 Q205.6365,513.5 205.9021,513.75 Z " fill="#000000"/><text fill="#000000" font-family="sans-serif" font-size="6" lengthAdjust="spacing" textLength="47.5" x="211.9021" y="517.9551">VaccineSchedule</text><line style="stroke:#A80036;stroke-width:0.75;" x1="197.9021" x2="260.4021" y1="523.5" y2="523.5"/><text fill="#000000" font-family="sans-serif" font-size="5.5" lengthAdjust="spacing" textLength="9" x="200.4021" y="531.2095">day</text><text fill="#000000" font-family="sans-serif" font-size="5.5" lengthAdjust="spacing" textLength="11" x="200.4021" y="538.1274">hour</text><text fill="#000000" font-family="sans-serif" font-size="5.5" lengthAdjust="spacing" textLength="18.5" x="200.4021" y="545.0454">location</text><line style="stroke:#A80036;stroke-width:0.75;" x1="197.9021" x2="260.4021" y1="548.2539" y2="548.2539"/><!--MD5=[924af64b189171134acf4c7bef0b961f]
class CompanyDGS--><rect codeLine="73" fill="#FEFECE" filter="url(#f6pe1zv438whk)" height="30.918" id="CompanyDGS" style="stroke:#A80036;stroke-width:0.75;" width="55.5" x="469.9021" y="94.5"/><ellipse cx="477.4021" cy="102.5" fill="#ADD1B2" rx="5.5" ry="5.5" style="stroke:#A80036;stroke-width:0.5;"/><path d="M478.4021,100.75 Q478.5037,100.5 478.6209,100.375 Q478.738,100.25 478.8709,100.25 Q479.1052,100.25 479.2537,100.3906 Q479.4021,100.5313 479.4021,100.8594 L479.4021,101.6406 Q479.4021,101.9688 479.2615,102.1094 Q479.1209,102.25 478.9021,102.25 Q478.7068,102.25 478.5818,102.1641 Q478.4568,102.0781 478.4021,101.8516 Q478.3787,101.6953 478.2927,101.6094 Q478.1365,101.4453 477.8552,101.3516 Q477.574,101.25 477.2927,101.25 Q476.9412,101.25 476.6443,101.3906 Q476.3552,101.5313 476.1287,101.8438 Q475.9021,102.1563 475.9021,102.5859 L475.9021,103.0469 Q475.9021,103.5625 476.324,103.9063 Q476.7459,104.25 477.4959,104.25 Q477.9412,104.25 478.2537,104.1484 Q478.4334,104.0938 478.6365,103.9141 Q478.7693,103.8125 478.8396,103.7813 Q478.9099,103.75 478.9959,103.75 Q479.1599,103.75 479.2771,103.8828 Q479.4021,104.0078 479.4021,104.1875 Q479.4021,104.3594 479.2302,104.5625 Q478.9802,104.8594 478.5818,105.0234 Q478.0584,105.25 477.4177,105.25 Q476.6677,105.25 476.0662,104.9531 Q475.5818,104.7188 475.238,104.2109 Q474.9021,103.7031 474.9021,103.1016 L474.9021,102.5547 Q474.9021,101.9297 475.199,101.3828 Q475.5037,100.8359 476.0271,100.5469 Q476.5584,100.25 477.1521,100.25 Q477.5115,100.25 477.824,100.375 Q478.1365,100.5 478.4021,100.75 Z " fill="#000000"/><text fill="#000000" font-family="sans-serif" font-size="6" lengthAdjust="spacing" textLength="39.5" x="484.4021" y="104.9551">CompanyDGS</text><line style="stroke:#A80036;stroke-width:0.75;" x1="470.4021" x2="524.9021" y1="110.5" y2="110.5"/><text fill="#000000" font-family="sans-serif" font-size="5.5" lengthAdjust="spacing" textLength="27.5" x="472.9021" y="118.2095">designation</text><line style="stroke:#A80036;stroke-width:0.75;" x1="470.4021" x2="524.9021" y1="121.418" y2="121.418"/><!--MD5=[f8e092794d52bf9a252466252ae7bd1c]
class System--><rect codeLine="77" fill="#FEFECE" filter="url(#f6pe1zv438whk)" height="24" id="System" style="stroke:#A80036;stroke-width:0.75;" width="36.5" x="579.9021" y="210.5"/><ellipse cx="587.4021" cy="218.5" fill="#ADD1B2" rx="5.5" ry="5.5" style="stroke:#A80036;stroke-width:0.5;"/><path d="M588.4021,216.75 Q588.5037,216.5 588.6209,216.375 Q588.738,216.25 588.8709,216.25 Q589.1052,216.25 589.2537,216.3906 Q589.4021,216.5313 589.4021,216.8594 L589.4021,217.6406 Q589.4021,217.9688 589.2615,218.1094 Q589.1209,218.25 588.9021,218.25 Q588.7068,218.25 588.5818,218.1641 Q588.4568,218.0781 588.4021,217.8516 Q588.3787,217.6953 588.2927,217.6094 Q588.1365,217.4453 587.8552,217.3516 Q587.574,217.25 587.2927,217.25 Q586.9412,217.25 586.6443,217.3906 Q586.3552,217.5313 586.1287,217.8438 Q585.9021,218.1563 585.9021,218.5859 L585.9021,219.0469 Q585.9021,219.5625 586.324,219.9063 Q586.7459,220.25 587.4959,220.25 Q587.9412,220.25 588.2537,220.1484 Q588.4334,220.0938 588.6365,219.9141 Q588.7693,219.8125 588.8396,219.7813 Q588.9099,219.75 588.9959,219.75 Q589.1599,219.75 589.2771,219.8828 Q589.4021,220.0078 589.4021,220.1875 Q589.4021,220.3594 589.2302,220.5625 Q588.9802,220.8594 588.5818,221.0234 Q588.0584,221.25 587.4177,221.25 Q586.6677,221.25 586.0662,220.9531 Q585.5818,220.7188 585.238,220.2109 Q584.9021,219.7031 584.9021,219.1016 L584.9021,218.5547 Q584.9021,217.9297 585.199,217.3828 Q585.5037,216.8359 586.0271,216.5469 Q586.5584,216.25 587.1521,216.25 Q587.5115,216.25 587.824,216.375 Q588.1365,216.5 588.4021,216.75 Z " fill="#000000"/><text fill="#000000" font-family="sans-serif" font-size="6" lengthAdjust="spacing" textLength="20.5" x="594.4021" y="220.9551">System</text><line style="stroke:#A80036;stroke-width:0.75;" x1="580.4021" x2="615.9021" y1="226.5" y2="226.5"/><line style="stroke:#A80036;stroke-width:0.75;" x1="580.4021" x2="615.9021" y1="230.5" y2="230.5"/><!--MD5=[a69690daa9a812129c4a0ea24b49d4ca]
class WHO--><rect codeLine="79" fill="#FEFECE" filter="url(#f6pe1zv438whk)" height="24" id="WHO" style="stroke:#A80036;stroke-width:0.75;" width="30.5" x="482.4021" y="14"/><ellipse cx="489.9021" cy="22" fill="#ADD1B2" rx="5.5" ry="5.5" style="stroke:#A80036;stroke-width:0.5;"/><path d="M490.9021,20.25 Q491.0037,20 491.1209,19.875 Q491.238,19.75 491.3709,19.75 Q491.6052,19.75 491.7537,19.8906 Q491.9021,20.0313 491.9021,20.3594 L491.9021,21.1406 Q491.9021,21.4688 491.7615,21.6094 Q491.6209,21.75 491.4021,21.75 Q491.2068,21.75 491.0818,21.6641 Q490.9568,21.5781 490.9021,21.3516 Q490.8787,21.1953 490.7927,21.1094 Q490.6365,20.9453 490.3552,20.8516 Q490.074,20.75 489.7927,20.75 Q489.4412,20.75 489.1443,20.8906 Q488.8552,21.0313 488.6287,21.3438 Q488.4021,21.6563 488.4021,22.0859 L488.4021,22.5469 Q488.4021,23.0625 488.824,23.4063 Q489.2459,23.75 489.9959,23.75 Q490.4412,23.75 490.7537,23.6484 Q490.9334,23.5938 491.1365,23.4141 Q491.2693,23.3125 491.3396,23.2813 Q491.4099,23.25 491.4959,23.25 Q491.6599,23.25 491.7771,23.3828 Q491.9021,23.5078 491.9021,23.6875 Q491.9021,23.8594 491.7302,24.0625 Q491.4802,24.3594 491.0818,24.5234 Q490.5584,24.75 489.9177,24.75 Q489.1677,24.75 488.5662,24.4531 Q488.0818,24.2188 487.738,23.7109 Q487.4021,23.2031 487.4021,22.6016 L487.4021,22.0547 Q487.4021,21.4297 487.699,20.8828 Q488.0037,20.3359 488.5271,20.0469 Q489.0584,19.75 489.6521,19.75 Q490.0115,19.75 490.324,19.875 Q490.6365,20 490.9021,20.25 Z " fill="#000000"/><text fill="#000000" font-family="sans-serif" font-size="6" lengthAdjust="spacing" textLength="14.5" x="496.9021" y="24.4551">WHO</text><line style="stroke:#A80036;stroke-width:0.75;" x1="482.9021" x2="512.4021" y1="30" y2="30"/><line style="stroke:#A80036;stroke-width:0.75;" x1="482.9021" x2="512.4021" y1="34" y2="34"/><!--MD5=[2f26c59ba8ef7396e87efa5f925a2da3]
link CompanyDGS to SNSUser--><path codeLine="81" d="M525.4971,110.475 C573.1271,112.05 665.1521,122.875 665.1521,183 C665.1521,183 665.1521,183 665.1521,530.5 C665.1521,575.78 615.1521,607.635 583.5121,623.26 " fill="none" id="CompanyDGS-SNSUser" style="stroke:#A80036;stroke-width:0.5;"/><polygon fill="#000000" points="667.9332,343.572,668.8849,338.913,665.9646,339.2434,667.9332,343.572" style="stroke:#000000;stroke-width:0.5;"/><text fill="#000000" font-family="sans-serif" font-size="6.5" lengthAdjust="spacing" textLength="15" x="672.1521" y="343.7476">owns</text><text fill="#000000" font-family="sans-serif" font-size="6.5" lengthAdjust="spacing" textLength="3.5" x="529.4739" y="108.7662">1</text><text fill="#000000" font-family="sans-serif" font-size="6.5" lengthAdjust="spacing" textLength="2.5" x="587.4205" y="619.7448">*</text><!--MD5=[ef06a06baeca031b05d07c2e1f2d58a3]
link CompanyDGS to VaccineType--><path codeLine="82" d="M507.0371,125.57 C515.0071,139.815 525.1521,162.065 525.1521,183 C525.1521,183 525.1521,183 525.1521,373 C525.1521,452.915 559.4471,486.32 514.6521,552.5 C480.2321,603.36 405.4021,623.34 366.0321,630.555 " fill="none" id="CompanyDGS-VaccineType" style="stroke:#A80036;stroke-width:0.5;"/><polygon fill="#000000" points="526.9798,343.4958,529.6114,339.5351,526.7807,338.7447,526.9798,343.4958" style="stroke:#000000;stroke-width:0.5;"/><text fill="#000000" font-family="sans-serif" font-size="6.5" lengthAdjust="spacing" textLength="66.5" x="532.1521" y="343.7476">promotes administrator</text><text fill="#000000" font-family="sans-serif" font-size="6.5" lengthAdjust="spacing" textLength="3.5" x="505.0403" y="136.1958">1</text><text fill="#000000" font-family="sans-serif" font-size="6.5" lengthAdjust="spacing" textLength="2.5" x="369.9434" y="628.1299">*</text><!--MD5=[5b94f3210d53d41cf4b4d9ec37336f02]
link CompanyDGS to Vaccine--><path codeLine="83" d="M488.4371,125.59 C480.6121,139.85 470.6521,162.115 470.6521,183 C470.6521,183 470.6521,183 470.6521,446.5 C470.6521,463.855 433.9471,496.115 410.5721,514.895 " fill="none" id="CompanyDGS-Vaccine" style="stroke:#A80036;stroke-width:0.5;"/><polygon fill="#000000" points="472.6618,319.5393,474.9897,315.3928,472.1079,314.8164,472.6618,319.5393" style="stroke:#000000;stroke-width:0.5;"/><text fill="#000000" font-family="sans-serif" font-size="6.5" lengthAdjust="spacing" textLength="20.5" x="477.6521" y="319.7476">applies</text><text fill="#000000" font-family="sans-serif" font-size="6.5" lengthAdjust="spacing" textLength="3.5" x="482.7784" y="136.2197">1</text><text fill="#000000" font-family="sans-serif" font-size="6.5" lengthAdjust="spacing" textLength="2.5" x="414.417" y="510.0331">*</text><!--MD5=[e26446c6d9d25e9d332c8509ffbb2cb3]
link CompanyDGS to VaccinationCenter--><path codeLine="84" d="M469.9021,112.45 C410.1021,116.95 270.9871,129.105 227.6521,147.5 C124.9221,191.11 115.1521,260.395 115.1521,372 C115.1521,372 115.1521,372 115.1521,530.5 C115.1521,550.545 116.5621,572.715 118.1571,591.395 " fill="none" id="CompanyDGS-VaccinationCenter" style="stroke:#A80036;stroke-width:0.5;"/><polygon fill="#000000" points="116.6723,343.1029,120.5337,340.3276,118.1649,338.5879,116.6723,343.1029" style="stroke:#000000;stroke-width:0.5;"/><text fill="#000000" font-family="sans-serif" font-size="6.5" lengthAdjust="spacing" textLength="26.5" x="122.6521" y="343.7476">manages</text><text fill="#000000" font-family="sans-serif" font-size="6.5" lengthAdjust="spacing" textLength="3.5" x="462.438" y="111.0066">1</text><text fill="#000000" font-family="sans-serif" font-size="6.5" lengthAdjust="spacing" textLength="2.5" x="115.1634" y="586.0908">*</text><!--MD5=[7b44b7539cd544adeab7210e5a9b72c6]
link CompanyDGS to Administrator--><path codeLine="85" d="M469.8221,119.61 C426.7721,133.7 344.6121,160.59 302.4871,174.38 " fill="none" id="CompanyDGS-Administrator" style="stroke:#A80036;stroke-width:0.5;"/><polygon fill="#000000" points="380.7761,152.8656,385.5314,152.8553,384.6172,150.0622,380.7761,152.8656" style="stroke:#000000;stroke-width:0.5;"/><text fill="#000000" font-family="sans-serif" font-size="6.5" lengthAdjust="spacing" textLength="18.5" x="387.6521" y="154.7476">knows</text><text fill="#000000" font-family="sans-serif" font-size="6.5" lengthAdjust="spacing" textLength="3.5" x="462.3473" y="128.2037">1</text><text fill="#000000" font-family="sans-serif" font-size="6.5" lengthAdjust="spacing" textLength="10" x="306.3061" y="171.5393">1..*</text><!--MD5=[559f684f159c5a0ed7a902d8a395a4a3]
link CompanyDGS to System--><path codeLine="86" d="M515.3471,125.605 C522.6471,132.105 531.0421,139.935 538.1521,147.5 C557.9371,168.56 578.5471,195.41 589.7171,210.45 " fill="none" id="CompanyDGS-System" style="stroke:#A80036;stroke-width:0.5;"/><polygon fill="#000000" points="549.8,153.9679,547.924,149.5983,545.7139,151.5355,549.8,153.9679" style="stroke:#000000;stroke-width:0.5;"/><text fill="#000000" font-family="sans-serif" font-size="6.5" lengthAdjust="spacing" textLength="26.5" x="552.6521" y="154.7476">manages</text><text fill="#000000" font-family="sans-serif" font-size="6.5" lengthAdjust="spacing" textLength="3.5" x="514.8866" y="136.1143">1</text><text fill="#000000" font-family="sans-serif" font-size="6.5" lengthAdjust="spacing" textLength="3.5" x="583.6072" y="205.1073">1</text><!--MD5=[8397433f6a3cd2bd7683126eaa572907]
link WHO to CompanyDGS--><path codeLine="88" d="M497.6521,38.04 C497.6521,52.74 497.6521,78.175 497.6521,94.405 " fill="none" id="WHO-CompanyDGS" style="stroke:#A80036;stroke-width:0.5;"/><polygon fill="#000000" points="500.1521,70.5879,501.6216,66.0653,498.6826,66.0653,500.1521,70.5879" style="stroke:#000000;stroke-width:0.5;"/><text fill="#000000" font-family="sans-serif" font-size="6.5" lengthAdjust="spacing" textLength="56" x="504.6521" y="70.7476">communicates with</text><text fill="#000000" font-family="sans-serif" font-size="6.5" lengthAdjust="spacing" textLength="3.5" x="493.7255" y="48.7187">1</text><text fill="#000000" font-family="sans-serif" font-size="6.5" lengthAdjust="spacing" textLength="3.5" x="493.7912" y="89.1377">1</text><!--MD5=[e2ddcc32583ff1a2f6fdd8d9fe473f71]
link Administrator to Nurse--><path codeLine="90" d="M294.2321,195.63 C299.4071,199.755 304.6021,204.81 308.1521,210.5 C329.2121,244.245 316.1671,259.9 329.1521,297.5 C337.0871,320.48 349.5921,346 357.0221,360.415 " fill="none" id="Administrator-Nurse" style="stroke:#A80036;stroke-width:0.5;"/><polygon fill="#000000" points="332.5423,295.424,332.3051,290.6747,329.5588,291.7211,332.5423,295.424" style="stroke:#000000;stroke-width:0.5;"/><text fill="#000000" font-family="sans-serif" font-size="6.5" lengthAdjust="spacing" textLength="26.5" x="336.1521" y="295.7476">manages</text><text fill="#000000" font-family="sans-serif" font-size="6.5" lengthAdjust="spacing" textLength="3.5" x="294.7125" y="206.3307">1</text><text fill="#000000" font-family="sans-serif" font-size="6.5" lengthAdjust="spacing" textLength="10" x="344.17" y="355.0633">1..*</text><!--MD5=[64c52275ea9d22bde431e3436d41be0c]
link Administrator to Receptionist--><path codeLine="91" d="M261.5221,195.615 C256.7921,199.91 251.8271,205.07 248.1521,210.5 C239.9071,222.685 234.2821,238.77 231.1471,249.48 " fill="none" id="Administrator-Receptionist" style="stroke:#A80036;stroke-width:0.5;"/><polygon fill="#000000" points="249.4241,224.7655,252.9255,221.5479,250.3656,220.1044,249.4241,224.7655" style="stroke:#000000;stroke-width:0.5;"/><text fill="#000000" font-family="sans-serif" font-size="6.5" lengthAdjust="spacing" textLength="26.5" x="255.1521" y="225.2476">manages</text><text fill="#000000" font-family="sans-serif" font-size="6.5" lengthAdjust="spacing" textLength="3.5" x="254.0295" y="206.312">1</text><text fill="#000000" font-family="sans-serif" font-size="6.5" lengthAdjust="spacing" textLength="10" x="233.1958" y="244.145">1..*</text><!--MD5=[6db9f895ec78c08c4be6429f751f42ae]
link Administrator to Coordinator--><path codeLine="92" d="M249.7671,189.425 C239.5971,191.445 227.8521,193.685 217.1521,195.5 C171.3271,203.28 155.2571,189.775 113.6521,210.5 C95.4721,219.555 79.7671,237.555 70.7571,249.435 " fill="none" id="Administrator-Coordinator" style="stroke:#A80036;stroke-width:0.5;"/><polygon fill="#000000" points="113.7818,223.3825,118.5368,223.3383,117.6027,220.5518,113.7818,223.3825" style="stroke:#000000;stroke-width:0.5;"/><text fill="#000000" font-family="sans-serif" font-size="6.5" lengthAdjust="spacing" textLength="26.5" x="120.6521" y="225.2476">manages</text><text fill="#000000" font-family="sans-serif" font-size="6.5" lengthAdjust="spacing" textLength="3.5" x="242.4865" y="188.443">1</text><text fill="#000000" font-family="sans-serif" font-size="6.5" lengthAdjust="spacing" textLength="10" x="74.1153" y="244.0884">1..*</text><!--MD5=[0e439f75a3d966f965fe5f237a1bacbe]
link Administrator to Vaccine--><path codeLine="93" d="M302.5021,193.95 C310.9771,198.1 319.9121,203.59 326.6521,210.5 C342.9371,227.19 412.9121,393.63 414.1521,399.5 C422.4721,438.945 408.7171,485.6 399.3071,510.905 " fill="none" id="Administrator-Vaccine" style="stroke:#A80036;stroke-width:0.5;"/><polygon fill="#000000" points="394.8824,343.4789,394.9667,338.7243,392.1559,339.5828,394.8824,343.4789" style="stroke:#000000;stroke-width:0.5;"/><text fill="#000000" font-family="sans-serif" font-size="6.5" lengthAdjust="spacing" textLength="26.5" x="398.6521" y="343.7476">manages</text><text fill="#000000" font-family="sans-serif" font-size="6.5" lengthAdjust="spacing" textLength="3.5" x="306.4537" y="193.6169">1</text><text fill="#000000" font-family="sans-serif" font-size="6.5" lengthAdjust="spacing" textLength="10" x="389.78" y="505.569">1..*</text><!--MD5=[d0b477519989ed3601cd00d052224350]
link Administrator to VaccineType--><path codeLine="94" d="M280.8471,195.52 C286.4771,210.39 295.1521,237.18 295.1521,261 C295.1521,261 295.1521,261 295.1521,404.5 C295.1521,482.06 320.4121,571.595 333.2921,612.2 " fill="none" id="Administrator-VaccineType" style="stroke:#A80036;stroke-width:0.5;"/><polygon fill="#000000" points="297.9643,375.0683,298.8575,370.3977,295.9416,370.7647,297.9643,375.0683" style="stroke:#000000;stroke-width:0.5;"/><text fill="#000000" font-family="sans-serif" font-size="6.5" lengthAdjust="spacing" textLength="26.5" x="302.1521" y="375.2476">manages</text><text fill="#000000" font-family="sans-serif" font-size="6.5" lengthAdjust="spacing" textLength="3.5" x="278.065" y="206.1939">1</text><text fill="#000000" font-family="sans-serif" font-size="6.5" lengthAdjust="spacing" textLength="10" x="321.3222" y="606.7498">1..*</text><!--MD5=[d497e8607f1e7b3d570c70d67196006d]
link Administrator to VaccinationCenter--><path codeLine="95" d="M252.9421,195.515 C233.5521,206.505 207.0671,225 194.1521,249.5 C162.9821,308.625 137.4921,504.13 127.3621,591.46 " fill="none" id="Administrator-VaccinationCenter" style="stroke:#A80036;stroke-width:0.5;"/><polygon fill="#000000" points="163.8963,374.9709,166.6643,371.1042,163.8629,370.2157,163.8963,374.9709" style="stroke:#000000;stroke-width:0.5;"/><text fill="#000000" font-family="sans-serif" font-size="6.5" lengthAdjust="spacing" textLength="26.5" x="169.1521" y="375.2476">manages</text><text fill="#000000" font-family="sans-serif" font-size="6.5" lengthAdjust="spacing" textLength="3.5" x="243.3581" y="206.1876">1</text><text fill="#000000" font-family="sans-serif" font-size="6.5" lengthAdjust="spacing" textLength="10" x="128.2269" y="586.0142">1..*</text><!--MD5=[60758e577fa2365c94c3f480e3c3898b]
link AdministratorDGS to VaccinationCenter--><path codeLine="97" d="M35.3371,48.61 C21.7571,64.19 7.1521,86.33 7.1521,109.5 C7.1521,109.5 7.1521,109.5 7.1521,530.5 C7.1521,574.905 54.9871,605.125 89.0871,621.03 " fill="none" id="AdministratorDGS-VaccinationCenter" style="stroke:#A80036;stroke-width:0.5;"/><polygon fill="#000000" points="9.8858,319.5769,10.9261,314.9368,8,315.2116,9.8858,319.5769" style="stroke:#000000;stroke-width:0.5;"/><text fill="#000000" font-family="sans-serif" font-size="6.5" lengthAdjust="spacing" textLength="21.5" x="14.1521" y="319.7476">register</text><text fill="#000000" font-family="sans-serif" font-size="6.5" lengthAdjust="spacing" textLength="3.5" x="28.5362" y="58.9616">1</text><text fill="#000000" font-family="sans-serif" font-size="6.5" lengthAdjust="spacing" textLength="10" x="75.1101" y="617.9715">1..*</text><!--MD5=[e1402b9ce3dbe0326eca30710a3d6344]
link AdministratorDGS to Employee--><path codeLine="98" d="M90.7921,48.525 C112.4271,63.125 140.2271,81.885 159.2421,94.715 " fill="none" id="AdministratorDGS-Employee" style="stroke:#A80036;stroke-width:0.5;"/><polygon fill="#000000" points="128.2244,69.4863,125.2975,65.7385,123.6536,68.1746,128.2244,69.4863" style="stroke:#000000;stroke-width:0.5;"/><text fill="#000000" font-family="sans-serif" font-size="6.5" lengthAdjust="spacing" textLength="21.5" x="130.6521" y="70.7476">register</text><text fill="#000000" font-family="sans-serif" font-size="6.5" lengthAdjust="spacing" textLength="3.5" x="91.636" y="59.0323">1</text><text fill="#000000" font-family="sans-serif" font-size="6.5" lengthAdjust="spacing" textLength="11" x="144.3876" y="90.7803">0..1</text><!--MD5=[b71b66caf67976638439c0d1a3790473]
link Employee to Nurse--><path codeLine="100" d="M202.9621,111.34 C252.4821,113.685 371.3821,121.9 400.6521,147.5 C413.0871,158.375 411.6521,166.48 411.6521,183 C411.6521,183 411.6521,183 411.6521,293.5 C411.6521,320.655 390.3921,346.265 376.0221,360.47 " fill="none" id="Employee-Nurse" style="stroke:#A80036;stroke-width:0.5;"/><polygon fill="#000000" points="415.5784,263.6411,414.2051,259.0885,411.7914,260.7651,415.5784,263.6411" style="stroke:#000000;stroke-width:0.5;"/><text fill="#000000" font-family="sans-serif" font-size="6.5" lengthAdjust="spacing" textLength="24.5" x="418.6521" y="264.2476">plays as</text><text fill="#000000" font-family="sans-serif" font-size="6.5" lengthAdjust="spacing" textLength="3.5" x="206.8642" y="109.6819">1</text><text fill="#000000" font-family="sans-serif" font-size="6.5" lengthAdjust="spacing" textLength="11" x="366.9107" y="355.1324">0..1</text><!--MD5=[1da12df22706e73e1def33b218b7f412]
link Employee to Receptionist--><path codeLine="101" d="M188.0371,132.545 C198.1571,164.96 216.7021,224.335 224.5221,249.375 " fill="none" id="Employee-Receptionist" style="stroke:#A80036;stroke-width:0.5;"/><polygon fill="#000000" points="210.3973,185.9742,210.4519,181.2193,207.6465,182.0953,210.3973,185.9742" style="stroke:#000000;stroke-width:0.5;"/><text fill="#000000" font-family="sans-serif" font-size="6.5" lengthAdjust="spacing" textLength="24.5" x="214.1521" y="186.2476">plays as</text><text fill="#000000" font-family="sans-serif" font-size="6.5" lengthAdjust="spacing" textLength="3.5" x="185.2592" y="143.0551">1</text><text fill="#000000" font-family="sans-serif" font-size="6.5" lengthAdjust="spacing" textLength="11" x="211.1825" y="244.013">0..1</text><!--MD5=[d8cf155570c2fc8069691ea2f7bdb19f]
link Employee to Coordinator--><path codeLine="102" d="M159.2471,120.36 C139.0971,130.48 109.7571,148.06 92.1521,171.5 C74.0721,195.57 66.7421,231.275 64.0521,249.455 " fill="none" id="Employee-Coordinator" style="stroke:#A80036;stroke-width:0.5;"/><polygon fill="#000000" points="93.1684,185.6,97.0352,182.8322,94.6698,181.088,93.1684,185.6" style="stroke:#000000;stroke-width:0.5;"/><text fill="#000000" font-family="sans-serif" font-size="6.5" lengthAdjust="spacing" textLength="24.5" x="99.1521" y="186.2476">plays as</text><text fill="#000000" font-family="sans-serif" font-size="6.5" lengthAdjust="spacing" textLength="3.5" x="151.8293" y="120.1959">1</text><text fill="#000000" font-family="sans-serif" font-size="6.5" lengthAdjust="spacing" textLength="11" x="52.0015" y="244.1135">0..1</text><!--MD5=[b8a4f1f13c2d56b2385b1bfafed8418f]
link Employee to Administrator--><path codeLine="103" d="M202.9471,127.135 C220.6971,140.68 245.2971,159.45 260.9671,171.415 " fill="none" id="Employee-Administrator" style="stroke:#A80036;stroke-width:0.5;"/><polygon fill="#000000" points="244.6395,153.6046,241.9358,149.6927,240.1528,152.029,244.6395,153.6046" style="stroke:#000000;stroke-width:0.5;"/><text fill="#000000" font-family="sans-serif" font-size="6.5" lengthAdjust="spacing" textLength="24.5" x="247.1521" y="154.7476">plays as</text><text fill="#000000" font-family="sans-serif" font-size="6.5" lengthAdjust="spacing" textLength="3.5" x="206.8468" y="128.093">1</text><text fill="#000000" font-family="sans-serif" font-size="6.5" lengthAdjust="spacing" textLength="11" x="244.6666" y="166.0633">0..1</text><!--MD5=[4b1cbd5f2b82fe473c8138e32680fa60]
link Receptionist to VaccineSchedule--><path codeLine="105" d="M228.1521,273.695 C228.1521,284.73 228.1521,301.74 228.1521,316.5 C228.1521,316.5 228.1521,316.5 228.1521,446.5 C228.1521,467.18 228.4671,490.755 228.7421,507.48 " fill="none" id="Receptionist-VaccineSchedule" style="stroke:#A80036;stroke-width:0.5;"/><polygon fill="#000000" points="230.6584,375.0879,232.1165,370.5616,229.1775,370.5691,230.6584,375.0879" style="stroke:#000000;stroke-width:0.5;"/><text fill="#000000" font-family="sans-serif" font-size="6.5" lengthAdjust="spacing" textLength="24.5" x="235.1521" y="375.2476">confirms</text><text fill="#000000" font-family="sans-serif" font-size="6.5" lengthAdjust="spacing" textLength="3.5" x="224.2474" y="284.208">1</text><text fill="#000000" font-family="sans-serif" font-size="6.5" lengthAdjust="spacing" textLength="2.5" x="225.9775" y="502.0346">*</text><!--MD5=[195cd4b2065cc6507c3064f693e1e4c8]
link Nurse to VaccineAdministration--><path codeLine="107" d="M362.6721,384.65 C362.2371,395.095 361.5921,410.705 361.0621,423.5 " fill="none" id="Nurse-VaccineAdministration" style="stroke:#A80036;stroke-width:0.5;"/><polygon fill="#000000" points="364.5486,406.5857,366.2041,402.1279,363.2677,402.0062,364.5486,406.5857" style="stroke:#000000;stroke-width:0.5;"/><text fill="#000000" font-family="sans-serif" font-size="6.5" lengthAdjust="spacing" textLength="42" x="369.1521" y="406.7476">responsible for</text><text fill="#000000" font-family="sans-serif" font-size="6.5" lengthAdjust="spacing" textLength="3.5" x="358.6564" y="395.1526">1</text><text fill="#000000" font-family="sans-serif" font-size="6.5" lengthAdjust="spacing" textLength="10" x="350.4103" y="418.0577">1..*</text><!--MD5=[6d260f1c4382631e8b14f92d281b3fd6]
link Coordinator to VaccinationCenter--><path codeLine="109" d="M62.6521,273.695 C62.6521,284.73 62.6521,301.74 62.6521,316.5 C62.6521,316.5 62.6521,316.5 62.6521,530.5 C62.6521,555.055 75.4021,579.015 89.1421,597.71 " fill="none" id="Coordinator-VaccinationCenter" style="stroke:#A80036;stroke-width:0.5;"/><polygon fill="#000000" points="65.3558,406.5796,66.4519,401.9523,63.5227,402.1918,65.3558,406.5796" style="stroke:#000000;stroke-width:0.5;"/><text fill="#000000" font-family="sans-serif" font-size="6.5" lengthAdjust="spacing" textLength="33.5" x="69.6521" y="406.7476">coordinates</text><text fill="#000000" font-family="sans-serif" font-size="6.5" lengthAdjust="spacing" textLength="3.5" x="58.7474" y="284.208">1</text><text fill="#000000" font-family="sans-serif" font-size="6.5" lengthAdjust="spacing" textLength="3.5" x="81.5652" y="591.7362">1</text><!--MD5=[3568623adf67b2630dce9e60c05bd02a]
link Vaccine to VaccineType--><path codeLine="111" d="M396.4571,549.2 C397.7671,557.785 398.0321,567.94 394.6521,576.5 C388.7571,591.44 376.9721,604.785 365.9071,614.875 " fill="none" id="Vaccine-VaccineType" style="stroke:#A80036;stroke-width:0.5;"/><polygon fill="#000000" points="398.5977,574.3546,401.8375,570.8738,399.1728,569.6343,398.5977,574.3546" style="stroke:#000000;stroke-width:0.5;"/><text fill="#000000" font-family="sans-serif" font-size="6.5" lengthAdjust="spacing" textLength="12" x="404.1521" y="574.7476">is of</text><text fill="#000000" font-family="sans-serif" font-size="6.5" lengthAdjust="spacing" textLength="2.5" x="394.5015" y="559.5261">*</text><text fill="#000000" font-family="sans-serif" font-size="6.5" lengthAdjust="spacing" textLength="3.5" x="369.8735" y="610.1469">1</text><!--MD5=[0627282f411ece888f894017ff17802b]
link VaccineSchedule to VaccineType--><path codeLine="113" d="M222.6471,552.65 C221.5771,560.97 222.2521,569.975 227.6521,576.5 C250.4421,604.025 276.0571,573.025 306.6521,591.5 C315.0121,596.55 322.1521,604.455 327.6921,612.105 " fill="none" id="VaccineSchedule-VaccineType" style="stroke:#A80036;stroke-width:0.5;"/><polygon fill="#000000" points="232.3278,573.3193,229.1158,569.8128,227.6681,572.3705,232.3278,573.3193" style="stroke:#000000;stroke-width:0.5;"/><text fill="#000000" font-family="sans-serif" font-size="6.5" lengthAdjust="spacing" textLength="26.5" x="234.6521" y="574.7476">for taking</text><text fill="#000000" font-family="sans-serif" font-size="6.5" lengthAdjust="spacing" textLength="2.5" x="219.105" y="563.007">*</text><text fill="#000000" font-family="sans-serif" font-size="6.5" lengthAdjust="spacing" textLength="3.5" x="321.9396" y="606.8048">1</text><!--MD5=[8e51fd2526d7ed1449c2aa4f1c32bf49]
link VaccineSchedule to SNSUser--><path codeLine="114" d="M261.0121,543.195 C285.8021,552.87 321.1671,566.23 352.6521,576.5 C416.8621,597.44 493.8021,617.835 532.8021,627.845 " fill="none" id="VaccineSchedule-SNSUser" style="stroke:#A80036;stroke-width:0.5;"/><polygon fill="#000000" points="357.539,572.8313,353.658,570.0835,352.7841,572.8894,357.539,572.8313" style="stroke:#000000;stroke-width:0.5;"/><text fill="#000000" font-family="sans-serif" font-size="6.5" lengthAdjust="spacing" textLength="30.5" x="359.6521" y="574.7476">created for</text><text fill="#000000" font-family="sans-serif" font-size="6.5" lengthAdjust="spacing" textLength="2.5" x="264.8405" y="543.0301">*</text><text fill="#000000" font-family="sans-serif" font-size="6.5" lengthAdjust="spacing" textLength="3.5" x="525.3218" y="625.0032">1</text><!--MD5=[18968283628c2f508e56f30aee4bc691]
link VaccineSchedule to VaccinationCenter--><path codeLine="115" d="M197.3721,544.105 C185.7121,550.12 172.9771,558.005 163.1521,567.5 C155.9871,574.425 149.5971,582.87 144.1321,591.4 " fill="none" id="VaccineSchedule-VaccinationCenter" style="stroke:#A80036;stroke-width:0.5;"/><polygon fill="#000000" points="163.7831,573.7482,168.1401,571.8432,166.1883,569.6461,163.7831,573.7482" style="stroke:#000000;stroke-width:0.5;"/><text fill="#000000" font-family="sans-serif" font-size="6.5" lengthAdjust="spacing" textLength="37" x="170.1521" y="574.7476">scheduled at</text><text fill="#000000" font-family="sans-serif" font-size="6.5" lengthAdjust="spacing" textLength="2.5" x="190.8466" y="544.1098">*</text><text fill="#000000" font-family="sans-serif" font-size="6.5" lengthAdjust="spacing" textLength="3.5" x="142.3277" y="586.0962">1</text><!--MD5=[951a07871a6512bd4f8e62baa1d062ce]
link VaccineAdministration to SNSUser--><path codeLine="117" d="M383.4471,468.59 C420.8621,504.065 494.0621,573.475 532.7621,610.175 " fill="none" id="VaccineAdministration-SNSUser" style="stroke:#A80036;stroke-width:0.5;"/><polygon fill="#000000" points="473.4662,531.8081,471.1956,527.6299,469.1734,529.7625,473.4662,531.8081" style="stroke:#000000;stroke-width:0.5;"/><text fill="#000000" font-family="sans-serif" font-size="6.5" lengthAdjust="spacing" textLength="46" x="476.1521" y="532.7476">administered on</text><text fill="#000000" font-family="sans-serif" font-size="6.5" lengthAdjust="spacing" textLength="2.5" x="383.9094" y="478.9389">*</text><text fill="#000000" font-family="sans-serif" font-size="6.5" lengthAdjust="spacing" textLength="3.5" x="525.4455" y="604.916">1</text><!--MD5=[d96ee281cdb1021d3c4ed227c45512e2]
link VaccineAdministration to Vaccine--><path codeLine="118" d="M368.5121,468.525 C373.5221,481.73 379.8271,498.34 384.5871,510.89 " fill="none" id="VaccineAdministration-Vaccine" style="stroke:#A80036;stroke-width:0.5;"/><polygon fill="#000000" points="380.539,490.4253,380.3085,485.6756,377.5607,486.7182,380.539,490.4253" style="stroke:#000000;stroke-width:0.5;"/><text fill="#000000" font-family="sans-serif" font-size="6.5" lengthAdjust="spacing" textLength="5" x="384.1521" y="490.7476">of</text><text fill="#000000" font-family="sans-serif" font-size="6.5" lengthAdjust="spacing" textLength="2.5" x="367.012" y="479.0323">*</text><text fill="#000000" font-family="sans-serif" font-size="6.5" lengthAdjust="spacing" textLength="3.5" x="379.5169" y="505.5514">1</text><!--MD5=[26d93bb3364bc68050d04ccdf39ce109]
link VaccineAdministration to VaccineSchedule--><path codeLine="119" d="M325.3921,468.525 C305.3771,481.205 280.4171,497.02 260.9321,509.365 " fill="none" id="VaccineAdministration-VaccineSchedule" style="stroke:#A80036;stroke-width:0.5;"/><polygon fill="#000000" points="299.0403,489.4259,303.6471,488.2467,302.0742,485.7641,299.0403,489.4259" style="stroke:#000000;stroke-width:0.5;"/><text fill="#000000" font-family="sans-serif" font-size="6.5" lengthAdjust="spacing" textLength="21" x="305.6521" y="490.7476">fulfilling</text><text fill="#000000" font-family="sans-serif" font-size="6.5" lengthAdjust="spacing" textLength="11" x="308.7305" y="479.0323">0..1</text><text fill="#000000" font-family="sans-serif" font-size="6.5" lengthAdjust="spacing" textLength="11" x="265.0096" y="505.4412">0..1</text><!--MD5=[65dd3e6c7ec2e4463f293b987f88612e]
link VaccinationCenter to HealthcareCenter--><path codeLine="121" d="M122.6521,678.055 C122.6521,692.32 122.6521,707.07 122.6521,716.905 " fill="none" id="VaccinationCenter-HealthcareCenter" style="stroke:#A80036;stroke-width:0.5;"/><polygon fill="#000000" points="125.1521,700.0879,126.6216,695.5653,123.6826,695.5653,125.1521,700.0879" style="stroke:#000000;stroke-width:0.5;"/><text fill="#000000" font-family="sans-serif" font-size="6.5" lengthAdjust="spacing" textLength="19.5" x="129.6521" y="700.2476">can be</text><text fill="#000000" font-family="sans-serif" font-size="6.5" lengthAdjust="spacing" textLength="3.5" x="119.0181" y="688.4402">1</text><text fill="#000000" font-family="sans-serif" font-size="6.5" lengthAdjust="spacing" textLength="3.5" x="118.7037" y="711.5507">1</text><!--MD5=[174e3d3535038ac5c1cdc2835f4edb1a]
link VaccinationCenter to CommunityVaccinationCenter--><path codeLine="122" d="M156.2221,634.75 C169.6871,634.75 185.4771,634.75 200.1821,634.75 " fill="none" id="VaccinationCenter-CommunityVaccinationCenter" style="stroke:#A80036;stroke-width:0.5;"/><polygon fill="#000000" points="169.7771,628.8379,165.2546,627.3684,165.2546,630.3074,169.7771,628.8379" style="stroke:#000000;stroke-width:0.5;"/><text fill="#000000" font-family="sans-serif" font-size="6.5" lengthAdjust="spacing" textLength="19.5" x="171.7771" y="631.4976">can be</text><text fill="#000000" font-family="sans-serif" font-size="6.5" lengthAdjust="spacing" textLength="3.5" x="160.0852" y="633.0827">1</text><text fill="#000000" font-family="sans-serif" font-size="6.5" lengthAdjust="spacing" textLength="3.5" x="192.9574" y="633.2103">1</text><!--MD5=[6b276e2dfed8b8354946f9f8bab747bb]
link VaccinationCenter to VaccineType--><path codeLine="123" d="M156.2371,610.2 C167.0921,603.24 179.4771,596.27 191.6521,591.5 C222.8171,579.29 232.3271,580.625 265.6521,577.5 C287.7771,575.425 297.0571,565.33 315.6521,577.5 C327.3571,585.16 333.6171,599.64 336.9421,612.115 " fill="none" id="VaccinationCenter-VaccineType" style="stroke:#A80036;stroke-width:0.5;"/><polygon fill="#000000" points="270.652,572.1144,266.1453,570.5971,266.1141,573.5358,270.652,572.1144" style="stroke:#000000;stroke-width:0.5;"/><text fill="#000000" font-family="sans-serif" font-size="6.5" lengthAdjust="spacing" textLength="42.5" x="272.6521" y="574.7476">can administer</text><text fill="#000000" font-family="sans-serif" font-size="6.5" lengthAdjust="spacing" textLength="2.5" x="160.0472" y="605.8475">*</text><text fill="#000000" font-family="sans-serif" font-size="6.5" lengthAdjust="spacing" textLength="10" x="337.1396" y="606.8164">1..*</text><!--MD5=[2009eb72fbe42b80409e82771a0da51d]
link System to SNSUser--><path codeLine="125" d="M601.5671,234.69 C605.2671,248.41 610.6521,271.905 610.6521,292.5 C610.6521,292.5 610.6521,292.5 610.6521,530.5 C610.6521,556.945 596.9071,583.495 583.4771,603.115 " fill="none" id="System-SNSUser" style="stroke:#A80036;stroke-width:0.5;"/><polygon fill="#000000" points="613.0295,375.0849,614.719,370.6398,611.7836,370.4957,613.0295,375.0849" style="stroke:#000000;stroke-width:0.5;"/><text fill="#000000" font-family="sans-serif" font-size="6.5" lengthAdjust="spacing" textLength="20.5" x="617.6521" y="375.2476">notifies</text><text fill="#000000" font-family="sans-serif" font-size="6.5" lengthAdjust="spacing" textLength="3.5" x="598.4521" y="245.2018">1</text><text fill="#000000" font-family="sans-serif" font-size="6.5" lengthAdjust="spacing" textLength="11" x="587.4266" y="597.3076">0..1</text><!--MD5=[9369fca6f5ceeee2ddc1906442b613a5]
@startuml
'https://plantuml.com/class-diagram

class SNSUser{
  name
  birthDate
  SNSNumber
  phoneNumber
  emailAddress
  vaccinationHistory
}

class Employee{
    userID
    name
    password
}

class Receptionist

class Nurse

class Administrator

class AdministratorDGS{
    userID
    name
    password
}

class Coordinator

class Vaccine{
  name
  brand
}

class VaccineType{
  code
  designation
  whoID
}

class VaccinationCenter{
  name
  address
  phoneNumber
  emailAddress
  fax
  website
  openingAndClosingHours
  slotDuration
  maxVaccinesPerSlot
}

class CommunityVaccinationCenter{
}

class HealthcareCenter{
}

class VaccineAdministration{
  time
  slots
  waitingRoom
}

class VaccineSchedule{
  day
  hour
  location
}

class CompanyDGS{
    designation
}

class System

class WHO

CompanyDGS "1" - - "*" SNSUser: > owns
CompanyDGS "1" - - "*" VaccineType: > promotes administrator
CompanyDGS "1" - - "*" Vaccine: > applies
CompanyDGS "1" - - - - "*" VaccinationCenter: > manages
CompanyDGS "1" - - "1..*" Administrator: > knows
CompanyDGS "1" - - "1" System: > manages

WHO "1" - - "1" CompanyDGS: > communicates with

Administrator "1" - - - - "1..*" Nurse: > manages
Administrator "1" - - "1..*" Receptionist: > manages
Administrator "1" - - "1..*" Coordinator: > manages
Administrator "1" - - "1..*" Vaccine: > manages
Administrator "1" - - "1..*" VaccineType: > manages
Administrator "1" - - "1..*" VaccinationCenter: > manages

AdministratorDGS "1" - - "1..*" VaccinationCenter: > register
AdministratorDGS "1" - - "0..1" Employee: > register

Employee "1" - - "0..1" Nurse: > plays as
Employee "1" - - "0..1" Receptionist: > plays as
Employee "1" - - "0..1" Coordinator: > plays as
Employee "1" - - "0..1" Administrator: > plays as

Receptionist "1" - - "*" VaccineSchedule: > confirms

Nurse "1" - - "1..*" VaccineAdministration: > responsible for

Coordinator "1" - - "1" VaccinationCenter: > coordinates

Vaccine "*" - - "1" VaccineType: > is of

VaccineSchedule "*" - - "1" VaccineType: > for taking
VaccineSchedule "*" - - "1" SNSUser: > created for
VaccineSchedule "*" - - "1" VaccinationCenter: > scheduled at

VaccineAdministration "*" - - "1" SNSUser: > administered on
VaccineAdministration "*" - - "1" Vaccine: > of
VaccineAdministration "0..1" - - "0..1" VaccineSchedule: > fulfilling

VaccinationCenter "1" - - "1" HealthcareCenter: > can be
VaccinationCenter "1" - "1" CommunityVaccinationCenter: > can be
VaccinationCenter "*" - "1..*" VaccineType: > can administer

System "1" - - "0..1" "SNSUser": > notifies

@enduml

@startuml

class SNSUser{
  name
  birthDate
  SNSNumber
  phoneNumber
  emailAddress
  vaccinationHistory
}

class Employee{
    userID
    name
    password
}

class Receptionist

class Nurse

class Administrator

class AdministratorDGS{
    userID
    name
    password
}

class Coordinator

class Vaccine{
  name
  brand
}

class VaccineType{
  code
  designation
  whoID
}

class VaccinationCenter{
  name
  address
  phoneNumber
  emailAddress
  fax
  website
  openingAndClosingHours
  slotDuration
  maxVaccinesPerSlot
}

class CommunityVaccinationCenter{
}

class HealthcareCenter{
}

class VaccineAdministration{
  time
  slots
  waitingRoom
}

class VaccineSchedule{
  day
  hour
  location
}

class CompanyDGS{
    designation
}

class System

class WHO

CompanyDGS "1" - - "*" SNSUser: > owns
CompanyDGS "1" - - "*" VaccineType: > promotes administrator
CompanyDGS "1" - - "*" Vaccine: > applies
CompanyDGS "1" - - - - "*" VaccinationCenter: > manages
CompanyDGS "1" - - "1..*" Administrator: > knows
CompanyDGS "1" - - "1" System: > manages

WHO "1" - - "1" CompanyDGS: > communicates with

Administrator "1" - - - - "1..*" Nurse: > manages
Administrator "1" - - "1..*" Receptionist: > manages
Administrator "1" - - "1..*" Coordinator: > manages
Administrator "1" - - "1..*" Vaccine: > manages
Administrator "1" - - "1..*" VaccineType: > manages
Administrator "1" - - "1..*" VaccinationCenter: > manages

AdministratorDGS "1" - - "1..*" VaccinationCenter: > register
AdministratorDGS "1" - - "0..1" Employee: > register

Employee "1" - - "0..1" Nurse: > plays as
Employee "1" - - "0..1" Receptionist: > plays as
Employee "1" - - "0..1" Coordinator: > plays as
Employee "1" - - "0..1" Administrator: > plays as

Receptionist "1" - - "*" VaccineSchedule: > confirms

Nurse "1" - - "1..*" VaccineAdministration: > responsible for

Coordinator "1" - - "1" VaccinationCenter: > coordinates

Vaccine "*" - - "1" VaccineType: > is of

VaccineSchedule "*" - - "1" VaccineType: > for taking
VaccineSchedule "*" - - "1" SNSUser: > created for
VaccineSchedule "*" - - "1" VaccinationCenter: > scheduled at

VaccineAdministration "*" - - "1" SNSUser: > administered on
VaccineAdministration "*" - - "1" Vaccine: > of
VaccineAdministration "0..1" - - "0..1" VaccineSchedule: > fulfilling

VaccinationCenter "1" - - "1" HealthcareCenter: > can be
VaccinationCenter "1" - "1" CommunityVaccinationCenter: > can be
VaccinationCenter "*" - "1..*" VaccineType: > can administer

System "1" - - "0..1" "SNSUser": > notifies

@enduml

PlantUML version 1.2022.1(Tue Feb 01 18:19:58 GMT 2022)
(GPL source distribution)
Java Runtime: OpenJDK Runtime Environment
JVM: OpenJDK 64-Bit Server VM
Default Encoding: Cp1252
Language: pt
Country: PT
--></g></svg>