<?xml version="1.0" encoding="UTF-8" standalone="no"?><svg xmlns="http://www.w3.org/2000/svg" xmlns:xlink="http://www.w3.org/1999/xlink" contentScriptType="application/ecmascript" contentStyleType="text/css" height="700px" preserveAspectRatio="none" style="width:754px;height:699px;background:#FFFFFF;" version="1.1" viewBox="0 0 754 699" width="754.6px" zoomAndPan="magnify"><defs><filter height="300%" id="fyvlfs96uwtjw" width="300%" x="-1" y="-1"><feGaussianBlur result="blurOut" stdDeviation="1.3999999999999997"/><feColorMatrix in="blurOut" result="blurOut2" type="matrix" values="0 0 0 0 0 0 0 0 0 0 0 0 0 0 0 0 0 0 .4 0"/><feOffset dx="2.7999999999999994" dy="2.7999999999999994" in="blurOut2" result="blurOut3"/><feBlend in="SourceGraphic" in2="blurOut3" mode="normal"/></filter></defs><g><!--MD5=[99bd80dcc8b0295cf8ca2b7bb83b444a]
class WaitingRoomListUI--><rect codeLine="3" fill="#FEFECE" filter="url(#fyvlfs96uwtjw)" height="33.6" id="WaitingRoomListUI" style="stroke:#A80036;stroke-width:1.0499999999999998;" width="97.3" x="235.2" y="4.9"/><ellipse cx="245.7" cy="16.1" fill="#ADD1B2" rx="7.7" ry="7.7" style="stroke:#A80036;stroke-width:0.6999999999999998;"/><path d="M247.1,13.65 Q247.2422,13.3 247.4062,13.125 Q247.5703,12.95 247.7562,12.95 Q248.0844,12.95 248.2922,13.1469 Q248.5,13.3437 248.5,13.8031 L248.5,14.8969 Q248.5,15.3562 248.3031,15.5531 Q248.1062,15.75 247.8,15.75 Q247.5266,15.75 247.3516,15.6297 Q247.1766,15.5094 247.1,15.1922 Q247.0672,14.9734 246.9469,14.8531 Q246.7281,14.6234 246.3344,14.4922 Q245.9406,14.35 245.5469,14.35 Q245.0547,14.35 244.6391,14.5469 Q244.2344,14.7437 243.9172,15.1812 Q243.6,15.6187 243.6,16.2203 L243.6,16.8656 Q243.6,17.5875 244.1906,18.0687 Q244.7812,18.55 245.8312,18.55 Q246.4547,18.55 246.8922,18.4078 Q247.1437,18.3312 247.4281,18.0797 Q247.6141,17.9375 247.7125,17.8937 Q247.8109,17.85 247.9312,17.85 Q248.1609,17.85 248.325,18.0359 Q248.5,18.2109 248.5,18.4625 Q248.5,18.7031 248.2594,18.9875 Q247.9094,19.4031 247.3516,19.6328 Q246.6187,19.95 245.7219,19.95 Q244.6719,19.95 243.8297,19.5344 Q243.1516,19.2062 242.6703,18.4953 Q242.2,17.7844 242.2,16.9422 L242.2,16.1766 Q242.2,15.3016 242.6156,14.5359 Q243.0422,13.7703 243.775,13.3656 Q244.5187,12.95 245.35,12.95 Q245.8531,12.95 246.2906,13.125 Q246.7281,13.3 247.1,13.65 Z " fill="#000000"/><text fill="#000000" font-family="sans-serif" font-size="8.4" lengthAdjust="spacing" textLength="74.9" x="255.5" y="19.5371">WaitingRoomListUI</text><line style="stroke:#A80036;stroke-width:1.0499999999999998;" x1="235.9" x2="331.8" y1="27.3" y2="27.3"/><line style="stroke:#A80036;stroke-width:1.0499999999999998;" x1="235.9" x2="331.8" y1="32.9" y2="32.9"/><!--MD5=[b015b6bcef042187f4a966c786ac1181]
class WaitingRoomListController--><rect codeLine="4" fill="#FEFECE" filter="url(#fyvlfs96uwtjw)" height="62.6555" id="WaitingRoomListController" style="stroke:#A80036;stroke-width:1.0499999999999998;" width="128.1" x="219.8" y="104.65"/><ellipse cx="230.93" cy="115.85" fill="#ADD1B2" rx="7.7" ry="7.7" style="stroke:#A80036;stroke-width:0.6999999999999998;"/><path d="M232.33,113.4 Q232.4722,113.05 232.6362,112.875 Q232.8003,112.7 232.9862,112.7 Q233.3144,112.7 233.5222,112.8969 Q233.73,113.0937 233.73,113.5531 L233.73,114.6469 Q233.73,115.1062 233.5331,115.3031 Q233.3362,115.5 233.03,115.5 Q232.7566,115.5 232.5816,115.3797 Q232.4066,115.2594 232.33,114.9422 Q232.2972,114.7234 232.1769,114.6031 Q231.9581,114.3734 231.5644,114.2422 Q231.1706,114.1 230.7769,114.1 Q230.2847,114.1 229.8691,114.2969 Q229.4644,114.4937 229.1472,114.9312 Q228.83,115.3687 228.83,115.9703 L228.83,116.6156 Q228.83,117.3375 229.4206,117.8187 Q230.0112,118.3 231.0612,118.3 Q231.6847,118.3 232.1222,118.1578 Q232.3737,118.0812 232.6581,117.8297 Q232.8441,117.6875 232.9425,117.6437 Q233.0409,117.6 233.1612,117.6 Q233.3909,117.6 233.555,117.7859 Q233.73,117.9609 233.73,118.2125 Q233.73,118.4531 233.4894,118.7375 Q233.1394,119.1531 232.5816,119.3828 Q231.8487,119.7 230.9519,119.7 Q229.9019,119.7 229.0597,119.2844 Q228.3816,118.9562 227.9003,118.2453 Q227.43,117.5344 227.43,116.6922 L227.43,115.9266 Q227.43,115.0516 227.8456,114.2859 Q228.2722,113.5203 229.005,113.1156 Q229.7487,112.7 230.58,112.7 Q231.0831,112.7 231.5206,112.875 Q231.9581,113.05 232.33,113.4 Z " fill="#000000"/><text fill="#000000" font-family="sans-serif" font-size="8.4" lengthAdjust="spacing" textLength="104.3" x="240.87" y="119.2871">WaitingRoomListController</text><line style="stroke:#A80036;stroke-width:1.0499999999999998;" x1="220.5" x2="347.2" y1="127.05" y2="127.05"/><line style="stroke:#A80036;stroke-width:1.0499999999999998;" x1="220.5" x2="347.2" y1="132.65" y2="132.65"/><ellipse cx="227.5" cy="140.35" fill="#84BE84" rx="2.1" ry="2.1" style="stroke:#038048;stroke-width:0.6999999999999998;"/><text fill="#000000" font-family="sans-serif" font-size="7.7" lengthAdjust="spacing" textLength="96.6" x="233.8" y="143.4433">getVaccinationCenterStore()</text><ellipse cx="227.5" cy="150.0352" fill="#84BE84" rx="2.1" ry="2.1" style="stroke:#038048;stroke-width:0.6999999999999998;"/><text fill="#000000" font-family="sans-serif" font-size="7.7" lengthAdjust="spacing" textLength="109.9" x="233.8" y="153.1284">getVaccineAdministrationStore()</text><ellipse cx="227.5" cy="159.7203" fill="#84BE84" rx="2.1" ry="2.1" style="stroke:#038048;stroke-width:0.6999999999999998;"/><text fill="#000000" font-family="sans-serif" font-size="7.7" lengthAdjust="spacing" textLength="50.4" x="233.8" y="162.8136">getUserStore()</text><!--MD5=[02e4b9b7573f1156f41e60aa5b4e25a4]
class Company--><rect codeLine="9" fill="#FEFECE" filter="url(#fyvlfs96uwtjw)" height="43.2852" id="Company" style="stroke:#A80036;stroke-width:1.0499999999999998;" width="59.5" x="278.6" y="267.75"/><ellipse cx="289.1" cy="278.95" fill="#ADD1B2" rx="7.7" ry="7.7" style="stroke:#A80036;stroke-width:0.6999999999999998;"/><path d="M290.5,276.5 Q290.6422,276.15 290.8062,275.975 Q290.9703,275.8 291.1562,275.8 Q291.4844,275.8 291.6922,275.9969 Q291.9,276.1937 291.9,276.6531 L291.9,277.7469 Q291.9,278.2062 291.7031,278.4031 Q291.5062,278.6 291.2,278.6 Q290.9266,278.6 290.7516,278.4797 Q290.5766,278.3594 290.5,278.0422 Q290.4672,277.8234 290.3469,277.7031 Q290.1281,277.4734 289.7344,277.3422 Q289.3406,277.2 288.9469,277.2 Q288.4547,277.2 288.0391,277.3969 Q287.6344,277.5937 287.3172,278.0312 Q287,278.4687 287,279.0703 L287,279.7156 Q287,280.4375 287.5906,280.9187 Q288.1812,281.4 289.2312,281.4 Q289.8547,281.4 290.2922,281.2578 Q290.5437,281.1812 290.8281,280.9297 Q291.0141,280.7875 291.1125,280.7437 Q291.2109,280.7 291.3312,280.7 Q291.5609,280.7 291.725,280.8859 Q291.9,281.0609 291.9,281.3125 Q291.9,281.5531 291.6594,281.8375 Q291.3094,282.2531 290.7516,282.4828 Q290.0187,282.8 289.1219,282.8 Q288.0719,282.8 287.2297,282.3844 Q286.5516,282.0562 286.0703,281.3453 Q285.6,280.6344 285.6,279.7922 L285.6,279.0266 Q285.6,278.1516 286.0156,277.3859 Q286.4422,276.6203 287.175,276.2156 Q287.9187,275.8 288.75,275.8 Q289.2531,275.8 289.6906,275.975 Q290.1281,276.15 290.5,276.5 Z " fill="#000000"/><text fill="#000000" font-family="sans-serif" font-size="8.4" lengthAdjust="spacing" textLength="37.1" x="298.9" y="282.3871">Company</text><line style="stroke:#A80036;stroke-width:1.0499999999999998;" x1="279.3" x2="337.4" y1="290.15" y2="290.15"/><rect fill="none" height="4.2" style="stroke:#C82930;stroke-width:0.6999999999999998;" width="4.2" x="284.2" y="295.75"/><text fill="#000000" font-family="sans-serif" font-size="7.7" lengthAdjust="spacing" textLength="38.5" x="292.6" y="300.9433">designation</text><line style="stroke:#A80036;stroke-width:1.0499999999999998;" x1="279.3" x2="337.4" y1="305.4352" y2="305.4352"/><!--MD5=[a29876ea2f21a6ca48ea477740122fd8]
class VaccinationCenterStore--><rect codeLine="12" fill="#FEFECE" filter="url(#fyvlfs96uwtjw)" height="111.0812" id="VaccinationCenterStore" style="stroke:#A80036;stroke-width:1.0499999999999998;" width="185.5" x="215.6" y="392"/><ellipse cx="260.225" cy="403.2" fill="#ADD1B2" rx="7.7" ry="7.7" style="stroke:#A80036;stroke-width:0.6999999999999998;"/><path d="M261.625,400.75 Q261.7672,400.4 261.9312,400.225 Q262.0953,400.05 262.2812,400.05 Q262.6094,400.05 262.8172,400.2469 Q263.025,400.4437 263.025,400.9031 L263.025,401.9969 Q263.025,402.4562 262.8281,402.6531 Q262.6312,402.85 262.325,402.85 Q262.0516,402.85 261.8766,402.7297 Q261.7016,402.6094 261.625,402.2922 Q261.5922,402.0734 261.4719,401.9531 Q261.2531,401.7234 260.8594,401.5922 Q260.4656,401.45 260.0719,401.45 Q259.5797,401.45 259.1641,401.6469 Q258.7594,401.8437 258.4422,402.2812 Q258.125,402.7187 258.125,403.3203 L258.125,403.9656 Q258.125,404.6875 258.7156,405.1687 Q259.3062,405.65 260.3562,405.65 Q260.9797,405.65 261.4172,405.5078 Q261.6687,405.4312 261.9531,405.1797 Q262.1391,405.0375 262.2375,404.9937 Q262.3359,404.95 262.4562,404.95 Q262.6859,404.95 262.85,405.1359 Q263.025,405.3109 263.025,405.5625 Q263.025,405.8031 262.7844,406.0875 Q262.4344,406.5031 261.8766,406.7328 Q261.1437,407.05 260.2469,407.05 Q259.1969,407.05 258.3547,406.6344 Q257.6766,406.3062 257.1953,405.5953 Q256.725,404.8844 256.725,404.0422 L256.725,403.2766 Q256.725,402.4016 257.1406,401.6359 Q257.5672,400.8703 258.3,400.4656 Q259.0437,400.05 259.875,400.05 Q260.3781,400.05 260.8156,400.225 Q261.2531,400.4 261.625,400.75 Z " fill="#000000"/><text fill="#000000" font-family="sans-serif" font-size="8.4" lengthAdjust="spacing" textLength="90.3" x="274.575" y="406.6371">VaccinationCenterStore</text><line style="stroke:#A80036;stroke-width:1.0499999999999998;" x1="216.3" x2="400.4" y1="414.4" y2="414.4"/><ellipse cx="223.3" cy="422.1" fill="none" rx="2.1" ry="2.1" style="stroke:#038048;stroke-width:0.6999999999999998;"/><text fill="#000000" font-family="sans-serif" font-size="7.7" lengthAdjust="spacing" textLength="115.5" x="229.6" y="425.1933">checkVaccinationCenterExistence</text><line style="stroke:#A80036;stroke-width:1.0499999999999998;" x1="216.3" x2="400.4" y1="429.6852" y2="429.6852"/><ellipse cx="223.3" cy="437.3852" fill="#84BE84" rx="2.1" ry="2.1" style="stroke:#038048;stroke-width:0.6999999999999998;"/><text fill="#000000" font-family="sans-serif" font-size="7.7" lengthAdjust="spacing" textLength="100.1" x="229.6" y="440.4784">vaccinationCenterList(center)</text><ellipse cx="223.3" cy="447.0703" fill="#84BE84" rx="2.1" ry="2.1" style="stroke:#038048;stroke-width:0.6999999999999998;"/><text fill="#000000" font-family="sans-serif" font-size="7.7" lengthAdjust="spacing" textLength="167.3" x="229.6" y="450.1636">printVaccinationCenterList(vaccinationCenterList)</text><ellipse cx="223.3" cy="456.7555" fill="#84BE84" rx="2.1" ry="2.1" style="stroke:#038048;stroke-width:0.6999999999999998;"/><text fill="#000000" font-family="sans-serif" font-size="7.7" lengthAdjust="spacing" textLength="64.4" x="229.6" y="459.8487">validateAttributes()</text><ellipse cx="223.3" cy="466.4406" fill="#84BE84" rx="2.1" ry="2.1" style="stroke:#038048;stroke-width:0.6999999999999998;"/><text fill="#000000" font-family="sans-serif" font-size="7.7" lengthAdjust="spacing" textLength="72.1" x="229.6" y="469.5339">setVariablesValues()</text><ellipse cx="223.3" cy="476.1258" fill="#84BE84" rx="2.1" ry="2.1" style="stroke:#038048;stroke-width:0.6999999999999998;"/><text fill="#000000" font-family="sans-serif" font-size="7.7" lengthAdjust="spacing" textLength="106.4" x="229.6" y="479.219">saveVaccinationCenter(center)</text><ellipse cx="223.3" cy="485.8109" fill="#84BE84" rx="2.1" ry="2.1" style="stroke:#038048;stroke-width:0.6999999999999998;"/><text fill="#000000" font-family="sans-serif" font-size="7.7" lengthAdjust="spacing" textLength="115.5" x="229.6" y="488.9042">validateVaccinationCenter(center)</text><ellipse cx="223.3" cy="495.4961" fill="#84BE84" rx="2.1" ry="2.1" style="stroke:#038048;stroke-width:0.6999999999999998;"/><text fill="#000000" font-family="sans-serif" font-size="7.7" lengthAdjust="spacing" textLength="102.2" x="229.6" y="498.5894">addVaccinationCenter(center)</text><!--MD5=[de60e6d4f424ae4d0522096f76a59010]
class VaccinationCenter--><rect codeLine="22" fill="#FEFECE" filter="url(#fyvlfs96uwtjw)" height="140.1367" id="VaccinationCenter" style="stroke:#A80036;stroke-width:1.0499999999999998;" width="417.9" x="4.9" y="550.2"/><ellipse cx="175.875" cy="561.4" fill="#ADD1B2" rx="7.7" ry="7.7" style="stroke:#A80036;stroke-width:0.6999999999999998;"/><path d="M177.275,558.95 Q177.4172,558.6 177.5812,558.425 Q177.7453,558.25 177.9312,558.25 Q178.2594,558.25 178.4672,558.4469 Q178.675,558.6437 178.675,559.1031 L178.675,560.1969 Q178.675,560.6562 178.4781,560.8531 Q178.2812,561.05 177.975,561.05 Q177.7016,561.05 177.5266,560.9297 Q177.3516,560.8094 177.275,560.4922 Q177.2422,560.2734 177.1219,560.1531 Q176.9031,559.9234 176.5094,559.7922 Q176.1156,559.65 175.7219,559.65 Q175.2297,559.65 174.8141,559.8469 Q174.4094,560.0437 174.0922,560.4812 Q173.775,560.9187 173.775,561.5203 L173.775,562.1656 Q173.775,562.8875 174.3656,563.3687 Q174.9562,563.85 176.0062,563.85 Q176.6297,563.85 177.0672,563.7078 Q177.3187,563.6312 177.6031,563.3797 Q177.7891,563.2375 177.8875,563.1937 Q177.9859,563.15 178.1062,563.15 Q178.3359,563.15 178.5,563.3359 Q178.675,563.5109 178.675,563.7625 Q178.675,564.0031 178.4344,564.2875 Q178.0844,564.7031 177.5266,564.9328 Q176.7937,565.25 175.8969,565.25 Q174.8469,565.25 174.0047,564.8344 Q173.3266,564.5062 172.8453,563.7953 Q172.375,563.0844 172.375,562.2422 L172.375,561.4766 Q172.375,560.6016 172.7906,559.8359 Q173.2172,559.0703 173.95,558.6656 Q174.6937,558.25 175.525,558.25 Q176.0281,558.25 176.4656,558.425 Q176.9031,558.6 177.275,558.95 Z " fill="#000000"/><text fill="#000000" font-family="sans-serif" font-size="8.4" lengthAdjust="spacing" textLength="70" x="190.225" y="564.8371">VaccinationCenter</text><line style="stroke:#A80036;stroke-width:1.0499999999999998;" x1="5.6" x2="422.1" y1="572.6" y2="572.6"/><rect fill="none" height="4.2" style="stroke:#C82930;stroke-width:0.6999999999999998;" width="4.2" x="10.5" y="578.2"/><text fill="#000000" font-family="sans-serif" font-size="7.7" lengthAdjust="spacing" textLength="18.2" x="18.9" y="583.3933">name</text><rect fill="none" height="4.2" style="stroke:#C82930;stroke-width:0.6999999999999998;" width="4.2" x="10.5" y="587.8852"/><text fill="#000000" font-family="sans-serif" font-size="7.7" lengthAdjust="spacing" textLength="28" x="18.9" y="593.0784">address</text><rect fill="none" height="4.2" style="stroke:#C82930;stroke-width:0.6999999999999998;" width="4.2" x="10.5" y="597.5703"/><text fill="#000000" font-family="sans-serif" font-size="7.7" lengthAdjust="spacing" textLength="21" x="18.9" y="602.7636">phone</text><rect fill="none" height="4.2" style="stroke:#C82930;stroke-width:0.6999999999999998;" width="4.2" x="10.5" y="607.2555"/><text fill="#000000" font-family="sans-serif" font-size="7.7" lengthAdjust="spacing" textLength="12.6" x="18.9" y="612.4487">mail</text><rect fill="none" height="4.2" style="stroke:#C82930;stroke-width:0.6999999999999998;" width="4.2" x="10.5" y="616.9406"/><text fill="#000000" font-family="sans-serif" font-size="7.7" lengthAdjust="spacing" textLength="11.2" x="18.9" y="622.1339">fax</text><rect fill="none" height="4.2" style="stroke:#C82930;stroke-width:0.6999999999999998;" width="4.2" x="10.5" y="626.6258"/><text fill="#000000" font-family="sans-serif" font-size="7.7" lengthAdjust="spacing" textLength="27.3" x="18.9" y="631.819">website</text><rect fill="none" height="4.2" style="stroke:#C82930;stroke-width:0.6999999999999998;" width="4.2" x="10.5" y="636.3109"/><text fill="#000000" font-family="sans-serif" font-size="7.7" lengthAdjust="spacing" textLength="50.4" x="18.9" y="641.5042">opening_hours</text><rect fill="none" height="4.2" style="stroke:#C82930;stroke-width:0.6999999999999998;" width="4.2" x="10.5" y="645.9961"/><text fill="#000000" font-family="sans-serif" font-size="7.7" lengthAdjust="spacing" textLength="47.6" x="18.9" y="651.1894">closing_hours</text><rect fill="none" height="4.2" style="stroke:#C82930;stroke-width:0.6999999999999998;" width="4.2" x="10.5" y="655.6812"/><text fill="#000000" font-family="sans-serif" font-size="7.7" lengthAdjust="spacing" textLength="43.4" x="18.9" y="660.8745">slot_duration</text><rect fill="none" height="4.2" style="stroke:#C82930;stroke-width:0.6999999999999998;" width="4.2" x="10.5" y="665.3664"/><text fill="#000000" font-family="sans-serif" font-size="7.7" lengthAdjust="spacing" textLength="74.9" x="18.9" y="670.5597">max_number_per_slot</text><line style="stroke:#A80036;stroke-width:1.0499999999999998;" x1="5.6" x2="422.1" y1="675.0516" y2="675.0516"/><ellipse cx="12.6" cy="682.7516" fill="#84BE84" rx="2.1" ry="2.1" style="stroke:#038048;stroke-width:0.6999999999999998;"/><text fill="#000000" font-family="sans-serif" font-size="7.7" lengthAdjust="spacing" textLength="399.7" x="18.9" y="685.8448">create(name, address, phone, mail, fax, website, opening_hours, closing_hours, slot_duration, max_number_per_slot)</text><!--MD5=[107cfa23aa516ff83d0cf17a6f9fe7ba]
class VaccineAdministration--><rect codeLine="35" fill="#FEFECE" filter="url(#fyvlfs96uwtjw)" height="111.0812" id="VaccineAdministration" style="stroke:#A80036;stroke-width:1.0499999999999998;" width="231" x="386.75" y="233.8"/><ellipse cx="456.575" cy="245" fill="#ADD1B2" rx="7.7" ry="7.7" style="stroke:#A80036;stroke-width:0.6999999999999998;"/><path d="M457.975,242.55 Q458.1172,242.2 458.2812,242.025 Q458.4453,241.85 458.6312,241.85 Q458.9594,241.85 459.1672,242.0469 Q459.375,242.2437 459.375,242.7031 L459.375,243.7969 Q459.375,244.2562 459.1781,244.4531 Q458.9812,244.65 458.675,244.65 Q458.4016,244.65 458.2266,244.5297 Q458.0516,244.4094 457.975,244.0922 Q457.9422,243.8734 457.8219,243.7531 Q457.6031,243.5234 457.2094,243.3922 Q456.8156,243.25 456.4219,243.25 Q455.9297,243.25 455.5141,243.4469 Q455.1094,243.6437 454.7922,244.0812 Q454.475,244.5187 454.475,245.1203 L454.475,245.7656 Q454.475,246.4875 455.0656,246.9687 Q455.6562,247.45 456.7062,247.45 Q457.3297,247.45 457.7672,247.3078 Q458.0187,247.2312 458.3031,246.9797 Q458.4891,246.8375 458.5875,246.7937 Q458.6859,246.75 458.8062,246.75 Q459.0359,246.75 459.2,246.9359 Q459.375,247.1109 459.375,247.3625 Q459.375,247.6031 459.1344,247.8875 Q458.7844,248.3031 458.2266,248.5328 Q457.4937,248.85 456.5969,248.85 Q455.5469,248.85 454.7047,248.4344 Q454.0266,248.1062 453.5453,247.3953 Q453.075,246.6844 453.075,245.8422 L453.075,245.0766 Q453.075,244.2016 453.4906,243.4359 Q453.9172,242.6703 454.65,242.2656 Q455.3937,241.85 456.225,241.85 Q456.7281,241.85 457.1656,242.025 Q457.6031,242.2 457.975,242.55 Z " fill="#000000"/><text fill="#000000" font-family="sans-serif" font-size="8.4" lengthAdjust="spacing" textLength="85.4" x="470.925" y="248.4371">VaccineAdministration</text><line style="stroke:#A80036;stroke-width:1.0499999999999998;" x1="387.45" x2="617.05" y1="256.2" y2="256.2"/><rect fill="none" height="4.2" style="stroke:#C82930;stroke-width:0.6999999999999998;" width="4.2" x="392.35" y="261.8"/><text fill="#000000" font-family="sans-serif" font-size="7.7" lengthAdjust="spacing" textLength="43.4" x="400.75" y="266.9933">waitingRoom</text><rect fill="none" height="4.2" style="stroke:#C82930;stroke-width:0.6999999999999998;" width="4.2" x="392.35" y="271.4852"/><text fill="#000000" font-family="sans-serif" font-size="7.7" lengthAdjust="spacing" textLength="49.7" x="400.75" y="276.6784">recoveryRoom</text><rect fill="none" height="4.2" style="stroke:#C82930;stroke-width:0.6999999999999998;" width="4.2" x="392.35" y="281.1703"/><text fill="#000000" font-family="sans-serif" font-size="7.7" lengthAdjust="spacing" textLength="16.8" x="400.75" y="286.3636">dose</text><rect fill="none" height="4.2" style="stroke:#C82930;stroke-width:0.6999999999999998;" width="4.2" x="392.35" y="290.8555"/><text fill="#000000" font-family="sans-serif" font-size="7.7" lengthAdjust="spacing" textLength="25.2" x="400.75" y="296.0487">dosage</text><rect fill="none" height="4.2" style="stroke:#C82930;stroke-width:0.6999999999999998;" width="4.2" x="392.35" y="300.5406"/><text fill="#000000" font-family="sans-serif" font-size="7.7" lengthAdjust="spacing" textLength="33.6" x="400.75" y="305.7339">ageGroup</text><line style="stroke:#A80036;stroke-width:1.0499999999999998;" x1="387.45" x2="617.05" y1="310.2258" y2="310.2258"/><ellipse cx="394.45" cy="317.9258" fill="#84BE84" rx="2.1" ry="2.1" style="stroke:#038048;stroke-width:0.6999999999999998;"/><text fill="#000000" font-family="sans-serif" font-size="7.7" lengthAdjust="spacing" textLength="212.8" x="400.75" y="321.019">create(waitingRoom, recoveryRoom, dose, dosage, ageGroup)</text><ellipse cx="394.45" cy="327.6109" fill="#84BE84" rx="2.1" ry="2.1" style="stroke:#038048;stroke-width:0.6999999999999998;"/><text fill="#000000" font-family="sans-serif" font-size="7.7" lengthAdjust="spacing" textLength="58.8" x="400.75" y="330.7042">getUserStore(su)</text><ellipse cx="394.45" cy="337.2961" fill="#84BE84" rx="2.1" ry="2.1" style="stroke:#038048;stroke-width:0.6999999999999998;"/><text fill="#000000" font-family="sans-serif" font-size="7.7" lengthAdjust="spacing" textLength="118.3" x="400.75" y="340.3894">getVaccinationCenterStore(center)</text><!--MD5=[5ddb3901a3b177819463bfb72cbada42]
class VaccineAdministrationStore--><rect codeLine="45" fill="#FEFECE" filter="url(#fyvlfs96uwtjw)" height="111.0812" id="VaccineAdministrationStore" style="stroke:#A80036;stroke-width:1.0499999999999998;" width="259" x="372.75" y="80.5"/><ellipse cx="446.425" cy="91.7" fill="#ADD1B2" rx="7.7" ry="7.7" style="stroke:#A80036;stroke-width:0.6999999999999998;"/><path d="M447.825,89.25 Q447.9672,88.9 448.1312,88.725 Q448.2953,88.55 448.4812,88.55 Q448.8094,88.55 449.0172,88.7469 Q449.225,88.9437 449.225,89.4031 L449.225,90.4969 Q449.225,90.9562 449.0281,91.1531 Q448.8312,91.35 448.525,91.35 Q448.2516,91.35 448.0766,91.2297 Q447.9016,91.1094 447.825,90.7922 Q447.7922,90.5734 447.6719,90.4531 Q447.4531,90.2234 447.0594,90.0922 Q446.6656,89.95 446.2719,89.95 Q445.7797,89.95 445.3641,90.1469 Q444.9594,90.3437 444.6422,90.7812 Q444.325,91.2187 444.325,91.8203 L444.325,92.4656 Q444.325,93.1875 444.9156,93.6687 Q445.5062,94.15 446.5562,94.15 Q447.1797,94.15 447.6172,94.0078 Q447.8687,93.9312 448.1531,93.6797 Q448.3391,93.5375 448.4375,93.4937 Q448.5359,93.45 448.6562,93.45 Q448.8859,93.45 449.05,93.6359 Q449.225,93.8109 449.225,94.0625 Q449.225,94.3031 448.9844,94.5875 Q448.6344,95.0031 448.0766,95.2328 Q447.3437,95.55 446.4469,95.55 Q445.3969,95.55 444.5547,95.1344 Q443.8766,94.8062 443.3953,94.0953 Q442.925,93.3844 442.925,92.5422 L442.925,91.7766 Q442.925,90.9016 443.3406,90.1359 Q443.7672,89.3703 444.5,88.9656 Q445.2437,88.55 446.075,88.55 Q446.5781,88.55 447.0156,88.725 Q447.4531,88.9 447.825,89.25 Z " fill="#000000"/><text fill="#000000" font-family="sans-serif" font-size="8.4" lengthAdjust="spacing" textLength="105.7" x="460.775" y="95.1371">VaccineAdministrationStore</text><line style="stroke:#A80036;stroke-width:1.0499999999999998;" x1="373.45" x2="631.05" y1="102.9" y2="102.9"/><ellipse cx="380.45" cy="110.6" fill="none" rx="2.1" ry="2.1" style="stroke:#038048;stroke-width:0.6999999999999998;"/><text fill="#000000" font-family="sans-serif" font-size="7.7" lengthAdjust="spacing" textLength="128.8" x="386.75" y="113.6933">checkVaccineAdministrationExistence</text><line style="stroke:#A80036;stroke-width:1.0499999999999998;" x1="373.45" x2="631.05" y1="118.1852" y2="118.1852"/><ellipse cx="380.45" cy="125.8852" fill="#84BE84" rx="2.1" ry="2.1" style="stroke:#038048;stroke-width:0.6999999999999998;"/><text fill="#000000" font-family="sans-serif" font-size="7.7" lengthAdjust="spacing" textLength="103.6" x="386.75" y="128.9784">isInWaitingRoom(waitingRoom)</text><ellipse cx="380.45" cy="135.5703" fill="#84BE84" rx="2.1" ry="2.1" style="stroke:#038048;stroke-width:0.6999999999999998;"/><text fill="#000000" font-family="sans-serif" font-size="7.7" lengthAdjust="spacing" textLength="240.8" x="386.75" y="138.6636">printWaitingRoomList(name, sex, birthDate, SNSNumber, phoneNumber)</text><ellipse cx="380.45" cy="145.2555" fill="#84BE84" rx="2.1" ry="2.1" style="stroke:#038048;stroke-width:0.6999999999999998;"/><text fill="#000000" font-family="sans-serif" font-size="7.7" lengthAdjust="spacing" textLength="64.4" x="386.75" y="148.3487">validateAttributes()</text><ellipse cx="380.45" cy="154.9406" fill="#84BE84" rx="2.1" ry="2.1" style="stroke:#038048;stroke-width:0.6999999999999998;"/><text fill="#000000" font-family="sans-serif" font-size="7.7" lengthAdjust="spacing" textLength="72.1" x="386.75" y="158.0339">setVariablesValues()</text><ellipse cx="380.45" cy="164.6258" fill="#84BE84" rx="2.1" ry="2.1" style="stroke:#038048;stroke-width:0.6999999999999998;"/><text fill="#000000" font-family="sans-serif" font-size="7.7" lengthAdjust="spacing" textLength="170.8" x="386.75" y="167.719">saveVaccineAdministration(vaccineadministration)</text><ellipse cx="380.45" cy="174.3109" fill="#84BE84" rx="2.1" ry="2.1" style="stroke:#038048;stroke-width:0.6999999999999998;"/><text fill="#000000" font-family="sans-serif" font-size="7.7" lengthAdjust="spacing" textLength="179.9" x="386.75" y="177.4042">validateVaccineAdministration(vaccineadministration)</text><ellipse cx="380.45" cy="183.9961" fill="#84BE84" rx="2.1" ry="2.1" style="stroke:#038048;stroke-width:0.6999999999999998;"/><text fill="#000000" font-family="sans-serif" font-size="7.7" lengthAdjust="spacing" textLength="166.6" x="386.75" y="187.0894">addVaccineAdministration(vaccineadministration)</text><!--MD5=[3fd616f346a44cd59a91eb10b19e157c]
class User--><rect codeLine="55" fill="#FEFECE" filter="url(#fyvlfs96uwtjw)" height="120.7664" id="User" style="stroke:#A80036;stroke-width:1.0499999999999998;" width="297.5" x="447.3" y="559.65"/><ellipse cx="583.625" cy="570.85" fill="#ADD1B2" rx="7.7" ry="7.7" style="stroke:#A80036;stroke-width:0.6999999999999998;"/><path d="M585.025,568.4 Q585.1672,568.05 585.3312,567.875 Q585.4953,567.7 585.6812,567.7 Q586.0094,567.7 586.2172,567.8969 Q586.425,568.0937 586.425,568.5531 L586.425,569.6469 Q586.425,570.1062 586.2281,570.3031 Q586.0312,570.5 585.725,570.5 Q585.4516,570.5 585.2766,570.3797 Q585.1016,570.2594 585.025,569.9422 Q584.9922,569.7234 584.8719,569.6031 Q584.6531,569.3734 584.2594,569.2422 Q583.8656,569.1 583.4719,569.1 Q582.9797,569.1 582.5641,569.2969 Q582.1594,569.4937 581.8422,569.9312 Q581.525,570.3687 581.525,570.9703 L581.525,571.6156 Q581.525,572.3375 582.1156,572.8187 Q582.7062,573.3 583.7562,573.3 Q584.3797,573.3 584.8172,573.1578 Q585.0687,573.0812 585.3531,572.8297 Q585.5391,572.6875 585.6375,572.6437 Q585.7359,572.6 585.8562,572.6 Q586.0859,572.6 586.25,572.7859 Q586.425,572.9609 586.425,573.2125 Q586.425,573.4531 586.1844,573.7375 Q585.8344,574.1531 585.2766,574.3828 Q584.5437,574.7 583.6469,574.7 Q582.5969,574.7 581.7547,574.2844 Q581.0766,573.9562 580.5953,573.2453 Q580.125,572.5344 580.125,571.6922 L580.125,570.9266 Q580.125,570.0516 580.5406,569.2859 Q580.9672,568.5203 581.7,568.1156 Q582.4437,567.7 583.275,567.7 Q583.7781,567.7 584.2156,567.875 Q584.6531,568.05 585.025,568.4 Z " fill="#000000"/><text fill="#000000" font-family="sans-serif" font-size="8.4" lengthAdjust="spacing" textLength="18.9" x="597.975" y="574.2871">User</text><line style="stroke:#A80036;stroke-width:1.0499999999999998;" x1="448" x2="744.1" y1="582.05" y2="582.05"/><rect fill="none" height="4.2" style="stroke:#C82930;stroke-width:0.6999999999999998;" width="4.2" x="452.9" y="587.65"/><text fill="#000000" font-family="sans-serif" font-size="7.7" lengthAdjust="spacing" textLength="18.2" x="461.3" y="592.8433">name</text><rect fill="none" height="4.2" style="stroke:#C82930;stroke-width:0.6999999999999998;" width="4.2" x="452.9" y="597.3352"/><text fill="#000000" font-family="sans-serif" font-size="7.7" lengthAdjust="spacing" textLength="12.6" x="461.3" y="602.5284">sex</text><rect fill="none" height="4.2" style="stroke:#C82930;stroke-width:0.6999999999999998;" width="4.2" x="452.9" y="607.0203"/><text fill="#000000" font-family="sans-serif" font-size="7.7" lengthAdjust="spacing" textLength="30.1" x="461.3" y="612.2136">birthDate</text><rect fill="none" height="4.2" style="stroke:#C82930;stroke-width:0.6999999999999998;" width="4.2" x="452.9" y="616.7055"/><text fill="#000000" font-family="sans-serif" font-size="7.7" lengthAdjust="spacing" textLength="28" x="461.3" y="621.8987">address</text><rect fill="none" height="4.2" style="stroke:#C82930;stroke-width:0.6999999999999998;" width="4.2" x="452.9" y="626.3906"/><text fill="#000000" font-family="sans-serif" font-size="7.7" lengthAdjust="spacing" textLength="46.9" x="461.3" y="631.5839">phoneNumber</text><rect fill="none" height="4.2" style="stroke:#C82930;stroke-width:0.6999999999999998;" width="4.2" x="452.9" y="636.0758"/><text fill="#000000" font-family="sans-serif" font-size="7.7" lengthAdjust="spacing" textLength="16.8" x="461.3" y="641.269">email</text><rect fill="none" height="4.2" style="stroke:#C82930;stroke-width:0.6999999999999998;" width="4.2" x="452.9" y="645.7609"/><text fill="#000000" font-family="sans-serif" font-size="7.7" lengthAdjust="spacing" textLength="54.6" x="461.3" y="650.9542">snsUserNumber</text><rect fill="none" height="4.2" style="stroke:#C82930;stroke-width:0.6999999999999998;" width="4.2" x="452.9" y="655.4461"/><text fill="#000000" font-family="sans-serif" font-size="7.7" lengthAdjust="spacing" textLength="63.7" x="461.3" y="660.6394">citizenCardNumber</text><line style="stroke:#A80036;stroke-width:1.0499999999999998;" x1="448" x2="744.1" y1="665.1312" y2="665.1312"/><ellipse cx="455" cy="672.8312" fill="#84BE84" rx="2.1" ry="2.1" style="stroke:#038048;stroke-width:0.6999999999999998;"/><text fill="#000000" font-family="sans-serif" font-size="7.7" lengthAdjust="spacing" textLength="279.3" x="461.3" y="675.9245">create(name,birthDate,SNSNumber,phoneNumber,email,sex,address,citizenCardID)</text><!--MD5=[93af8b4494db78ec46e98fad8955a5aa]
class UserStore--><rect codeLine="67" fill="#FEFECE" filter="url(#fyvlfs96uwtjw)" height="120.7664" id="UserStore" style="stroke:#A80036;stroke-width:1.0499999999999998;" width="150.5" x="473.2" y="387.1"/><ellipse cx="525.875" cy="398.3" fill="#ADD1B2" rx="7.7" ry="7.7" style="stroke:#A80036;stroke-width:0.6999999999999998;"/><path d="M527.275,395.85 Q527.4172,395.5 527.5812,395.325 Q527.7453,395.15 527.9312,395.15 Q528.2594,395.15 528.4672,395.3469 Q528.675,395.5437 528.675,396.0031 L528.675,397.0969 Q528.675,397.5562 528.4781,397.7531 Q528.2812,397.95 527.975,397.95 Q527.7016,397.95 527.5266,397.8297 Q527.3516,397.7094 527.275,397.3922 Q527.2422,397.1734 527.1219,397.0531 Q526.9031,396.8234 526.5094,396.6922 Q526.1156,396.55 525.7219,396.55 Q525.2297,396.55 524.8141,396.7469 Q524.4094,396.9437 524.0922,397.3812 Q523.775,397.8187 523.775,398.4203 L523.775,399.0656 Q523.775,399.7875 524.3656,400.2687 Q524.9562,400.75 526.0062,400.75 Q526.6297,400.75 527.0672,400.6078 Q527.3187,400.5312 527.6031,400.2797 Q527.7891,400.1375 527.8875,400.0937 Q527.9859,400.05 528.1062,400.05 Q528.3359,400.05 528.5,400.2359 Q528.675,400.4109 528.675,400.6625 Q528.675,400.9031 528.4344,401.1875 Q528.0844,401.6031 527.5266,401.8328 Q526.7937,402.15 525.8969,402.15 Q524.8469,402.15 524.0047,401.7344 Q523.3266,401.4062 522.8453,400.6953 Q522.375,399.9844 522.375,399.1422 L522.375,398.3766 Q522.375,397.5016 522.7906,396.7359 Q523.2172,395.9703 523.95,395.5656 Q524.6937,395.15 525.525,395.15 Q526.0281,395.15 526.4656,395.325 Q526.9031,395.5 527.275,395.85 Z " fill="#000000"/><text fill="#000000" font-family="sans-serif" font-size="8.4" lengthAdjust="spacing" textLength="39.2" x="540.225" y="401.7371">UserStore</text><line style="stroke:#A80036;stroke-width:1.0499999999999998;" x1="473.9" x2="623" y1="409.5" y2="409.5"/><ellipse cx="480.9" cy="417.2" fill="none" rx="2.1" ry="2.1" style="stroke:#038048;stroke-width:0.6999999999999998;"/><text fill="#000000" font-family="sans-serif" font-size="7.7" lengthAdjust="spacing" textLength="69.3" x="487.2" y="420.2933">checkUserExistence</text><line style="stroke:#A80036;stroke-width:1.0499999999999998;" x1="473.9" x2="623" y1="424.7852" y2="424.7852"/><ellipse cx="480.9" cy="432.4852" fill="#84BE84" rx="2.1" ry="2.1" style="stroke:#038048;stroke-width:0.6999999999999998;"/><text fill="#000000" font-family="sans-serif" font-size="7.7" lengthAdjust="spacing" textLength="129.5" x="487.2" y="435.5784">loadSetUsers(.csv file name and path)</text><ellipse cx="480.9" cy="442.1703" fill="#84BE84" rx="2.1" ry="2.1" style="stroke:#038048;stroke-width:0.6999999999999998;"/><text fill="#000000" font-family="sans-serif" font-size="7.7" lengthAdjust="spacing" textLength="132.3" x="487.2" y="445.2636">checkFileType(.csv file name and path)</text><ellipse cx="480.9" cy="451.8555" fill="#84BE84" rx="2.1" ry="2.1" style="stroke:#038048;stroke-width:0.6999999999999998;"/><text fill="#000000" font-family="sans-serif" font-size="7.7" lengthAdjust="spacing" textLength="113.4" x="487.2" y="454.9487">readLine(.csv file name and path)</text><ellipse cx="480.9" cy="461.5406" fill="#84BE84" rx="2.1" ry="2.1" style="stroke:#038048;stroke-width:0.6999999999999998;"/><text fill="#000000" font-family="sans-serif" font-size="7.7" lengthAdjust="spacing" textLength="64.4" x="487.2" y="464.6339">validateAttributes()</text><ellipse cx="480.9" cy="471.2258" fill="#84BE84" rx="2.1" ry="2.1" style="stroke:#038048;stroke-width:0.6999999999999998;"/><text fill="#000000" font-family="sans-serif" font-size="7.7" lengthAdjust="spacing" textLength="72.1" x="487.2" y="474.319">setVariablesValues()</text><ellipse cx="480.9" cy="480.9109" fill="#84BE84" rx="2.1" ry="2.1" style="stroke:#038048;stroke-width:0.6999999999999998;"/><text fill="#000000" font-family="sans-serif" font-size="7.7" lengthAdjust="spacing" textLength="60.2" x="487.2" y="484.0042">saveSnsUser(su)</text><ellipse cx="480.9" cy="490.5961" fill="#84BE84" rx="2.1" ry="2.1" style="stroke:#038048;stroke-width:0.6999999999999998;"/><text fill="#000000" font-family="sans-serif" font-size="7.7" lengthAdjust="spacing" textLength="69.3" x="487.2" y="493.6894">validateSnsUser(su)</text><ellipse cx="480.9" cy="500.2812" fill="#84BE84" rx="2.1" ry="2.1" style="stroke:#038048;stroke-width:0.6999999999999998;"/><text fill="#000000" font-family="sans-serif" font-size="7.7" lengthAdjust="spacing" textLength="56" x="487.2" y="503.3745">addSnsUser(su)</text><!--MD5=[4ee695915cd10dbfd029a63c1c777666]
link WaitingRoomListUI to WaitingRoomListController--><path codeLine="79" d="M283.85,38.598 C283.85,54.817 283.85,80.276 283.85,101.024 " fill="none" id="WaitingRoomListUI-to-WaitingRoomListController" style="stroke:#A80036;stroke-width:0.6999999999999998;stroke-dasharray:7.0,7.0;"/><polygon fill="#A80036" points="283.85,104.573,286.65,98.273,283.85,101.073,281.05,98.273,283.85,104.573" style="stroke:#A80036;stroke-width:0.6999999999999998;"/><!--MD5=[8200552decdc989cb5c65323d82c5d4d]
link WaitingRoomListController to Company--><path codeLine="80" d="M288.834,167.769 C293.412,196.133 300.097,237.601 304.339,263.872 " fill="none" id="WaitingRoomListController-to-Company" style="stroke:#A80036;stroke-width:0.6999999999999998;stroke-dasharray:7.0,7.0;"/><polygon fill="#A80036" points="304.941,267.631,306.6985,260.9646,304.3818,264.176,301.1704,261.8593,304.941,267.631" style="stroke:#A80036;stroke-width:0.6999999999999998;"/><!--MD5=[bc0d5b4bfe6e1bf0a8fced13bc4bdd47]
link Company to VaccinationCenterStore--><path codeLine="81" d="M308.35,311.297 C308.35,330.974 308.35,361.242 308.35,388.192 " fill="none" id="Company-to-VaccinationCenterStore" style="stroke:#A80036;stroke-width:0.6999999999999998;stroke-dasharray:7.0,7.0;"/><polygon fill="#A80036" points="308.35,391.804,311.15,385.504,308.35,388.304,305.55,385.504,308.35,391.804" style="stroke:#A80036;stroke-width:0.6999999999999998;"/><!--MD5=[8c304936b446fd8cea914e03fbadd4b7]
link VaccinationCenterStore to VaccinationCenter--><path codeLine="82" d="M277.928,503.447 C270.27,517.314 261.94,532.406 253.89,546.987 " fill="none" id="VaccinationCenterStore-to-VaccinationCenter" style="stroke:#A80036;stroke-width:0.6999999999999998;stroke-dasharray:7.0,7.0;"/><polygon fill="#A80036" points="252.175,550.088,257.6718,545.9269,253.8671,547.0242,252.7697,543.2195,252.175,550.088" style="stroke:#A80036;stroke-width:0.6999999999999998;"/><!--MD5=[ed389c7523bc925a69eb5d2b98a4a5f2]
link VaccineAdministrationStore to VaccineAdministration--><path codeLine="83" d="M502.25,191.905 C502.25,204.323 502.25,217.546 502.25,230.104 " fill="none" id="VaccineAdministrationStore-to-VaccineAdministration" style="stroke:#A80036;stroke-width:0.6999999999999998;stroke-dasharray:7.0,7.0;"/><polygon fill="#A80036" points="502.25,233.632,505.05,227.332,502.25,230.132,499.45,227.332,502.25,233.632" style="stroke:#A80036;stroke-width:0.6999999999999998;"/><!--MD5=[016139b4a3fec13df8bdcd3f21822868]
link VaccineAdministration to UserStore--><path codeLine="84" d="M518.476,345.212 C522.109,357.553 525.994,370.741 529.725,383.397 " fill="none" id="VaccineAdministration-to-UserStore" style="stroke:#A80036;stroke-width:0.6999999999999998;stroke-dasharray:7.0,7.0;"/><polygon fill="#A80036" points="530.768,386.953,531.692,380.121,529.788,383.593,526.316,381.689,530.768,386.953" style="stroke:#A80036;stroke-width:0.6999999999999998;"/><!--MD5=[d1e0f6ecc4becbdb384d024f9b519f21]
link UserStore to User--><path codeLine="85" d="M565.096,508.207 C569.387,523.621 574.014,540.267 578.354,555.863 " fill="none" id="UserStore-to-User" style="stroke:#A80036;stroke-width:0.6999999999999998;stroke-dasharray:7.0,7.0;"/><polygon fill="#A80036" points="579.334,559.384,580.3384,552.5634,578.3936,556.0127,574.9443,554.0679,579.334,559.384" style="stroke:#A80036;stroke-width:0.6999999999999998;"/><!--MD5=[9c394d52fb9d0995e6d484cc139686c4]
reverse link VaccineAdministrationStore to Company--><path codeLine="86" d="M425.845,194.208 C408.954,207.109 391.216,220.822 374.85,233.8 C361.004,244.783 345.793,257.313 333.417,267.638 " fill="none" id="VaccineAdministrationStore-backto-Company" style="stroke:#A80036;stroke-width:0.6999999999999998;stroke-dasharray:7.0,7.0;"/><polygon fill="#A80036" points="428.764,191.975,422.0538,193.5572,425.9772,194.0925,425.4419,198.016,428.764,191.975" style="stroke:#A80036;stroke-width:0.6999999999999998;"/><!--MD5=[d0874fb6cf7d5b996b0bf09b72878b25]
link VaccineAdministration to VaccinationCenterStore--><path codeLine="87" d="M434.161,345.212 C416.451,359.534 397.32,375.004 379.456,389.445 " fill="none" id="VaccineAdministration-to-VaccinationCenterStore" style="stroke:#A80036;stroke-width:0.6999999999999998;stroke-dasharray:7.0,7.0;"/><polygon fill="#A80036" points="376.6,391.755,383.2592,389.9702,379.3213,389.554,379.7375,385.6161,376.6,391.755" style="stroke:#A80036;stroke-width:0.6999999999999998;"/><!--MD5=[1358a7498f7097e19a2ba9d6bc6db4ab]
@startuml
'https://plantuml.com/class-diagram

class WaitingRoomListUI
class WaitingRoomListController{
    +getVaccinationCenterStore()
    +getVaccineAdministrationStore()
    +getUserStore()
}
class Company{
    -designation
}
class VaccinationCenterStore{
    +vaccinationCenterList(center)
    +printVaccinationCenterList(vaccinationCenterList)
    +validateAttributes()
    +setVariablesValues()
    +checkVaccinationCenterExistence
    +saveVaccinationCenter(center)
    +validateVaccinationCenter(center)
    +addVaccinationCenter(center)
}
class VaccinationCenter{
    -name
    -address
    -phone
    -mail
    -fax
    -website
    -opening_hours
    -closing_hours
    -slot_duration
    -max_number_per_slot
    +create(name, address, phone, mail, fax, website, opening_hours, closing_hours, slot_duration, max_number_per_slot)
}
class VaccineAdministration{
    -waitingRoom
    -recoveryRoom
    -dose
    -dosage
    -ageGroup
    +create(waitingRoom, recoveryRoom, dose, dosage, ageGroup)
    +getUserStore(su)
    +getVaccinationCenterStore(center)
}
class VaccineAdministrationStore{
    +isInWaitingRoom(waitingRoom)
    +printWaitingRoomList(name, sex, birthDate, SNSNumber, phoneNumber)
    +validateAttributes()
    +setVariablesValues()
    +checkVaccineAdministrationExistence
    +saveVaccineAdministration(vaccineadministration)
    +validateVaccineAdministration(vaccineadministration)
    +addVaccineAdministration(vaccineadministration)
}
class User{
    -name
    -sex
    -birthDate
    -address
    -phoneNumber
    -email
    -snsUserNumber
    -citizenCardNumber
    +create(name,birthDate,SNSNumber,phoneNumber,email,sex,address,citizenCardID)
}

class UserStore{
+ loadSetUsers(.csv file name and path)
+ checkFileType(.csv file name and path)
+ readLine(.csv file name and path)
+ validateAttributes()
+ setVariablesValues()
+ checkUserExistence
+ saveSnsUser(su)
+ validateSnsUser(su)
+ addSnsUser(su)
}

WaitingRoomListUI ..> WaitingRoomListController
WaitingRoomListController ..> Company
Company ..> VaccinationCenterStore
VaccinationCenterStore ..> VaccinationCenter
VaccineAdministrationStore ..> VaccineAdministration
VaccineAdministration ..> UserStore
UserStore ..> User
VaccineAdministrationStore <.. Company
VaccineAdministration ..> VaccinationCenterStore

@enduml

@startuml

class WaitingRoomListUI
class WaitingRoomListController{
    +getVaccinationCenterStore()
    +getVaccineAdministrationStore()
    +getUserStore()
}
class Company{
    -designation
}
class VaccinationCenterStore{
    +vaccinationCenterList(center)
    +printVaccinationCenterList(vaccinationCenterList)
    +validateAttributes()
    +setVariablesValues()
    +checkVaccinationCenterExistence
    +saveVaccinationCenter(center)
    +validateVaccinationCenter(center)
    +addVaccinationCenter(center)
}
class VaccinationCenter{
    -name
    -address
    -phone
    -mail
    -fax
    -website
    -opening_hours
    -closing_hours
    -slot_duration
    -max_number_per_slot
    +create(name, address, phone, mail, fax, website, opening_hours, closing_hours, slot_duration, max_number_per_slot)
}
class VaccineAdministration{
    -waitingRoom
    -recoveryRoom
    -dose
    -dosage
    -ageGroup
    +create(waitingRoom, recoveryRoom, dose, dosage, ageGroup)
    +getUserStore(su)
    +getVaccinationCenterStore(center)
}
class VaccineAdministrationStore{
    +isInWaitingRoom(waitingRoom)
    +printWaitingRoomList(name, sex, birthDate, SNSNumber, phoneNumber)
    +validateAttributes()
    +setVariablesValues()
    +checkVaccineAdministrationExistence
    +saveVaccineAdministration(vaccineadministration)
    +validateVaccineAdministration(vaccineadministration)
    +addVaccineAdministration(vaccineadministration)
}
class User{
    -name
    -sex
    -birthDate
    -address
    -phoneNumber
    -email
    -snsUserNumber
    -citizenCardNumber
    +create(name,birthDate,SNSNumber,phoneNumber,email,sex,address,citizenCardID)
}

class UserStore{
+ loadSetUsers(.csv file name and path)
+ checkFileType(.csv file name and path)
+ readLine(.csv file name and path)
+ validateAttributes()
+ setVariablesValues()
+ checkUserExistence
+ saveSnsUser(su)
+ validateSnsUser(su)
+ addSnsUser(su)
}

WaitingRoomListUI ..> WaitingRoomListController
WaitingRoomListController ..> Company
Company ..> VaccinationCenterStore
VaccinationCenterStore ..> VaccinationCenter
VaccineAdministrationStore ..> VaccineAdministration
VaccineAdministration ..> UserStore
UserStore ..> User
VaccineAdministrationStore <.. Company
VaccineAdministration ..> VaccinationCenterStore

@enduml

PlantUML version 1.2022.1(Tue Feb 01 18:19:58 GMT 2022)
(GPL source distribution)
Java Runtime: OpenJDK Runtime Environment
JVM: OpenJDK 64-Bit Server VM
Default Encoding: Cp1252
Language: pt
Country: PT
--></g></svg>