<?xml version="1.0" encoding="UTF-8" standalone="no"?><svg xmlns="http://www.w3.org/2000/svg" xmlns:xlink="http://www.w3.org/1999/xlink" contentStyleType="text/css" height="1157px" preserveAspectRatio="none" style="width:1664px;height:1157px;background:#FFFFFF;" version="1.1" viewBox="0 0 1664 1157" width="1664px" zoomAndPan="magnify"><defs/><g><rect fill="#FFFFFF" height="965.0859" style="stroke:#181818;stroke-width:1.0;" width="10" x="59.5" y="92.6094"/><rect fill="#FFFFFF" height="30.3516" style="stroke:#181818;stroke-width:1.0;" width="10" x="359.5" y="114.9609"/><rect fill="#FFFFFF" height="530.4766" style="stroke:#181818;stroke-width:1.0;" width="10" x="359.5" y="175.6641"/><rect fill="#FFFFFF" height="321.2031" style="stroke:#181818;stroke-width:1.0;" width="10" x="359.5" y="736.4922"/><rect fill="#FFFFFF" height="121.0547" style="stroke:#181818;stroke-width:1.0;" width="10" x="565.5" y="206.0156"/><rect fill="#FFFFFF" height="293.0156" style="stroke:#181818;stroke-width:1.0;" width="10" x="565.5" y="382.7734"/><rect fill="#FFFFFF" height="30.3516" style="stroke:#181818;stroke-width:1.0;" width="10" x="565.5" y="796.8438"/><rect fill="#FFFFFF" height="30" style="stroke:#181818;stroke-width:1.0;" width="10" x="745.5" y="236.3672"/><rect fill="#FFFFFF" height="30.3516" style="stroke:#181818;stroke-width:1.0;" width="10" x="865" y="296.7188"/><rect fill="#FFFFFF" height="293.0156" style="stroke:#181818;stroke-width:1.0;" width="10" x="865" y="382.7734"/><rect fill="#FFFFFF" height="28" style="stroke:#181818;stroke-width:1.0;" width="10" x="870" y="421.125"/><rect fill="#FFFFFF" height="28" style="stroke:#181818;stroke-width:1.0;" width="10" x="870" y="494.4766"/><rect fill="#FFFFFF" height="28" style="stroke:#181818;stroke-width:1.0;" width="10" x="870" y="567.8281"/><rect fill="#FFFFFF" height="230.5" style="stroke:#181818;stroke-width:1.0;" width="10" x="865" y="827.1953"/><rect fill="#FFFFFF" height="28" style="stroke:#181818;stroke-width:1.0;" width="10" x="870" y="865.5469"/><rect fill="#FFFFFF" height="28" style="stroke:#181818;stroke-width:1.0;" width="10" x="870" y="938.8984"/><rect height="639.8281" style="stroke:#000000;stroke-width:1.5;fill:none;" width="1648" x="10" y="342.0703"/><line style="stroke:#181818;stroke-width:0.5;fill:none;stroke-dasharray:5.0,5.0;" x1="64" x2="64" y1="82.6094" y2="1075.6953"/><line style="stroke:#181818;stroke-width:0.5;fill:none;stroke-dasharray:5.0,5.0;" x1="364" x2="364" y1="82.6094" y2="1075.6953"/><line style="stroke:#181818;stroke-width:0.5;fill:none;stroke-dasharray:5.0,5.0;" x1="570" x2="570" y1="82.6094" y2="1075.6953"/><line style="stroke:#181818;stroke-width:0.5;fill:none;stroke-dasharray:5.0,5.0;" x1="750.5" x2="750.5" y1="82.6094" y2="1075.6953"/><line style="stroke:#181818;stroke-width:0.5;fill:none;stroke-dasharray:5.0,5.0;" x1="869.5" x2="869.5" y1="82.6094" y2="1075.6953"/><line style="stroke:#181818;stroke-width:0.5;fill:none;stroke-dasharray:5.0,5.0;" x1="1601" x2="1601" y1="642.1328" y2="1075.6953"/><text fill="#000000" font-family="sans-serif" font-size="14" lengthAdjust="spacing" textLength="83" x="20" y="79.5332">Administrator</text><ellipse cx="64.5" cy="13.5" fill="#E2E2F0" rx="8" ry="8" style="stroke:#181818;stroke-width:0.5;"/><path d="M64.5,21.5 L64.5,48.5 M51.5,29.5 L77.5,29.5 M64.5,48.5 L51.5,63.5 M64.5,48.5 L77.5,63.5 " fill="none" style="stroke:#181818;stroke-width:0.5;"/><text fill="#000000" font-family="sans-serif" font-size="14" lengthAdjust="spacing" textLength="83" x="20" y="1089.2285">Administrator</text><ellipse cx="64.5" cy="1100.8047" fill="#E2E2F0" rx="8" ry="8" style="stroke:#181818;stroke-width:0.5;"/><path d="M64.5,1108.8047 L64.5,1135.8047 M51.5,1116.8047 L77.5,1116.8047 M64.5,1135.8047 L51.5,1150.8047 M64.5,1135.8047 L77.5,1150.8047 " fill="none" style="stroke:#181818;stroke-width:0.5;"/><rect fill="#E2E2F0" height="31.6094" rx="2.5" ry="2.5" style="stroke:#181818;stroke-width:0.5;" width="119" x="305" y="50"/><text fill="#000000" font-family="sans-serif" font-size="14" lengthAdjust="spacing" textLength="105" x="312" y="71.5332">:LoadSetUsersUI</text><rect fill="#E2E2F0" height="31.6094" rx="2.5" ry="2.5" style="stroke:#181818;stroke-width:0.5;" width="119" x="305" y="1074.6953"/><text fill="#000000" font-family="sans-serif" font-size="14" lengthAdjust="spacing" textLength="105" x="312" y="1096.2285">:LoadSetUsersUI</text><rect fill="#E2E2F0" height="31.6094" rx="2.5" ry="2.5" style="stroke:#181818;stroke-width:0.5;" width="169" x="486" y="50"/><text fill="#000000" font-family="sans-serif" font-size="14" lengthAdjust="spacing" textLength="155" x="493" y="71.5332">:LoadSetUsersController</text><rect fill="#E2E2F0" height="31.6094" rx="2.5" ry="2.5" style="stroke:#181818;stroke-width:0.5;" width="169" x="486" y="1074.6953"/><text fill="#000000" font-family="sans-serif" font-size="14" lengthAdjust="spacing" textLength="155" x="493" y="1096.2285">:LoadSetUsersController</text><rect fill="#E2E2F0" height="31.6094" rx="2.5" ry="2.5" style="stroke:#181818;stroke-width:0.5;" width="78" x="711.5" y="50"/><text fill="#000000" font-family="sans-serif" font-size="14" lengthAdjust="spacing" textLength="64" x="718.5" y="71.5332">:Company</text><rect fill="#E2E2F0" height="31.6094" rx="2.5" ry="2.5" style="stroke:#181818;stroke-width:0.5;" width="78" x="711.5" y="1074.6953"/><text fill="#000000" font-family="sans-serif" font-size="14" lengthAdjust="spacing" textLength="64" x="718.5" y="1096.2285">:Company</text><rect fill="#E2E2F0" height="31.6094" rx="2.5" ry="2.5" style="stroke:#181818;stroke-width:0.5;" width="141" x="799.5" y="50"/><text fill="#000000" font-family="sans-serif" font-size="14" lengthAdjust="spacing" textLength="127" x="806.5" y="71.5332">:LoadSetUsersStore</text><rect fill="#E2E2F0" height="31.6094" rx="2.5" ry="2.5" style="stroke:#181818;stroke-width:0.5;" width="141" x="799.5" y="1074.6953"/><text fill="#000000" font-family="sans-serif" font-size="14" lengthAdjust="spacing" textLength="127" x="806.5" y="1096.2285">:LoadSetUsersStore</text><rect fill="#E2E2F0" height="31.6094" rx="2.5" ry="2.5" style="stroke:#181818;stroke-width:0.5;" width="93" x="1555" y="1074.6953"/><text fill="#000000" font-family="sans-serif" font-size="14" lengthAdjust="spacing" textLength="79" x="1562" y="1096.2285">su: SNSUser</text><rect fill="#FFFFFF" height="965.0859" style="stroke:#181818;stroke-width:1.0;" width="10" x="59.5" y="92.6094"/><rect fill="#FFFFFF" height="30.3516" style="stroke:#181818;stroke-width:1.0;" width="10" x="359.5" y="114.9609"/><rect fill="#FFFFFF" height="530.4766" style="stroke:#181818;stroke-width:1.0;" width="10" x="359.5" y="175.6641"/><rect fill="#FFFFFF" height="321.2031" style="stroke:#181818;stroke-width:1.0;" width="10" x="359.5" y="736.4922"/><rect fill="#FFFFFF" height="121.0547" style="stroke:#181818;stroke-width:1.0;" width="10" x="565.5" y="206.0156"/><rect fill="#FFFFFF" height="293.0156" style="stroke:#181818;stroke-width:1.0;" width="10" x="565.5" y="382.7734"/><rect fill="#FFFFFF" height="30.3516" style="stroke:#181818;stroke-width:1.0;" width="10" x="565.5" y="796.8438"/><rect fill="#FFFFFF" height="30" style="stroke:#181818;stroke-width:1.0;" width="10" x="745.5" y="236.3672"/><rect fill="#FFFFFF" height="30.3516" style="stroke:#181818;stroke-width:1.0;" width="10" x="865" y="296.7188"/><rect fill="#FFFFFF" height="293.0156" style="stroke:#181818;stroke-width:1.0;" width="10" x="865" y="382.7734"/><rect fill="#FFFFFF" height="28" style="stroke:#181818;stroke-width:1.0;" width="10" x="870" y="421.125"/><rect fill="#FFFFFF" height="28" style="stroke:#181818;stroke-width:1.0;" width="10" x="870" y="494.4766"/><rect fill="#FFFFFF" height="28" style="stroke:#181818;stroke-width:1.0;" width="10" x="870" y="567.8281"/><rect fill="#FFFFFF" height="230.5" style="stroke:#181818;stroke-width:1.0;" width="10" x="865" y="827.1953"/><rect fill="#FFFFFF" height="28" style="stroke:#181818;stroke-width:1.0;" width="10" x="870" y="865.5469"/><rect fill="#FFFFFF" height="28" style="stroke:#181818;stroke-width:1.0;" width="10" x="870" y="938.8984"/><polygon fill="#181818" points="347.5,110.9609,357.5,114.9609,347.5,118.9609,351.5,114.9609" style="stroke:#181818;stroke-width:1.0;"/><line style="stroke:#181818;stroke-width:1.0;" x1="69.5" x2="353.5" y1="114.9609" y2="114.9609"/><text fill="#000000" font-family="sans-serif" font-size="13" font-weight="bold" lengthAdjust="spacing" textLength="7" x="76.5" y="110.1045">1</text><text fill="#000000" font-family="sans-serif" font-size="13" lengthAdjust="spacing" textLength="161" x="87.5" y="110.1045">starts loading a set of users</text><polygon fill="#181818" points="80.5,141.3125,70.5,145.3125,80.5,149.3125,76.5,145.3125" style="stroke:#181818;stroke-width:1.0;"/><line style="stroke:#181818;stroke-width:1.0;stroke-dasharray:2.0,2.0;" x1="74.5" x2="363.5" y1="145.3125" y2="145.3125"/><text fill="#000000" font-family="sans-serif" font-size="13" font-weight="bold" lengthAdjust="spacing" textLength="7" x="86.5" y="140.4561">2</text><text fill="#000000" font-family="sans-serif" font-size="13" lengthAdjust="spacing" textLength="217" x="97.5" y="140.4561">request data (.csv file name and path)</text><polygon fill="#181818" points="347.5,171.6641,357.5,175.6641,347.5,179.6641,351.5,175.6641" style="stroke:#181818;stroke-width:1.0;"/><line style="stroke:#181818;stroke-width:1.0;" x1="69.5" x2="353.5" y1="175.6641" y2="175.6641"/><text fill="#000000" font-family="sans-serif" font-size="13" font-weight="bold" lengthAdjust="spacing" textLength="7" x="76.5" y="170.8076">3</text><text fill="#000000" font-family="sans-serif" font-size="13" lengthAdjust="spacing" textLength="129" x="87.5" y="170.8076">inserts requested data</text><polygon fill="#181818" points="553.5,202.0156,563.5,206.0156,553.5,210.0156,557.5,206.0156" style="stroke:#181818;stroke-width:1.0;"/><line style="stroke:#181818;stroke-width:1.0;" x1="369.5" x2="559.5" y1="206.0156" y2="206.0156"/><text fill="#000000" font-family="sans-serif" font-size="13" font-weight="bold" lengthAdjust="spacing" textLength="7" x="376.5" y="201.1592">4</text><text fill="#000000" font-family="sans-serif" font-size="13" lengthAdjust="spacing" textLength="166" x="387.5" y="201.1592">getLoadSetSNSUsersStore()</text><polygon fill="#181818" points="733.5,232.3672,743.5,236.3672,733.5,240.3672,737.5,236.3672" style="stroke:#181818;stroke-width:1.0;"/><line style="stroke:#181818;stroke-width:1.0;" x1="575.5" x2="739.5" y1="236.3672" y2="236.3672"/><text fill="#000000" font-family="sans-serif" font-size="13" font-weight="bold" lengthAdjust="spacing" textLength="7" x="582.5" y="231.5107">5</text><text fill="#000000" font-family="sans-serif" font-size="13" lengthAdjust="spacing" textLength="140" x="593.5" y="231.5107">LoadSetSNSUsersStore</text><polygon fill="#181818" points="853,292.7188,863,296.7188,853,300.7188,857,296.7188" style="stroke:#181818;stroke-width:1.0;"/><line style="stroke:#181818;stroke-width:1.0;" x1="575.5" x2="859" y1="296.7188" y2="296.7188"/><text fill="#000000" font-family="sans-serif" font-size="13" font-weight="bold" lengthAdjust="spacing" textLength="7" x="582.5" y="291.8623">6</text><text fill="#000000" font-family="sans-serif" font-size="13" lengthAdjust="spacing" textLength="246" x="593.5" y="291.8623">loadSetSNSUsers(.csv file name and path)</text><polygon fill="#181818" points="858,323.0703,868,327.0703,858,331.0703,862,327.0703" style="stroke:#181818;stroke-width:1.0;"/><line style="stroke:#181818;stroke-width:1.0;" x1="570.5" x2="864" y1="327.0703" y2="327.0703"/><text fill="#000000" font-family="sans-serif" font-size="13" font-weight="bold" lengthAdjust="spacing" textLength="7" x="577.5" y="322.2139">7</text><text fill="#000000" font-family="sans-serif" font-size="13" lengthAdjust="spacing" textLength="229" x="588.5" y="322.2139">checkFileType(.csv file name and path))</text><path d="M10,342.0703 L83,342.0703 L83,350.4219 L73,360.4219 L10,360.4219 L10,342.0703 " fill="#EEEEEE" style="stroke:#000000;stroke-width:1.5;"/><rect fill="none" height="639.8281" style="stroke:#000000;stroke-width:1.5;" width="1648" x="10" y="342.0703"/><text fill="#000000" font-family="sans-serif" font-size="13" font-weight="bold" lengthAdjust="spacing" textLength="28" x="25" y="356.5654">loop</text><polygon fill="#181818" points="853,378.7734,863,382.7734,853,386.7734,857,382.7734" style="stroke:#181818;stroke-width:1.0;"/><line style="stroke:#181818;stroke-width:1.0;" x1="575.5" x2="859" y1="382.7734" y2="382.7734"/><text fill="#000000" font-family="sans-serif" font-size="13" font-weight="bold" lengthAdjust="spacing" textLength="7" x="582.5" y="377.917">8</text><text fill="#000000" font-family="sans-serif" font-size="13" lengthAdjust="spacing" textLength="190" x="593.5" y="377.917">readLine(.csv file name and path)</text><line style="stroke:#181818;stroke-width:1.0;" x1="880" x2="922" y1="413.125" y2="413.125"/><line style="stroke:#181818;stroke-width:1.0;" x1="922" x2="922" y1="413.125" y2="426.125"/><line style="stroke:#181818;stroke-width:1.0;" x1="881" x2="922" y1="426.125" y2="426.125"/><polygon fill="#181818" points="891,422.125,881,426.125,891,430.125,887,426.125" style="stroke:#181818;stroke-width:1.0;"/><text fill="#000000" font-family="sans-serif" font-size="13" font-weight="bold" lengthAdjust="spacing" textLength="7" x="887" y="408.2686">9</text><text fill="#000000" font-family="sans-serif" font-size="13" lengthAdjust="spacing" textLength="107" x="898" y="408.2686">validateAttributes()</text><line style="stroke:#181818;stroke-width:1.0;" x1="880" x2="922" y1="486.4766" y2="486.4766"/><line style="stroke:#181818;stroke-width:1.0;" x1="922" x2="922" y1="486.4766" y2="499.4766"/><line style="stroke:#181818;stroke-width:1.0;" x1="881" x2="922" y1="499.4766" y2="499.4766"/><polygon fill="#181818" points="891,495.4766,881,499.4766,891,503.4766,887,499.4766" style="stroke:#181818;stroke-width:1.0;"/><text fill="#000000" font-family="sans-serif" font-size="13" font-weight="bold" lengthAdjust="spacing" textLength="14" x="887" y="481.6201">10</text><text fill="#000000" font-family="sans-serif" font-size="13" lengthAdjust="spacing" textLength="120" x="905" y="481.6201">setVariablesValues()</text><line style="stroke:#181818;stroke-width:1.0;" x1="880" x2="922" y1="559.8281" y2="559.8281"/><line style="stroke:#181818;stroke-width:1.0;" x1="922" x2="922" y1="559.8281" y2="572.8281"/><line style="stroke:#181818;stroke-width:1.0;" x1="881" x2="922" y1="572.8281" y2="572.8281"/><polygon fill="#181818" points="891,568.8281,881,572.8281,891,576.8281,887,572.8281" style="stroke:#181818;stroke-width:1.0;"/><text fill="#000000" font-family="sans-serif" font-size="13" font-weight="bold" lengthAdjust="spacing" textLength="14" x="887" y="554.9717">11</text><text fill="#000000" font-family="sans-serif" font-size="13" lengthAdjust="spacing" textLength="128" x="905" y="554.9717">checkUserExistence()</text><polygon fill="#181818" points="1543,629.1797,1553,633.1797,1543,637.1797,1547,633.1797" style="stroke:#181818;stroke-width:1.0;"/><line style="stroke:#181818;stroke-width:1.0;stroke-dasharray:2.0,2.0;" x1="875" x2="1549" y1="633.1797" y2="633.1797"/><text fill="#000000" font-family="sans-serif" font-size="13" font-weight="bold" lengthAdjust="spacing" textLength="14" x="882" y="628.3232">12</text><text fill="#000000" font-family="sans-serif" font-size="13" lengthAdjust="spacing" textLength="638" x="900" y="628.3232">create (Name, Sex, Birth Date, Address, Phone Number, E-mail, SNS User Number and Citizen Card Number)</text><rect fill="#E2E2F0" height="31.6094" rx="2.5" ry="2.5" style="stroke:#181818;stroke-width:0.5;" width="93" x="1555" y="610.8281"/><text fill="#000000" font-family="sans-serif" font-size="14" lengthAdjust="spacing" textLength="79" x="1562" y="632.3613">su: SNSUser</text><polygon fill="#181818" points="858,671.7891,868,675.7891,858,679.7891,862,675.7891" style="stroke:#181818;stroke-width:1.0;"/><line style="stroke:#181818;stroke-width:1.0;" x1="570.5" x2="864" y1="675.7891" y2="675.7891"/><text fill="#000000" font-family="sans-serif" font-size="13" font-weight="bold" lengthAdjust="spacing" textLength="14" x="577.5" y="670.9326">13</text><text fill="#000000" font-family="sans-serif" font-size="13" lengthAdjust="spacing" textLength="115" x="595.5" y="670.9326">validateSnsUser(su)</text><polygon fill="#181818" points="80.5,702.1406,70.5,706.1406,80.5,710.1406,76.5,706.1406" style="stroke:#181818;stroke-width:1.0;"/><line style="stroke:#181818;stroke-width:1.0;stroke-dasharray:2.0,2.0;" x1="74.5" x2="363.5" y1="706.1406" y2="706.1406"/><text fill="#000000" font-family="sans-serif" font-size="13" font-weight="bold" lengthAdjust="spacing" textLength="14" x="86.5" y="701.2842">14</text><text fill="#000000" font-family="sans-serif" font-size="13" lengthAdjust="spacing" textLength="248" x="104.5" y="701.2842">shows the data and asks for a confirmation</text><polygon fill="#181818" points="347.5,732.4922,357.5,736.4922,347.5,740.4922,351.5,736.4922" style="stroke:#181818;stroke-width:1.0;"/><line style="stroke:#181818;stroke-width:1.0;" x1="69.5" x2="353.5" y1="736.4922" y2="736.4922"/><text fill="#000000" font-family="sans-serif" font-size="13" font-weight="bold" lengthAdjust="spacing" textLength="14" x="76.5" y="731.6357">15</text><text fill="#000000" font-family="sans-serif" font-size="13" lengthAdjust="spacing" textLength="100" x="94.5" y="731.6357">confirms the data</text><polygon fill="#181818" points="553.5,792.8438,563.5,796.8438,553.5,800.8438,557.5,796.8438" style="stroke:#181818;stroke-width:1.0;"/><line style="stroke:#181818;stroke-width:1.0;" x1="369.5" x2="559.5" y1="796.8438" y2="796.8438"/><text fill="#000000" font-family="sans-serif" font-size="13" font-weight="bold" lengthAdjust="spacing" textLength="14" x="376.5" y="791.9873">16</text><text fill="#000000" font-family="sans-serif" font-size="13" lengthAdjust="spacing" textLength="84" x="394.5" y="791.9873">saveSnsUser()</text><polygon fill="#181818" points="853,823.1953,863,827.1953,853,831.1953,857,827.1953" style="stroke:#181818;stroke-width:1.0;"/><line style="stroke:#181818;stroke-width:1.0;" x1="570.5" x2="859" y1="827.1953" y2="827.1953"/><text fill="#000000" font-family="sans-serif" font-size="13" font-weight="bold" lengthAdjust="spacing" textLength="14" x="577.5" y="822.3389">17</text><text fill="#000000" font-family="sans-serif" font-size="13" lengthAdjust="spacing" textLength="98" x="595.5" y="822.3389">saveSnsUser(su)</text><line style="stroke:#181818;stroke-width:1.0;" x1="880" x2="922" y1="857.5469" y2="857.5469"/><line style="stroke:#181818;stroke-width:1.0;" x1="922" x2="922" y1="857.5469" y2="870.5469"/><line style="stroke:#181818;stroke-width:1.0;" x1="881" x2="922" y1="870.5469" y2="870.5469"/><polygon fill="#181818" points="891,866.5469,881,870.5469,891,874.5469,887,870.5469" style="stroke:#181818;stroke-width:1.0;"/><text fill="#000000" font-family="sans-serif" font-size="13" font-weight="bold" lengthAdjust="spacing" textLength="14" x="887" y="852.6904">18</text><text fill="#000000" font-family="sans-serif" font-size="13" lengthAdjust="spacing" textLength="115" x="905" y="852.6904">validateSnsUser(su)</text><line style="stroke:#181818;stroke-width:1.0;" x1="880" x2="922" y1="930.8984" y2="930.8984"/><line style="stroke:#181818;stroke-width:1.0;" x1="922" x2="922" y1="930.8984" y2="943.8984"/><line style="stroke:#181818;stroke-width:1.0;" x1="881" x2="922" y1="943.8984" y2="943.8984"/><polygon fill="#181818" points="891,939.8984,881,943.8984,891,947.8984,887,943.8984" style="stroke:#181818;stroke-width:1.0;"/><text fill="#000000" font-family="sans-serif" font-size="13" font-weight="bold" lengthAdjust="spacing" textLength="14" x="887" y="926.042">19</text><text fill="#000000" font-family="sans-serif" font-size="13" lengthAdjust="spacing" textLength="93" x="905" y="926.042">addSnsUser(su)</text><rect height="41.4453" style="stroke:#000000;stroke-width:1.5;fill:none;" width="144" x="17" y="988.8984"/><path d="M17,988.8984 L79,988.8984 L79,996.8984 L69,1006.8984 L17,1006.8984 L17,988.8984 " fill="#EEEEEE" style="stroke:#000000;stroke-width:2.0;"/><text fill="#000000" font-family="sans-serif" font-size="13" font-weight="bold" lengthAdjust="spacing" textLength="17" x="30" y="1004.3936">ref</text><text fill="#000000" font-family="sans-serif" font-size="12" lengthAdjust="spacing" textLength="136" x="21" y="1023.3555">Creating SNSUser Login</text><polygon fill="#181818" points="75.5,1053.6953,65.5,1057.6953,75.5,1061.6953,71.5,1057.6953" style="stroke:#181818;stroke-width:1.0;"/><line style="stroke:#181818;stroke-width:1.0;stroke-dasharray:2.0,2.0;" x1="69.5" x2="363.5" y1="1057.6953" y2="1057.6953"/><text fill="#000000" font-family="sans-serif" font-size="13" font-weight="bold" lengthAdjust="spacing" textLength="14" x="81.5" y="1052.8389">20</text><text fill="#000000" font-family="sans-serif" font-size="13" lengthAdjust="spacing" textLength="127" x="99.5" y="1052.8389">tell operation success</text><!--MD5=[4ef87524ae3d71c6739fb243d5b38c8c]
@startuml
autonumber
'hide footbox
actor "Administrator" as ADM

participant ":LoadSetUsersUI" as UI
participant ":LoadSetUsersController" as CTRL
participant ":Company" as COMP
participant ":LoadSetUsersStore" as ST
participant "su: SNSUser" as SU

activate ADM
ADM -> UI : starts loading a set of users
activate UI
UI - -> ADM: request data (.csv file name and path)
deactivate UI

ADM -> UI: inserts requested data
activate UI


UI -> CTRL: getLoadSetSNSUsersStore()
activate CTRL

CTRL -> COMP: LoadSetSNSUsersStore
activate COMP
deactivate COMP

CTRL -> ST : loadSetSNSUsers(.csv file name and path)

activate ST

CTRL -> ST: checkFileType(.csv file name and path))
deactivate ST
deactivate CTRL
deactivate COMP
loop
CTRL -> ST: readLine(.csv file name and path)
activate ST
activate CTRL

ST -> ST: validateAttributes()
activate ST
deactivate ST
ST -> ST: setVariablesValues()
activate ST
deactivate ST
ST -> ST: checkUserExistence()
activate ST
deactivate ST

create SU
ST - -> SU: create (Name, Sex, Birth Date, Address, Phone Number, E-mail, SNS User Number and Citizen Card Number)

CTRL -> ST: validateSnsUser(su)
deactivate ST
deactivate CTRL


UI - -> ADM: shows the data and asks for a confirmation
deactivate UI
ADM -> UI: confirms the data
activate UI

deactivate ST

UI -> CTRL: saveSnsUser()
activate CTRL
CTRL -> ST: saveSnsUser(su)
deactivate CTRL
activate ST

ST -> ST: validateSnsUser(su)
activate ST
deactivate ST

ST -> ST: addSnsUser(su)
activate ST
deactivate ST

end

ref over ADM
Creating SNSUser Login
end ref

UI - -> ADM: tell operation success
deactivate UI
deactivate COMP
deactivate ADM
deactivate ST
@enduml

@startuml
autonumber
actor "Administrator" as ADM

participant ":LoadSetUsersUI" as UI
participant ":LoadSetUsersController" as CTRL
participant ":Company" as COMP
participant ":LoadSetUsersStore" as ST
participant "su: SNSUser" as SU

activate ADM
ADM -> UI : starts loading a set of users
activate UI
UI - -> ADM: request data (.csv file name and path)
deactivate UI

ADM -> UI: inserts requested data
activate UI


UI -> CTRL: getLoadSetSNSUsersStore()
activate CTRL

CTRL -> COMP: LoadSetSNSUsersStore
activate COMP
deactivate COMP

CTRL -> ST : loadSetSNSUsers(.csv file name and path)

activate ST

CTRL -> ST: checkFileType(.csv file name and path))
deactivate ST
deactivate CTRL
deactivate COMP
loop
CTRL -> ST: readLine(.csv file name and path)
activate ST
activate CTRL

ST -> ST: validateAttributes()
activate ST
deactivate ST
ST -> ST: setVariablesValues()
activate ST
deactivate ST
ST -> ST: checkUserExistence()
activate ST
deactivate ST

create SU
ST - -> SU: create (Name, Sex, Birth Date, Address, Phone Number, E-mail, SNS User Number and Citizen Card Number)

CTRL -> ST: validateSnsUser(su)
deactivate ST
deactivate CTRL


UI - -> ADM: shows the data and asks for a confirmation
deactivate UI
ADM -> UI: confirms the data
activate UI

deactivate ST

UI -> CTRL: saveSnsUser()
activate CTRL
CTRL -> ST: saveSnsUser(su)
deactivate CTRL
activate ST

ST -> ST: validateSnsUser(su)
activate ST
deactivate ST

ST -> ST: addSnsUser(su)
activate ST
deactivate ST

end

ref over ADM
Creating SNSUser Login
end ref

UI - -> ADM: tell operation success
deactivate UI
deactivate COMP
deactivate ADM
deactivate ST
@enduml

PlantUML version 1.2022.4(Sat Apr 09 14:29:17 BST 2022)
(GPL source distribution)
Java Runtime: OpenJDK Runtime Environment
JVM: OpenJDK 64-Bit Server VM
Default Encoding: Cp1252
Language: pt
Country: PT
--></g></svg>