<?xml version="1.0" encoding="UTF-8" standalone="no"?><svg xmlns="http://www.w3.org/2000/svg" xmlns:xlink="http://www.w3.org/1999/xlink" contentStyleType="text/css" height="395px" preserveAspectRatio="none" style="width:1237px;height:395px;background:#FFFFFF;" version="1.1" viewBox="0 0 1237 395" width="1237px" zoomAndPan="magnify"><defs/><g><rect fill="#FFFFFF" height="28" style="stroke:#181818;stroke-width:1.0;" width="10" x="650.5" y="133.6641"/><rect height="256.4609" style="stroke:#000000;stroke-width:1.5;fill:none;" width="1221" x="10" y="84.9609"/><line style="stroke:#181818;stroke-width:0.5;fill:none;stroke-dasharray:5.0,5.0;" x1="68" x2="68" y1="37.6094" y2="358.4219"/><line style="stroke:#181818;stroke-width:0.5;fill:none;stroke-dasharray:5.0,5.0;" x1="248" x2="248" y1="37.6094" y2="358.4219"/><line style="stroke:#181818;stroke-width:0.5;fill:none;stroke-dasharray:5.0,5.0;" x1="402" x2="402" y1="37.6094" y2="358.4219"/><line style="stroke:#181818;stroke-width:0.5;fill:none;stroke-dasharray:5.0,5.0;" x1="536" x2="536" y1="37.6094" y2="358.4219"/><line style="stroke:#181818;stroke-width:0.5;fill:none;stroke-dasharray:5.0,5.0;" x1="655" x2="655" y1="37.6094" y2="358.4219"/><line style="stroke:#181818;stroke-width:0.5;fill:none;stroke-dasharray:5.0,5.0;" x1="909" x2="909" y1="37.6094" y2="358.4219"/><line style="stroke:#181818;stroke-width:0.5;fill:none;stroke-dasharray:5.0,5.0;" x1="1035" x2="1035" y1="37.6094" y2="358.4219"/><line style="stroke:#181818;stroke-width:0.5;fill:none;stroke-dasharray:5.0,5.0;" x1="1156" x2="1156" y1="37.6094" y2="358.4219"/><rect fill="#E2E2F0" height="31.6094" rx="2.5" ry="2.5" style="stroke:#181818;stroke-width:0.5;" width="97" x="20" y="5"/><text fill="#000000" font-family="sans-serif" font-size="14" lengthAdjust="spacing" textLength="83" x="27" y="26.5332">Administrator</text><rect fill="#E2E2F0" height="31.6094" rx="2.5" ry="2.5" style="stroke:#181818;stroke-width:0.5;" width="97" x="20" y="357.4219"/><text fill="#000000" font-family="sans-serif" font-size="14" lengthAdjust="spacing" textLength="83" x="27" y="378.9551">Administrator</text><rect fill="#E2E2F0" height="31.6094" rx="2.5" ry="2.5" style="stroke:#181818;stroke-width:0.5;" width="119" x="189" y="5"/><text fill="#000000" font-family="sans-serif" font-size="14" lengthAdjust="spacing" textLength="105" x="196" y="26.5332">:LoadSetUsersUI</text><rect fill="#E2E2F0" height="31.6094" rx="2.5" ry="2.5" style="stroke:#181818;stroke-width:0.5;" width="119" x="189" y="357.4219"/><text fill="#000000" font-family="sans-serif" font-size="14" lengthAdjust="spacing" textLength="105" x="196" y="378.9551">:LoadSetUsersUI</text><rect fill="#E2E2F0" height="31.6094" rx="2.5" ry="2.5" style="stroke:#181818;stroke-width:0.5;" width="169" x="318" y="5"/><text fill="#000000" font-family="sans-serif" font-size="14" lengthAdjust="spacing" textLength="155" x="325" y="26.5332">:LoadSetUsersController</text><rect fill="#E2E2F0" height="31.6094" rx="2.5" ry="2.5" style="stroke:#181818;stroke-width:0.5;" width="169" x="318" y="357.4219"/><text fill="#000000" font-family="sans-serif" font-size="14" lengthAdjust="spacing" textLength="155" x="325" y="378.9551">:LoadSetUsersController</text><rect fill="#E2E2F0" height="31.6094" rx="2.5" ry="2.5" style="stroke:#181818;stroke-width:0.5;" width="78" x="497" y="5"/><text fill="#000000" font-family="sans-serif" font-size="14" lengthAdjust="spacing" textLength="64" x="504" y="26.5332">:Company</text><rect fill="#E2E2F0" height="31.6094" rx="2.5" ry="2.5" style="stroke:#181818;stroke-width:0.5;" width="78" x="497" y="357.4219"/><text fill="#000000" font-family="sans-serif" font-size="14" lengthAdjust="spacing" textLength="64" x="504" y="378.9551">:Company</text><rect fill="#E2E2F0" height="31.6094" rx="2.5" ry="2.5" style="stroke:#181818;stroke-width:0.5;" width="141" x="585" y="5"/><text fill="#000000" font-family="sans-serif" font-size="14" lengthAdjust="spacing" textLength="127" x="592" y="26.5332">:LoadSetUsersStore</text><rect fill="#E2E2F0" height="31.6094" rx="2.5" ry="2.5" style="stroke:#181818;stroke-width:0.5;" width="141" x="585" y="357.4219"/><text fill="#000000" font-family="sans-serif" font-size="14" lengthAdjust="spacing" textLength="127" x="592" y="378.9551">:LoadSetUsersStore</text><rect fill="#E2E2F0" height="31.6094" rx="2.5" ry="2.5" style="stroke:#181818;stroke-width:0.5;" width="95" x="862" y="5"/><text fill="#000000" font-family="sans-serif" font-size="14" lengthAdjust="spacing" textLength="81" x="869" y="26.5332">:AuthFacade</text><rect fill="#E2E2F0" height="31.6094" rx="2.5" ry="2.5" style="stroke:#181818;stroke-width:0.5;" width="95" x="862" y="357.4219"/><text fill="#000000" font-family="sans-serif" font-size="14" lengthAdjust="spacing" textLength="81" x="869" y="378.9551">:AuthFacade</text><rect fill="#E2E2F0" height="31.6094" rx="2.5" ry="2.5" style="stroke:#181818;stroke-width:0.5;" width="93" x="989" y="5"/><text fill="#000000" font-family="sans-serif" font-size="14" lengthAdjust="spacing" textLength="79" x="996" y="26.5332">su: SNSUser</text><rect fill="#E2E2F0" height="31.6094" rx="2.5" ry="2.5" style="stroke:#181818;stroke-width:0.5;" width="93" x="989" y="357.4219"/><text fill="#000000" font-family="sans-serif" font-size="14" lengthAdjust="spacing" textLength="79" x="996" y="378.9551">su: SNSUser</text><rect fill="#E2E2F0" height="31.6094" rx="2.5" ry="2.5" style="stroke:#181818;stroke-width:0.5;" width="129" x="1092" y="5"/><text fill="#000000" font-family="sans-serif" font-size="14" lengthAdjust="spacing" textLength="115" x="1099" y="26.5332">:RandomPassGen</text><rect fill="#E2E2F0" height="31.6094" rx="2.5" ry="2.5" style="stroke:#181818;stroke-width:0.5;" width="129" x="1092" y="357.4219"/><text fill="#000000" font-family="sans-serif" font-size="14" lengthAdjust="spacing" textLength="115" x="1099" y="378.9551">:RandomPassGen</text><rect fill="#FFFFFF" height="28" style="stroke:#181818;stroke-width:1.0;" width="10" x="650.5" y="133.6641"/><polygon fill="#181818" points="524,65.9609,534,69.9609,524,73.9609,528,69.9609" style="stroke:#181818;stroke-width:1.0;"/><line style="stroke:#181818;stroke-width:1.0;" x1="402.5" x2="530" y1="69.9609" y2="69.9609"/><text fill="#000000" font-family="sans-serif" font-size="13" font-weight="bold" lengthAdjust="spacing" textLength="7" x="409.5" y="65.1045">1</text><text fill="#000000" font-family="sans-serif" font-size="13" lengthAdjust="spacing" textLength="96" x="420.5" y="65.1045">getAuthFacade()</text><path d="M10,84.9609 L83,84.9609 L83,93.3125 L73,103.3125 L10,103.3125 L10,84.9609 " fill="#EEEEEE" style="stroke:#000000;stroke-width:1.5;"/><rect fill="none" height="256.4609" style="stroke:#000000;stroke-width:1.5;" width="1221" x="10" y="84.9609"/><text fill="#000000" font-family="sans-serif" font-size="13" font-weight="bold" lengthAdjust="spacing" textLength="28" x="25" y="99.4561">loop</text><line style="stroke:#181818;stroke-width:1.0;" x1="660.5" x2="702.5" y1="125.6641" y2="125.6641"/><line style="stroke:#181818;stroke-width:1.0;" x1="702.5" x2="702.5" y1="125.6641" y2="138.6641"/><line style="stroke:#181818;stroke-width:1.0;" x1="661.5" x2="702.5" y1="138.6641" y2="138.6641"/><polygon fill="#181818" points="671.5,134.6641,661.5,138.6641,671.5,142.6641,667.5,138.6641" style="stroke:#181818;stroke-width:1.0;"/><text fill="#000000" font-family="sans-serif" font-size="13" font-weight="bold" lengthAdjust="spacing" textLength="7" x="667.5" y="120.8076">2</text><text fill="#000000" font-family="sans-serif" font-size="13" lengthAdjust="spacing" textLength="167" x="678.5" y="120.8076">getSNSUserLoginAttributes()</text><polygon fill="#181818" points="1144.5,195.0156,1154.5,199.0156,1144.5,203.0156,1148.5,199.0156" style="stroke:#181818;stroke-width:1.0;"/><line style="stroke:#181818;stroke-width:1.0;" x1="655.5" x2="1150.5" y1="199.0156" y2="199.0156"/><text fill="#000000" font-family="sans-serif" font-size="13" font-weight="bold" lengthAdjust="spacing" textLength="7" x="662.5" y="194.1592">3</text><text fill="#000000" font-family="sans-serif" font-size="13" lengthAdjust="spacing" textLength="108" x="673.5" y="194.1592">requestPassword()</text><polygon fill="#181818" points="666.5,225.3672,656.5,229.3672,666.5,233.3672,662.5,229.3672" style="stroke:#181818;stroke-width:1.0;"/><line style="stroke:#181818;stroke-width:1.0;stroke-dasharray:2.0,2.0;" x1="660.5" x2="1155.5" y1="229.3672" y2="229.3672"/><text fill="#000000" font-family="sans-serif" font-size="13" font-weight="bold" lengthAdjust="spacing" textLength="7" x="672.5" y="224.5107">4</text><text fill="#000000" font-family="sans-serif" font-size="13" lengthAdjust="spacing" textLength="92" x="683.5" y="224.5107">return password</text><polygon fill="#181818" points="897.5,255.7188,907.5,259.7188,897.5,263.7188,901.5,259.7188" style="stroke:#181818;stroke-width:1.0;"/><line style="stroke:#181818;stroke-width:1.0;" x1="655.5" x2="903.5" y1="259.7188" y2="259.7188"/><text fill="#000000" font-family="sans-serif" font-size="13" font-weight="bold" lengthAdjust="spacing" textLength="7" x="662.5" y="254.8623">5</text><text fill="#000000" font-family="sans-serif" font-size="13" lengthAdjust="spacing" textLength="219" x="673.5" y="254.8623">createSnsUserLogin(name,email,pwd)</text><line style="stroke:#181818;stroke-width:1.0;" x1="909.5" x2="951.5" y1="290.0703" y2="290.0703"/><line style="stroke:#181818;stroke-width:1.0;" x1="951.5" x2="951.5" y1="290.0703" y2="303.0703"/><line style="stroke:#181818;stroke-width:1.0;" x1="910.5" x2="951.5" y1="303.0703" y2="303.0703"/><polygon fill="#181818" points="920.5,299.0703,910.5,303.0703,920.5,307.0703,916.5,303.0703" style="stroke:#181818;stroke-width:1.0;"/><text fill="#000000" font-family="sans-serif" font-size="13" font-weight="bold" lengthAdjust="spacing" textLength="7" x="916.5" y="285.2139">6</text><text fill="#000000" font-family="sans-serif" font-size="13" lengthAdjust="spacing" textLength="101" x="927.5" y="285.2139">validateSnsUser()</text><polygon fill="#181818" points="79.5,329.4219,69.5,333.4219,79.5,337.4219,75.5,333.4219" style="stroke:#181818;stroke-width:1.0;"/><line style="stroke:#181818;stroke-width:1.0;stroke-dasharray:2.0,2.0;" x1="73.5" x2="247.5" y1="333.4219" y2="333.4219"/><text fill="#000000" font-family="sans-serif" font-size="13" font-weight="bold" lengthAdjust="spacing" textLength="7" x="85.5" y="328.5654">7</text><text fill="#000000" font-family="sans-serif" font-size="13" lengthAdjust="spacing" textLength="145" x="96.5" y="328.5654">inform operation success</text><!--MD5=[4df65525b31a5df475814deb1e4b1c85]
@startuml
'https://plantuml.com/sequence-diagram

autonumber
'hide footbox
participant "Administrator" as ADM
participant ":LoadSetUsersUI" as UI
participant ":LoadSetUsersController" as CTRL
participant ":Company" as COMP
participant ":LoadSetUsersStore" as ST
participant ":AuthFacade" as AF
participant "su: SNSUser" as SU
participant ":RandomPassGen" as RPG

CTRL -> COMP: getAuthFacade()
loop

ST -> ST: getSNSUserLoginAttributes()
activate ST
deactivate ST

ST -> RPG: requestPassword()
RPG - -> ST: return password
ST -> AF: createSnsUserLogin(name,email,pwd)
AF -> AF: validateSnsUser()
UI - -> ADM: inform operation success
end



@enduml

@startuml

autonumber
participant "Administrator" as ADM
participant ":LoadSetUsersUI" as UI
participant ":LoadSetUsersController" as CTRL
participant ":Company" as COMP
participant ":LoadSetUsersStore" as ST
participant ":AuthFacade" as AF
participant "su: SNSUser" as SU
participant ":RandomPassGen" as RPG

CTRL -> COMP: getAuthFacade()
loop

ST -> ST: getSNSUserLoginAttributes()
activate ST
deactivate ST

ST -> RPG: requestPassword()
RPG - -> ST: return password
ST -> AF: createSnsUserLogin(name,email,pwd)
AF -> AF: validateSnsUser()
UI - -> ADM: inform operation success
end



@enduml

PlantUML version 1.2022.4(Sat Apr 09 14:29:17 BST 2022)
(GPL source distribution)
Java Runtime: OpenJDK Runtime Environment
JVM: OpenJDK 64-Bit Server VM
Default Encoding: Cp1252
Language: pt
Country: PT
--></g></svg>