<?xml version="1.0" encoding="UTF-8" standalone="no"?><svg xmlns="http://www.w3.org/2000/svg" xmlns:xlink="http://www.w3.org/1999/xlink" contentScriptType="application/ecmascript" contentStyleType="text/css" height="591.5px" preserveAspectRatio="none" style="width:551px;height:591px;background:#FFFFFF;" version="1.1" viewBox="0 0 551 591" width="551.6px" zoomAndPan="magnify"><defs><filter height="300%" id="f19zbhwntfd5rr" width="300%" x="-1" y="-1"><feGaussianBlur result="blurOut" stdDeviation="1.3999999999999997"/><feColorMatrix in="blurOut" result="blurOut2" type="matrix" values="0 0 0 0 0 0 0 0 0 0 0 0 0 0 0 0 0 0 .4 0"/><feOffset dx="2.7999999999999994" dy="2.7999999999999994" in="blurOut2" result="blurOut3"/><feBlend in="SourceGraphic" in2="blurOut3" mode="normal"/></filter></defs><g><!--MD5=[02e4b9b7573f1156f41e60aa5b4e25a4]
class Company--><rect codeLine="3" fill="#FEFECE" filter="url(#f19zbhwntfd5rr)" height="43.2852" id="Company" style="stroke:#A80036;stroke-width:1.0499999999999998;" width="59.5" x="343.7" y="100.8"/><ellipse cx="354.2" cy="112" fill="#ADD1B2" rx="7.7" ry="7.7" style="stroke:#A80036;stroke-width:0.6999999999999998;"/><path d="M355.6,109.55 Q355.7422,109.2 355.9062,109.025 Q356.0703,108.85 356.2562,108.85 Q356.5844,108.85 356.7922,109.0469 Q357,109.2437 357,109.7031 L357,110.7969 Q357,111.2562 356.8031,111.4531 Q356.6062,111.65 356.3,111.65 Q356.0266,111.65 355.8516,111.5297 Q355.6766,111.4094 355.6,111.0922 Q355.5672,110.8734 355.4469,110.7531 Q355.2281,110.5234 354.8344,110.3922 Q354.4406,110.25 354.0469,110.25 Q353.5547,110.25 353.1391,110.4469 Q352.7344,110.6437 352.4172,111.0812 Q352.1,111.5187 352.1,112.1203 L352.1,112.7656 Q352.1,113.4875 352.6906,113.9687 Q353.2812,114.45 354.3312,114.45 Q354.9547,114.45 355.3922,114.3078 Q355.6437,114.2312 355.9281,113.9797 Q356.1141,113.8375 356.2125,113.7937 Q356.3109,113.75 356.4312,113.75 Q356.6609,113.75 356.825,113.9359 Q357,114.1109 357,114.3625 Q357,114.6031 356.7594,114.8875 Q356.4094,115.3031 355.8516,115.5328 Q355.1187,115.85 354.2219,115.85 Q353.1719,115.85 352.3297,115.4344 Q351.6516,115.1062 351.1703,114.3953 Q350.7,113.6844 350.7,112.8422 L350.7,112.0766 Q350.7,111.2016 351.1156,110.4359 Q351.5422,109.6703 352.275,109.2656 Q353.0187,108.85 353.85,108.85 Q354.3531,108.85 354.7906,109.025 Q355.2281,109.2 355.6,109.55 Z " fill="#000000"/><text fill="#000000" font-family="sans-serif" font-size="8.4" lengthAdjust="spacing" textLength="37.1" x="364" y="115.4371">Company</text><line style="stroke:#A80036;stroke-width:1.0499999999999998;" x1="344.4" x2="402.5" y1="123.2" y2="123.2"/><rect fill="none" height="4.2" style="stroke:#C82930;stroke-width:0.6999999999999998;" width="4.2" x="349.3" y="128.8"/><text fill="#000000" font-family="sans-serif" font-size="7.7" lengthAdjust="spacing" textLength="38.5" x="357.7" y="133.9933">designation</text><line style="stroke:#A80036;stroke-width:1.0499999999999998;" x1="344.4" x2="402.5" y1="138.4852" y2="138.4852"/><!--MD5=[c0b08d178837a683c9b037d304e09f33]
class LoadSetUsersUI--><rect codeLine="7" fill="#FEFECE" filter="url(#f19zbhwntfd5rr)" height="33.6" id="LoadSetUsersUI" style="stroke:#A80036;stroke-width:1.0499999999999998;" width="86.8" x="204.05" y="14.7"/><ellipse cx="214.55" cy="25.9" fill="#ADD1B2" rx="7.7" ry="7.7" style="stroke:#A80036;stroke-width:0.6999999999999998;"/><path d="M215.95,23.45 Q216.0922,23.1 216.2562,22.925 Q216.4203,22.75 216.6062,22.75 Q216.9344,22.75 217.1422,22.9469 Q217.35,23.1437 217.35,23.6031 L217.35,24.6969 Q217.35,25.1562 217.1531,25.3531 Q216.9562,25.55 216.65,25.55 Q216.3766,25.55 216.2016,25.4297 Q216.0266,25.3094 215.95,24.9922 Q215.9172,24.7734 215.7969,24.6531 Q215.5781,24.4234 215.1844,24.2922 Q214.7906,24.15 214.3969,24.15 Q213.9047,24.15 213.4891,24.3469 Q213.0844,24.5437 212.7672,24.9812 Q212.45,25.4187 212.45,26.0203 L212.45,26.6656 Q212.45,27.3875 213.0406,27.8687 Q213.6312,28.35 214.6812,28.35 Q215.3047,28.35 215.7422,28.2078 Q215.9937,28.1312 216.2781,27.8797 Q216.4641,27.7375 216.5625,27.6937 Q216.6609,27.65 216.7812,27.65 Q217.0109,27.65 217.175,27.8359 Q217.35,28.0109 217.35,28.2625 Q217.35,28.5031 217.1094,28.7875 Q216.7594,29.2031 216.2016,29.4328 Q215.4687,29.75 214.5719,29.75 Q213.5219,29.75 212.6797,29.3344 Q212.0016,29.0062 211.5203,28.2953 Q211.05,27.5844 211.05,26.7422 L211.05,25.9766 Q211.05,25.1016 211.4656,24.3359 Q211.8922,23.5703 212.625,23.1656 Q213.3687,22.75 214.2,22.75 Q214.7031,22.75 215.1406,22.925 Q215.5781,23.1 215.95,23.45 Z " fill="#000000"/><text fill="#000000" font-family="sans-serif" font-size="8.4" lengthAdjust="spacing" textLength="64.4" x="224.35" y="29.3371">LoadSetUsersUI</text><line style="stroke:#A80036;stroke-width:1.0499999999999998;" x1="204.75" x2="290.15" y1="37.1" y2="37.1"/><line style="stroke:#A80036;stroke-width:1.0499999999999998;" x1="204.75" x2="290.15" y1="42.7" y2="42.7"/><!--MD5=[58edd983ec3736f5b380935d2f47a796]
class LoadSetUsersController--><rect codeLine="13" fill="#FEFECE" filter="url(#f19zbhwntfd5rr)" height="52.9703" id="LoadSetUsersController" style="stroke:#A80036;stroke-width:1.0499999999999998;" width="116.2" x="315.35" y="4.9"/><ellipse cx="325.85" cy="16.1" fill="#ADD1B2" rx="7.7" ry="7.7" style="stroke:#A80036;stroke-width:0.6999999999999998;"/><path d="M327.25,13.65 Q327.3922,13.3 327.5562,13.125 Q327.7203,12.95 327.9062,12.95 Q328.2344,12.95 328.4422,13.1469 Q328.65,13.3437 328.65,13.8031 L328.65,14.8969 Q328.65,15.3562 328.4531,15.5531 Q328.2562,15.75 327.95,15.75 Q327.6766,15.75 327.5016,15.6297 Q327.3266,15.5094 327.25,15.1922 Q327.2172,14.9734 327.0969,14.8531 Q326.8781,14.6234 326.4844,14.4922 Q326.0906,14.35 325.6969,14.35 Q325.2047,14.35 324.7891,14.5469 Q324.3844,14.7437 324.0672,15.1812 Q323.75,15.6187 323.75,16.2203 L323.75,16.8656 Q323.75,17.5875 324.3406,18.0687 Q324.9312,18.55 325.9812,18.55 Q326.6047,18.55 327.0422,18.4078 Q327.2937,18.3312 327.5781,18.0797 Q327.7641,17.9375 327.8625,17.8937 Q327.9609,17.85 328.0812,17.85 Q328.3109,17.85 328.475,18.0359 Q328.65,18.2109 328.65,18.4625 Q328.65,18.7031 328.4094,18.9875 Q328.0594,19.4031 327.5016,19.6328 Q326.7687,19.95 325.8719,19.95 Q324.8219,19.95 323.9797,19.5344 Q323.3016,19.2062 322.8203,18.4953 Q322.35,17.7844 322.35,16.9422 L322.35,16.1766 Q322.35,15.3016 322.7656,14.5359 Q323.1922,13.7703 323.925,13.3656 Q324.6687,12.95 325.5,12.95 Q326.0031,12.95 326.4406,13.125 Q326.8781,13.3 327.25,13.65 Z " fill="#000000"/><text fill="#000000" font-family="sans-serif" font-size="8.4" lengthAdjust="spacing" textLength="93.8" x="335.65" y="19.5371">LoadSetUsersController</text><line style="stroke:#A80036;stroke-width:1.0499999999999998;" x1="316.05" x2="430.85" y1="27.3" y2="27.3"/><line style="stroke:#A80036;stroke-width:1.0499999999999998;" x1="316.05" x2="430.85" y1="32.9" y2="32.9"/><ellipse cx="323.05" cy="40.6" fill="#84BE84" rx="2.1" ry="2.1" style="stroke:#038048;stroke-width:0.6999999999999998;"/><text fill="#000000" font-family="sans-serif" font-size="7.7" lengthAdjust="spacing" textLength="82.6" x="329.35" y="43.6933">getLoadSetUsersStore()</text><ellipse cx="323.05" cy="50.2852" fill="#84BE84" rx="2.1" ry="2.1" style="stroke:#038048;stroke-width:0.6999999999999998;"/><text fill="#000000" font-family="sans-serif" font-size="7.7" lengthAdjust="spacing" textLength="51.8" x="329.35" y="53.3784">saveSnsUser()</text><!--MD5=[93af8b4494db78ec46e98fad8955a5aa]
class UserStore--><rect codeLine="18" fill="#FEFECE" filter="url(#f19zbhwntfd5rr)" height="120.7664" id="UserStore" style="stroke:#A80036;stroke-width:1.0499999999999998;" width="150.5" x="298.2" y="242.2"/><ellipse cx="350.875" cy="253.4" fill="#ADD1B2" rx="7.7" ry="7.7" style="stroke:#A80036;stroke-width:0.6999999999999998;"/><path d="M352.275,250.95 Q352.4172,250.6 352.5812,250.425 Q352.7453,250.25 352.9312,250.25 Q353.2594,250.25 353.4672,250.4469 Q353.675,250.6437 353.675,251.1031 L353.675,252.1969 Q353.675,252.6562 353.4781,252.8531 Q353.2812,253.05 352.975,253.05 Q352.7016,253.05 352.5266,252.9297 Q352.3516,252.8094 352.275,252.4922 Q352.2422,252.2734 352.1219,252.1531 Q351.9031,251.9234 351.5094,251.7922 Q351.1156,251.65 350.7219,251.65 Q350.2297,251.65 349.8141,251.8469 Q349.4094,252.0437 349.0922,252.4812 Q348.775,252.9187 348.775,253.5203 L348.775,254.1656 Q348.775,254.8875 349.3656,255.3687 Q349.9562,255.85 351.0062,255.85 Q351.6297,255.85 352.0672,255.7078 Q352.3187,255.6312 352.6031,255.3797 Q352.7891,255.2375 352.8875,255.1937 Q352.9859,255.15 353.1062,255.15 Q353.3359,255.15 353.5,255.3359 Q353.675,255.5109 353.675,255.7625 Q353.675,256.0031 353.4344,256.2875 Q353.0844,256.7031 352.5266,256.9328 Q351.7937,257.25 350.8969,257.25 Q349.8469,257.25 349.0047,256.8344 Q348.3266,256.5062 347.8453,255.7953 Q347.375,255.0844 347.375,254.2422 L347.375,253.4766 Q347.375,252.6016 347.7906,251.8359 Q348.2172,251.0703 348.95,250.6656 Q349.6937,250.25 350.525,250.25 Q351.0281,250.25 351.4656,250.425 Q351.9031,250.6 352.275,250.95 Z " fill="#000000"/><text fill="#000000" font-family="sans-serif" font-size="8.4" lengthAdjust="spacing" textLength="39.2" x="365.225" y="256.8371">UserStore</text><line style="stroke:#A80036;stroke-width:1.0499999999999998;" x1="298.9" x2="448" y1="264.6" y2="264.6"/><ellipse cx="305.9" cy="272.3" fill="none" rx="2.1" ry="2.1" style="stroke:#038048;stroke-width:0.6999999999999998;"/><text fill="#000000" font-family="sans-serif" font-size="7.7" lengthAdjust="spacing" textLength="69.3" x="312.2" y="275.3933">checkUserExistence</text><line style="stroke:#A80036;stroke-width:1.0499999999999998;" x1="298.9" x2="448" y1="279.8852" y2="279.8852"/><ellipse cx="305.9" cy="287.5852" fill="#84BE84" rx="2.1" ry="2.1" style="stroke:#038048;stroke-width:0.6999999999999998;"/><text fill="#000000" font-family="sans-serif" font-size="7.7" lengthAdjust="spacing" textLength="129.5" x="312.2" y="290.6784">loadSetUsers(.csv file name and path)</text><ellipse cx="305.9" cy="297.2703" fill="#84BE84" rx="2.1" ry="2.1" style="stroke:#038048;stroke-width:0.6999999999999998;"/><text fill="#000000" font-family="sans-serif" font-size="7.7" lengthAdjust="spacing" textLength="132.3" x="312.2" y="300.3636">checkFileType(.csv file name and path)</text><ellipse cx="305.9" cy="306.9555" fill="#84BE84" rx="2.1" ry="2.1" style="stroke:#038048;stroke-width:0.6999999999999998;"/><text fill="#000000" font-family="sans-serif" font-size="7.7" lengthAdjust="spacing" textLength="113.4" x="312.2" y="310.0487">readLine(.csv file name and path)</text><ellipse cx="305.9" cy="316.6406" fill="#84BE84" rx="2.1" ry="2.1" style="stroke:#038048;stroke-width:0.6999999999999998;"/><text fill="#000000" font-family="sans-serif" font-size="7.7" lengthAdjust="spacing" textLength="64.4" x="312.2" y="319.7339">validateAttributes()</text><ellipse cx="305.9" cy="326.3258" fill="#84BE84" rx="2.1" ry="2.1" style="stroke:#038048;stroke-width:0.6999999999999998;"/><text fill="#000000" font-family="sans-serif" font-size="7.7" lengthAdjust="spacing" textLength="72.1" x="312.2" y="329.419">setVariablesValues()</text><ellipse cx="305.9" cy="336.0109" fill="#84BE84" rx="2.1" ry="2.1" style="stroke:#038048;stroke-width:0.6999999999999998;"/><text fill="#000000" font-family="sans-serif" font-size="7.7" lengthAdjust="spacing" textLength="60.2" x="312.2" y="339.1042">saveSnsUser(su)</text><ellipse cx="305.9" cy="345.6961" fill="#84BE84" rx="2.1" ry="2.1" style="stroke:#038048;stroke-width:0.6999999999999998;"/><text fill="#000000" font-family="sans-serif" font-size="7.7" lengthAdjust="spacing" textLength="69.3" x="312.2" y="348.7894">validateSnsUser(su)</text><ellipse cx="305.9" cy="355.3812" fill="#84BE84" rx="2.1" ry="2.1" style="stroke:#038048;stroke-width:0.6999999999999998;"/><text fill="#000000" font-family="sans-serif" font-size="7.7" lengthAdjust="spacing" textLength="56" x="312.2" y="358.4745">addSnsUser(su)</text><!--MD5=[c4593935f45e4a2a0cefc4788932b53f]
class SnsUser--><rect codeLine="30" fill="#FEFECE" filter="url(#f19zbhwntfd5rr)" height="120.7664" id="SnsUser" style="stroke:#A80036;stroke-width:1.0499999999999998;" width="297.5" x="4.9" y="461.3"/><ellipse cx="133.525" cy="472.5" fill="#ADD1B2" rx="7.7" ry="7.7" style="stroke:#A80036;stroke-width:0.6999999999999998;"/><path d="M134.925,470.05 Q135.0672,469.7 135.2312,469.525 Q135.3953,469.35 135.5812,469.35 Q135.9094,469.35 136.1172,469.5469 Q136.325,469.7437 136.325,470.2031 L136.325,471.2969 Q136.325,471.7562 136.1281,471.9531 Q135.9312,472.15 135.625,472.15 Q135.3516,472.15 135.1766,472.0297 Q135.0016,471.9094 134.925,471.5922 Q134.8922,471.3734 134.7719,471.2531 Q134.5531,471.0234 134.1594,470.8922 Q133.7656,470.75 133.3719,470.75 Q132.8797,470.75 132.4641,470.9469 Q132.0594,471.1437 131.7422,471.5812 Q131.425,472.0187 131.425,472.6203 L131.425,473.2656 Q131.425,473.9875 132.0156,474.4687 Q132.6062,474.95 133.6562,474.95 Q134.2797,474.95 134.7172,474.8078 Q134.9687,474.7312 135.2531,474.4797 Q135.4391,474.3375 135.5375,474.2937 Q135.6359,474.25 135.7562,474.25 Q135.9859,474.25 136.15,474.4359 Q136.325,474.6109 136.325,474.8625 Q136.325,475.1031 136.0844,475.3875 Q135.7344,475.8031 135.1766,476.0328 Q134.4437,476.35 133.5469,476.35 Q132.4969,476.35 131.6547,475.9344 Q130.9766,475.6062 130.4953,474.8953 Q130.025,474.1844 130.025,473.3422 L130.025,472.5766 Q130.025,471.7016 130.4406,470.9359 Q130.8672,470.1703 131.6,469.7656 Q132.3437,469.35 133.175,469.35 Q133.6781,469.35 134.1156,469.525 Q134.5531,469.7 134.925,470.05 Z " fill="#000000"/><text fill="#000000" font-family="sans-serif" font-size="8.4" lengthAdjust="spacing" textLength="34.3" x="147.875" y="475.9371">SnsUser</text><line style="stroke:#A80036;stroke-width:1.0499999999999998;" x1="5.6" x2="301.7" y1="483.7" y2="483.7"/><text fill="#000000" font-family="sans-serif" font-size="7.7" lengthAdjust="spacing" textLength="18.2" x="9.1" y="494.4933">name</text><text fill="#000000" font-family="sans-serif" font-size="7.7" lengthAdjust="spacing" textLength="30.1" x="9.1" y="504.1784">birthDate</text><text fill="#000000" font-family="sans-serif" font-size="7.7" lengthAdjust="spacing" textLength="40.6" x="9.1" y="513.8636">SNSNumber</text><text fill="#000000" font-family="sans-serif" font-size="7.7" lengthAdjust="spacing" textLength="46.9" x="9.1" y="523.5487">phoneNumber</text><text fill="#000000" font-family="sans-serif" font-size="7.7" lengthAdjust="spacing" textLength="16.8" x="9.1" y="533.2339">email</text><text fill="#000000" font-family="sans-serif" font-size="7.7" lengthAdjust="spacing" textLength="12.6" x="9.1" y="542.919">sex</text><text fill="#000000" font-family="sans-serif" font-size="7.7" lengthAdjust="spacing" textLength="28" x="9.1" y="552.6042">address</text><text fill="#000000" font-family="sans-serif" font-size="7.7" lengthAdjust="spacing" textLength="44.1" x="9.1" y="562.2894">citizenCardID</text><line style="stroke:#A80036;stroke-width:1.0499999999999998;" x1="5.6" x2="301.7" y1="566.7812" y2="566.7812"/><ellipse cx="12.6" cy="574.4812" fill="#84BE84" rx="2.1" ry="2.1" style="stroke:#038048;stroke-width:0.6999999999999998;"/><text fill="#000000" font-family="sans-serif" font-size="7.7" lengthAdjust="spacing" textLength="279.3" x="18.9" y="577.5745">create(name,birthDate,SNSNumber,phoneNumber,email,sex,address,citizenCardID)</text><!--MD5=[e5db643fc14d97de8b8668b9bfe68df7]
class RandomPassGen--><rect codeLine="42" fill="#FEFECE" filter="url(#f19zbhwntfd5rr)" height="43.2852" id="RandomPassGen" style="stroke:#A80036;stroke-width:1.0499999999999998;" width="92.4" x="327.25" y="500.15"/><ellipse cx="337.75" cy="511.35" fill="#ADD1B2" rx="7.7" ry="7.7" style="stroke:#A80036;stroke-width:0.6999999999999998;"/><path d="M339.15,508.9 Q339.2922,508.55 339.4562,508.375 Q339.6203,508.2 339.8062,508.2 Q340.1344,508.2 340.3422,508.3969 Q340.55,508.5937 340.55,509.0531 L340.55,510.1469 Q340.55,510.6062 340.3531,510.8031 Q340.1562,511 339.85,511 Q339.5766,511 339.4016,510.8797 Q339.2266,510.7594 339.15,510.4422 Q339.1172,510.2234 338.9969,510.1031 Q338.7781,509.8734 338.3844,509.7422 Q337.9906,509.6 337.5969,509.6 Q337.1047,509.6 336.6891,509.7969 Q336.2844,509.9937 335.9672,510.4312 Q335.65,510.8687 335.65,511.4703 L335.65,512.1156 Q335.65,512.8375 336.2406,513.3187 Q336.8312,513.8 337.8812,513.8 Q338.5047,513.8 338.9422,513.6578 Q339.1937,513.5812 339.4781,513.3297 Q339.6641,513.1875 339.7625,513.1437 Q339.8609,513.1 339.9812,513.1 Q340.2109,513.1 340.375,513.2859 Q340.55,513.4609 340.55,513.7125 Q340.55,513.9531 340.3094,514.2375 Q339.9594,514.6531 339.4016,514.8828 Q338.6687,515.2 337.7719,515.2 Q336.7219,515.2 335.8797,514.7844 Q335.2016,514.4562 334.7203,513.7453 Q334.25,513.0344 334.25,512.1922 L334.25,511.4266 Q334.25,510.5516 334.6656,509.7859 Q335.0922,509.0203 335.825,508.6156 Q336.5687,508.2 337.4,508.2 Q337.9031,508.2 338.3406,508.375 Q338.7781,508.55 339.15,508.9 Z " fill="#000000"/><text fill="#000000" font-family="sans-serif" font-size="8.4" lengthAdjust="spacing" textLength="70" x="347.55" y="514.7871">RandomPassGen</text><line style="stroke:#A80036;stroke-width:1.0499999999999998;" x1="327.95" x2="418.95" y1="522.55" y2="522.55"/><line style="stroke:#A80036;stroke-width:1.0499999999999998;" x1="327.95" x2="418.95" y1="528.15" y2="528.15"/><ellipse cx="334.95" cy="535.85" fill="#84BE84" rx="2.1" ry="2.1" style="stroke:#038048;stroke-width:0.6999999999999998;"/><text fill="#000000" font-family="sans-serif" font-size="7.7" lengthAdjust="spacing" textLength="66.5" x="341.25" y="538.9433">requestPassword()</text><!--MD5=[8ae808d068a8995f06b9b3ec51357f0b]
class AuthFacade--><rect codeLine="46" fill="#FEFECE" filter="url(#f19zbhwntfd5rr)" height="43.2852" id="AuthFacade" style="stroke:#A80036;stroke-width:1.0499999999999998;" width="97.3" x="444.5" y="500.15"/><ellipse cx="468.23" cy="511.35" fill="#ADD1B2" rx="7.7" ry="7.7" style="stroke:#A80036;stroke-width:0.6999999999999998;"/><path d="M469.63,508.9 Q469.7722,508.55 469.9362,508.375 Q470.1003,508.2 470.2862,508.2 Q470.6144,508.2 470.8222,508.3969 Q471.03,508.5937 471.03,509.0531 L471.03,510.1469 Q471.03,510.6062 470.8331,510.8031 Q470.6362,511 470.33,511 Q470.0566,511 469.8816,510.8797 Q469.7066,510.7594 469.63,510.4422 Q469.5972,510.2234 469.4769,510.1031 Q469.2581,509.8734 468.8644,509.7422 Q468.4706,509.6 468.0769,509.6 Q467.5847,509.6 467.1691,509.7969 Q466.7644,509.9937 466.4472,510.4312 Q466.13,510.8687 466.13,511.4703 L466.13,512.1156 Q466.13,512.8375 466.7206,513.3187 Q467.3112,513.8 468.3612,513.8 Q468.9847,513.8 469.4222,513.6578 Q469.6737,513.5812 469.9581,513.3297 Q470.1441,513.1875 470.2425,513.1437 Q470.3409,513.1 470.4612,513.1 Q470.6909,513.1 470.855,513.2859 Q471.03,513.4609 471.03,513.7125 Q471.03,513.9531 470.7894,514.2375 Q470.4394,514.6531 469.8816,514.8828 Q469.1487,515.2 468.2519,515.2 Q467.2019,515.2 466.3597,514.7844 Q465.6816,514.4562 465.2003,513.7453 Q464.73,513.0344 464.73,512.1922 L464.73,511.4266 Q464.73,510.5516 465.1456,509.7859 Q465.5722,509.0203 466.305,508.6156 Q467.0487,508.2 467.88,508.2 Q468.3831,508.2 468.8206,508.375 Q469.2581,508.55 469.63,508.9 Z " fill="#000000"/><text fill="#000000" font-family="sans-serif" font-size="8.4" lengthAdjust="spacing" textLength="45.5" x="480.97" y="514.7871">AuthFacade</text><line style="stroke:#A80036;stroke-width:1.0499999999999998;" x1="445.2" x2="541.1" y1="522.55" y2="522.55"/><line style="stroke:#A80036;stroke-width:1.0499999999999998;" x1="445.2" x2="541.1" y1="528.15" y2="528.15"/><text fill="#000000" font-family="sans-serif" font-size="7.7" lengthAdjust="spacing" textLength="88.9" x="448.7" y="538.9433">addUser(name,email,pwd)</text><!--MD5=[8bf51911f72a2d63def4ff3b26f77f1b]
link LoadSetUsersUI to LoadSetUsersController--><path codeLine="51" d="M291.011,31.5 C297.864,31.5 304.717,31.5 311.577,31.5 " fill="none" id="LoadSetUsersUI-to-LoadSetUsersController" style="stroke:#A80036;stroke-width:0.6999999999999998;"/><polygon fill="#A80036" points="315.161,31.5,308.861,28.7,311.661,31.5,308.861,34.3,315.161,31.5" style="stroke:#A80036;stroke-width:0.6999999999999998;"/><!--MD5=[b474fe797335f790f94057ec2f45aa92]
link LoadSetUsersController to Company--><path codeLine="52" d="M373.45,58.114 C373.45,70.385 373.45,84.973 373.45,97.09 " fill="none" id="LoadSetUsersController-to-Company" style="stroke:#A80036;stroke-width:0.6999999999999998;stroke-dasharray:7.0,7.0;"/><polygon fill="#A80036" points="373.45,100.765,376.25,94.465,373.45,97.265,370.65,94.465,373.45,100.765" style="stroke:#A80036;stroke-width:0.6999999999999998;"/><!--MD5=[102f1b3c68b20fc6574790ee0d106773]
link Company to UserStore--><path codeLine="54" d="M373.45,144.242 C373.45,168.161 373.45,208.257 373.45,242.053 " fill="none" id="Company-UserStore" style="stroke:#A80036;stroke-width:0.6999999999999998;"/><polygon fill="#000000" points="376.95,196.823,379.0072,190.4915,374.8928,190.4915,376.95,196.823" style="stroke:#000000;stroke-width:0.6999999999999998;"/><text fill="#000000" font-family="sans-serif" font-size="9.1" lengthAdjust="spacing" textLength="18.9" x="383.25" y="197.0466">calls</text><text fill="#000000" font-family="sans-serif" font-size="9.1" lengthAdjust="spacing" textLength="4.9" x="368.0677" y="159.1071">1</text><text fill="#000000" font-family="sans-serif" font-size="9.1" lengthAdjust="spacing" textLength="4.9" x="368.3395" y="234.6271">1</text><!--MD5=[808c637d6f888a7602760550c289aefb]
link UserStore to SnsUser--><path codeLine="55" d="M312.809,363.517 C282.058,393.974 244.818,430.85 214.095,461.279 " fill="none" id="UserStore-SnsUser" style="stroke:#A80036;stroke-width:0.6999999999999998;"/><polygon fill="#000000" points="270.1632,414.8859,276.1095,411.8923,273.2143,408.9688,270.1632,414.8859" style="stroke:#000000;stroke-width:0.6999999999999998;"/><text fill="#000000" font-family="sans-serif" font-size="9.1" lengthAdjust="spacing" textLength="18.9" x="278.95" y="416.1466">calls</text><text fill="#000000" font-family="sans-serif" font-size="9.1" lengthAdjust="spacing" textLength="4.9" x="303.0786" y="378.067">1</text><text fill="#000000" font-family="sans-serif" font-size="9.1" lengthAdjust="spacing" textLength="4.9" x="214.3602" y="453.658">1</text><!--MD5=[03480507a0767e45f007c008dbabb09a]
link UserStore to RandomPassGen--><path codeLine="56" d="M373.45,363.517 C373.45,408.947 373.45,468.678 373.45,499.961 " fill="none" id="UserStore-RandomPassGen" style="stroke:#A80036;stroke-width:0.6999999999999998;"/><polygon fill="#000000" points="376.95,415.923,379.0072,409.5915,374.8928,409.5915,376.95,415.923" style="stroke:#000000;stroke-width:0.6999999999999998;"/><text fill="#000000" font-family="sans-serif" font-size="9.1" lengthAdjust="spacing" textLength="18.9" x="383.25" y="416.1466">calls</text><text fill="#000000" font-family="sans-serif" font-size="9.1" lengthAdjust="spacing" textLength="4.9" x="368.3624" y="378.067">1</text><text fill="#000000" font-family="sans-serif" font-size="9.1" lengthAdjust="spacing" textLength="4.9" x="368.0447" y="492.5752">1</text><!--MD5=[ba7dd478e85e34f49ef47dc01dd33991]
link UserStore to AuthFacade--><path codeLine="57" d="M406.476,363.517 C431.459,408.947 464.296,468.678 481.502,499.961 " fill="none" id="UserStore-AuthFacade" style="stroke:#A80036;stroke-width:0.6999999999999998;"/><polygon fill="#000000" points="441.6364,415.49,440.3884,408.9506,436.783,410.9331,441.6364,415.49" style="stroke:#000000;stroke-width:0.6999999999999998;"/><text fill="#000000" font-family="sans-serif" font-size="9.1" lengthAdjust="spacing" textLength="18.9" x="446.25" y="416.1466">calls</text><text fill="#000000" font-family="sans-serif" font-size="9.1" lengthAdjust="spacing" textLength="4.9" x="403.917" y="378.067">1</text><text fill="#000000" font-family="sans-serif" font-size="9.1" lengthAdjust="spacing" textLength="4.9" x="473.6943" y="492.5752">1</text><!--MD5=[ca5f9ee536066bef0869ea26284db856]
@startuml
'https://plantuml.com/class-diagram

class Company{
- designation
}

class LoadSetUsersUI{

}



class LoadSetUsersController{
+ getLoadSetUsersStore()
+ saveSnsUser()
}

class UserStore{
+ loadSetUsers(.csv file name and path)
+ checkFileType(.csv file name and path)
+ readLine(.csv file name and path)
+ validateAttributes()
+ setVariablesValues()
+ checkUserExistence
+ saveSnsUser(su)
+ validateSnsUser(su)
+ addSnsUser(su)
}

class SnsUser{
   name
   birthDate
   SNSNumber
   phoneNumber
   email
   sex
   address
   citizenCardID
   +create(name,birthDate,SNSNumber,phoneNumber,email,sex,address,citizenCardID)
}

class RandomPassGen{
    + requestPassword()
}

class AuthFacade{
    addUser(name,email,pwd)

}

LoadSetUsersUI -> LoadSetUsersController
LoadSetUsersController ..> Company

Company "1" - - - "1" UserStore: > calls
UserStore "1" - - - "1" SnsUser: > calls
UserStore "1" - - - "1" RandomPassGen: > calls
UserStore "1" - - - "1" AuthFacade: > calls

@enduml

@startuml

class Company{
- designation
}

class LoadSetUsersUI{

}



class LoadSetUsersController{
+ getLoadSetUsersStore()
+ saveSnsUser()
}

class UserStore{
+ loadSetUsers(.csv file name and path)
+ checkFileType(.csv file name and path)
+ readLine(.csv file name and path)
+ validateAttributes()
+ setVariablesValues()
+ checkUserExistence
+ saveSnsUser(su)
+ validateSnsUser(su)
+ addSnsUser(su)
}

class SnsUser{
   name
   birthDate
   SNSNumber
   phoneNumber
   email
   sex
   address
   citizenCardID
   +create(name,birthDate,SNSNumber,phoneNumber,email,sex,address,citizenCardID)
}

class RandomPassGen{
    + requestPassword()
}

class AuthFacade{
    addUser(name,email,pwd)

}

LoadSetUsersUI -> LoadSetUsersController
LoadSetUsersController ..> Company

Company "1" - - - "1" UserStore: > calls
UserStore "1" - - - "1" SnsUser: > calls
UserStore "1" - - - "1" RandomPassGen: > calls
UserStore "1" - - - "1" AuthFacade: > calls

@enduml

PlantUML version 1.2022.1(Tue Feb 01 18:19:58 GMT 2022)
(GPL source distribution)
Java Runtime: OpenJDK Runtime Environment
JVM: OpenJDK 64-Bit Server VM
Default Encoding: Cp1252
Language: pt
Country: PT
--></g></svg>