<?xml version="1.0" encoding="UTF-8" standalone="no"?><svg xmlns="http://www.w3.org/2000/svg" xmlns:xlink="http://www.w3.org/1999/xlink" contentStyleType="text/css" height="472px" preserveAspectRatio="none" style="width:193px;height:472px;background:#FFFFFF;" version="1.1" viewBox="0 0 193 472" width="193px" zoomAndPan="magnify"><defs/><g><!--MD5=[02e4b9b7573f1156f41e60aa5b4e25a4]
class Company--><g id="elem_Company"><rect codeLine="3" fill="#F1F1F1" height="65.6094" id="Company" rx="2.5" ry="2.5" style="stroke:#181818;stroke-width:0.5;" width="92" x="26.5" y="7"/><ellipse cx="41.5" cy="23" fill="#ADD1B2" rx="11" ry="11" style="stroke:#181818;stroke-width:1.0;"/><path d="M43.5,19.5 Q43.7031,19 43.9375,18.75 Q44.1719,18.5 44.4375,18.5 Q44.9063,18.5 45.2031,18.7813 Q45.5,19.0625 45.5,19.7188 L45.5,21.2813 Q45.5,21.9375 45.2188,22.2188 Q44.9375,22.5 44.5,22.5 Q44.1094,22.5 43.8594,22.3281 Q43.6094,22.1563 43.5,21.7031 Q43.4531,21.3906 43.2813,21.2188 Q42.9688,20.8906 42.4063,20.7031 Q41.8438,20.5 41.2813,20.5 Q40.5781,20.5 39.9844,20.7813 Q39.4063,21.0625 38.9531,21.6875 Q38.5,22.3125 38.5,23.1719 L38.5,24.0938 Q38.5,25.125 39.3438,25.8125 Q40.1875,26.5 41.6875,26.5 Q42.5781,26.5 43.2031,26.2969 Q43.5625,26.1875 43.9688,25.8281 Q44.2344,25.625 44.375,25.5625 Q44.5156,25.5 44.6875,25.5 Q45.0156,25.5 45.25,25.7656 Q45.5,26.0156 45.5,26.375 Q45.5,26.7188 45.1563,27.125 Q44.6563,27.7188 43.8594,28.0469 Q42.8125,28.5 41.5313,28.5 Q40.0313,28.5 38.8281,27.9063 Q37.8594,27.4375 37.1719,26.4219 Q36.5,25.4063 36.5,24.2031 L36.5,23.1094 Q36.5,21.8594 37.0938,20.7656 Q37.7031,19.6719 38.75,19.0938 Q39.8125,18.5 41,18.5 Q41.7188,18.5 42.3438,18.75 Q42.9688,19 43.5,19.5 Z " fill="#000000"/><text fill="#000000" font-family="sans-serif" font-size="14" lengthAdjust="spacing" textLength="60" x="55.5" y="28.7285">Company</text><line style="stroke:#181818;stroke-width:0.5;" x1="27.5" x2="117.5" y1="39" y2="39"/><text fill="#000000" font-family="sans-serif" font-size="14" lengthAdjust="spacing" textLength="73" x="32.5" y="57.5332">designation</text><line style="stroke:#181818;stroke-width:0.5;" x1="27.5" x2="117.5" y1="64.6094" y2="64.6094"/></g><!--MD5=[f8e092794d52bf9a252466252ae7bd1c]
class System--><g id="elem_System"><rect codeLine="7" fill="#F1F1F1" height="48" id="System" rx="2.5" ry="2.5" style="stroke:#181818;stroke-width:0.5;" width="78" x="108.5" y="151"/><ellipse cx="123.5" cy="167" fill="#ADD1B2" rx="11" ry="11" style="stroke:#181818;stroke-width:1.0;"/><path d="M125.5,163.5 Q125.7031,163 125.9375,162.75 Q126.1719,162.5 126.4375,162.5 Q126.9063,162.5 127.2031,162.7813 Q127.5,163.0625 127.5,163.7188 L127.5,165.2813 Q127.5,165.9375 127.2188,166.2188 Q126.9375,166.5 126.5,166.5 Q126.1094,166.5 125.8594,166.3281 Q125.6094,166.1563 125.5,165.7031 Q125.4531,165.3906 125.2813,165.2188 Q124.9688,164.8906 124.4063,164.7031 Q123.8438,164.5 123.2813,164.5 Q122.5781,164.5 121.9844,164.7813 Q121.4063,165.0625 120.9531,165.6875 Q120.5,166.3125 120.5,167.1719 L120.5,168.0938 Q120.5,169.125 121.3438,169.8125 Q122.1875,170.5 123.6875,170.5 Q124.5781,170.5 125.2031,170.2969 Q125.5625,170.1875 125.9688,169.8281 Q126.2344,169.625 126.375,169.5625 Q126.5156,169.5 126.6875,169.5 Q127.0156,169.5 127.25,169.7656 Q127.5,170.0156 127.5,170.375 Q127.5,170.7188 127.1563,171.125 Q126.6563,171.7188 125.8594,172.0469 Q124.8125,172.5 123.5313,172.5 Q122.0313,172.5 120.8281,171.9063 Q119.8594,171.4375 119.1719,170.4219 Q118.5,169.4063 118.5,168.2031 L118.5,167.1094 Q118.5,165.8594 119.0938,164.7656 Q119.7031,163.6719 120.75,163.0938 Q121.8125,162.5 123,162.5 Q123.7188,162.5 124.3438,162.75 Q124.9688,163 125.5,163.5 Z " fill="#000000"/><text fill="#000000" font-family="sans-serif" font-size="14" lengthAdjust="spacing" textLength="46" x="137.5" y="172.7285">System</text><line style="stroke:#181818;stroke-width:0.5;" x1="109.5" x2="185.5" y1="183" y2="183"/><line style="stroke:#181818;stroke-width:0.5;" x1="109.5" x2="185.5" y1="191" y2="191"/></g><!--MD5=[72be06cc7ae02ccc98efe28a50e62246]
class SNSUser--><g id="elem_SNSUser"><rect codeLine="10" fill="#F1F1F1" height="188.875" id="SNSUser" rx="2.5" ry="2.5" style="stroke:#181818;stroke-width:0.5;" width="101" x="7" y="277"/><ellipse cx="27.85" cy="293" fill="#ADD1B2" rx="11" ry="11" style="stroke:#181818;stroke-width:1.0;"/><path d="M29.85,289.5 Q30.0531,289 30.2875,288.75 Q30.5219,288.5 30.7875,288.5 Q31.2563,288.5 31.5531,288.7813 Q31.85,289.0625 31.85,289.7188 L31.85,291.2813 Q31.85,291.9375 31.5688,292.2188 Q31.2875,292.5 30.85,292.5 Q30.4594,292.5 30.2094,292.3281 Q29.9594,292.1563 29.85,291.7031 Q29.8031,291.3906 29.6313,291.2188 Q29.3188,290.8906 28.7563,290.7031 Q28.1938,290.5 27.6313,290.5 Q26.9281,290.5 26.3344,290.7813 Q25.7563,291.0625 25.3031,291.6875 Q24.85,292.3125 24.85,293.1719 L24.85,294.0938 Q24.85,295.125 25.6938,295.8125 Q26.5375,296.5 28.0375,296.5 Q28.9281,296.5 29.5531,296.2969 Q29.9125,296.1875 30.3188,295.8281 Q30.5844,295.625 30.725,295.5625 Q30.8656,295.5 31.0375,295.5 Q31.3656,295.5 31.6,295.7656 Q31.85,296.0156 31.85,296.375 Q31.85,296.7188 31.5063,297.125 Q31.0063,297.7188 30.2094,298.0469 Q29.1625,298.5 27.8813,298.5 Q26.3813,298.5 25.1781,297.9063 Q24.2094,297.4375 23.5219,296.4219 Q22.85,295.4063 22.85,294.2031 L22.85,293.1094 Q22.85,291.8594 23.4438,290.7656 Q24.0531,289.6719 25.1,289.0938 Q26.1625,288.5 27.35,288.5 Q28.0688,288.5 28.6938,288.75 Q29.3188,289 29.85,289.5 Z " fill="#000000"/><text fill="#000000" font-family="sans-serif" font-size="14" lengthAdjust="spacing" textLength="56" x="43.15" y="298.7285">SNSUser</text><line style="stroke:#181818;stroke-width:0.5;" x1="8" x2="107" y1="309" y2="309"/><text fill="#000000" font-family="sans-serif" font-size="14" lengthAdjust="spacing" textLength="35" x="13" y="327.5332">name</text><text fill="#000000" font-family="sans-serif" font-size="14" lengthAdjust="spacing" textLength="58" x="13" y="345.1426">birthDate</text><text fill="#000000" font-family="sans-serif" font-size="14" lengthAdjust="spacing" textLength="76" x="13" y="362.752">SNSNumber</text><text fill="#000000" font-family="sans-serif" font-size="14" lengthAdjust="spacing" textLength="89" x="13" y="380.3613">phoneNumber</text><text fill="#000000" font-family="sans-serif" font-size="14" lengthAdjust="spacing" textLength="33" x="13" y="397.9707">email</text><text fill="#000000" font-family="sans-serif" font-size="14" lengthAdjust="spacing" textLength="21" x="13" y="415.5801">sex</text><text fill="#000000" font-family="sans-serif" font-size="14" lengthAdjust="spacing" textLength="51" x="13" y="433.1895">address</text><text fill="#000000" font-family="sans-serif" font-size="14" lengthAdjust="spacing" textLength="83" x="13" y="450.7988">citizenCardID</text><line style="stroke:#181818;stroke-width:0.5;" x1="8" x2="107" y1="457.875" y2="457.875"/></g><!--MD5=[a2a194d3aa0c5b34ec916a16bebf9a1a]
link Company to System--><g id="link_Company_System"><path codeLine="21" d="M90.66,73.2 C103.28,95.59 119.94,125.13 131.96,146.44 " fill="none" id="Company-to-System" style="stroke:#181818;stroke-width:1.0;"/><polygon fill="#181818" points="134.45,150.85,133.5133,141.0458,131.9939,146.4948,126.5449,144.9755,134.45,150.85" style="stroke:#181818;stroke-width:1.0;"/><polygon fill="#000000" points="123.9559,116.5311,122.0731,107.2087,116.9531,110.0959,123.9559,116.5311" style="stroke:#000000;stroke-width:1.0;"/><text fill="#000000" font-family="sans-serif" font-size="13" lengthAdjust="spacing" textLength="53" x="130.5" y="117.4951">manages</text><text fill="#000000" font-family="sans-serif" font-size="13" lengthAdjust="spacing" textLength="7" x="86.2713" y="94.1">1</text><text fill="#000000" font-family="sans-serif" font-size="13" lengthAdjust="spacing" textLength="7" x="123.2091" y="140.1517">1</text></g><!--MD5=[2009eb72fbe42b80409e82771a0da51d]
link System to SNSUser--><g id="link_System_SNSUser"><path codeLine="22" d="M136.82,199.08 C128.28,217.53 115.68,244.76 103.03,272.1 " fill="none" id="System-to-SNSUser" style="stroke:#181818;stroke-width:1.0;"/><polygon fill="#181818" points="100.83,276.85,108.245,270.3679,102.9335,272.314,100.9874,267.0024,100.83,276.85" style="stroke:#181818;stroke-width:1.0;"/><polygon fill="#000000" points="123.4002,242.7135,129.866,235.7389,124.5316,233.2705,123.4002,242.7135" style="stroke:#000000;stroke-width:1.0;"/><text fill="#000000" font-family="sans-serif" font-size="13" lengthAdjust="spacing" textLength="41" x="134.5" y="243.4951">notifies</text><text fill="#000000" font-family="sans-serif" font-size="13" lengthAdjust="spacing" textLength="7" x="126.3636" y="220.4375">1</text><text fill="#000000" font-family="sans-serif" font-size="13" lengthAdjust="spacing" textLength="22" x="81.4063" y="266.1842">0..1</text></g><!--MD5=[1a8aa2b864b87f860d28abceaa28b7a5]
link Company to SNSUser--><g id="link_Company_SNSUser"><path codeLine="23" d="M62.75,73.38 C56.73,95.1 49.59,124.49 46.5,151 C41.91,190.35 42.86,233.9 45.6,271.75 " fill="none" id="Company-to-SNSUser" style="stroke:#181818;stroke-width:1.0;"/><polygon fill="#181818" points="45.98,276.82,49.3003,267.5477,45.6085,271.8338,41.3224,268.142,45.98,276.82" style="stroke:#181818;stroke-width:1.0;"/><polygon fill="#000000" points="51.0693,180.1572,54.7764,171.3989,48.9204,170.8926,51.0693,180.1572" style="stroke:#000000;stroke-width:1.0;"/><text fill="#000000" font-family="sans-serif" font-size="13" lengthAdjust="spacing" textLength="30" x="60.5" y="180.4951">owns</text><text fill="#000000" font-family="sans-serif" font-size="13" lengthAdjust="spacing" textLength="7" x="53.4727" y="94.0511">1</text><text fill="#000000" font-family="sans-serif" font-size="13" lengthAdjust="spacing" textLength="5" x="39.8628" y="266.1518">*</text></g><!--MD5=[172c8ad68a52e3c0ff7f03ff8cfb8544]
@startuml
'https://plantuml.com/class-diagram

class Company {
    designation
}

class System {
}

class SNSUser{
  name
  birthDate
  SNSNumber
  phoneNumber
  email
  sex
  address
  citizenCardID
}

Company "1" - -> "1" System: > manages
System "1" - -> "0..1" SNSUser: > notifies
Company "1" -> "*" SNSUser: > owns
@enduml

@startuml

class Company {
    designation
}

class System {
}

class SNSUser{
  name
  birthDate
  SNSNumber
  phoneNumber
  email
  sex
  address
  citizenCardID
}

Company "1" - -> "1" System: > manages
System "1" - -> "0..1" SNSUser: > notifies
Company "1" -> "*" SNSUser: > owns
@enduml

PlantUML version 1.2022.4(Sat Apr 09 14:29:17 BST 2022)
(GPL source distribution)
Java Runtime: OpenJDK Runtime Environment
JVM: OpenJDK 64-Bit Server VM
Default Encoding: Cp1252
Language: pt
Country: PT
--></g></svg>