<?xml version="1.0" encoding="UTF-8" standalone="no"?><svg xmlns="http://www.w3.org/2000/svg" xmlns:xlink="http://www.w3.org/1999/xlink" contentStyleType="text/css" height="675px" preserveAspectRatio="none" style="width:1419px;height:675px;background:#FFFFFF;" version="1.1" viewBox="0 0 1419 675" width="1419px" zoomAndPan="magnify"><defs/><g><!--MD5=[02e4b9b7573f1156f41e60aa5b4e25a4]
class Company--><g id="elem_Company"><rect codeLine="3" fill="#F1F1F1" height="136.0469" id="Company" rx="2.5" ry="2.5" style="stroke:#181818;stroke-width:0.5;" width="806" x="606" y="151"/><ellipse cx="974.75" cy="167" fill="#ADD1B2" rx="11" ry="11" style="stroke:#181818;stroke-width:1.0;"/><path d="M976.75,163.5 Q976.9531,163 977.1875,162.75 Q977.4219,162.5 977.6875,162.5 Q978.1563,162.5 978.4531,162.7813 Q978.75,163.0625 978.75,163.7188 L978.75,165.2813 Q978.75,165.9375 978.4688,166.2188 Q978.1875,166.5 977.75,166.5 Q977.3594,166.5 977.1094,166.3281 Q976.8594,166.1563 976.75,165.7031 Q976.7031,165.3906 976.5313,165.2188 Q976.2188,164.8906 975.6563,164.7031 Q975.0938,164.5 974.5313,164.5 Q973.8281,164.5 973.2344,164.7813 Q972.6563,165.0625 972.2031,165.6875 Q971.75,166.3125 971.75,167.1719 L971.75,168.0938 Q971.75,169.125 972.5938,169.8125 Q973.4375,170.5 974.9375,170.5 Q975.8281,170.5 976.4531,170.2969 Q976.8125,170.1875 977.2188,169.8281 Q977.4844,169.625 977.625,169.5625 Q977.7656,169.5 977.9375,169.5 Q978.2656,169.5 978.5,169.7656 Q978.75,170.0156 978.75,170.375 Q978.75,170.7188 978.4063,171.125 Q977.9063,171.7188 977.1094,172.0469 Q976.0625,172.5 974.7813,172.5 Q973.2813,172.5 972.0781,171.9063 Q971.1094,171.4375 970.4219,170.4219 Q969.75,169.4063 969.75,168.2031 L969.75,167.1094 Q969.75,165.8594 970.3438,164.7656 Q970.9531,163.6719 972,163.0938 Q973.0625,162.5 974.25,162.5 Q974.9688,162.5 975.5938,162.75 Q976.2188,163 976.75,163.5 Z " fill="#000000"/><text fill="#000000" font-family="sans-serif" font-size="14" lengthAdjust="spacing" textLength="60" x="995.25" y="172.7285">Company</text><line style="stroke:#181818;stroke-width:0.5;" x1="607" x2="1411" y1="183" y2="183"/><rect fill="none" height="6" style="stroke:#C82930;stroke-width:1.0;" width="6" x="614" y="191"/><text fill="#000000" font-family="sans-serif" font-size="14" lengthAdjust="spacing" textLength="73" x="626" y="201.5332">designation</text><line style="stroke:#181818;stroke-width:0.5;" x1="607" x2="1411" y1="208.6094" y2="208.6094"/><ellipse cx="617" cy="219.6094" fill="#84BE84" rx="3" ry="3" style="stroke:#038048;stroke-width:1.0;"/><text fill="#000000" font-family="sans-serif" font-size="14" lengthAdjust="spacing" textLength="780" x="626" y="227.1426">createVaccinationCenter(name, address, phone, e-mail, fax, website, opening,closing, slot_duration, max_number_per_slot)</text><ellipse cx="617" cy="237.2188" fill="#84BE84" rx="3" ry="3" style="stroke:#038048;stroke-width:1.0;"/><text fill="#000000" font-family="sans-serif" font-size="14" lengthAdjust="spacing" textLength="215" x="626" y="244.752">validateVaccinationCenter(center)</text><ellipse cx="617" cy="254.8281" fill="#84BE84" rx="3" ry="3" style="stroke:#038048;stroke-width:1.0;"/><text fill="#000000" font-family="sans-serif" font-size="14" lengthAdjust="spacing" textLength="196" x="626" y="262.3613">saveVaccinationCenter(center)</text><ellipse cx="617" cy="272.4375" fill="#84BE84" rx="3" ry="3" style="stroke:#038048;stroke-width:1.0;"/><text fill="#000000" font-family="sans-serif" font-size="14" lengthAdjust="spacing" textLength="190" x="626" y="279.9707">addVaccinationCenter(center)</text></g><!--MD5=[ea44d6828412b6e56a343a80d000b450]
class SpecifyNewVaccinationCenterUI--><g id="elem_SpecifyNewVaccinationCenterUI"><rect codeLine="11" fill="#F1F1F1" height="48" id="SpecifyNewVaccinationCenterUI" rx="2.5" ry="2.5" style="stroke:#181818;stroke-width:0.5;" width="232" x="7" y="24.5"/><ellipse cx="22" cy="40.5" fill="#ADD1B2" rx="11" ry="11" style="stroke:#181818;stroke-width:1.0;"/><path d="M24,37 Q24.2031,36.5 24.4375,36.25 Q24.6719,36 24.9375,36 Q25.4063,36 25.7031,36.2813 Q26,36.5625 26,37.2188 L26,38.7813 Q26,39.4375 25.7188,39.7188 Q25.4375,40 25,40 Q24.6094,40 24.3594,39.8281 Q24.1094,39.6563 24,39.2031 Q23.9531,38.8906 23.7813,38.7188 Q23.4688,38.3906 22.9063,38.2031 Q22.3438,38 21.7813,38 Q21.0781,38 20.4844,38.2813 Q19.9063,38.5625 19.4531,39.1875 Q19,39.8125 19,40.6719 L19,41.5938 Q19,42.625 19.8438,43.3125 Q20.6875,44 22.1875,44 Q23.0781,44 23.7031,43.7969 Q24.0625,43.6875 24.4688,43.3281 Q24.7344,43.125 24.875,43.0625 Q25.0156,43 25.1875,43 Q25.5156,43 25.75,43.2656 Q26,43.5156 26,43.875 Q26,44.2188 25.6563,44.625 Q25.1563,45.2188 24.3594,45.5469 Q23.3125,46 22.0313,46 Q20.5313,46 19.3281,45.4063 Q18.3594,44.9375 17.6719,43.9219 Q17,42.9063 17,41.7031 L17,40.6094 Q17,39.3594 17.5938,38.2656 Q18.2031,37.1719 19.25,36.5938 Q20.3125,36 21.5,36 Q22.2188,36 22.8438,36.25 Q23.4688,36.5 24,37 Z " fill="#000000"/><text fill="#000000" font-family="sans-serif" font-size="14" lengthAdjust="spacing" textLength="200" x="36" y="46.2285">SpecifyNewVaccinationCenterUI</text><line style="stroke:#181818;stroke-width:0.5;" x1="8" x2="238" y1="56.5" y2="56.5"/><line style="stroke:#181818;stroke-width:0.5;" x1="8" x2="238" y1="64.5" y2="64.5"/></g><!--MD5=[de60e6d4f424ae4d0522096f76a59010]
class VaccinationCenter--><g id="elem_VaccinationCenter"><rect codeLine="14" fill="#F1F1F1" height="241.7031" id="VaccinationCenter" rx="2.5" ry="2.5" style="stroke:#181818;stroke-width:0.5;" width="766" x="214" y="427"/><ellipse cx="534.75" cy="443" fill="#ADD1B2" rx="11" ry="11" style="stroke:#181818;stroke-width:1.0;"/><path d="M536.75,439.5 Q536.9531,439 537.1875,438.75 Q537.4219,438.5 537.6875,438.5 Q538.1563,438.5 538.4531,438.7813 Q538.75,439.0625 538.75,439.7188 L538.75,441.2813 Q538.75,441.9375 538.4688,442.2188 Q538.1875,442.5 537.75,442.5 Q537.3594,442.5 537.1094,442.3281 Q536.8594,442.1563 536.75,441.7031 Q536.7031,441.3906 536.5313,441.2188 Q536.2188,440.8906 535.6563,440.7031 Q535.0938,440.5 534.5313,440.5 Q533.8281,440.5 533.2344,440.7813 Q532.6563,441.0625 532.2031,441.6875 Q531.75,442.3125 531.75,443.1719 L531.75,444.0938 Q531.75,445.125 532.5938,445.8125 Q533.4375,446.5 534.9375,446.5 Q535.8281,446.5 536.4531,446.2969 Q536.8125,446.1875 537.2188,445.8281 Q537.4844,445.625 537.625,445.5625 Q537.7656,445.5 537.9375,445.5 Q538.2656,445.5 538.5,445.7656 Q538.75,446.0156 538.75,446.375 Q538.75,446.7188 538.4063,447.125 Q537.9063,447.7188 537.1094,448.0469 Q536.0625,448.5 534.7813,448.5 Q533.2813,448.5 532.0781,447.9063 Q531.1094,447.4375 530.4219,446.4219 Q529.75,445.4063 529.75,444.2031 L529.75,443.1094 Q529.75,441.8594 530.3438,440.7656 Q530.9531,439.6719 532,439.0938 Q533.0625,438.5 534.25,438.5 Q534.9688,438.5 535.5938,438.75 Q536.2188,439 536.75,439.5 Z " fill="#000000"/><text fill="#000000" font-family="sans-serif" font-size="14" lengthAdjust="spacing" textLength="116" x="555.25" y="448.7285">VaccinationCenter</text><line style="stroke:#181818;stroke-width:0.5;" x1="215" x2="979" y1="459" y2="459"/><rect fill="none" height="6" style="stroke:#C82930;stroke-width:1.0;" width="6" x="222" y="467"/><text fill="#000000" font-family="sans-serif" font-size="14" lengthAdjust="spacing" textLength="35" x="234" y="477.5332">name</text><rect fill="none" height="6" style="stroke:#C82930;stroke-width:1.0;" width="6" x="222" y="484.6094"/><text fill="#000000" font-family="sans-serif" font-size="14" lengthAdjust="spacing" textLength="51" x="234" y="495.1426">address</text><rect fill="none" height="6" style="stroke:#C82930;stroke-width:1.0;" width="6" x="222" y="502.2188"/><text fill="#000000" font-family="sans-serif" font-size="14" lengthAdjust="spacing" textLength="40" x="234" y="512.752">phone</text><rect fill="none" height="6" style="stroke:#C82930;stroke-width:1.0;" width="6" x="222" y="519.8281"/><text fill="#000000" font-family="sans-serif" font-size="14" lengthAdjust="spacing" textLength="38" x="234" y="530.3613">e-mail</text><rect fill="none" height="6" style="stroke:#C82930;stroke-width:1.0;" width="6" x="222" y="537.4375"/><text fill="#000000" font-family="sans-serif" font-size="14" lengthAdjust="spacing" textLength="18" x="234" y="547.9707">fax</text><rect fill="none" height="6" style="stroke:#C82930;stroke-width:1.0;" width="6" x="222" y="555.0469"/><text fill="#000000" font-family="sans-serif" font-size="14" lengthAdjust="spacing" textLength="47" x="234" y="565.5801">website</text><rect fill="none" height="6" style="stroke:#C82930;stroke-width:1.0;" width="6" x="222" y="572.6563"/><text fill="#000000" font-family="sans-serif" font-size="14" lengthAdjust="spacing" textLength="95" x="234" y="583.1895">opening_hours</text><rect fill="none" height="6" style="stroke:#C82930;stroke-width:1.0;" width="6" x="222" y="590.2656"/><text fill="#000000" font-family="sans-serif" font-size="14" lengthAdjust="spacing" textLength="88" x="234" y="600.7988">closing_hours</text><rect fill="none" height="6" style="stroke:#C82930;stroke-width:1.0;" width="6" x="222" y="607.875"/><text fill="#000000" font-family="sans-serif" font-size="14" lengthAdjust="spacing" textLength="82" x="234" y="618.4082">slot_duration</text><rect fill="none" height="6" style="stroke:#C82930;stroke-width:1.0;" width="6" x="222" y="625.4844"/><text fill="#000000" font-family="sans-serif" font-size="14" lengthAdjust="spacing" textLength="140" x="234" y="636.0176">max_number_per_slot</text><line style="stroke:#181818;stroke-width:0.5;" x1="215" x2="979" y1="643.0938" y2="643.0938"/><ellipse cx="225" cy="654.0938" fill="#84BE84" rx="3" ry="3" style="stroke:#038048;stroke-width:1.0;"/><text fill="#000000" font-family="sans-serif" font-size="14" lengthAdjust="spacing" textLength="740" x="234" y="661.627">VaccinationCenter(name, address, phone, e-mail, fax, website, opening,closing, slot_duration, max_number_per_slot)</text></g><!--MD5=[437d6bc2c1df33360273bc3b5a48347c]
class SpecifyNewVaccinationCenterController--><g id="elem_SpecifyNewVaccinationCenterController"><rect codeLine="28" fill="#F1F1F1" height="83.2188" id="SpecifyNewVaccinationCenterController" rx="2.5" ry="2.5" style="stroke:#181818;stroke-width:0.5;" width="806" x="274" y="7"/><ellipse cx="547.75" cy="23" fill="#ADD1B2" rx="11" ry="11" style="stroke:#181818;stroke-width:1.0;"/><path d="M549.75,19.5 Q549.9531,19 550.1875,18.75 Q550.4219,18.5 550.6875,18.5 Q551.1563,18.5 551.4531,18.7813 Q551.75,19.0625 551.75,19.7188 L551.75,21.2813 Q551.75,21.9375 551.4688,22.2188 Q551.1875,22.5 550.75,22.5 Q550.3594,22.5 550.1094,22.3281 Q549.8594,22.1563 549.75,21.7031 Q549.7031,21.3906 549.5313,21.2188 Q549.2188,20.8906 548.6563,20.7031 Q548.0938,20.5 547.5313,20.5 Q546.8281,20.5 546.2344,20.7813 Q545.6563,21.0625 545.2031,21.6875 Q544.75,22.3125 544.75,23.1719 L544.75,24.0938 Q544.75,25.125 545.5938,25.8125 Q546.4375,26.5 547.9375,26.5 Q548.8281,26.5 549.4531,26.2969 Q549.8125,26.1875 550.2188,25.8281 Q550.4844,25.625 550.625,25.5625 Q550.7656,25.5 550.9375,25.5 Q551.2656,25.5 551.5,25.7656 Q551.75,26.0156 551.75,26.375 Q551.75,26.7188 551.4063,27.125 Q550.9063,27.7188 550.1094,28.0469 Q549.0625,28.5 547.7813,28.5 Q546.2813,28.5 545.0781,27.9063 Q544.1094,27.4375 543.4219,26.4219 Q542.75,25.4063 542.75,24.2031 L542.75,23.1094 Q542.75,21.8594 543.3438,20.7656 Q543.9531,19.6719 545,19.0938 Q546.0625,18.5 547.25,18.5 Q547.9688,18.5 548.5938,18.75 Q549.2188,19 549.75,19.5 Z " fill="#000000"/><text fill="#000000" font-family="sans-serif" font-size="14" lengthAdjust="spacing" textLength="250" x="568.25" y="28.7285">SpecifyNewVaccinationCenterController</text><line style="stroke:#181818;stroke-width:0.5;" x1="275" x2="1079" y1="39" y2="39"/><line style="stroke:#181818;stroke-width:0.5;" x1="275" x2="1079" y1="47" y2="47"/><ellipse cx="285" cy="58" fill="#84BE84" rx="3" ry="3" style="stroke:#038048;stroke-width:1.0;"/><text fill="#000000" font-family="sans-serif" font-size="14" lengthAdjust="spacing" textLength="780" x="294" y="65.5332">createVaccinationCenter(name, address, phone, e-mail, fax, website, opening,closing, slot_duration, max_number_per_slot)</text><ellipse cx="285" cy="75.6094" fill="#84BE84" rx="3" ry="3" style="stroke:#038048;stroke-width:1.0;"/><text fill="#000000" font-family="sans-serif" font-size="14" lengthAdjust="spacing" textLength="156" x="294" y="83.1426">saveVaccinationCenter()</text></g><!--MD5=[eebe9b198877275d05dd12630ed9e401]
link Company to VaccinationCenter--><g id="link_Company_VaccinationCenter"><path codeLine="33" d="M924.13,287.36 C873.49,327.56 807.69,379.78 748.4,426.84 " fill="none" id="Company-VaccinationCenter" style="stroke:#181818;stroke-width:1.0;"/><polygon fill="#000000" points="848.0837,360.2842,856.9955,356.9629,853.3413,352.359,848.0837,360.2842" style="stroke:#000000;stroke-width:1.0;"/><text fill="#000000" font-family="sans-serif" font-size="13" lengthAdjust="spacing" textLength="139" x="861" y="362.4951">promotes administration</text><text fill="#000000" font-family="sans-serif" font-size="13" lengthAdjust="spacing" textLength="7" x="908.0168" y="308.7455">1</text><text fill="#000000" font-family="sans-serif" font-size="13" lengthAdjust="spacing" textLength="5" x="752.9389" y="416.0816">*</text></g><!--MD5=[1a59d11d9c3da8f9a457f9805108d7f0]
link SpecifyNewVaccinationCenterUI to SpecifyNewVaccinationCenterController--><g id="link_SpecifyNewVaccinationCenterUI_SpecifyNewVaccinationCenterController"><path codeLine="34" d="M239.05,48.5 C248.88,48.5 258.71,48.5 268.55,48.5 " fill="none" id="SpecifyNewVaccinationCenterUI-to-SpecifyNewVaccinationCenterController" style="stroke:#181818;stroke-width:1.0;"/><polygon fill="#181818" points="273.69,48.5,264.69,44.5,268.69,48.5,264.69,52.5,273.69,48.5" style="stroke:#181818;stroke-width:1.0;"/></g><!--MD5=[87f97915b1a05852f6a9f6b1338455e4]
link SpecifyNewVaccinationCenterController to Company--><g id="link_SpecifyNewVaccinationCenterController_Company"><path codeLine="35" d="M756.94,90.07 C791.52,107.62 832.97,128.66 872.18,148.56 " fill="none" id="SpecifyNewVaccinationCenterController-to-Company" style="stroke:#181818;stroke-width:1.0;stroke-dasharray:7.0,7.0;"/><polygon fill="#181818" points="876.95,150.98,870.728,143.3454,872.4894,148.7211,867.1137,150.4825,876.95,150.98" style="stroke:#181818;stroke-width:1.0;"/></g><!--MD5=[8cd5bf80725ebbb3ddf698c536e77172]
link SpecifyNewVaccinationCenterController to VaccinationCenter--><g id="link_SpecifyNewVaccinationCenterController_VaccinationCenter"><path codeLine="36" d="M629.74,90.32 C613.59,107.26 597.48,128.28 589,151 C556.83,237.21 560.48,341.49 571.29,421.39 " fill="none" id="SpecifyNewVaccinationCenterController-to-VaccinationCenter" style="stroke:#181818;stroke-width:1.0;stroke-dasharray:7.0,7.0;"/><polygon fill="#181818" points="572.01,426.62,574.7391,417.1568,571.3249,421.6672,566.8145,418.253,572.01,426.62" style="stroke:#181818;stroke-width:1.0;"/></g><!--MD5=[0a2c2d85b36bcf2f8ed8c260448d81ef]
@startuml
'https://plantuml.com/class-diagram

class Company{
- designation
+ createVaccinationCenter(name, address, phone, e-mail, fax, website, opening,closing, slot_duration, max_number_per_slot)
+ validateVaccinationCenter(center)
+ saveVaccinationCenter(center)
+ addVaccinationCenter(center)
}

class SpecifyNewVaccinationCenterUI{
}

class VaccinationCenter{
  -name
  -address
  -phone
  -e-mail
  -fax
  -website
  -opening_hours
  -closing_hours
  -slot_duration
  -max_number_per_slot
  + VaccinationCenter(name, address, phone, e-mail, fax, website, opening,closing, slot_duration, max_number_per_slot)
}

class SpecifyNewVaccinationCenterController{
+ createVaccinationCenter(name, address, phone, e-mail, fax, website, opening,closing, slot_duration, max_number_per_slot)
+ saveVaccinationCenter()
}

Company "1" - - - "*" VaccinationCenter: > promotes administration
SpecifyNewVaccinationCenterUI -> SpecifyNewVaccinationCenterController
SpecifyNewVaccinationCenterController ..> Company
SpecifyNewVaccinationCenterController .> VaccinationCenter



@enduml

@startuml

class Company{
- designation
+ createVaccinationCenter(name, address, phone, e-mail, fax, website, opening,closing, slot_duration, max_number_per_slot)
+ validateVaccinationCenter(center)
+ saveVaccinationCenter(center)
+ addVaccinationCenter(center)
}

class SpecifyNewVaccinationCenterUI{
}

class VaccinationCenter{
  -name
  -address
  -phone
  -e-mail
  -fax
  -website
  -opening_hours
  -closing_hours
  -slot_duration
  -max_number_per_slot
  + VaccinationCenter(name, address, phone, e-mail, fax, website, opening,closing, slot_duration, max_number_per_slot)
}

class SpecifyNewVaccinationCenterController{
+ createVaccinationCenter(name, address, phone, e-mail, fax, website, opening,closing, slot_duration, max_number_per_slot)
+ saveVaccinationCenter()
}

Company "1" - - - "*" VaccinationCenter: > promotes administration
SpecifyNewVaccinationCenterUI -> SpecifyNewVaccinationCenterController
SpecifyNewVaccinationCenterController ..> Company
SpecifyNewVaccinationCenterController .> VaccinationCenter



@enduml

PlantUML version 1.2022.4(Sat Apr 09 14:29:17 BST 2022)
(GPL source distribution)
Java Runtime: OpenJDK Runtime Environment
JVM: OpenJDK 64-Bit Server VM
Default Encoding: Cp1252
Language: en
Country: US
--></g></svg>