<?xml version="1.0" encoding="UTF-8" standalone="no"?><svg xmlns="http://www.w3.org/2000/svg" xmlns:xlink="http://www.w3.org/1999/xlink" contentStyleType="text/css" height="720px" preserveAspectRatio="none" style="width:525px;height:720px;background:#FFFFFF;" version="1.1" viewBox="0 0 525 720" width="525px" zoomAndPan="magnify"><defs/><g><ellipse cx="70.5" cy="16" fill="#222222" rx="10" ry="10" style="stroke:none;stroke-width:1.0;"/><rect fill="#F1F1F1" height="40" rx="12.5" ry="12.5" style="stroke:#181818;stroke-width:0.5;" width="108" x="16.5" y="104"/><text fill="#000000" font-family="sans-serif" font-size="14" lengthAdjust="spacing" textLength="98" x="21.5" y="129.7285">UserRegistered</text><rect fill="#F1F1F1" height="40" rx="12.5" ry="12.5" style="stroke:#181818;stroke-width:0.5;" width="127" x="7" y="222"/><text fill="#000000" font-family="sans-serif" font-size="14" lengthAdjust="spacing" textLength="117" x="12" y="247.7285">VaccineScheduled</text><rect fill="#F1F1F1" height="40" rx="12.5" ry="12.5" style="stroke:#181818;stroke-width:0.5;" width="79" x="31" y="340"/><text fill="#000000" font-family="sans-serif" font-size="14" lengthAdjust="spacing" textLength="69" x="36" y="365.7285">UserArrival</text><rect fill="#F1F1F1" height="40" rx="12.5" ry="12.5" style="stroke:#181818;stroke-width:0.5;" width="94" x="23.5" y="458"/><text fill="#000000" font-family="sans-serif" font-size="14" lengthAdjust="spacing" textLength="84" x="28.5" y="483.7285">WaitingRoom</text><rect fill="#F1F1F1" height="40" rx="12.5" ry="12.5" style="stroke:#181818;stroke-width:0.5;" width="80" x="30.5" y="576"/><text fill="#000000" font-family="sans-serif" font-size="14" lengthAdjust="spacing" textLength="70" x="35.5" y="601.7285">Vaccinated</text><ellipse cx="70.5" cy="704" fill="none" rx="10" ry="10" style="stroke:#222222;stroke-width:1.0;"/><ellipse cx="71" cy="704.5" fill="#222222" rx="6" ry="6" style="stroke:none;stroke-width:1.0;"/><!--MD5=[2d20ec446c0810cc3515c261b2047f3f]
link *start to UserRegistered--><g id="link_*start_UserRegistered"><path d="M70.5,26.04 C70.5,41.96 70.5,75.5 70.5,98.63 " fill="none" id="*start-to-UserRegistered" style="stroke:#181818;stroke-width:1.0;"/><polygon fill="#181818" points="70.5,103.69,74.5,94.69,70.5,98.69,66.5,94.69,70.5,103.69" style="stroke:#181818;stroke-width:1.0;"/><text fill="#000000" font-family="sans-serif" font-size="13" lengthAdjust="spacing" textLength="166" x="71.5" y="70.4951">US03: SNS User registration</text></g><!--MD5=[83b73eb5a67991c88fe3329d8a94e7e1]
link UserRegistered to VaccineScheduled--><g id="link_UserRegistered_VaccineScheduled"><path d="M70.5,144.16 C70.5,163.97 70.5,194.98 70.5,216.55 " fill="none" id="UserRegistered-to-VaccineScheduled" style="stroke:#181818;stroke-width:1.0;"/><polygon fill="#181818" points="70.5,221.82,74.5,212.82,70.5,216.82,66.5,212.82,70.5,221.82" style="stroke:#181818;stroke-width:1.0;"/><text fill="#000000" font-family="sans-serif" font-size="13" lengthAdjust="spacing" textLength="232" x="71.5" y="188.4951">US01: Vaccine Administration Schedule</text></g><!--MD5=[68f89765e52f119b4ee48baf180f3e56]
link VaccineScheduled to UserArrival--><g id="link_VaccineScheduled_UserArrival"><path d="M70.5,262.16 C70.5,281.97 70.5,312.98 70.5,334.55 " fill="none" id="VaccineScheduled-to-UserArrival" style="stroke:#181818;stroke-width:1.0;"/><polygon fill="#181818" points="70.5,339.82,74.5,330.82,70.5,334.82,66.5,330.82,70.5,339.82" style="stroke:#181818;stroke-width:1.0;"/><text fill="#000000" font-family="sans-serif" font-size="13" lengthAdjust="spacing" textLength="137" x="71.5" y="306.4951">US04: SNS User Arrival</text></g><!--MD5=[bfe673fba0512cc1ae54a28324827b2a]
link UserArrival to WaitingRoom--><g id="link_UserArrival_WaitingRoom"><path d="M70.5,380.16 C70.5,399.97 70.5,430.98 70.5,452.55 " fill="none" id="UserArrival-to-WaitingRoom" style="stroke:#181818;stroke-width:1.0;"/><polygon fill="#181818" points="70.5,457.82,74.5,448.82,70.5,452.82,66.5,448.82,70.5,457.82" style="stroke:#181818;stroke-width:1.0;"/><text fill="#000000" font-family="sans-serif" font-size="13" lengthAdjust="spacing" textLength="211" x="71.5" y="424.4951">US04: Puts SNS in the waiting room</text></g><!--MD5=[c10ae8b400dd1bf4b9f02b2fd40d6fd9]
link UserArrival to UserArrival--><g id="link_UserArrival_UserArrival"><path d="M110.36,349.34 C128.85,348.18 145,351.73 145,360 C145,367.49 131.73,371.12 115.48,370.86 " fill="none" id="UserArrival-to-UserArrival" style="stroke:#181818;stroke-width:1.0;"/><polygon fill="#181818" points="110.36,370.66,119.1929,375.0165,115.356,370.8598,119.5127,367.0229,110.36,370.66" style="stroke:#181818;stroke-width:1.0;"/><text fill="#000000" font-family="sans-serif" font-size="13" lengthAdjust="spacing" textLength="168" x="151" y="365.4951">US04: Verifies schedule date</text></g><!--MD5=[960245db259eec4b1b6a4f82e97d9b72]
link WaitingRoom to WaitingRoom--><g id="link_WaitingRoom_WaitingRoom"><path d="M117.69,467.19 C136.61,466.58 152.5,470.18 152.5,478 C152.5,485.08 139.45,488.71 122.92,488.87 " fill="none" id="WaitingRoom-to-WaitingRoom" style="stroke:#181818;stroke-width:1.0;"/><polygon fill="#181818" points="117.69,488.81,126.6437,492.9126,122.6897,488.8671,126.7351,484.9131,117.69,488.81" style="stroke:#181818;stroke-width:1.0;"/><text fill="#000000" font-family="sans-serif" font-size="13" lengthAdjust="spacing" textLength="354" x="158.5" y="483.4951">US05: Gets list of users in the waiting room ordered by arrival</text></g><!--MD5=[f76baba71c7776e0d7c95f99a765d1e7]
link WaitingRoom to Vaccinated--><g id="link_WaitingRoom_Vaccinated"><path d="M70.5,498.16 C70.5,517.97 70.5,548.98 70.5,570.55 " fill="none" id="WaitingRoom-to-Vaccinated" style="stroke:#181818;stroke-width:1.0;"/><polygon fill="#181818" points="70.5,575.82,74.5,566.82,70.5,570.82,66.5,566.82,70.5,575.82" style="stroke:#181818;stroke-width:1.0;"/><text fill="#000000" font-family="sans-serif" font-size="13" lengthAdjust="spacing" textLength="271" x="71.5" y="542.4951">US08: Vaccine administration to the SNS User</text></g><!--MD5=[4103b2cb6b1c78c899556217c9b6e467]
link Vaccinated to Vaccinated--><g id="link_Vaccinated_Vaccinated"><path d="M110.62,585.34 C129.24,584.18 145.5,587.73 145.5,596 C145.5,603.49 132.14,607.12 115.79,606.86 " fill="none" id="Vaccinated-to-Vaccinated" style="stroke:#181818;stroke-width:1.0;"/><polygon fill="#181818" points="110.62,606.66,119.4524,611.0175,115.616,606.8604,119.7731,603.024,110.62,606.66" style="stroke:#181818;stroke-width:1.0;"/><text fill="#000000" font-family="sans-serif" font-size="13" lengthAdjust="spacing" textLength="281" x="151.5" y="601.4951">US08: Alerts SNS User recovery time has ended</text></g><!--MD5=[420600905f797351202108fbce14fe3a]
link Vaccinated to *end--><g id="link_Vaccinated_*end"><path d="M70.5,616.44 C70.5,637.24 70.5,669.75 70.5,688.45 " fill="none" id="Vaccinated-to-*end" style="stroke:#181818;stroke-width:1.0;"/><polygon fill="#181818" points="70.5,693.78,74.5,684.78,70.5,688.78,66.5,684.78,70.5,693.78" style="stroke:#181818;stroke-width:1.0;"/><text fill="#000000" font-family="sans-serif" font-size="13" lengthAdjust="spacing" textLength="21" x="71.5" y="660.4951">end</text></g><!--MD5=[9ccf8d19e9d8db2492538ece6843d431]
@startuml

hide empty description
[*] - -> UserRegistered: US03: SNS User registration
UserRegistered - -> VaccineScheduled: US01: Vaccine Administration Schedule
VaccineScheduled - -> UserArrival: US04: SNS User Arrival
UserArrival - -> WaitingRoom: US04: Puts SNS in the waiting room
UserArrival - -> UserArrival: US04: Verifies schedule date
WaitingRoom - -> WaitingRoom: US05: Gets list of users in the waiting room ordered by arrival
WaitingRoom - -> Vaccinated: US08: Vaccine administration to the SNS User
Vaccinated - -> Vaccinated: US08: Alerts SNS User recovery time has ended
Vaccinated - -> [*]: end


@enduml

PlantUML version 1.2022.4(Sat Apr 09 14:29:17 BST 2022)
(GPL source distribution)
Java Runtime: OpenJDK Runtime Environment
JVM: OpenJDK 64-Bit Server VM
Default Encoding: Cp1252
Language: pt
Country: PT
--></g></svg>