<?xml version="1.0" encoding="UTF-8" standalone="no"?><svg xmlns="http://www.w3.org/2000/svg" xmlns:xlink="http://www.w3.org/1999/xlink" contentStyleType="text/css" height="637.2px" preserveAspectRatio="none" style="width:969px;height:637px;background:#FFFFFF;" version="1.1" viewBox="0 0 969 637" width="969.6px" zoomAndPan="magnify"><defs/><g><rect fill="#FFFFFF" height="527.2406" style="stroke:#181818;stroke-width:0.6;" width="6" x="21.9" y="55.5656"/><rect fill="#FFFFFF" height="18.2109" style="stroke:#181818;stroke-width:0.6;" width="6" x="191.1" y="68.9766"/><rect fill="#FFFFFF" height="311.1422" style="stroke:#181818;stroke-width:0.6;" width="6" x="191.1" y="105.3984"/><rect fill="#FFFFFF" height="148.0547" style="stroke:#181818;stroke-width:0.6;" width="6" x="191.1" y="434.7516"/><rect fill="#FFFFFF" height="279.5203" style="stroke:#181818;stroke-width:0.6;" width="6" x="375.9" y="123.6094"/><rect fill="#FFFFFF" height="18.2109" style="stroke:#181818;stroke-width:0.6;" width="6" x="375.9" y="452.9625"/><rect fill="#FFFFFF" height="18.2109" style="stroke:#181818;stroke-width:0.6;" width="6" x="496.5" y="160.0313"/><rect fill="#FFFFFF" height="16.8" style="stroke:#181818;stroke-width:0.6;" width="6" x="583.2" y="237.4641"/><rect fill="#FFFFFF" height="41.6109" style="stroke:#181818;stroke-width:0.6;" width="6" x="583.2" y="348.3187"/><rect fill="#FFFFFF" height="16.8" style="stroke:#181818;stroke-width:0.6;" width="6" x="586.2" y="373.1297"/><rect fill="#FFFFFF" height="83.8219" style="stroke:#181818;stroke-width:0.6;" width="6" x="583.2" y="471.1734"/><rect fill="#FFFFFF" height="16.8" style="stroke:#181818;stroke-width:0.6;" width="6" x="586.2" y="494.1844"/><rect fill="#FFFFFF" height="16.8" style="stroke:#181818;stroke-width:0.6;" width="6" x="586.2" y="538.1953"/><rect fill="#FFFFFF" height="18" style="stroke:#181818;stroke-width:0.6;" width="6" x="747.6" y="196.4531"/><rect height="131.4656" style="stroke:#000000;stroke-width:0.8999999999999999;fill:none;" width="960" x="6" y="267.4641"/><line style="stroke:#181818;stroke-width:0.3;fill:none;stroke-dasharray:5.0,5.0;" x1="24.6" x2="24.6" y1="49.5656" y2="588.2063"/><line style="stroke:#181818;stroke-width:0.3;fill:none;stroke-dasharray:5.0,5.0;" x1="193.8" x2="193.8" y1="49.5656" y2="588.2063"/><line style="stroke:#181818;stroke-width:0.3;fill:none;stroke-dasharray:5.0,5.0;" x1="378.6" x2="378.6" y1="49.5656" y2="588.2063"/><line style="stroke:#181818;stroke-width:0.3;fill:none;stroke-dasharray:5.0,5.0;" x1="499.5" x2="499.5" y1="49.5656" y2="588.2063"/><line style="stroke:#181818;stroke-width:0.3;fill:none;stroke-dasharray:5.0,5.0;" x1="585.9" x2="585.9" y1="49.5656" y2="588.2063"/><line style="stroke:#181818;stroke-width:0.3;fill:none;stroke-dasharray:5.0,5.0;" x1="750.3" x2="750.3" y1="49.5656" y2="588.2063"/><text fill="#000000" font-family="sans-serif" font-size="8.4" lengthAdjust="spacing" textLength="22.2" x="12" y="47.7199">Nurse</text><ellipse cx="24.9" cy="8.1" fill="#E2E2F0" rx="4.8" ry="4.8" style="stroke:#181818;stroke-width:0.3;"/><path d="M24.9,12.9 L24.9,29.1 M17.1,17.7 L32.7,17.7 M24.9,29.1 L17.1,38.1 M24.9,29.1 L32.7,38.1 " fill="none" style="stroke:#181818;stroke-width:0.3;"/><text fill="#000000" font-family="sans-serif" font-size="8.4" lengthAdjust="spacing" textLength="22.2" x="12" y="596.3262">Nurse</text><ellipse cx="24.9" cy="603.2719" fill="#E2E2F0" rx="4.8" ry="4.8" style="stroke:#181818;stroke-width:0.3;"/><path d="M24.9,608.0719 L24.9,624.2719 M17.1,612.8719 L32.7,612.8719 M24.9,624.2719 L17.1,633.2719 M24.9,624.2719 L32.7,633.2719 " fill="none" style="stroke:#181818;stroke-width:0.3;"/><rect fill="#E2E2F0" height="18.9656" rx="1.5" ry="1.5" style="stroke:#181818;stroke-width:0.3;" width="87" x="150.6" y="30"/><text fill="#000000" font-family="sans-serif" font-size="8.4" lengthAdjust="spacing" textLength="78.6" x="154.8" y="42.9199">:AdverseReactionsUI</text><rect fill="#E2E2F0" height="18.9656" rx="1.5" ry="1.5" style="stroke:#181818;stroke-width:0.3;" width="87" x="150.6" y="587.6062"/><text fill="#000000" font-family="sans-serif" font-size="8.4" lengthAdjust="spacing" textLength="78.6" x="154.8" y="600.5262">:AdverseReactionsUI</text><rect fill="#E2E2F0" height="18.9656" rx="1.5" ry="1.5" style="stroke:#181818;stroke-width:0.3;" width="117" x="320.4" y="30"/><text fill="#000000" font-family="sans-serif" font-size="8.4" lengthAdjust="spacing" textLength="108.6" x="324.6" y="42.9199">:AdverseReactionsController</text><rect fill="#E2E2F0" height="18.9656" rx="1.5" ry="1.5" style="stroke:#181818;stroke-width:0.3;" width="117" x="320.4" y="587.6062"/><text fill="#000000" font-family="sans-serif" font-size="8.4" lengthAdjust="spacing" textLength="108.6" x="324.6" y="600.5262">:AdverseReactionsController</text><rect fill="#E2E2F0" height="18.9656" rx="1.5" ry="1.5" style="stroke:#181818;stroke-width:0.3;" width="46.8" x="476.1" y="30"/><text fill="#000000" font-family="sans-serif" font-size="8.4" lengthAdjust="spacing" textLength="38.4" x="480.3" y="42.9199">:Company</text><rect fill="#E2E2F0" height="18.9656" rx="1.5" ry="1.5" style="stroke:#181818;stroke-width:0.3;" width="46.8" x="476.1" y="587.6062"/><text fill="#000000" font-family="sans-serif" font-size="8.4" lengthAdjust="spacing" textLength="38.4" x="480.3" y="600.5262">:Company</text><rect fill="#E2E2F0" height="18.9656" rx="1.5" ry="1.5" style="stroke:#181818;stroke-width:0.3;" width="114.6" x="528.9" y="30"/><text fill="#000000" font-family="sans-serif" font-size="8.4" lengthAdjust="spacing" textLength="106.2" x="533.1" y="42.9199">:VaccineAdministrationStore</text><rect fill="#E2E2F0" height="18.9656" rx="1.5" ry="1.5" style="stroke:#181818;stroke-width:0.3;" width="114.6" x="528.9" y="587.6062"/><text fill="#000000" font-family="sans-serif" font-size="8.4" lengthAdjust="spacing" textLength="106.2" x="533.1" y="600.5262">:VaccineAdministrationStore</text><rect fill="#E2E2F0" height="18.9656" rx="1.5" ry="1.5" style="stroke:#181818;stroke-width:0.3;" width="76.2" x="712.5" y="30"/><text fill="#000000" font-family="sans-serif" font-size="8.4" lengthAdjust="spacing" textLength="67.8" x="716.7" y="42.9199">su: SNSUserStore</text><rect fill="#E2E2F0" height="18.9656" rx="1.5" ry="1.5" style="stroke:#181818;stroke-width:0.3;" width="76.2" x="712.5" y="587.6062"/><text fill="#000000" font-family="sans-serif" font-size="8.4" lengthAdjust="spacing" textLength="67.8" x="716.7" y="600.5262">su: SNSUserStore</text><rect fill="#FFFFFF" height="527.2406" style="stroke:#181818;stroke-width:0.6;" width="6" x="21.9" y="55.5656"/><rect fill="#FFFFFF" height="18.2109" style="stroke:#181818;stroke-width:0.6;" width="6" x="191.1" y="68.9766"/><rect fill="#FFFFFF" height="311.1422" style="stroke:#181818;stroke-width:0.6;" width="6" x="191.1" y="105.3984"/><rect fill="#FFFFFF" height="148.0547" style="stroke:#181818;stroke-width:0.6;" width="6" x="191.1" y="434.7516"/><rect fill="#FFFFFF" height="279.5203" style="stroke:#181818;stroke-width:0.6;" width="6" x="375.9" y="123.6094"/><rect fill="#FFFFFF" height="18.2109" style="stroke:#181818;stroke-width:0.6;" width="6" x="375.9" y="452.9625"/><rect fill="#FFFFFF" height="18.2109" style="stroke:#181818;stroke-width:0.6;" width="6" x="496.5" y="160.0313"/><rect fill="#FFFFFF" height="16.8" style="stroke:#181818;stroke-width:0.6;" width="6" x="583.2" y="237.4641"/><rect fill="#FFFFFF" height="41.6109" style="stroke:#181818;stroke-width:0.6;" width="6" x="583.2" y="348.3187"/><rect fill="#FFFFFF" height="16.8" style="stroke:#181818;stroke-width:0.6;" width="6" x="586.2" y="373.1297"/><rect fill="#FFFFFF" height="83.8219" style="stroke:#181818;stroke-width:0.6;" width="6" x="583.2" y="471.1734"/><rect fill="#FFFFFF" height="16.8" style="stroke:#181818;stroke-width:0.6;" width="6" x="586.2" y="494.1844"/><rect fill="#FFFFFF" height="16.8" style="stroke:#181818;stroke-width:0.6;" width="6" x="586.2" y="538.1953"/><rect fill="#FFFFFF" height="18" style="stroke:#181818;stroke-width:0.6;" width="6" x="747.6" y="196.4531"/><polygon fill="#181818" points="183.9,66.5766,189.9,68.9766,183.9,71.3766,186.3,68.9766" style="stroke:#181818;stroke-width:0.6;"/><line style="stroke:#181818;stroke-width:0.6;" x1="27.9" x2="187.5" y1="68.9766" y2="68.9766"/><text fill="#000000" font-family="sans-serif" font-size="7.8" font-weight="bold" lengthAdjust="spacing" textLength="4.2" x="32.1" y="66.0627">1</text><text fill="#000000" font-family="sans-serif" font-size="7.8" lengthAdjust="spacing" textLength="121.2" x="38.7" y="66.0627">starts registering adverse reactions</text><polygon fill="#181818" points="34.5,84.7875,28.5,87.1875,34.5,89.5875,32.1,87.1875" style="stroke:#181818;stroke-width:0.6;"/><line style="stroke:#181818;stroke-width:0.6;stroke-dasharray:2.0,2.0;" x1="30.9" x2="193.5" y1="87.1875" y2="87.1875"/><text fill="#000000" font-family="sans-serif" font-size="7.8" font-weight="bold" lengthAdjust="spacing" textLength="4.2" x="38.1" y="84.2736">2</text><text fill="#000000" font-family="sans-serif" font-size="7.8" lengthAdjust="spacing" textLength="117" x="44.7" y="84.2736">request data (sns user username)</text><polygon fill="#181818" points="183.9,102.9984,189.9,105.3984,183.9,107.7984,186.3,105.3984" style="stroke:#181818;stroke-width:0.6;"/><line style="stroke:#181818;stroke-width:0.6;" x1="27.9" x2="187.5" y1="105.3984" y2="105.3984"/><text fill="#000000" font-family="sans-serif" font-size="7.8" font-weight="bold" lengthAdjust="spacing" textLength="4.2" x="32.1" y="102.4846">3</text><text fill="#000000" font-family="sans-serif" font-size="7.8" lengthAdjust="spacing" textLength="77.4" x="38.7" y="102.4846">inserts requested data</text><polygon fill="#181818" points="368.7,121.2094,374.7,123.6094,368.7,126.0094,371.1,123.6094" style="stroke:#181818;stroke-width:0.6;"/><line style="stroke:#181818;stroke-width:0.6;" x1="197.1" x2="372.3" y1="123.6094" y2="123.6094"/><text fill="#000000" font-family="sans-serif" font-size="7.8" font-weight="bold" lengthAdjust="spacing" textLength="4.2" x="201.3" y="120.6955">4</text><text fill="#000000" font-family="sans-serif" font-size="7.8" lengthAdjust="spacing" textLength="112.2" x="207.9" y="120.6955">getVaccineAdministrationStore()</text><polygon fill="#181818" points="368.7,139.4203,374.7,141.8203,368.7,144.2203,371.1,141.8203" style="stroke:#181818;stroke-width:0.6;"/><line style="stroke:#181818;stroke-width:0.6;" x1="197.1" x2="372.3" y1="141.8203" y2="141.8203"/><text fill="#000000" font-family="sans-serif" font-size="7.8" font-weight="bold" lengthAdjust="spacing" textLength="4.2" x="201.3" y="138.9064">5</text><text fill="#000000" font-family="sans-serif" font-size="7.8" lengthAdjust="spacing" textLength="66.6" x="207.9" y="138.9064">getSNSUserStore()</text><polygon fill="#181818" points="489.3,157.6313,495.3,160.0313,489.3,162.4313,491.7,160.0313" style="stroke:#181818;stroke-width:0.6;"/><line style="stroke:#181818;stroke-width:0.6;" x1="381.9" x2="492.9" y1="160.0313" y2="160.0313"/><text fill="#000000" font-family="sans-serif" font-size="7.8" font-weight="bold" lengthAdjust="spacing" textLength="4.2" x="386.1" y="157.1174">6</text><text fill="#000000" font-family="sans-serif" font-size="7.8" lengthAdjust="spacing" textLength="96.6" x="392.7" y="157.1174">VaccineAdministrationStore</text><polygon fill="#181818" points="492.3,175.8422,498.3,178.2422,492.3,180.6422,494.7,178.2422" style="stroke:#181818;stroke-width:0.6;"/><line style="stroke:#181818;stroke-width:0.6;" x1="381.9" x2="495.9" y1="178.2422" y2="178.2422"/><text fill="#000000" font-family="sans-serif" font-size="7.8" font-weight="bold" lengthAdjust="spacing" textLength="4.2" x="386.1" y="175.3283">7</text><text fill="#000000" font-family="sans-serif" font-size="7.8" lengthAdjust="spacing" textLength="51" x="392.7" y="175.3283">SNSUserStore</text><polygon fill="#181818" points="740.4,194.0531,746.4,196.4531,740.4,198.8531,742.8,196.4531" style="stroke:#181818;stroke-width:0.6;"/><line style="stroke:#181818;stroke-width:0.6;" x1="381.9" x2="744" y1="196.4531" y2="196.4531"/><text fill="#000000" font-family="sans-serif" font-size="7.8" font-weight="bold" lengthAdjust="spacing" textLength="4.2" x="386.1" y="193.5393">8</text><text fill="#000000" font-family="sans-serif" font-size="7.8" lengthAdjust="spacing" textLength="105" x="392.7" y="193.5393">verifyUser(sns user username)</text><line style="stroke:#181818;stroke-width:0.6;" x1="589.2" x2="614.4" y1="232.6641" y2="232.6641"/><line style="stroke:#181818;stroke-width:0.6;" x1="614.4" x2="614.4" y1="232.6641" y2="240.4641"/><line style="stroke:#181818;stroke-width:0.6;" x1="589.8" x2="614.4" y1="240.4641" y2="240.4641"/><polygon fill="#181818" points="595.8,238.0641,589.8,240.4641,595.8,242.8641,593.4,240.4641" style="stroke:#181818;stroke-width:0.6;"/><text fill="#000000" font-family="sans-serif" font-size="7.8" font-weight="bold" lengthAdjust="spacing" textLength="4.2" x="593.4" y="229.7502">9</text><text fill="#000000" font-family="sans-serif" font-size="7.8" lengthAdjust="spacing" textLength="149.4" x="600" y="229.7502">checkUserVaccination(sns user username)</text><path d="M6,267.4641 L42.6,267.4641 L42.6,272.475 L36.6,278.475 L6,278.475 L6,267.4641 " fill="#EEEEEE" style="stroke:#000000;stroke-width:0.8999999999999999;"/><rect fill="none" height="131.4656" style="stroke:#000000;stroke-width:0.8999999999999999;" width="960" x="6" y="267.4641"/><text fill="#000000" font-family="sans-serif" font-size="7.8" font-weight="bold" lengthAdjust="spacing" textLength="9.6" x="15" y="276.1611">alt</text><text fill="#000000" font-family="sans-serif" font-size="6.6" font-weight="bold" lengthAdjust="spacing" textLength="129.6" x="51.6" y="275.5154">[user exists and has taken the vaccine]</text><polygon fill="#181818" points="34.5,289.4859,28.5,291.8859,34.5,294.2859,32.1,291.8859" style="stroke:#181818;stroke-width:0.6;"/><line style="stroke:#181818;stroke-width:0.6;stroke-dasharray:2.0,2.0;" x1="30.9" x2="190.5" y1="291.8859" y2="291.8859"/><text fill="#000000" font-family="sans-serif" font-size="7.8" font-weight="bold" lengthAdjust="spacing" textLength="8.4" x="38.1" y="288.9721">10</text><text fill="#000000" font-family="sans-serif" font-size="7.8" lengthAdjust="spacing" textLength="111" x="48.9" y="288.9721">request data (adverse reactions)</text><polygon fill="#181818" points="183.9,307.6969,189.9,310.0969,183.9,312.4969,186.3,310.0969" style="stroke:#181818;stroke-width:0.6;"/><line style="stroke:#181818;stroke-width:0.6;" x1="27.9" x2="187.5" y1="310.0969" y2="310.0969"/><text fill="#000000" font-family="sans-serif" font-size="7.8" font-weight="bold" lengthAdjust="spacing" textLength="8.4" x="32.1" y="307.183">11</text><text fill="#000000" font-family="sans-serif" font-size="7.8" lengthAdjust="spacing" textLength="77.4" x="42.9" y="307.183">inserts requested data</text><polygon fill="#181818" points="368.7,325.9078,374.7,328.3078,368.7,330.7078,371.1,328.3078" style="stroke:#181818;stroke-width:0.6;"/><line style="stroke:#181818;stroke-width:0.6;" x1="197.1" x2="372.3" y1="328.3078" y2="328.3078"/><text fill="#000000" font-family="sans-serif" font-size="7.8" font-weight="bold" lengthAdjust="spacing" textLength="8.4" x="201.3" y="325.3939">12</text><text fill="#000000" font-family="sans-serif" font-size="7.8" lengthAdjust="spacing" textLength="153.6" x="212.1" y="325.3939">registerAdverseReactions(adverse reactions)</text><polygon fill="#181818" points="576,345.9188,582,348.3187,576,350.7188,578.4,348.3187" style="stroke:#181818;stroke-width:0.6;"/><line style="stroke:#181818;stroke-width:0.6;" x1="381.9" x2="579.6" y1="348.3187" y2="348.3187"/><text fill="#000000" font-family="sans-serif" font-size="7.8" font-weight="bold" lengthAdjust="spacing" textLength="8.4" x="386.1" y="345.4049">13</text><text fill="#000000" font-family="sans-serif" font-size="7.8" lengthAdjust="spacing" textLength="153.6" x="396.9" y="345.4049">registerAdverseReactions(adverse reactions)</text><path d="M592.2,336.1078 L592.2,351.7078 L963,351.7078 L963,342.1078 L957,336.1078 L592.2,336.1078 " fill="#FEFFDD" style="stroke:#181818;stroke-width:0.3;"/><path d="M957,336.1078 L957,342.1078 L963,342.1078 L957,336.1078 " fill="#FEFFDD" style="stroke:#181818;stroke-width:0.3;"/><text fill="#000000" font-family="sans-serif" font-size="7.8" lengthAdjust="spacing" textLength="358.2" x="595.8" y="347.2049">If both conditions are not met, it will be asked to the Nurse to insert the data (sns user username) again</text><line style="stroke:#181818;stroke-width:0.6;" x1="592.2" x2="617.4" y1="368.3297" y2="368.3297"/><line style="stroke:#181818;stroke-width:0.6;" x1="617.4" x2="617.4" y1="368.3297" y2="376.1297"/><line style="stroke:#181818;stroke-width:0.6;" x1="592.8" x2="617.4" y1="376.1297" y2="376.1297"/><polygon fill="#181818" points="598.8,373.7297,592.8,376.1297,598.8,378.5297,596.4,376.1297" style="stroke:#181818;stroke-width:0.6;"/><text fill="#000000" font-family="sans-serif" font-size="7.8" font-weight="bold" lengthAdjust="spacing" textLength="8.4" x="596.4" y="365.4158">14</text><text fill="#000000" font-family="sans-serif" font-size="7.8" lengthAdjust="spacing" textLength="138.6" x="607.2" y="365.4158">setAdverseReactions(adverse reactions)</text><polygon fill="#181818" points="34.5,414.1406,28.5,416.5406,34.5,418.9406,32.1,416.5406" style="stroke:#181818;stroke-width:0.6;"/><line style="stroke:#181818;stroke-width:0.6;stroke-dasharray:2.0,2.0;" x1="30.9" x2="193.5" y1="416.5406" y2="416.5406"/><text fill="#000000" font-family="sans-serif" font-size="7.8" font-weight="bold" lengthAdjust="spacing" textLength="8.4" x="38.1" y="413.6268">15</text><text fill="#000000" font-family="sans-serif" font-size="7.8" lengthAdjust="spacing" textLength="138" x="48.9" y="413.6268">shows data and requests a confirmation</text><polygon fill="#181818" points="183.9,432.3516,189.9,434.7516,183.9,437.1516,186.3,434.7516" style="stroke:#181818;stroke-width:0.6;"/><line style="stroke:#181818;stroke-width:0.6;" x1="27.9" x2="187.5" y1="434.7516" y2="434.7516"/><text fill="#000000" font-family="sans-serif" font-size="7.8" font-weight="bold" lengthAdjust="spacing" textLength="8.4" x="32.1" y="431.8377">16</text><text fill="#000000" font-family="sans-serif" font-size="7.8" lengthAdjust="spacing" textLength="46.8" x="42.9" y="431.8377">confirms data</text><polygon fill="#181818" points="368.7,450.5625,374.7,452.9625,368.7,455.3625,371.1,452.9625" style="stroke:#181818;stroke-width:0.6;"/><line style="stroke:#181818;stroke-width:0.6;" x1="197.1" x2="372.3" y1="452.9625" y2="452.9625"/><text fill="#000000" font-family="sans-serif" font-size="7.8" font-weight="bold" lengthAdjust="spacing" textLength="8.4" x="201.3" y="450.0486">17</text><text fill="#000000" font-family="sans-serif" font-size="7.8" lengthAdjust="spacing" textLength="82.8" x="212.1" y="450.0486">saveAdverseReactions()</text><polygon fill="#181818" points="576,468.7734,582,471.1734,576,473.5734,578.4,471.1734" style="stroke:#181818;stroke-width:0.6;"/><line style="stroke:#181818;stroke-width:0.6;" x1="378.9" x2="579.6" y1="471.1734" y2="471.1734"/><text fill="#000000" font-family="sans-serif" font-size="7.8" font-weight="bold" lengthAdjust="spacing" textLength="8.4" x="383.1" y="468.2596">18</text><text fill="#000000" font-family="sans-serif" font-size="7.8" lengthAdjust="spacing" textLength="82.8" x="393.9" y="468.2596">saveAdverseReactions()</text><line style="stroke:#181818;stroke-width:0.6;" x1="592.2" x2="617.4" y1="489.3844" y2="489.3844"/><line style="stroke:#181818;stroke-width:0.6;" x1="617.4" x2="617.4" y1="489.3844" y2="497.1844"/><line style="stroke:#181818;stroke-width:0.6;" x1="592.8" x2="617.4" y1="497.1844" y2="497.1844"/><polygon fill="#181818" points="598.8,494.7844,592.8,497.1844,598.8,499.5844,596.4,497.1844" style="stroke:#181818;stroke-width:0.6;"/><text fill="#000000" font-family="sans-serif" font-size="7.8" font-weight="bold" lengthAdjust="spacing" textLength="8.4" x="596.4" y="486.4705">19</text><text fill="#000000" font-family="sans-serif" font-size="7.8" lengthAdjust="spacing" textLength="93" x="607.2" y="486.4705">validateAdverseReactions()</text><line style="stroke:#181818;stroke-width:0.6;" x1="592.2" x2="617.4" y1="533.3953" y2="533.3953"/><line style="stroke:#181818;stroke-width:0.6;" x1="617.4" x2="617.4" y1="533.3953" y2="541.1953"/><line style="stroke:#181818;stroke-width:0.6;" x1="592.8" x2="617.4" y1="541.1953" y2="541.1953"/><polygon fill="#181818" points="598.8,538.7953,592.8,541.1953,598.8,543.5953,596.4,541.1953" style="stroke:#181818;stroke-width:0.6;"/><text fill="#000000" font-family="sans-serif" font-size="7.8" font-weight="bold" lengthAdjust="spacing" textLength="8.4" x="596.4" y="530.4814">20</text><text fill="#000000" font-family="sans-serif" font-size="7.8" lengthAdjust="spacing" textLength="82.8" x="607.2" y="530.4814">saveAdverseReactions()</text><polygon fill="#181818" points="34.5,575.0063,28.5,577.4063,34.5,579.8063,32.1,577.4063" style="stroke:#181818;stroke-width:0.6;"/><line style="stroke:#181818;stroke-width:0.6;stroke-dasharray:2.0,2.0;" x1="30.9" x2="190.5" y1="577.4063" y2="577.4063"/><text fill="#000000" font-family="sans-serif" font-size="7.8" font-weight="bold" lengthAdjust="spacing" textLength="8.4" x="38.1" y="574.4924">21</text><text fill="#000000" font-family="sans-serif" font-size="7.8" lengthAdjust="spacing" textLength="76.2" x="48.9" y="574.4924">tell operation success</text><!--MD5=[dd9eeb8567122ec8c0fe3a8fff01565e]
@startuml
autonumber
'hide footbox
actor "Nurse" as ADM

participant ":AdverseReactionsUI" as UI
participant ":AdverseReactionsController" as CTRL
participant ":Company" as COMP
participant ":VaccineAdministrationStore" as ST
participant "su: SNSUserStore" as SU

activate ADM
ADM -> UI : starts registering adverse reactions
activate UI
UI - -> ADM: request data (sns user username)
deactivate UI


ADM -> UI: inserts requested data
activate UI



UI -> CTRL: getVaccineAdministrationStore()
activate CTRL
UI -> CTRL: getSNSUserStore()


CTRL -> COMP: VaccineAdministrationStore
activate COMP

CTRL -> COMP: SNSUserStore


deactivate COMP

CTRL -> SU : verifyUser(sns user username)
activate SU
deactivate SU

ST -> ST : checkUserVaccination(sns user username)

activate ST
deactivate ST

alt user exists and has taken the vaccine
UI - -> ADM: request data (adverse reactions)
ADM -> UI: inserts requested data

UI -> CTRL: registerAdverseReactions(adverse reactions)





CTRL -> ST: registerAdverseReactions(adverse reactions)
note right: If both conditions are not met, it will be asked to the Nurse to insert the data (sns user username) again
activate ST
ST -> ST: setAdverseReactions(adverse reactions)

activate ST
deactivate ST
deactivate ST

end

activate ST
deactivate CTRL


deactivate ST



UI - ->ADM: shows data and requests a confirmation
deactivate UI

ADM -> UI: confirms data
activate UI

UI -> CTRL: saveAdverseReactions()
activate CTRL


CTRL -> ST: saveAdverseReactions()
deactivate CTRL

activate ST
ST -> ST: validateAdverseReactions()
activate ST
deactivate ST

ST -> ST:saveAdverseReactions()


activate ST
deactivate ST

UI - -> ADM: tell operation success
@enduml

@startuml
autonumber
actor "Nurse" as ADM

participant ":AdverseReactionsUI" as UI
participant ":AdverseReactionsController" as CTRL
participant ":Company" as COMP
participant ":VaccineAdministrationStore" as ST
participant "su: SNSUserStore" as SU

activate ADM
ADM -> UI : starts registering adverse reactions
activate UI
UI - -> ADM: request data (sns user username)
deactivate UI


ADM -> UI: inserts requested data
activate UI



UI -> CTRL: getVaccineAdministrationStore()
activate CTRL
UI -> CTRL: getSNSUserStore()


CTRL -> COMP: VaccineAdministrationStore
activate COMP

CTRL -> COMP: SNSUserStore


deactivate COMP

CTRL -> SU : verifyUser(sns user username)
activate SU
deactivate SU

ST -> ST : checkUserVaccination(sns user username)

activate ST
deactivate ST

alt user exists and has taken the vaccine
UI - -> ADM: request data (adverse reactions)
ADM -> UI: inserts requested data

UI -> CTRL: registerAdverseReactions(adverse reactions)





CTRL -> ST: registerAdverseReactions(adverse reactions)
note right: If both conditions are not met, it will be asked to the Nurse to insert the data (sns user username) again
activate ST
ST -> ST: setAdverseReactions(adverse reactions)

activate ST
deactivate ST
deactivate ST

end

activate ST
deactivate CTRL


deactivate ST



UI - ->ADM: shows data and requests a confirmation
deactivate UI

ADM -> UI: confirms data
activate UI

UI -> CTRL: saveAdverseReactions()
activate CTRL


CTRL -> ST: saveAdverseReactions()
deactivate CTRL

activate ST
ST -> ST: validateAdverseReactions()
activate ST
deactivate ST

ST -> ST:saveAdverseReactions()


activate ST
deactivate ST

UI - -> ADM: tell operation success
@enduml

PlantUML version 1.2022.4(Sat Apr 09 14:29:17 BST 2022)
(GPL source distribution)
Java Runtime: OpenJDK Runtime Environment
JVM: OpenJDK 64-Bit Server VM
Default Encoding: Cp1252
Language: pt
Country: PT
--></g></svg>