<?xml version="1.0" encoding="UTF-8" standalone="no"?><svg xmlns="http://www.w3.org/2000/svg" xmlns:xlink="http://www.w3.org/1999/xlink" contentScriptType="application/ecmascript" contentStyleType="text/css" height="586px" preserveAspectRatio="none" style="width:856px;height:586px;background:#FFFFFF;" version="1.1" viewBox="0 0 856 586" width="856px" zoomAndPan="magnify"><defs><filter height="300%" id="f1t4lbxybed92q" width="300%" x="-1" y="-1"><feGaussianBlur result="blurOut" stdDeviation="2.0"/><feColorMatrix in="blurOut" result="blurOut2" type="matrix" values="0 0 0 0 0 0 0 0 0 0 0 0 0 0 0 0 0 0 .4 0"/><feOffset dx="4.0" dy="4.0" in="blurOut2" result="blurOut3"/><feBlend in="SourceGraphic" in2="blurOut3" mode="normal"/></filter></defs><g><!--MD5=[573c365837752a8a4a55568ee206132a]
class WaitingRoomUI--><rect codeLine="3" fill="#FEFECE" filter="url(#f1t4lbxybed92q)" height="48" id="WaitingRoomUI" style="stroke:#A80036;stroke-width:1.5;" width="119" x="203.5" y="7"/><ellipse cx="218.5" cy="23" fill="#ADD1B2" rx="11" ry="11" style="stroke:#A80036;stroke-width:1.0;"/><path d="M220.5,19.5 Q220.7031,19 220.9375,18.75 Q221.1719,18.5 221.4375,18.5 Q221.9063,18.5 222.2031,18.7813 Q222.5,19.0625 222.5,19.7188 L222.5,21.2813 Q222.5,21.9375 222.2188,22.2188 Q221.9375,22.5 221.5,22.5 Q221.1094,22.5 220.8594,22.3281 Q220.6094,22.1563 220.5,21.7031 Q220.4531,21.3906 220.2813,21.2188 Q219.9688,20.8906 219.4063,20.7031 Q218.8438,20.5 218.2813,20.5 Q217.5781,20.5 216.9844,20.7813 Q216.4063,21.0625 215.9531,21.6875 Q215.5,22.3125 215.5,23.1719 L215.5,24.0938 Q215.5,25.125 216.3438,25.8125 Q217.1875,26.5 218.6875,26.5 Q219.5781,26.5 220.2031,26.2969 Q220.5625,26.1875 220.9688,25.8281 Q221.2344,25.625 221.375,25.5625 Q221.5156,25.5 221.6875,25.5 Q222.0156,25.5 222.25,25.7656 Q222.5,26.0156 222.5,26.375 Q222.5,26.7188 222.1563,27.125 Q221.6563,27.7188 220.8594,28.0469 Q219.8125,28.5 218.5313,28.5 Q217.0313,28.5 215.8281,27.9063 Q214.8594,27.4375 214.1719,26.4219 Q213.5,25.4063 213.5,24.2031 L213.5,23.1094 Q213.5,21.8594 214.0938,20.7656 Q214.7031,19.6719 215.75,19.0938 Q216.8125,18.5 218,18.5 Q218.7188,18.5 219.3438,18.75 Q219.9688,19 220.5,19.5 Z " fill="#000000"/><text fill="#000000" font-family="sans-serif" font-size="12" lengthAdjust="spacing" textLength="87" x="232.5" y="27.9102">WaitingRoomUI</text><line style="stroke:#A80036;stroke-width:1.5;" x1="204.5" x2="321.5" y1="39" y2="39"/><line style="stroke:#A80036;stroke-width:1.5;" x1="204.5" x2="321.5" y1="47" y2="47"/><!--MD5=[8dbe935b50738be731cb9db88d966ed4]
class WaitingRoomController--><rect codeLine="5" fill="#FEFECE" filter="url(#f1t4lbxybed92q)" height="117.1797" id="WaitingRoomController" style="stroke:#A80036;stroke-width:1.5;" width="183" x="171.5" y="115"/><ellipse cx="196.4" cy="131" fill="#ADD1B2" rx="11" ry="11" style="stroke:#A80036;stroke-width:1.0;"/><path d="M198.4,127.5 Q198.6031,127 198.8375,126.75 Q199.0719,126.5 199.3375,126.5 Q199.8063,126.5 200.1031,126.7813 Q200.4,127.0625 200.4,127.7188 L200.4,129.2813 Q200.4,129.9375 200.1188,130.2188 Q199.8375,130.5 199.4,130.5 Q199.0094,130.5 198.7594,130.3281 Q198.5094,130.1563 198.4,129.7031 Q198.3531,129.3906 198.1813,129.2188 Q197.8688,128.8906 197.3063,128.7031 Q196.7438,128.5 196.1813,128.5 Q195.4781,128.5 194.8844,128.7813 Q194.3063,129.0625 193.8531,129.6875 Q193.4,130.3125 193.4,131.1719 L193.4,132.0938 Q193.4,133.125 194.2438,133.8125 Q195.0875,134.5 196.5875,134.5 Q197.4781,134.5 198.1031,134.2969 Q198.4625,134.1875 198.8688,133.8281 Q199.1344,133.625 199.275,133.5625 Q199.4156,133.5 199.5875,133.5 Q199.9156,133.5 200.15,133.7656 Q200.4,134.0156 200.4,134.375 Q200.4,134.7188 200.0563,135.125 Q199.5563,135.7188 198.7594,136.0469 Q197.7125,136.5 196.4313,136.5 Q194.9313,136.5 193.7281,135.9063 Q192.7594,135.4375 192.0719,134.4219 Q191.4,133.4063 191.4,132.2031 L191.4,131.1094 Q191.4,129.8594 191.9938,128.7656 Q192.6031,127.6719 193.65,127.0938 Q194.7125,126.5 195.9,126.5 Q196.6188,126.5 197.2438,126.75 Q197.8688,127 198.4,127.5 Z " fill="#000000"/><text fill="#000000" font-family="sans-serif" font-size="12" lengthAdjust="spacing" textLength="129" x="212.6" y="135.9102">WaitingRoomController</text><line style="stroke:#A80036;stroke-width:1.5;" x1="172.5" x2="353.5" y1="147" y2="147"/><line style="stroke:#A80036;stroke-width:1.5;" x1="172.5" x2="353.5" y1="155" y2="155"/><ellipse cx="182.5" cy="166" fill="#84BE84" rx="3" ry="3" style="stroke:#038048;stroke-width:1.0;"/><text fill="#000000" font-family="sans-serif" font-size="11" lengthAdjust="spacing" textLength="138" x="191.5" y="170.4189">getVaccinationCenterStore()</text><ellipse cx="182.5" cy="179.8359" fill="#84BE84" rx="3" ry="3" style="stroke:#038048;stroke-width:1.0;"/><text fill="#000000" font-family="sans-serif" font-size="11" lengthAdjust="spacing" textLength="157" x="191.5" y="184.2549">getVaccineAdministrationStore()</text><ellipse cx="182.5" cy="193.6719" fill="#84BE84" rx="3" ry="3" style="stroke:#038048;stroke-width:1.0;"/><text fill="#000000" font-family="sans-serif" font-size="11" lengthAdjust="spacing" textLength="72" x="191.5" y="198.0908">getUserStore()</text><ellipse cx="182.5" cy="207.5078" fill="#84BE84" rx="3" ry="3" style="stroke:#038048;stroke-width:1.0;"/><text fill="#000000" font-family="sans-serif" font-size="11" lengthAdjust="spacing" textLength="153" x="191.5" y="211.9268">registerVaccineAdministration()</text><ellipse cx="182.5" cy="221.3438" fill="#84BE84" rx="3" ry="3" style="stroke:#038048;stroke-width:1.0;"/><text fill="#000000" font-family="sans-serif" font-size="11" lengthAdjust="spacing" textLength="140" x="191.5" y="225.7627">saveVaccineAdministration()</text><!--MD5=[02e4b9b7573f1156f41e60aa5b4e25a4]
class Company--><rect codeLine="13" fill="#FEFECE" filter="url(#f1t4lbxybed92q)" height="117.1797" id="Company" style="stroke:#A80036;stroke-width:1.5;" width="190" x="218" y="292"/><ellipse cx="282.25" cy="308" fill="#ADD1B2" rx="11" ry="11" style="stroke:#A80036;stroke-width:1.0;"/><path d="M284.25,304.5 Q284.4531,304 284.6875,303.75 Q284.9219,303.5 285.1875,303.5 Q285.6563,303.5 285.9531,303.7813 Q286.25,304.0625 286.25,304.7188 L286.25,306.2813 Q286.25,306.9375 285.9688,307.2188 Q285.6875,307.5 285.25,307.5 Q284.8594,307.5 284.6094,307.3281 Q284.3594,307.1563 284.25,306.7031 Q284.2031,306.3906 284.0313,306.2188 Q283.7188,305.8906 283.1563,305.7031 Q282.5938,305.5 282.0313,305.5 Q281.3281,305.5 280.7344,305.7813 Q280.1563,306.0625 279.7031,306.6875 Q279.25,307.3125 279.25,308.1719 L279.25,309.0938 Q279.25,310.125 280.0938,310.8125 Q280.9375,311.5 282.4375,311.5 Q283.3281,311.5 283.9531,311.2969 Q284.3125,311.1875 284.7188,310.8281 Q284.9844,310.625 285.125,310.5625 Q285.2656,310.5 285.4375,310.5 Q285.7656,310.5 286,310.7656 Q286.25,311.0156 286.25,311.375 Q286.25,311.7188 285.9063,312.125 Q285.4063,312.7188 284.6094,313.0469 Q283.5625,313.5 282.2813,313.5 Q280.7813,313.5 279.5781,312.9063 Q278.6094,312.4375 277.9219,311.4219 Q277.25,310.4063 277.25,309.2031 L277.25,308.1094 Q277.25,306.8594 277.8438,305.7656 Q278.4531,304.6719 279.5,304.0938 Q280.5625,303.5 281.75,303.5 Q282.4688,303.5 283.0938,303.75 Q283.7188,304 284.25,304.5 Z " fill="#000000"/><text fill="#000000" font-family="sans-serif" font-size="12" lengthAdjust="spacing" textLength="53" x="302.75" y="312.9102">Company</text><line style="stroke:#A80036;stroke-width:1.5;" x1="219" x2="407" y1="324" y2="324"/><rect fill="none" height="6" style="stroke:#C82930;stroke-width:1.0;" width="6" x="226" y="332"/><text fill="#000000" font-family="sans-serif" font-size="11" lengthAdjust="spacing" textLength="55" x="238" y="339.4189">designation</text><line style="stroke:#A80036;stroke-width:1.5;" x1="219" x2="407" y1="345.8359" y2="345.8359"/><ellipse cx="229" cy="356.8359" fill="#84BE84" rx="3" ry="3" style="stroke:#038048;stroke-width:1.0;"/><text fill="#000000" font-family="sans-serif" font-size="11" lengthAdjust="spacing" textLength="145" x="238" y="361.2549">createVaccinationCenterList()</text><ellipse cx="229" cy="370.6719" fill="#84BE84" rx="3" ry="3" style="stroke:#038048;stroke-width:1.0;"/><text fill="#000000" font-family="sans-serif" font-size="11" lengthAdjust="spacing" textLength="164" x="238" y="375.0908">createVaccineAdministrationList()</text><ellipse cx="229" cy="384.5078" fill="#84BE84" rx="3" ry="3" style="stroke:#038048;stroke-width:1.0;"/><text fill="#000000" font-family="sans-serif" font-size="11" lengthAdjust="spacing" textLength="85" x="238" y="388.9268">getSystemTimer()</text><ellipse cx="229" cy="398.3438" fill="#84BE84" rx="3" ry="3" style="stroke:#038048;stroke-width:1.0;"/><text fill="#000000" font-family="sans-serif" font-size="11" lengthAdjust="spacing" textLength="107" x="238" y="402.7627">sendSMSNotification()</text><!--MD5=[a29876ea2f21a6ca48ea477740122fd8]
class VaccinationCenterStore--><rect codeLine="20" fill="#FEFECE" filter="url(#f1t4lbxybed92q)" height="103.3438" id="VaccinationCenterStore" style="stroke:#A80036;stroke-width:1.5;" width="247" x="595.5" y="469"/><ellipse cx="650.25" cy="485" fill="#ADD1B2" rx="11" ry="11" style="stroke:#A80036;stroke-width:1.0;"/><path d="M652.25,481.5 Q652.4531,481 652.6875,480.75 Q652.9219,480.5 653.1875,480.5 Q653.6563,480.5 653.9531,480.7813 Q654.25,481.0625 654.25,481.7188 L654.25,483.2813 Q654.25,483.9375 653.9688,484.2188 Q653.6875,484.5 653.25,484.5 Q652.8594,484.5 652.6094,484.3281 Q652.3594,484.1563 652.25,483.7031 Q652.2031,483.3906 652.0313,483.2188 Q651.7188,482.8906 651.1563,482.7031 Q650.5938,482.5 650.0313,482.5 Q649.3281,482.5 648.7344,482.7813 Q648.1563,483.0625 647.7031,483.6875 Q647.25,484.3125 647.25,485.1719 L647.25,486.0938 Q647.25,487.125 648.0938,487.8125 Q648.9375,488.5 650.4375,488.5 Q651.3281,488.5 651.9531,488.2969 Q652.3125,488.1875 652.7188,487.8281 Q652.9844,487.625 653.125,487.5625 Q653.2656,487.5 653.4375,487.5 Q653.7656,487.5 654,487.7656 Q654.25,488.0156 654.25,488.375 Q654.25,488.7188 653.9063,489.125 Q653.4063,489.7188 652.6094,490.0469 Q651.5625,490.5 650.2813,490.5 Q648.7813,490.5 647.5781,489.9063 Q646.6094,489.4375 645.9219,488.4219 Q645.25,487.4063 645.25,486.2031 L645.25,485.1094 Q645.25,483.8594 645.8438,482.7656 Q646.4531,481.6719 647.5,481.0938 Q648.5625,480.5 649.75,480.5 Q650.4688,480.5 651.0938,480.75 Q651.7188,481 652.25,481.5 Z " fill="#000000"/><text fill="#000000" font-family="sans-serif" font-size="12" lengthAdjust="spacing" textLength="129" x="670.75" y="489.9102">VaccinationCenterStore</text><line style="stroke:#A80036;stroke-width:1.5;" x1="596.5" x2="841.5" y1="501" y2="501"/><line style="stroke:#A80036;stroke-width:1.5;" x1="596.5" x2="841.5" y1="509" y2="509"/><ellipse cx="606.5" cy="520" fill="#84BE84" rx="3" ry="3" style="stroke:#038048;stroke-width:1.0;"/><text fill="#000000" font-family="sans-serif" font-size="11" lengthAdjust="spacing" textLength="173" x="615.5" y="524.4189">checkVaccinationCenterExistence()</text><ellipse cx="606.5" cy="533.8359" fill="#84BE84" rx="3" ry="3" style="stroke:#038048;stroke-width:1.0;"/><text fill="#000000" font-family="sans-serif" font-size="11" lengthAdjust="spacing" textLength="208" x="615.5" y="538.2549">saveVaccinationCenter(vaccinationCenter)</text><ellipse cx="606.5" cy="547.6719" fill="#84BE84" rx="3" ry="3" style="stroke:#038048;stroke-width:1.0;"/><text fill="#000000" font-family="sans-serif" font-size="11" lengthAdjust="spacing" textLength="221" x="615.5" y="552.0908">validateVaccinationCenter(vaccinationCenter)</text><ellipse cx="606.5" cy="561.5078" fill="#84BE84" rx="3" ry="3" style="stroke:#038048;stroke-width:1.0;"/><text fill="#000000" font-family="sans-serif" font-size="11" lengthAdjust="spacing" textLength="202" x="615.5" y="565.9268">addVaccinationCenter(vaccinationCenter)</text><!--MD5=[fb43f7235ba9448616c2a666b7a84cc8]
class VaccinationCenterList--><rect codeLine="26" fill="#FEFECE" filter="url(#f1t4lbxybed92q)" height="48" id="VaccinationCenterList" style="stroke:#A80036;stroke-width:1.5;" width="152" x="216" y="496.5"/><ellipse cx="231" cy="512.5" fill="#ADD1B2" rx="11" ry="11" style="stroke:#A80036;stroke-width:1.0;"/><path d="M233,509 Q233.2031,508.5 233.4375,508.25 Q233.6719,508 233.9375,508 Q234.4063,508 234.7031,508.2813 Q235,508.5625 235,509.2188 L235,510.7813 Q235,511.4375 234.7188,511.7188 Q234.4375,512 234,512 Q233.6094,512 233.3594,511.8281 Q233.1094,511.6563 233,511.2031 Q232.9531,510.8906 232.7813,510.7188 Q232.4688,510.3906 231.9063,510.2031 Q231.3438,510 230.7813,510 Q230.0781,510 229.4844,510.2813 Q228.9063,510.5625 228.4531,511.1875 Q228,511.8125 228,512.6719 L228,513.5938 Q228,514.625 228.8438,515.3125 Q229.6875,516 231.1875,516 Q232.0781,516 232.7031,515.7969 Q233.0625,515.6875 233.4688,515.3281 Q233.7344,515.125 233.875,515.0625 Q234.0156,515 234.1875,515 Q234.5156,515 234.75,515.2656 Q235,515.5156 235,515.875 Q235,516.2188 234.6563,516.625 Q234.1563,517.2188 233.3594,517.5469 Q232.3125,518 231.0313,518 Q229.5313,518 228.3281,517.4063 Q227.3594,516.9375 226.6719,515.9219 Q226,514.9063 226,513.7031 L226,512.6094 Q226,511.3594 226.5938,510.2656 Q227.2031,509.1719 228.25,508.5938 Q229.3125,508 230.5,508 Q231.2188,508 231.8438,508.25 Q232.4688,508.5 233,509 Z " fill="#000000"/><text fill="#000000" font-family="sans-serif" font-size="12" lengthAdjust="spacing" textLength="120" x="245" y="517.4102">VaccinationCenterList</text><line style="stroke:#A80036;stroke-width:1.5;" x1="217" x2="367" y1="528.5" y2="528.5"/><line style="stroke:#A80036;stroke-width:1.5;" x1="217" x2="367" y1="536.5" y2="536.5"/><!--MD5=[5ddb3901a3b177819463bfb72cbada42]
class VaccineAdministrationStore--><rect codeLine="29" fill="#FEFECE" filter="url(#f1t4lbxybed92q)" height="117.1797" id="VaccineAdministrationStore" style="stroke:#A80036;stroke-width:1.5;" width="285" x="389.5" y="115"/><ellipse cx="452.25" cy="131" fill="#ADD1B2" rx="11" ry="11" style="stroke:#A80036;stroke-width:1.0;"/><path d="M454.25,127.5 Q454.4531,127 454.6875,126.75 Q454.9219,126.5 455.1875,126.5 Q455.6563,126.5 455.9531,126.7813 Q456.25,127.0625 456.25,127.7188 L456.25,129.2813 Q456.25,129.9375 455.9688,130.2188 Q455.6875,130.5 455.25,130.5 Q454.8594,130.5 454.6094,130.3281 Q454.3594,130.1563 454.25,129.7031 Q454.2031,129.3906 454.0313,129.2188 Q453.7188,128.8906 453.1563,128.7031 Q452.5938,128.5 452.0313,128.5 Q451.3281,128.5 450.7344,128.7813 Q450.1563,129.0625 449.7031,129.6875 Q449.25,130.3125 449.25,131.1719 L449.25,132.0938 Q449.25,133.125 450.0938,133.8125 Q450.9375,134.5 452.4375,134.5 Q453.3281,134.5 453.9531,134.2969 Q454.3125,134.1875 454.7188,133.8281 Q454.9844,133.625 455.125,133.5625 Q455.2656,133.5 455.4375,133.5 Q455.7656,133.5 456,133.7656 Q456.25,134.0156 456.25,134.375 Q456.25,134.7188 455.9063,135.125 Q455.4063,135.7188 454.6094,136.0469 Q453.5625,136.5 452.2813,136.5 Q450.7813,136.5 449.5781,135.9063 Q448.6094,135.4375 447.9219,134.4219 Q447.25,133.4063 447.25,132.2031 L447.25,131.1094 Q447.25,129.8594 447.8438,128.7656 Q448.4531,127.6719 449.5,127.0938 Q450.5625,126.5 451.75,126.5 Q452.4688,126.5 453.0938,126.75 Q453.7188,127 454.25,127.5 Z " fill="#000000"/><text fill="#000000" font-family="sans-serif" font-size="12" lengthAdjust="spacing" textLength="151" x="472.75" y="135.9102">VaccineAdministrationStore</text><line style="stroke:#A80036;stroke-width:1.5;" x1="390.5" x2="673.5" y1="147" y2="147"/><line style="stroke:#A80036;stroke-width:1.5;" x1="390.5" x2="673.5" y1="155" y2="155"/><ellipse cx="400.5" cy="166" fill="#84BE84" rx="3" ry="3" style="stroke:#038048;stroke-width:1.0;"/><text fill="#000000" font-family="sans-serif" font-size="11" lengthAdjust="spacing" textLength="148" x="409.5" y="170.4189">isInWaitingRoom(waitingRoom)</text><ellipse cx="400.5" cy="179.8359" fill="#84BE84" rx="3" ry="3" style="stroke:#038048;stroke-width:1.0;"/><text fill="#000000" font-family="sans-serif" font-size="11" lengthAdjust="spacing" textLength="192" x="409.5" y="184.2549">checkVaccineAdministrationExistence()</text><ellipse cx="400.5" cy="193.6719" fill="#84BE84" rx="3" ry="3" style="stroke:#038048;stroke-width:1.0;"/><text fill="#000000" font-family="sans-serif" font-size="11" lengthAdjust="spacing" textLength="246" x="409.5" y="198.0908">saveVaccineAdministration(vaccineAdministration)</text><ellipse cx="400.5" cy="207.5078" fill="#84BE84" rx="3" ry="3" style="stroke:#038048;stroke-width:1.0;"/><text fill="#000000" font-family="sans-serif" font-size="11" lengthAdjust="spacing" textLength="259" x="409.5" y="211.9268">validateVaccineAdministration(vaccineAdministration)</text><ellipse cx="400.5" cy="221.3438" fill="#84BE84" rx="3" ry="3" style="stroke:#038048;stroke-width:1.0;"/><text fill="#000000" font-family="sans-serif" font-size="11" lengthAdjust="spacing" textLength="240" x="409.5" y="225.7627">addVaccineAdministration(vaccineAdministration)</text><!--MD5=[88abd14ffd0b0d78a5674339a98bc588]
class VaccineAdministrationList--><rect codeLine="36" fill="#FEFECE" filter="url(#f1t4lbxybed92q)" height="48" id="VaccineAdministrationList" style="stroke:#A80036;stroke-width:1.5;" width="174" x="7" y="496.5"/><ellipse cx="22" cy="512.5" fill="#ADD1B2" rx="11" ry="11" style="stroke:#A80036;stroke-width:1.0;"/><path d="M24,509 Q24.2031,508.5 24.4375,508.25 Q24.6719,508 24.9375,508 Q25.4063,508 25.7031,508.2813 Q26,508.5625 26,509.2188 L26,510.7813 Q26,511.4375 25.7188,511.7188 Q25.4375,512 25,512 Q24.6094,512 24.3594,511.8281 Q24.1094,511.6563 24,511.2031 Q23.9531,510.8906 23.7813,510.7188 Q23.4688,510.3906 22.9063,510.2031 Q22.3438,510 21.7813,510 Q21.0781,510 20.4844,510.2813 Q19.9063,510.5625 19.4531,511.1875 Q19,511.8125 19,512.6719 L19,513.5938 Q19,514.625 19.8438,515.3125 Q20.6875,516 22.1875,516 Q23.0781,516 23.7031,515.7969 Q24.0625,515.6875 24.4688,515.3281 Q24.7344,515.125 24.875,515.0625 Q25.0156,515 25.1875,515 Q25.5156,515 25.75,515.2656 Q26,515.5156 26,515.875 Q26,516.2188 25.6563,516.625 Q25.1563,517.2188 24.3594,517.5469 Q23.3125,518 22.0313,518 Q20.5313,518 19.3281,517.4063 Q18.3594,516.9375 17.6719,515.9219 Q17,514.9063 17,513.7031 L17,512.6094 Q17,511.3594 17.5938,510.2656 Q18.2031,509.1719 19.25,508.5938 Q20.3125,508 21.5,508 Q22.2188,508 22.8438,508.25 Q23.4688,508.5 24,509 Z " fill="#000000"/><text fill="#000000" font-family="sans-serif" font-size="12" lengthAdjust="spacing" textLength="142" x="36" y="517.4102">VaccineAdministrationList</text><line style="stroke:#A80036;stroke-width:1.5;" x1="8" x2="180" y1="528.5" y2="528.5"/><line style="stroke:#A80036;stroke-width:1.5;" x1="8" x2="180" y1="536.5" y2="536.5"/><!--MD5=[93af8b4494db78ec46e98fad8955a5aa]
class UserStore--><rect codeLine="38" fill="#FEFECE" filter="url(#f1t4lbxybed92q)" height="103.3438" id="UserStore" style="stroke:#A80036;stroke-width:1.5;" width="157" x="403.5" y="469"/><ellipse cx="449.75" cy="485" fill="#ADD1B2" rx="11" ry="11" style="stroke:#A80036;stroke-width:1.0;"/><path d="M451.75,481.5 Q451.9531,481 452.1875,480.75 Q452.4219,480.5 452.6875,480.5 Q453.1563,480.5 453.4531,480.7813 Q453.75,481.0625 453.75,481.7188 L453.75,483.2813 Q453.75,483.9375 453.4688,484.2188 Q453.1875,484.5 452.75,484.5 Q452.3594,484.5 452.1094,484.3281 Q451.8594,484.1563 451.75,483.7031 Q451.7031,483.3906 451.5313,483.2188 Q451.2188,482.8906 450.6563,482.7031 Q450.0938,482.5 449.5313,482.5 Q448.8281,482.5 448.2344,482.7813 Q447.6563,483.0625 447.2031,483.6875 Q446.75,484.3125 446.75,485.1719 L446.75,486.0938 Q446.75,487.125 447.5938,487.8125 Q448.4375,488.5 449.9375,488.5 Q450.8281,488.5 451.4531,488.2969 Q451.8125,488.1875 452.2188,487.8281 Q452.4844,487.625 452.625,487.5625 Q452.7656,487.5 452.9375,487.5 Q453.2656,487.5 453.5,487.7656 Q453.75,488.0156 453.75,488.375 Q453.75,488.7188 453.4063,489.125 Q452.9063,489.7188 452.1094,490.0469 Q451.0625,490.5 449.7813,490.5 Q448.2813,490.5 447.0781,489.9063 Q446.1094,489.4375 445.4219,488.4219 Q444.75,487.4063 444.75,486.2031 L444.75,485.1094 Q444.75,483.8594 445.3438,482.7656 Q445.9531,481.6719 447,481.0938 Q448.0625,480.5 449.25,480.5 Q449.9688,480.5 450.5938,480.75 Q451.2188,481 451.75,481.5 Z " fill="#000000"/><text fill="#000000" font-family="sans-serif" font-size="12" lengthAdjust="spacing" textLength="56" x="470.25" y="489.9102">UserStore</text><line style="stroke:#A80036;stroke-width:1.5;" x1="404.5" x2="559.5" y1="501" y2="501"/><line style="stroke:#A80036;stroke-width:1.5;" x1="404.5" x2="559.5" y1="509" y2="509"/><ellipse cx="414.5" cy="520" fill="#84BE84" rx="3" ry="3" style="stroke:#038048;stroke-width:1.0;"/><text fill="#000000" font-family="sans-serif" font-size="11" lengthAdjust="spacing" textLength="107" x="423.5" y="524.4189">checkUserExistence()</text><ellipse cx="414.5" cy="533.8359" fill="#84BE84" rx="3" ry="3" style="stroke:#038048;stroke-width:1.0;"/><text fill="#000000" font-family="sans-serif" font-size="11" lengthAdjust="spacing" textLength="118" x="423.5" y="538.2549">saveSnsUser(SNSUser)</text><ellipse cx="414.5" cy="547.6719" fill="#84BE84" rx="3" ry="3" style="stroke:#038048;stroke-width:1.0;"/><text fill="#000000" font-family="sans-serif" font-size="11" lengthAdjust="spacing" textLength="131" x="423.5" y="552.0908">validateSnsUser(SNSUser)</text><ellipse cx="414.5" cy="561.5078" fill="#84BE84" rx="3" ry="3" style="stroke:#038048;stroke-width:1.0;"/><text fill="#000000" font-family="sans-serif" font-size="11" lengthAdjust="spacing" textLength="112" x="423.5" y="565.9268">addSnsUser(SNSUser)</text><!--MD5=[8fb4cf35dccb63f417b3b4d6bc63e6fb]
link WaitingRoomUI to WaitingRoomController--><path codeLine="45" d="M263,55.2 C263,70.09 263,90.2 263,109.56 " fill="none" id="WaitingRoomUI-to-WaitingRoomController" style="stroke:#A80036;stroke-width:1.0;stroke-dasharray:7.0,7.0;"/><polygon fill="#A80036" points="263,115,267,106,263,110,259,106,263,115" style="stroke:#A80036;stroke-width:1.0;"/><!--MD5=[00048e66bd1eb75c6fecd6b3aa644c51]
link WaitingRoomController to Company--><path codeLine="46" d="M279.51,232.29 C284.5,249.76 290.01,269.03 295.09,286.8 " fill="none" id="WaitingRoomController-to-Company" style="stroke:#A80036;stroke-width:1.0;stroke-dasharray:7.0,7.0;"/><polygon fill="#A80036" points="296.51,291.77,297.8913,282.0185,295.1402,286.9613,290.1973,284.2102,296.51,291.77" style="stroke:#A80036;stroke-width:1.0;"/><!--MD5=[bc0d5b4bfe6e1bf0a8fced13bc4bdd47]
link Company to VaccinationCenterStore--><path codeLine="47" d="M408.19,390.89 C463.01,413.57 532.61,442.37 592.05,466.97 " fill="none" id="Company-to-VaccinationCenterStore" style="stroke:#A80036;stroke-width:1.0;stroke-dasharray:7.0,7.0;"/><polygon fill="#A80036" points="596.67,468.88,589.882,461.744,592.0496,466.9691,586.8245,469.1367,596.67,468.88" style="stroke:#A80036;stroke-width:1.0;"/><!--MD5=[e445544c1ccac14f86f08bf54f9f49a0]
link Company to VaccinationCenterList--><path codeLine="48" d="M305.77,409.32 C302.32,436.91 298.35,468.69 295.56,491 " fill="none" id="Company-to-VaccinationCenterList" style="stroke:#A80036;stroke-width:1.0;stroke-dasharray:7.0,7.0;"/><polygon fill="#A80036" points="294.91,496.18,300.0104,487.7547,295.539,491.2197,292.0739,486.7483,294.91,496.18" style="stroke:#A80036;stroke-width:1.0;"/><!--MD5=[102f1b3c68b20fc6574790ee0d106773]
link Company to UserStore--><path codeLine="49" d="M371.16,409.32 C389.42,427.47 409.5,447.43 427.5,465.32 " fill="none" id="Company-to-UserStore" style="stroke:#A80036;stroke-width:1.0;stroke-dasharray:7.0,7.0;"/><polygon fill="#A80036" points="431.07,468.87,427.5159,459.6848,427.5273,465.3416,421.8705,465.353,431.07,468.87" style="stroke:#A80036;stroke-width:1.0;"/><!--MD5=[b564b4ec99d46e5906cf73822b21ffba]
link Company to VaccineAdministrationList--><path codeLine="50" d="M237.94,409.08 C200.76,437.6 157.69,470.64 128.42,493.09 " fill="none" id="Company-to-VaccineAdministrationList" style="stroke:#A80036;stroke-width:1.0;stroke-dasharray:7.0,7.0;"/><polygon fill="#A80036" points="124.21,496.33,133.7829,494.0148,128.1737,493.2821,128.9063,487.6729,124.21,496.33" style="stroke:#A80036;stroke-width:1.0;"/><!--MD5=[2bd2abcd900126ecb72c83d3014f995c]
link VaccineAdministrationStore to UserStore--><path codeLine="51" d="M523.63,232.25 C514.3,296.61 499.32,400 490.1,463.61 " fill="none" id="VaccineAdministrationStore-to-UserStore" style="stroke:#A80036;stroke-width:1.0;stroke-dasharray:7.0,7.0;"/><polygon fill="#A80036" points="489.34,468.88,494.5827,460.5425,490.0531,463.9311,486.6645,459.4015,489.34,468.88" style="stroke:#A80036;stroke-width:1.0;"/><!--MD5=[9c394d52fb9d0995e6d484cc139686c4]
reverse link VaccineAdministrationStore to Company--><path codeLine="52" d="M456.02,235.22 C433,253.61 407.8,273.74 385.06,291.92 " fill="none" id="VaccineAdministrationStore-backto-Company" style="stroke:#A80036;stroke-width:1.0;stroke-dasharray:7.0,7.0;"/><polygon fill="#A80036" points="459.99,232.04,450.4612,234.5303,456.0829,235.16,455.4531,240.7817,459.99,232.04" style="stroke:#A80036;stroke-width:1.0;"/><!--MD5=[ea3f658cabe8b7d341c2cd1ea824f045]
link VaccineAdministrationStore to VaccinationCenterStore--><path codeLine="53" d="M563.3,232.25 C598.33,296.87 654.68,400.83 689.12,464.37 " fill="none" id="VaccineAdministrationStore-to-VaccinationCenterStore" style="stroke:#A80036;stroke-width:1.0;stroke-dasharray:7.0,7.0;"/><polygon fill="#A80036" points="691.56,468.88,690.8112,459.0596,689.1878,464.4786,683.7689,462.8552,691.56,468.88" style="stroke:#A80036;stroke-width:1.0;"/><!--MD5=[b091d7d1b91204c8dca70f1ca14c4632]
@startuml
'https://plantuml.com/class-diagram

class WaitingRoomUI

class WaitingRoomController{
    +getVaccinationCenterStore()
    +getVaccineAdministrationStore()
    +getUserStore()
    +registerVaccineAdministration()
    +saveVaccineAdministration()
}

class Company{
    -designation
    +createVaccinationCenterList()
    +createVaccineAdministrationList()
    +getSystemTimer()
    +sendSMSNotification()
}
class VaccinationCenterStore{
    +checkVaccinationCenterExistence()
    +saveVaccinationCenter(vaccinationCenter)
    +validateVaccinationCenter(vaccinationCenter)
    +addVaccinationCenter(vaccinationCenter)
}
class VaccinationCenterList{
}

class VaccineAdministrationStore{
    +isInWaitingRoom(waitingRoom)
    +checkVaccineAdministrationExistence()
    +saveVaccineAdministration(vaccineAdministration)
    +validateVaccineAdministration(vaccineAdministration)
    +addVaccineAdministration(vaccineAdministration)
}
class VaccineAdministrationList

class UserStore{
+ checkUserExistence()
+ saveSnsUser(SNSUser)
+ validateSnsUser(SNSUser)
+ addSnsUser(SNSUser)
}

WaitingRoomUI ..> WaitingRoomController
WaitingRoomController ..> Company
Company ..> VaccinationCenterStore
Company ..> VaccinationCenterList
Company ..> UserStore
Company ..> VaccineAdministrationList
VaccineAdministrationStore ..> UserStore
VaccineAdministrationStore <.. Company
VaccineAdministrationStore ..> VaccinationCenterStore

@enduml

@startuml

class WaitingRoomUI

class WaitingRoomController{
    +getVaccinationCenterStore()
    +getVaccineAdministrationStore()
    +getUserStore()
    +registerVaccineAdministration()
    +saveVaccineAdministration()
}

class Company{
    -designation
    +createVaccinationCenterList()
    +createVaccineAdministrationList()
    +getSystemTimer()
    +sendSMSNotification()
}
class VaccinationCenterStore{
    +checkVaccinationCenterExistence()
    +saveVaccinationCenter(vaccinationCenter)
    +validateVaccinationCenter(vaccinationCenter)
    +addVaccinationCenter(vaccinationCenter)
}
class VaccinationCenterList{
}

class VaccineAdministrationStore{
    +isInWaitingRoom(waitingRoom)
    +checkVaccineAdministrationExistence()
    +saveVaccineAdministration(vaccineAdministration)
    +validateVaccineAdministration(vaccineAdministration)
    +addVaccineAdministration(vaccineAdministration)
}
class VaccineAdministrationList

class UserStore{
+ checkUserExistence()
+ saveSnsUser(SNSUser)
+ validateSnsUser(SNSUser)
+ addSnsUser(SNSUser)
}

WaitingRoomUI ..> WaitingRoomController
WaitingRoomController ..> Company
Company ..> VaccinationCenterStore
Company ..> VaccinationCenterList
Company ..> UserStore
Company ..> VaccineAdministrationList
VaccineAdministrationStore ..> UserStore
VaccineAdministrationStore <.. Company
VaccineAdministrationStore ..> VaccinationCenterStore

@enduml

PlantUML version 1.2022.1(Tue Feb 01 18:19:58 GMT 2022)
(GPL source distribution)
Java Runtime: OpenJDK Runtime Environment
JVM: OpenJDK 64-Bit Server VM
Default Encoding: Cp1252
Language: pt
Country: PT
--></g></svg>