<?xml version="1.0" encoding="UTF-8" standalone="no"?><svg xmlns="http://www.w3.org/2000/svg" xmlns:xlink="http://www.w3.org/1999/xlink" contentScriptType="application/ecmascript" contentStyleType="text/css" height="498px" preserveAspectRatio="none" style="width:763px;height:498px;background:#FFFFFF;" version="1.1" viewBox="0 0 763 498" width="763px" zoomAndPan="magnify"><defs><filter height="300%" id="f1raydmz6mv6zi" width="300%" x="-1" y="-1"><feGaussianBlur result="blurOut" stdDeviation="2.0"/><feColorMatrix in="blurOut" result="blurOut2" type="matrix" values="0 0 0 0 0 0 0 0 0 0 0 0 0 0 0 0 0 0 .4 0"/><feOffset dx="4.0" dy="4.0" in="blurOut2" result="blurOut3"/><feBlend in="SourceGraphic" in2="blurOut3" mode="normal"/></filter></defs><g><rect fill="#FFFFFF" filter="url(#f1raydmz6mv6zi)" height="295.5156" style="stroke:#A80036;stroke-width:1.0;" width="10" x="21.5" y="99.6094"/><rect fill="#FFFFFF" filter="url(#f1raydmz6mv6zi)" height="30.3516" style="stroke:#A80036;stroke-width:1.0;" width="10" x="716.5" y="121.9609"/><rect fill="#FFFFFF" filter="url(#f1raydmz6mv6zi)" height="30.3516" style="stroke:#A80036;stroke-width:1.0;" width="10" x="716.5" y="182.6641"/><rect fill="#FFFFFF" filter="url(#f1raydmz6mv6zi)" height="30.3516" style="stroke:#A80036;stroke-width:1.0;" width="10" x="716.5" y="243.3672"/><rect fill="#FFFFFF" filter="url(#f1raydmz6mv6zi)" height="30.3516" style="stroke:#A80036;stroke-width:1.0;" width="10" x="716.5" y="304.0703"/><rect fill="#FFFFFF" filter="url(#f1raydmz6mv6zi)" height="30.3516" style="stroke:#A80036;stroke-width:1.0;" width="10" x="716.5" y="364.7734"/><line style="stroke:#A80036;stroke-width:1.0;stroke-dasharray:5.0,5.0;" x1="26" x2="26" y1="89.6094" y2="413.125"/><line style="stroke:#A80036;stroke-width:1.0;stroke-dasharray:5.0,5.0;" x1="721.5" x2="721.5" y1="89.6094" y2="413.125"/><text fill="#000000" font-family="sans-serif" font-size="14" lengthAdjust="spacing" textLength="37" x="5" y="86.5332">Nurse</text><ellipse cx="26.5" cy="15" fill="#FEFECE" filter="url(#f1raydmz6mv6zi)" rx="8" ry="8" style="stroke:#A80036;stroke-width:2.0;"/><path d="M26.5,23 L26.5,50 M13.5,31 L39.5,31 M26.5,50 L13.5,65 M26.5,50 L39.5,65 " fill="none" filter="url(#f1raydmz6mv6zi)" style="stroke:#A80036;stroke-width:2.0;"/><text fill="#000000" font-family="sans-serif" font-size="14" lengthAdjust="spacing" textLength="37" x="5" y="426.6582">Nurse</text><ellipse cx="26.5" cy="439.7344" fill="#FEFECE" filter="url(#f1raydmz6mv6zi)" rx="8" ry="8" style="stroke:#A80036;stroke-width:2.0;"/><path d="M26.5,447.7344 L26.5,474.7344 M13.5,455.7344 L39.5,455.7344 M26.5,474.7344 L13.5,489.7344 M26.5,474.7344 L39.5,489.7344 " fill="none" filter="url(#f1raydmz6mv6zi)" style="stroke:#A80036;stroke-width:2.0;"/><rect fill="#FEFECE" filter="url(#f1raydmz6mv6zi)" height="31.6094" style="stroke:#A80036;stroke-width:1.5;" width="60" x="689.5" y="53"/><text fill="#000000" font-family="sans-serif" font-size="14" lengthAdjust="spacing" textLength="46" x="696.5" y="74.5332">System</text><rect fill="#FEFECE" filter="url(#f1raydmz6mv6zi)" height="31.6094" style="stroke:#A80036;stroke-width:1.5;" width="60" x="689.5" y="412.125"/><text fill="#000000" font-family="sans-serif" font-size="14" lengthAdjust="spacing" textLength="46" x="696.5" y="433.6582">System</text><rect fill="#FFFFFF" filter="url(#f1raydmz6mv6zi)" height="295.5156" style="stroke:#A80036;stroke-width:1.0;" width="10" x="21.5" y="99.6094"/><rect fill="#FFFFFF" filter="url(#f1raydmz6mv6zi)" height="30.3516" style="stroke:#A80036;stroke-width:1.0;" width="10" x="716.5" y="121.9609"/><rect fill="#FFFFFF" filter="url(#f1raydmz6mv6zi)" height="30.3516" style="stroke:#A80036;stroke-width:1.0;" width="10" x="716.5" y="182.6641"/><rect fill="#FFFFFF" filter="url(#f1raydmz6mv6zi)" height="30.3516" style="stroke:#A80036;stroke-width:1.0;" width="10" x="716.5" y="243.3672"/><rect fill="#FFFFFF" filter="url(#f1raydmz6mv6zi)" height="30.3516" style="stroke:#A80036;stroke-width:1.0;" width="10" x="716.5" y="304.0703"/><rect fill="#FFFFFF" filter="url(#f1raydmz6mv6zi)" height="30.3516" style="stroke:#A80036;stroke-width:1.0;" width="10" x="716.5" y="364.7734"/><polygon fill="#A80036" points="704.5,117.9609,714.5,121.9609,704.5,125.9609,708.5,121.9609" style="stroke:#A80036;stroke-width:1.0;"/><line style="stroke:#A80036;stroke-width:1.0;" x1="31.5" x2="710.5" y1="121.9609" y2="121.9609"/><text fill="#000000" font-family="sans-serif" font-size="13" font-weight="bold" lengthAdjust="spacing" textLength="7" x="38.5" y="117.1045">1</text><text fill="#000000" font-family="sans-serif" font-size="13" lengthAdjust="spacing" textLength="144" x="49.5" y="117.1045">asks for waiting room list</text><polygon fill="#A80036" points="42.5,148.3125,32.5,152.3125,42.5,156.3125,38.5,152.3125" style="stroke:#A80036;stroke-width:1.0;"/><line style="stroke:#A80036;stroke-width:1.0;stroke-dasharray:2.0,2.0;" x1="36.5" x2="720.5" y1="152.3125" y2="152.3125"/><text fill="#000000" font-family="sans-serif" font-size="13" font-weight="bold" lengthAdjust="spacing" textLength="7" x="48.5" y="147.4561">2</text><text fill="#000000" font-family="sans-serif" font-size="13" lengthAdjust="spacing" textLength="189" x="59.5" y="147.4561">requests data(vaccinationCenter)</text><polygon fill="#A80036" points="704.5,178.6641,714.5,182.6641,704.5,186.6641,708.5,182.6641" style="stroke:#A80036;stroke-width:1.0;"/><line style="stroke:#A80036;stroke-width:1.0;" x1="31.5" x2="710.5" y1="182.6641" y2="182.6641"/><text fill="#000000" font-family="sans-serif" font-size="13" font-weight="bold" lengthAdjust="spacing" textLength="7" x="38.5" y="177.8076">3</text><text fill="#000000" font-family="sans-serif" font-size="13" lengthAdjust="spacing" textLength="122" x="49.5" y="177.8076">types requested data</text><polygon fill="#A80036" points="42.5,209.0156,32.5,213.0156,42.5,217.0156,38.5,213.0156" style="stroke:#A80036;stroke-width:1.0;"/><line style="stroke:#A80036;stroke-width:1.0;stroke-dasharray:2.0,2.0;" x1="36.5" x2="720.5" y1="213.0156" y2="213.0156"/><text fill="#000000" font-family="sans-serif" font-size="13" font-weight="bold" lengthAdjust="spacing" textLength="7" x="48.5" y="208.1592">4</text><text fill="#000000" font-family="sans-serif" font-size="13" lengthAdjust="spacing" textLength="461" x="59.5" y="208.1592">shows the list of users waiting to take the vaccine and requests user (SNSUser)</text><polygon fill="#A80036" points="704.5,239.3672,714.5,243.3672,704.5,247.3672,708.5,243.3672" style="stroke:#A80036;stroke-width:1.0;"/><line style="stroke:#A80036;stroke-width:1.0;" x1="31.5" x2="710.5" y1="243.3672" y2="243.3672"/><text fill="#000000" font-family="sans-serif" font-size="13" font-weight="bold" lengthAdjust="spacing" textLength="7" x="38.5" y="238.5107">5</text><text fill="#000000" font-family="sans-serif" font-size="13" lengthAdjust="spacing" textLength="121" x="49.5" y="238.5107">selects user from list</text><polygon fill="#A80036" points="42.5,269.7188,32.5,273.7188,42.5,277.7188,38.5,273.7188" style="stroke:#A80036;stroke-width:1.0;"/><line style="stroke:#A80036;stroke-width:1.0;stroke-dasharray:2.0,2.0;" x1="36.5" x2="720.5" y1="273.7188" y2="273.7188"/><text fill="#000000" font-family="sans-serif" font-size="13" font-weight="bold" lengthAdjust="spacing" textLength="7" x="48.5" y="268.8623">6</text><text fill="#000000" font-family="sans-serif" font-size="13" lengthAdjust="spacing" textLength="403" x="59.5" y="268.8623">asks for vaccine administration information (vaccineNumber, dose, lot)</text><polygon fill="#A80036" points="704.5,300.0703,714.5,304.0703,704.5,308.0703,708.5,304.0703" style="stroke:#A80036;stroke-width:1.0;"/><line style="stroke:#A80036;stroke-width:1.0;" x1="31.5" x2="710.5" y1="304.0703" y2="304.0703"/><text fill="#000000" font-family="sans-serif" font-size="13" font-weight="bold" lengthAdjust="spacing" textLength="7" x="38.5" y="299.2139">7</text><text fill="#000000" font-family="sans-serif" font-size="13" lengthAdjust="spacing" textLength="122" x="49.5" y="299.2139">types requested data</text><polygon fill="#A80036" points="42.5,330.4219,32.5,334.4219,42.5,338.4219,38.5,334.4219" style="stroke:#A80036;stroke-width:1.0;"/><line style="stroke:#A80036;stroke-width:1.0;stroke-dasharray:2.0,2.0;" x1="36.5" x2="720.5" y1="334.4219" y2="334.4219"/><text fill="#000000" font-family="sans-serif" font-size="13" font-weight="bold" lengthAdjust="spacing" textLength="7" x="48.5" y="329.5654">8</text><text fill="#000000" font-family="sans-serif" font-size="13" lengthAdjust="spacing" textLength="351" x="59.5" y="329.5654">shows vaccine administration data and requests confirmation</text><polygon fill="#A80036" points="704.5,360.7734,714.5,364.7734,704.5,368.7734,708.5,364.7734" style="stroke:#A80036;stroke-width:1.0;"/><line style="stroke:#A80036;stroke-width:1.0;" x1="31.5" x2="710.5" y1="364.7734" y2="364.7734"/><text fill="#000000" font-family="sans-serif" font-size="13" font-weight="bold" lengthAdjust="spacing" textLength="7" x="38.5" y="359.917">9</text><text fill="#000000" font-family="sans-serif" font-size="13" lengthAdjust="spacing" textLength="100" x="49.5" y="359.917">confirms the data</text><polygon fill="#A80036" points="37.5,391.125,27.5,395.125,37.5,399.125,33.5,395.125" style="stroke:#A80036;stroke-width:1.0;"/><line style="stroke:#A80036;stroke-width:1.0;stroke-dasharray:2.0,2.0;" x1="31.5" x2="720.5" y1="395.125" y2="395.125"/><text fill="#000000" font-family="sans-serif" font-size="13" font-weight="bold" lengthAdjust="spacing" textLength="14" x="43.5" y="390.2686">10</text><text fill="#000000" font-family="sans-serif" font-size="13" lengthAdjust="spacing" textLength="643" x="61.5" y="390.2686">informs of operation success and that an SMS message will be sent to the user after the recovery period is over</text><!--MD5=[ac041d5d7ab7b63ea5d995b64368ae0b]
@startuml
autonumber
actor "Nurse" as nurse
participant "System" as sys

activate nurse
nurse -> sys : asks for waiting room list
activate sys
sys - -> nurse : requests data(vaccinationCenter)
deactivate sys
nurse -> sys : types requested data
activate sys
sys - -> nurse : shows the list of users waiting to take the vaccine and requests user (SNSUser)
deactivate sys
nurse -> sys : selects user from list
activate sys
sys - -> nurse : asks for vaccine administration information (vaccineNumber, dose, lot)
deactivate sys
nurse -> sys : types requested data
activate sys
sys - -> nurse : shows vaccine administration data and requests confirmation
deactivate sys
nurse -> sys : confirms the data
activate sys
sys - -> nurse : informs of operation success and that an SMS message will be sent to the user after the recovery period is over
deactivate sys
deactivate nurse

@enduml

PlantUML version 1.2022.1(Tue Feb 01 18:19:58 GMT 2022)
(GPL source distribution)
Java Runtime: OpenJDK Runtime Environment
JVM: OpenJDK 64-Bit Server VM
Default Encoding: Cp1252
Language: pt
Country: PT
--></g></svg>